<svg width="175" height="7" viewBox="0 0 175 7" fill="none" xmlns="http://www.w3.org/2000/svg">
<line y1="-1" x2="1.90246" y2="-1" transform="matrix(0.691 -0.722854 -0.653777 -0.756687 2.75293 5.08765)" stroke="#FABA0B" stroke-width="2"/>
<line y1="-1" x2="1.90246" y2="-1" transform="matrix(0.691 -0.722854 -0.653777 -0.756687 0.0644531 3.30029)" stroke="#FABA0B" stroke-width="2"/>
<line y1="-1" x2="1.90246" y2="-1" transform="matrix(0.691 -0.722854 -0.653777 -0.756687 2.83105 1.38257)" stroke="#FABA0B" stroke-width="2"/>
<line y1="-1" x2="1.90246" y2="-1" transform="matrix(0.691 -0.722854 -0.653777 -0.756687 2.78809 3.38159)" stroke="#FABA0B" stroke-width="2"/>
<line x1="8" y1="2" x2="166" y2="2" stroke="#FABA0B" stroke-width="2"/>
<line y1="-1" x2="1.98876" y2="-1" transform="matrix(-0.70643 -0.707783 0.700439 -0.713712 171.524 5.23682)" stroke="#FABA0B" stroke-width="2"/>
<line y1="-1" x2="1.98876" y2="-1" transform="matrix(-0.70643 -0.707783 0.700439 -0.713712 174.486 3.51611)" stroke="#FABA0B" stroke-width="2"/>
<line y1="-1" x2="1.98876" y2="-1" transform="matrix(-0.70643 -0.707783 0.700439 -0.713712 171.511 1.53027)" stroke="#FABA0B" stroke-width="2"/>
<line y1="-1" x2="1.98876" y2="-1" transform="matrix(-0.70643 -0.707783 0.700439 -0.713712 171.518 3.53003)" stroke="#FABA0B" stroke-width="2"/>
<line x1="8" y1="5.5" x2="166" y2="5.5" stroke="#FABA0B"/>
</svg>
