<svg width="148" height="148" viewBox="0 0 148 148" fill="none" xmlns="http://www.w3.org/2000/svg">
<circle cx="74" cy="74" r="74" fill="#2C2B2B"/>
<g clip-path="url(#clip0_8271_909)">
<path d="M51.1019 67.8555C48.5252 67.8555 45.6489 68.8406 45.0461 72.0834C44.9819 72.4278 45.2118 72.5921 45.4337 72.6424L48.0746 72.9567C48.319 72.9444 48.4847 72.6805 48.532 72.4322C48.7573 71.3163 49.6823 70.7896 50.7154 70.7896C51.2731 70.7896 51.8995 70.9797 52.2296 71.4885C52.6082 72.0554 52.5812 72.8258 52.5812 73.48V73.8646C51.0117 74.0435 48.9455 74.152 47.4763 74.8084C45.7807 75.5565 44.5898 77.0783 44.5898 79.3158C44.5898 82.1829 46.3598 83.6141 48.639 83.6141C50.5633 83.6141 51.6269 83.1657 53.1107 81.6226C53.603 82.3495 53.7608 82.6793 54.6598 83.4397C54.7592 83.496 54.874 83.5196 54.9878 83.5071C55.1015 83.4947 55.2084 83.4468 55.293 83.3704V83.405C55.8338 82.9153 56.8174 82.0252 57.3705 81.5533C57.5914 81.3699 57.5429 81.068 57.3705 80.8198C56.8759 80.1243 56.3498 79.5629 56.3498 78.2692V73.9709C56.3498 72.1504 56.5053 70.472 55.1882 69.2185C54.1483 68.2043 52.4178 67.8555 51.1019 67.8555ZM86.5913 67.8555C84.0135 67.8555 81.1394 68.8406 80.5356 72.0834C80.4713 72.4278 80.7 72.5921 80.9231 72.6424L83.564 72.9567C83.8085 72.9444 83.9752 72.6805 84.0214 72.4322C84.2479 71.3163 85.1717 70.7896 86.2049 70.7896C86.7637 70.7896 87.389 70.9797 87.7191 71.4885C88.0965 72.0554 88.0357 72.8258 88.0357 73.48V73.8646C86.4662 74.0435 84.436 74.152 82.9657 74.8084C81.269 75.5565 80.0793 77.0783 80.0793 79.3158C80.0793 82.1829 81.8504 83.6141 84.1284 83.6141C86.0505 83.6141 87.1141 83.1657 88.6001 81.6226C89.0913 82.3495 89.2502 82.6793 90.1493 83.4397C90.352 83.547 90.6033 83.5359 90.7824 83.3704V83.405C91.3232 82.9153 92.3068 82.0252 92.86 81.5533C93.0797 81.3699 93.029 81.068 92.86 80.8198C92.3654 80.1243 91.8392 79.5629 91.8392 78.2692V73.9709C91.8392 72.1504 91.9575 70.472 90.6427 69.2185C89.6017 68.2043 87.9072 67.8555 86.5913 67.8555ZM66.6282 67.9952C64.963 67.9952 63.7282 68.8294 63.0725 70.6163H63.0376V68.7646C63.0287 68.6376 62.9738 68.5181 62.8831 68.4281C62.7924 68.3381 62.672 68.2837 62.5441 68.2748H60.0092C59.8696 68.2768 59.7364 68.3327 59.6378 68.4306C59.5391 68.5285 59.4828 68.6608 59.4808 68.7992V82.9511C59.4928 83.0769 59.5486 83.1947 59.6387 83.2841C59.7288 83.3735 59.8474 83.4289 59.9742 83.4408H62.6849C62.8246 83.4394 62.9582 83.3836 63.057 83.2856C63.1557 83.1876 63.2119 83.055 63.2133 82.9164V75.4033C63.2133 73.7651 63.1334 71.5243 65.0791 71.5243C67 71.5243 66.7341 73.8266 66.7341 75.4033V82.9164C66.7341 83.1836 66.9538 83.4229 67.2276 83.4408H69.9383C70.078 83.4394 70.2115 83.3836 70.3103 83.2856C70.4091 83.1876 70.4652 83.055 70.4667 82.9164V75.4033C70.4667 74.5993 70.434 73.4285 70.7134 72.7129C70.9917 71.9973 71.6756 71.5254 72.3336 71.5254C73.1177 71.5254 73.716 71.7971 73.9176 72.7487C74.0438 73.3145 73.9875 74.8095 73.9875 75.4044V82.9175C73.9875 83.1848 74.2072 83.4241 74.481 83.4419H77.1917C77.3314 83.4405 77.4649 83.3848 77.5637 83.2867C77.6625 83.1887 77.7186 83.0561 77.7201 82.9175V73.972C77.7201 72.4524 77.8744 70.727 77.0159 69.5339C76.2577 68.4626 75.0184 67.9964 73.8827 67.9964C72.2896 67.9964 70.8081 68.8305 70.1512 70.6174C69.3919 68.8305 68.3216 67.9952 66.6282 67.9952ZM112.716 67.9952C108.799 67.9952 106.625 71.4136 106.625 75.8226C106.625 80.2014 108.775 83.7193 112.716 83.7193C116.507 83.7193 118.913 80.2819 118.913 75.9612C118.913 71.4963 116.734 67.9952 112.716 67.9952ZM128.171 67.9952C126.3 67.9952 125.231 68.9245 124.475 70.86H124.44V68.693C124.391 68.4738 124.183 68.3218 123.946 68.3083H121.446C121.317 68.3055 121.192 68.3503 121.094 68.4342C120.996 68.5181 120.934 68.6351 120.918 68.7623V82.9142C120.921 83.0466 120.972 83.1734 121.063 83.2702C121.155 83.3671 121.279 83.427 121.411 83.4386H124.087C124.227 83.4366 124.36 83.3807 124.459 83.2827C124.557 83.1848 124.614 83.0526 124.616 82.9142V75.297C124.616 74.3421 124.697 73.471 125.073 72.6067C125.377 71.9212 125.964 71.4885 126.622 71.4885C128.49 71.4885 128.312 73.7483 128.312 75.297V82.9846C128.33 83.105 128.388 83.2158 128.478 83.2984C128.568 83.3811 128.683 83.4306 128.806 83.4386H131.516C131.782 83.4386 132.013 83.2373 132.045 82.9846V74.0737C132.045 72.7039 132.048 70.8008 131.341 69.6703C130.582 68.4503 129.383 67.9952 128.171 67.9952ZM95.6394 68.2401C95.3645 68.2401 95.1471 68.4571 95.1459 68.7646V70.7907C95.1471 71.0938 95.3577 71.3129 95.6394 71.3152H100.287L94.9702 79.1078C94.6457 79.6099 94.6187 80.1791 94.6187 80.5056V82.5675C94.6187 82.865 94.9443 83.1881 95.2518 83.0215C98.2814 81.38 101.913 81.5254 104.653 82.9868C104.985 83.1669 105.322 82.8292 105.322 82.5329V80.3658C105.314 80.206 105.265 80.051 105.178 79.9161C105.091 79.7812 104.971 79.671 104.828 79.5965C103.274 78.7086 101.469 78.4369 99.7584 78.4783L104.371 71.7691C104.798 71.1664 105.037 70.803 105.04 70.5112V68.7646C105.04 68.4638 104.833 68.2401 104.547 68.2401H95.6394ZM112.716 70.8958C113.575 70.8958 114.208 71.276 114.512 72.2589C114.863 73.3916 114.899 74.8061 114.899 75.9981C114.899 77.8141 114.814 80.8198 112.716 80.8198C110.595 80.8198 110.604 77.0984 110.604 75.3686C110.604 73.6432 110.72 70.8958 112.716 70.8958ZM52.5451 76.0675V76.6612C52.5451 77.7358 52.5845 78.6404 52.0516 79.5965C51.6213 80.3736 50.9453 80.8544 50.1859 80.8544C49.1494 80.8544 48.5309 80.0203 48.5309 78.8283C48.532 76.4778 50.5892 76.0675 52.5451 76.0675ZM88.0345 76.0675V76.6612C88.0345 77.7358 88.074 78.6404 87.5411 79.5965C87.1107 80.3736 86.4381 80.8544 85.6753 80.8544C84.6377 80.8544 84.0203 80.0203 84.0203 78.8283C84.0214 76.4778 86.0764 76.0675 88.0345 76.0675Z" fill="white"/>
<path d="M105.604 83.8965V85.9226H106.977V83.8965H105.604ZM65.7837 84.2454V98.6767H67.0512V97.3841C67.3216 97.8962 67.6292 98.2798 68.0021 98.537C68.3739 98.7942 68.8009 98.9216 69.2696 98.9216C70.2002 98.9216 71.0035 98.4498 71.6986 97.4892C72.3938 96.5287 72.7554 95.1365 72.7554 93.3653C72.7554 92.2058 72.6056 91.2452 72.298 90.4301C71.9904 89.6172 71.5792 89.0122 71.0655 88.613C70.5517 88.2138 69.9681 87.9846 69.3406 87.9846C68.9043 87.98 68.4762 88.1012 68.108 88.3335C67.7418 88.5661 67.4455 88.9451 67.1571 89.417V84.2454H65.7837ZM78.8112 87.6357C77.8558 87.6357 77.0975 87.9164 76.5579 88.4744C76.0182 89.0312 75.7478 89.7502 75.7478 90.6414C75.7478 91.1591 75.865 91.5964 76.0644 92.0045C76.2638 92.4126 76.5511 92.7403 76.9094 92.9829C77.2699 93.2256 77.9887 93.5442 79.0568 93.8909C79.7958 94.1268 80.2375 94.3281 80.4302 94.4846C80.7096 94.7139 80.8526 95.0147 80.8526 95.4284C80.8526 95.907 80.6859 96.3062 80.3592 96.6159C80.0336 96.9279 79.5807 97.0699 78.9858 97.0699C78.3909 97.0699 77.9008 96.9044 77.5426 96.5455C77.1843 96.1865 76.9905 95.6409 76.9094 94.9028L75.536 95.1824C75.8458 97.4244 76.9725 98.5381 78.9159 98.537C79.9525 98.537 80.7456 98.2451 81.345 97.629C81.9444 97.0129 82.2598 96.1809 82.2598 95.1824C82.2598 94.6434 82.1641 94.176 81.9782 93.7847C81.7923 93.3933 81.5365 93.1037 81.203 92.8767C80.8684 92.6508 80.1226 92.3489 78.9847 91.9687C78.1577 91.6813 77.6732 91.4711 77.5065 91.3403C77.226 91.1189 77.084 90.817 77.084 90.4323C77.084 90.0387 77.2147 89.7055 77.5065 89.4539C77.7983 89.2023 78.2478 89.0692 78.845 89.0692C79.895 89.0692 80.482 89.6418 80.6048 90.7812L81.9432 90.571C81.8509 89.8497 81.692 89.2806 81.4498 88.8937C81.2075 88.5068 80.8493 88.1803 80.393 87.9499C79.9378 87.7207 79.4139 87.6357 78.8112 87.6357ZM87.2261 87.6357C86.1254 87.6357 85.197 88.0852 84.4793 89.0335C83.7617 89.9817 83.4225 91.3548 83.4225 93.1574C83.4225 94.8939 83.7684 96.2547 84.4793 97.1761C85.1902 98.0964 86.1118 98.5392 87.261 98.5392C88.1747 98.5392 88.9318 98.2675 89.5492 97.7006C90.1678 97.1336 90.6162 96.2995 90.8516 95.1846L89.4433 94.9397C89.0389 96.3677 88.293 97.0688 87.2599 97.071C86.6019 97.071 86.0645 96.7937 85.6049 96.1977C85.1452 95.6006 84.8849 94.715 84.8297 93.542H90.8854V93.0522C90.8854 91.2889 90.5317 89.9649 89.8286 89.0335C89.1279 88.102 88.275 87.6357 87.2261 87.6357ZM95.57 87.6357C95.2411 87.6357 94.9538 87.7464 94.6901 87.9846C94.4265 88.2228 94.1268 88.717 93.8102 89.4517V87.8437H92.5777V98.2921H93.9511V92.842C93.9511 92.0816 94.0232 91.3504 94.1978 90.675C94.2969 90.2881 94.484 89.9828 94.7262 89.767C94.9684 89.5512 95.2444 89.4528 95.5362 89.4528C95.8596 89.4528 96.1807 89.5814 96.5221 89.8374L96.9795 88.1948C96.4995 87.8146 96.0297 87.6357 95.57 87.6357ZM112.399 87.6357C111.312 87.6357 110.416 88.0897 109.723 88.9988C109.032 89.9068 108.666 91.271 108.666 93.0869C108.666 94.8883 109.036 96.2536 109.723 97.175C110.409 98.0953 111.268 98.5381 112.328 98.5381C113.203 98.5381 113.956 98.2149 114.581 97.5597C115.206 96.9044 115.587 95.9405 115.743 94.6949L114.404 94.4846C114.305 95.3758 114.071 96.0166 113.7 96.4415C113.329 96.8642 112.883 97.0699 112.362 97.0699C111.697 97.0699 111.131 96.7624 110.707 96.1262C110.282 95.4899 110.073 94.4723 110.073 93.0511C110.073 91.6735 110.298 90.6794 110.743 90.0454C111.188 89.4114 111.754 89.067 112.433 89.067C112.886 89.067 113.272 89.2414 113.594 89.5914C113.919 89.9403 114.134 90.4949 114.263 91.1994L115.602 90.9198C115.441 89.8195 115.085 88.9887 114.51 88.4386C113.936 87.8873 113.238 87.6357 112.399 87.6357ZM120.25 87.6357C119.15 87.6357 118.221 88.0852 117.504 89.0335C116.786 89.9817 116.447 91.3548 116.447 93.1574C116.447 94.8939 116.793 96.2547 117.504 97.1761C118.216 98.0964 119.136 98.5392 120.285 98.5392C121.197 98.5392 121.955 98.2675 122.574 97.7006C123.191 97.1336 123.639 96.2995 123.876 95.1846L122.468 94.9397C122.063 96.3677 121.35 97.0688 120.32 97.071C119.662 97.071 119.09 96.7937 118.63 96.1977C118.171 95.6006 117.911 94.715 117.855 93.542H123.911V93.0522C123.911 91.2889 123.557 89.9649 122.854 89.0335C122.156 88.102 121.3 87.6357 120.25 87.6357ZM128.384 87.6357C127.426 87.6357 126.67 87.9164 126.13 88.4744C125.59 89.0312 125.32 89.7502 125.32 90.6414C125.32 91.1591 125.403 91.5964 125.602 92.0045C125.8 92.4115 126.086 92.7403 126.447 92.9829C126.805 93.2256 127.527 93.5442 128.594 93.8909C129.331 94.1268 129.81 94.3281 130.003 94.4846C130.282 94.7139 130.425 95.0147 130.425 95.4284C130.425 95.907 130.258 96.3062 129.932 96.6159C129.607 96.9279 129.153 97.0699 128.558 97.0699C127.962 97.0699 127.473 96.9044 127.115 96.5455C126.757 96.1865 126.526 95.6409 126.446 94.9028L125.072 95.1824C125.382 97.4244 126.507 98.5381 128.452 98.537C129.49 98.537 130.317 98.2451 130.917 97.629C131.518 97.0129 131.832 96.1809 131.832 95.1824C131.832 94.6434 131.737 94.176 131.551 93.7847C131.365 93.3933 131.075 93.1037 130.741 92.8767C130.407 92.6508 129.695 92.3489 128.557 91.9687C127.73 91.6813 127.211 91.4711 127.043 91.3403C126.762 91.1189 126.62 90.817 126.62 90.4323C126.62 90.0387 126.786 89.7055 127.078 89.4539C127.37 89.2023 127.821 89.0692 128.416 89.0692C129.466 89.0692 130.053 89.6418 130.176 90.7812L131.515 90.571C131.421 89.8497 131.265 89.2806 131.021 88.8937C130.763 88.4889 130.397 88.1624 129.964 87.9499C129.513 87.7207 128.985 87.6357 128.384 87.6357ZM96.9784 87.8448L100.042 98.2932H101.344L104.407 87.8448H102.999L101.203 94.2398C100.986 95.0124 100.794 95.68 100.675 96.2313C100.525 95.5369 100.382 94.8078 100.181 94.1L98.4216 87.8448H96.9784ZM105.604 87.8448V98.2932H106.977V87.8448H105.604ZM60.4682 87.9846C59.3787 87.9846 58.5022 88.4699 57.7924 89.417C57.0815 90.3652 56.7007 91.7384 56.7007 93.5409C56.7007 95.2774 57.0522 96.6036 57.7575 97.5239C58.4628 98.4442 59.4013 98.9216 60.5392 98.9216C61.4428 98.9216 62.1807 98.6152 62.7925 98.0483C63.4031 97.4814 63.8256 96.6472 64.06 95.5324L62.6866 95.3222C62.2866 96.7501 61.5599 97.4512 60.5392 97.4534C59.8869 97.4534 59.3393 97.1761 58.8841 96.5801C58.429 95.983 58.1642 95.0974 58.109 93.9244H64.0938L64.1287 93.4347C64.1287 91.6713 63.7682 90.3127 63.0719 89.3812C62.3756 88.4498 61.5058 87.9846 60.4682 87.9846ZM45.0117 88.2295L47.4768 98.6779H48.9201L50.5402 90.6403L50.8218 92.4227L52.1242 98.6779H53.5326L56.0326 88.2295H54.7302L53.3568 94.2744L52.8994 96.3006L52.4769 94.2744L51.2804 88.2295H49.8721L48.6046 94.3449L48.1821 96.5119L47.6886 94.2755L46.4212 88.2306L45.0117 88.2295ZM130.741 93.0487C130.788 92.9022 130.645 93.3282 130.741 93.0487ZM87.19 89.0681C87.8739 89.0681 88.4372 89.3969 88.88 90.0465C89.1842 90.4916 89.3814 91.1692 89.4433 92.0727H84.9018C84.9446 91.1558 85.206 90.448 85.6409 89.9056C86.0758 89.3633 86.576 89.0681 87.19 89.0681ZM120.215 89.0681C120.897 89.0681 121.463 89.3969 121.905 90.0465C122.21 90.4916 122.407 91.1692 122.469 92.0727H117.927C117.97 91.1558 118.231 90.448 118.666 89.9056C119.1 89.3656 119.6 89.0681 120.215 89.0681ZM60.4682 89.4528C61.1442 89.4528 61.6872 89.7815 62.1232 90.4312C62.4241 90.8762 62.6246 91.5539 62.6866 92.4574H58.2149C58.2577 91.5404 58.4864 90.798 58.9191 90.2556C59.3483 89.7144 59.8587 89.4528 60.4682 89.4528ZM69.1997 89.4528C69.8104 89.4528 70.3298 89.7894 70.7489 90.4312C71.168 91.0742 71.3471 92.0649 71.3471 93.4369C71.3471 94.7731 71.1488 95.7694 70.7139 96.4426C70.2791 97.1158 69.7608 97.4557 69.1997 97.4557C68.7874 97.4557 68.4122 97.3181 68.0731 97.0364C67.7328 96.7546 67.4838 96.3509 67.2979 95.8131C67.112 95.2752 67.0163 94.4477 67.0163 93.3665C67.0163 92.0928 67.245 91.139 67.6855 90.4659C68.126 89.7927 68.6387 89.4528 69.1997 89.4528Z" fill="white"/>
<path d="M25.2762 78.3772L20.0306 80.6136L24.8887 82.6755L30.5219 80.6136L25.2762 78.3772ZM17.3897 81.1726L17.214 91.2364L24.8887 94.591V84.1426L17.3897 81.1726ZM33.1628 81.1726L26.2271 83.7937V93.6472L33.1628 90.8517V81.1726ZM41.4369 49.8633L36.1552 52.0997L41.0493 54.1616L46.6826 52.0997L41.4369 49.8633ZM34.1137 52.8343V62.898L40.6618 64.7855L40.8736 55.6298L34.1137 52.8343ZM48.7601 53.3934L42.5635 56.0145V65.9037L48.7601 63.1083V53.3934ZM16.6326 64.0274L11.3869 66.2638L16.245 68.3257L21.8783 66.2638L16.6326 64.0274ZM8.74607 66.8229L8.57031 76.8866L16.245 80.2412V69.7928L8.74607 66.8229ZM24.5191 66.8229L17.5835 69.4439V79.2974L24.5191 76.502V66.8229ZM33.5323 63.6562L28.2867 65.8926L33.1448 67.9545L38.778 65.8926L33.5323 63.6562ZM25.6458 66.4517L25.47 76.5154L33.1448 79.87V69.4227L25.6458 66.4517ZM41.4189 66.4517L34.4832 69.0727V78.9262L41.4189 76.1307V66.4517ZM57.9434 49.8633L52.6977 52.0997L57.5558 54.1616L63.1891 52.0997L57.9434 49.8633ZM50.0569 52.6588L49.8811 62.7225L57.5558 66.0771V55.6298L50.0569 52.6588ZM65.8299 52.6588L58.8943 55.2798V65.1333L65.8299 62.3378V52.6588Z" fill="#FE9E16"/>
</g>
<defs>
<clipPath id="clip0_8271_909">
<rect width="131.642" height="49.0737" fill="white" transform="translate(8.57031 49.8535)"/>
</clipPath>
</defs>
</svg>
