<svg width="148" height="148" viewBox="0 0 148 148" fill="none" xmlns="http://www.w3.org/2000/svg">
<path d="M44.9453 110.735C38.4315 110.735 32.8872 108.411 28.3125 103.764C23.7344 99.1236 21.4453 93.4708 21.4453 86.8057C21.4453 80.6886 23.4907 75.26 27.5814 70.5201C31.6722 65.7801 36.7569 63.234 42.8355 62.8817C44.0088 55.1063 47.5077 48.6831 53.3322 43.6122C59.1567 38.5413 65.9352 36.0059 73.6675 36.0059C82.3782 36.0059 89.7781 39.1178 95.8672 45.3417C101.956 51.5655 105.001 59.1292 105.001 68.0327V73.3705H108.218C113.217 73.5341 117.412 75.4113 120.803 79.0018C124.194 82.5924 125.89 86.9427 125.89 92.0527C125.89 97.2874 124.125 101.711 120.594 105.323C117.057 108.931 112.73 110.735 107.612 110.735H44.9453ZM44.9453 105.397H107.612C111.268 105.397 114.357 104.107 116.881 101.527C119.405 98.9474 120.668 95.7892 120.668 92.0527C120.668 88.3163 119.405 85.1581 116.881 82.5782C114.357 79.9982 111.268 78.7083 107.612 78.7083H99.7786V68.0327C99.7786 60.6487 97.2319 54.3537 92.1385 49.1475C87.0451 43.9414 80.8881 41.3401 73.6675 41.3437C66.4469 41.3472 60.2899 43.9503 55.1965 49.1529C50.1031 54.3554 47.5564 60.6487 47.5564 68.0327H44.9453C39.8972 68.0327 35.5888 69.8564 32.0203 73.5039C28.4518 77.1514 26.6675 81.5551 26.6675 86.715C26.6675 91.8748 28.4518 96.2785 32.0203 99.926C35.5888 103.574 39.8972 105.397 44.9453 105.397Z" fill="#303030"/>
<path d="M42.6279 87.022C42.6279 87.3508 42.6537 87.6138 42.718 87.8374C42.7823 87.9952 42.8724 88.2056 42.9882 88.4423C43.0397 88.495 43.0525 88.5739 43.0525 88.6396C43.0525 88.7317 43.0011 88.8106 42.8853 88.9026L42.3449 89.2709C42.2677 89.3235 42.1905 89.3498 42.1262 89.3498C42.0361 89.3498 41.9589 89.2972 41.8688 89.2183C41.753 89.0868 41.6501 88.9552 41.56 88.8106C41.4828 88.6659 41.3928 88.495 41.3027 88.2977C40.6337 89.0999 39.7973 89.5076 38.7809 89.5076C38.0604 89.5076 37.4943 89.2972 37.0697 88.8763C36.658 88.4555 36.4392 87.89 36.4392 87.1798C36.4392 86.4565 36.6966 85.8647 37.2112 85.3913C37.7387 84.9442 38.4335 84.7074 39.3084 84.7074C39.6044 84.7074 39.8745 84.7337 40.2219 84.7863C40.5179 84.8258 40.8653 84.8916 41.1998 84.9705V84.3392C41.1998 83.6685 41.0711 83.2345 40.8009 82.932C40.5179 82.6559 40.0675 82.5375 39.4114 82.5375C39.1026 82.5375 38.7938 82.577 38.485 82.6427C38.1633 82.7216 37.8545 82.8137 37.5586 82.9452C37.4171 82.9978 37.3013 83.0372 37.2627 83.0504C37.1983 83.0767 37.1597 83.0767 37.1211 83.0767C37.0054 83.0767 36.941 82.9978 36.941 82.8137V82.3797C36.941 82.2482 36.9539 82.143 37.0054 82.0772C37.044 82.0115 37.1211 81.9589 37.2369 81.9194C37.5457 81.7353 37.8931 81.6038 38.3177 81.4986C38.7545 81.3818 39.2044 81.3244 39.6558 81.3276C40.6723 81.3276 41.4185 81.5643 41.8946 82.0378C42.3706 82.5112 42.6022 83.2345 42.6022 84.1945V87.022H42.6279ZM39.154 88.3634C39.4371 88.3634 39.7202 88.3108 40.0289 88.2056C40.3377 88.1004 40.6079 87.9032 40.8395 87.6401C40.9811 87.4692 41.084 87.2851 41.1612 87.0746C41.1612 86.8642 41.2255 86.6143 41.2255 86.3119V85.9568C40.9682 85.8647 40.7109 85.8647 40.4278 85.799C40.1628 85.7694 39.8966 85.7518 39.6301 85.7464C39.0511 85.7464 38.6394 85.8647 38.3563 86.1015C38.0733 86.3382 37.9446 86.6669 37.9446 87.1009C37.9446 87.5218 38.0347 87.8374 38.2534 88.0347C38.4592 88.2582 38.7552 88.3634 39.154 88.3634ZM46.0247 89.2972C45.9001 89.301 45.7765 89.2739 45.6644 89.2183C45.6258 89.1525 45.5615 89.0341 45.51 88.8763L43.5029 82.1167C43.4514 81.9194 43.4257 81.8273 43.4257 81.7616C43.4257 81.6169 43.49 81.538 43.6315 81.538H44.4678C44.6351 81.538 44.7509 81.5643 44.8024 81.6301C44.8796 81.6827 44.931 81.801 44.9825 81.972L46.4107 87.7585L47.7488 81.972C47.7873 81.801 47.8388 81.6827 47.916 81.6301C47.9803 81.5775 48.0961 81.538 48.2377 81.538H48.9453C49.0997 81.538 49.2155 81.5643 49.2798 81.6301C49.3442 81.6827 49.4085 81.801 49.4471 81.972L50.8109 87.8374L52.2777 81.972C52.3292 81.801 52.3935 81.6827 52.445 81.6301C52.5222 81.5775 52.6251 81.538 52.7795 81.538H53.5772C53.7187 81.538 53.7959 81.6169 53.7959 81.7616C53.7959 81.801 53.7831 81.8536 53.7702 81.9194C53.7702 81.9194 53.7445 82.0246 53.7187 82.1167L51.6473 88.8763C51.5958 89.0604 51.5443 89.1525 51.4543 89.2183C51.4028 89.2709 51.287 89.3103 51.1455 89.3103H50.4121C50.2448 89.3103 50.1676 89.284 50.0647 89.2183C49.9782 89.1245 49.924 89.0045 49.9103 88.8763L48.5851 83.2345L47.2598 88.8632C47.2212 89.0341 47.1698 89.1525 47.1054 89.2183C46.9992 89.2774 46.8788 89.3048 46.758 89.2972H46.0247ZM57.0254 89.5339C56.6008 89.5339 56.1247 89.4813 55.7002 89.3761C55.2756 89.2709 54.941 89.1525 54.7223 89.0341C54.6106 88.9792 54.5167 88.8924 54.4521 88.7843C54.4172 88.7105 54.3995 88.6295 54.4007 88.5476V88.1004C54.4007 87.9163 54.465 87.8374 54.5936 87.8374H54.748C54.7995 87.8374 54.8767 87.9032 54.9668 87.9426C55.2498 88.0741 55.5715 88.1793 55.906 88.2451C56.2534 88.3108 56.6008 88.3503 56.9225 88.3503C57.4628 88.3503 57.8874 88.2582 58.1705 88.061C58.4664 87.8374 58.6208 87.5875 58.6208 87.2324C58.6208 86.9826 58.5307 86.7853 58.3892 86.6143C58.2348 86.4565 57.9389 86.2987 57.5272 86.1672L56.2791 85.7727C55.6616 85.5623 55.1984 85.2729 54.9153 84.8784C54.6391 84.5132 54.4897 84.0644 54.4907 83.6027C54.4907 83.2345 54.5679 82.9189 54.7223 82.6427C54.8767 82.3534 55.0826 82.1167 55.3142 81.9194C55.5972 81.7221 55.8803 81.5775 56.2277 81.4723C56.5622 81.3671 56.9225 81.3145 57.3084 81.3145C57.4886 81.3145 57.6816 81.3276 57.8874 81.3539C58.0676 81.3802 58.2477 81.4197 58.4278 81.446C58.6079 81.4986 58.7623 81.538 58.9167 81.5906C59.0711 81.6432 59.1741 81.6958 59.277 81.7484C59.3928 81.8142 59.4829 81.88 59.5343 81.9589C59.5858 82.0378 59.6115 82.1298 59.6115 82.2482V82.669C59.6115 82.8531 59.5472 82.9452 59.4185 82.9452C59.3542 82.9452 59.2384 82.9057 59.084 82.84C58.6079 82.6164 58.0547 82.4981 57.45 82.4981C56.9611 82.4981 56.6008 82.577 56.3049 82.7479C56.0475 82.9057 55.906 83.1688 55.906 83.5238C55.906 83.7737 55.9961 83.9841 56.1633 84.1419C56.3306 84.3129 56.6523 84.4707 57.1026 84.6285L58.3249 85.0231C58.9425 85.2072 59.3799 85.4965 59.6501 85.8647C59.9074 86.2198 60.0361 86.6275 60.0361 87.0878C60.0361 87.456 59.9589 87.7979 59.8174 88.1004C59.663 88.3897 59.4571 88.6528 59.1741 88.8632C58.9296 89.0868 58.6079 89.2446 58.2477 89.3629C57.8874 89.4813 57.45 89.5339 57.0254 89.5339ZM58.6337 93.7948C55.8159 95.9122 51.7245 97.0432 48.2377 97.0432C43.2841 97.0432 38.8452 95.1757 35.4871 92.0852C35.2169 91.8353 35.4614 91.5066 35.783 91.7038C39.4114 93.8474 43.876 95.1494 48.5079 95.1494C51.6344 95.1494 55.0697 94.4919 58.222 93.0978C58.698 92.9006 59.0969 93.4398 58.6337 93.7948ZM59.8174 92.4403C59.4443 91.9537 57.4242 92.2036 56.5107 92.3088C56.2405 92.3482 56.2019 92.0984 56.4464 91.9142C58.0547 90.7701 60.7052 91.1252 61.0011 91.4803C61.3099 91.8748 60.9239 94.5839 59.4185 95.8727C59.1741 96.07 58.9553 95.9648 59.0583 95.7281C59.4057 94.8338 60.1648 92.8874 59.8174 92.4403Z" fill="#303030"/>
<g clip-path="url(#clip0_8271_810)">
<path d="M103.698 92.155C103.042 92.1121 102.661 91.7309 102.56 91.0175C102.533 90.8277 102.533 90.8227 102.53 89.5908L102.528 88.3983H103.108L103.11 89.5518C103.112 90.5914 103.113 90.7133 103.123 90.7862C103.162 91.0831 103.241 91.2826 103.375 91.4259C103.482 91.5405 103.608 91.6076 103.781 91.6434C103.863 91.6601 104.096 91.6601 104.171 91.6434C104.339 91.6084 104.492 91.5231 104.612 91.3985C104.754 91.2538 104.859 91.0484 104.91 90.8161L104.927 90.7377L104.929 89.5745L104.931 88.4114H105.523V92.0685H104.937V91.7782C104.937 91.5812 104.935 91.489 104.931 91.4905C104.917 91.5064 104.906 91.5239 104.897 91.5428C104.79 91.7368 104.633 91.8971 104.443 92.0063C104.222 92.1309 104 92.175 103.698 92.155H103.698ZM110.352 92.1521C110.113 92.1316 109.883 92.0547 109.678 91.9274C109.258 91.6623 109.01 91.2252 108.937 90.6237C108.912 90.4159 108.909 90.1362 108.93 89.9594C108.977 89.5642 109.129 89.1763 109.345 88.8994C109.401 88.8284 109.527 88.6999 109.596 88.6432C109.784 88.4905 110.003 88.3837 110.237 88.331C110.373 88.3007 110.612 88.2866 110.756 88.3002C111.119 88.3345 111.451 88.5088 111.677 88.783C111.907 89.0616 112.033 89.4512 112.049 89.9308C112.051 90.006 112.052 90.138 112.05 90.2238L112.047 90.3799L110.777 90.3816L109.507 90.3831V90.441C109.51 90.6294 109.549 90.8154 109.622 90.9884C109.684 91.1356 109.792 91.2964 109.88 91.3741C110.06 91.5338 110.286 91.631 110.524 91.652C110.613 91.6606 110.842 91.6515 110.944 91.6355C111.231 91.5917 111.503 91.4771 111.737 91.3016C111.764 91.2814 111.789 91.2624 111.794 91.2597C111.8 91.2555 111.801 91.308 111.801 91.5297V91.8049L111.741 91.8428C111.482 92.0049 111.192 92.1077 110.89 92.1439C110.798 92.1555 110.462 92.1607 110.352 92.1521ZM111.457 89.8307C111.457 89.5356 111.336 89.2079 111.163 89.0392C111.04 88.9188 110.883 88.8412 110.715 88.8173C110.631 88.804 110.455 88.8089 110.367 88.8271C110.187 88.8621 110.021 88.9519 109.892 89.0848C109.75 89.2289 109.642 89.4049 109.578 89.5987C109.554 89.6697 109.526 89.7861 109.517 89.8512L109.513 89.882H111.457L111.457 89.8307ZM94.2314 92.0603L95.1896 89.49L96.1452 86.928H96.7594L96.7848 86.9945C96.8627 87.1982 98.6978 92.0628 98.6978 92.0655C98.6978 92.067 98.5507 92.0685 98.3712 92.0685H98.0445L97.7801 91.3494L97.5155 90.6304H95.3858L95.3766 90.6548C95.3715 90.6681 95.2584 90.9916 95.1255 91.3736L94.8835 92.0682H94.5564C94.2973 92.0682 94.2293 92.0667 94.2314 92.0603ZM97.321 90.0818C97.321 90.0805 97.1432 89.5878 96.9254 88.9869C96.5187 87.8625 96.496 87.7949 96.4637 87.6142C96.4487 87.5296 96.441 87.5274 96.4323 87.6043C96.4197 87.6881 96.4011 87.7709 96.3766 87.8519C96.366 87.8859 96.1826 88.3993 95.9693 88.9931C95.8388 89.3543 95.7094 89.716 95.5812 90.0781C95.5812 90.0813 95.9727 90.0837 96.4511 90.0837C96.9297 90.0837 97.321 90.0827 97.321 90.0818ZM98.8954 91.9748V91.8811L99.9564 90.392L101.018 88.9026L100.057 88.8994L99.0961 88.8962L99.0944 88.6471L99.0927 88.3983H101.872V88.5665L100.81 90.064C100.227 90.8876 99.7494 91.5627 99.7494 91.5642C99.7494 91.5659 100.221 91.5674 100.798 91.5674H101.846V92.0685H98.8954V91.9748ZM106.682 92.064C106.679 92.0616 106.677 91.236 106.677 90.2292V88.3983H107.257V88.7756C107.257 88.9835 107.26 89.1534 107.263 89.1534C107.266 89.1534 107.28 89.1193 107.294 89.0777C107.361 88.8842 107.472 88.7097 107.618 88.5682C107.744 88.4441 107.904 88.3629 108.076 88.3357C108.126 88.3276 108.168 88.3258 108.267 88.3285C108.392 88.332 108.458 88.3414 108.534 88.3665L108.558 88.3747V88.9891L108.489 88.9541C108.37 88.8928 108.238 88.8656 108.105 88.8755C108.012 88.8804 107.95 88.8927 107.876 88.9213C107.724 88.9783 107.595 89.0856 107.51 89.2261C107.38 89.4429 107.298 89.6857 107.268 89.938C107.263 89.9816 107.26 90.3362 107.259 91.0353L107.257 92.0685H106.972C106.814 92.0685 106.684 92.0665 106.682 92.064ZM85.9138 84.3672C86.0114 84.3671 86.1066 84.3983 86.1859 84.4565C86.2653 84.5147 86.3247 84.5969 86.3558 84.6914L89.1894 93.273C89.2131 93.3448 89.2197 93.4212 89.2087 93.4961C89.1978 93.571 89.1695 93.6421 89.1263 93.7036C89.0831 93.7651 89.0261 93.8152 88.9602 93.8498C88.8943 93.8843 88.8213 93.9023 88.7472 93.9023H92.0127C92.1243 93.9019 92.2322 93.8607 92.3167 93.7862C92.4012 93.7117 92.4569 93.6087 92.4737 93.4959C92.485 93.4211 92.4784 93.3446 92.4544 93.273L89.621 84.6914C89.5899 84.5969 89.5305 84.5147 89.4512 84.4565C89.3719 84.3983 89.2767 84.3671 89.1791 84.3672H85.9138ZM85.8084 84.4042C85.7107 84.4043 85.6155 84.4357 85.5362 84.494C85.4568 84.5522 85.3973 84.6344 85.366 84.7289L82.5323 93.31C82.5086 93.3817 82.502 93.4581 82.5129 93.5329C82.5239 93.6077 82.5521 93.6788 82.5953 93.7403C82.6385 93.8017 82.6953 93.8518 82.7612 93.8863C82.8271 93.9208 82.9 93.9388 82.974 93.9388H85.254C85.3517 93.9387 85.4469 93.9074 85.5263 93.8492C85.6057 93.791 85.6653 93.7088 85.6967 93.6143L86.2506 91.9437L85.1923 90.9068C85.173 90.8871 85.0854 90.7231 85.1633 90.5843C85.2506 90.4504 85.3963 90.4504 85.3963 90.4504H86.7603L87.4764 88.3416L86.252 84.6616C86.2489 84.6436 86.1802 84.5511 86.0721 84.4777C85.964 84.4037 85.8082 84.4042 85.8082 84.4042H85.8084ZM85.4234 90.513C85.3802 90.513 85.338 90.5262 85.3023 90.5511C85.2666 90.5759 85.239 90.6111 85.2232 90.6522C85.2074 90.6932 85.204 90.7382 85.2136 90.7813C85.2231 90.8243 85.2451 90.8634 85.2767 90.8935L88.2618 93.7415C88.3487 93.8244 88.4592 93.873 88.5779 93.873C88.5779 93.873 88.6792 93.8801 88.7402 93.8703C88.8835 93.8471 89.0184 93.7275 89.063 93.6772C89.1778 93.5208 89.1257 93.2777 89.1257 93.2777L88.222 90.5128L85.4234 90.513Z" fill="#303030"/>
</g>
<path d="M74.7983 54.866H75.0636L75.8115 54.1016L75.8597 53.781C75.2808 53.2385 74.4846 52.918 73.6162 52.918C72.0722 52.918 70.7454 54.0029 70.3594 55.4578C70.4317 55.4085 70.6247 55.4331 70.6247 55.4331L72.1205 55.1865C72.1205 55.1865 72.1928 55.0632 72.2411 55.0632C72.9166 54.3235 74.0263 54.2495 74.7983 54.866Z" fill="#303030"/>
<path d="M76.8997 55.458C76.7067 54.8169 76.369 54.2251 75.8623 53.7812L74.8009 54.8662C75.2592 55.2361 75.5005 55.7786 75.5005 56.3704V56.5676C76.0071 56.5676 76.4413 56.9868 76.4413 57.5293C76.4413 58.0471 76.0312 58.4663 75.5005 58.4663H73.6188L73.4258 58.6636V59.8225L73.6188 60.0198H75.5005C76.8514 60.0198 77.937 58.9102 77.937 57.5293C77.937 56.6909 77.5269 55.9265 76.8756 55.4827L76.8997 55.458Z" fill="#303030"/>
<path d="M71.7607 59.9954H73.6424V58.4666H71.7607C71.6159 58.4666 71.4953 58.4419 71.3747 58.3926L71.1093 58.4666L70.3614 59.231L70.2891 59.4775C70.6992 59.8228 71.2299 59.9954 71.7607 59.9954Z" fill="#303030"/>
<path d="M71.7594 55.0137C70.4084 55.0137 69.3228 56.1233 69.3228 57.5042C69.3228 58.2932 69.6847 59.033 70.2878 59.5015L71.3734 58.3919C71.0357 58.2193 70.8185 57.8987 70.8185 57.5042C70.8185 56.9863 71.2287 56.5425 71.7594 56.5425C72.1213 56.5671 72.459 56.7891 72.6038 57.1096L73.6893 56C73.2551 55.4082 72.5314 55.0137 71.7594 55.0137ZM62.0614 64.8277C61.5548 64.8277 61.1205 64.6304 60.7345 64.2605C60.3486 63.8907 60.1797 63.4715 60.1797 62.929C60.1797 62.3865 60.3727 61.9673 60.7345 61.5974C61.0964 61.2276 61.5548 61.0303 62.0614 61.0303C62.5198 61.055 62.9781 61.2276 63.3159 61.5728L62.954 61.9427C62.7127 61.6961 62.3991 61.5728 62.0373 61.5728C61.6754 61.5728 61.3618 61.6961 61.0964 61.9673C60.8552 62.2139 60.7104 62.5838 60.7345 62.929C60.7345 63.2989 60.8552 63.6441 61.1205 63.8907C61.3618 64.1866 61.6995 64.3099 62.0373 64.3099C62.4233 64.3099 62.7127 64.1866 62.9781 63.94C63.1229 63.792 63.2194 63.5701 63.2435 63.2989H62.0614V62.781H63.7501C63.7742 62.8797 63.7742 62.9783 63.7742 63.1016C63.7742 63.6194 63.6295 64.014 63.34 64.3099C63.0022 64.6551 62.5921 64.8523 62.0614 64.8523V64.8277ZM66.0178 64.4825C65.7765 64.7044 65.5112 64.8277 65.1734 64.8277C64.8357 64.8277 64.5462 64.7044 64.3291 64.4825C64.112 64.2605 63.9913 63.9646 63.9913 63.6194C63.9913 63.2742 64.112 62.9783 64.3291 62.7564C64.5462 62.5345 64.8357 62.4112 65.1734 62.4112C65.5112 62.4112 65.8007 62.5345 66.0178 62.7564C66.2349 62.9783 66.3555 63.2742 66.3555 63.6194C66.3555 63.9646 66.2349 64.2605 66.0178 64.4825ZM64.6909 64.1372C64.8116 64.2852 64.9804 64.3592 65.1493 64.3592C65.3423 64.3592 65.4871 64.2852 65.6318 64.1372C65.7765 63.9893 65.8248 63.8167 65.8248 63.6194C65.8248 63.3975 65.7524 63.2249 65.6318 63.0769C65.5112 62.929 65.3423 62.8797 65.1493 62.8797C64.9804 62.8797 64.7874 62.9536 64.6668 63.0769C64.5462 63.2249 64.4738 63.3975 64.4738 63.6194C64.4738 63.8413 64.5462 64.014 64.6668 64.1372H64.6909ZM68.6232 64.4825C68.382 64.7044 68.1166 64.8277 67.7789 64.8277C67.4411 64.8277 67.1516 64.7044 66.9345 64.4825C66.7174 64.2605 66.5968 63.9646 66.5968 63.6194C66.5968 63.2742 66.7174 62.9783 66.9345 62.7564C67.1516 62.5345 67.4411 62.4112 67.7789 62.4112C68.1166 62.4112 68.4061 62.5345 68.6232 62.7564C68.8403 62.9783 68.961 63.2742 68.961 63.6194C68.961 63.9646 68.8403 64.2605 68.6232 64.4825ZM67.2964 64.1372C67.417 64.2852 67.5859 64.3592 67.7547 64.3592C67.9477 64.3592 68.0925 64.2852 68.2372 64.1372C68.382 63.9893 68.4302 63.8167 68.4302 63.6194C68.4302 63.3975 68.3579 63.2249 68.2372 63.0769C68.1166 62.929 67.9477 62.8797 67.7547 62.8797C67.5859 62.8797 67.3929 62.9536 67.2723 63.0769C67.1516 63.2249 67.0793 63.3975 67.0793 63.6194C67.0793 63.8413 67.1516 64.014 67.2723 64.1372H67.2964ZM70.3361 65.9126C70.0707 65.9126 69.8536 65.8387 69.6606 65.6907C69.4676 65.5428 69.347 65.3702 69.2746 65.1976L69.7329 65.0003C69.7812 65.1236 69.8536 65.2222 69.9501 65.2962C70.0948 65.4071 70.1672 65.4195 70.3361 65.4195C70.5291 65.4195 70.6979 65.3455 70.7944 65.2469C70.8909 65.1482 70.9633 64.951 70.9633 64.7044V64.5318H70.9392C70.7944 64.7044 70.5773 64.803 70.3119 64.803C69.9983 64.803 69.7329 64.6797 69.5158 64.4578C69.2746 64.2605 69.154 63.94 69.1781 63.6194C69.154 63.2989 69.2746 62.9783 69.5158 62.7564C69.7329 62.5098 69.9983 62.4112 70.3119 62.4112C70.4567 62.4112 70.5773 62.4358 70.6738 62.4851C70.8185 62.5591 70.8668 62.6084 70.9392 62.6824H70.9633V62.4851H71.4699V64.6797C71.4699 65.0989 71.3734 65.4195 71.1563 65.6414C70.9392 65.8387 70.6738 65.962 70.3361 65.962V65.9126ZM70.3602 64.3345C70.5291 64.3592 70.6979 64.2852 70.7944 64.1372C70.915 63.9893 70.9874 63.8167 70.9874 63.6194C70.9874 63.3975 70.915 63.2249 70.7944 63.0769C70.6979 62.9536 70.5291 62.8797 70.3602 62.8797C70.1672 62.8797 70.0224 62.9536 69.9018 63.1016C69.7812 63.2495 69.7088 63.4222 69.7088 63.6441C69.7088 63.8413 69.7812 64.0386 69.9018 64.1619C70.0224 64.2852 70.1913 64.3838 70.3602 64.3838V64.3345ZM72.3384 61.1536V64.729H71.8076V61.1536H72.3384ZM73.7617 64.803C73.424 64.803 73.1345 64.6797 72.9174 64.4578C72.7002 64.2359 72.5796 63.94 72.5796 63.5948C72.5796 63.2495 72.7002 62.9536 72.9174 62.7071C73.1104 62.5098 73.3999 62.3865 73.7135 62.3865C73.8582 62.3865 74.003 62.4112 74.1236 62.4605C74.2201 62.5345 74.3166 62.5838 74.4131 62.6824C74.4855 62.7564 74.5578 62.8304 74.6061 62.929C74.6543 63.003 74.7026 63.0769 74.7267 63.1756L74.7749 63.3235L73.1827 63.9893C73.3034 64.2359 73.4964 64.3592 73.7617 64.3592C74.003 64.3592 74.196 64.2359 74.3407 64.014L74.7508 64.2852C74.6543 64.4331 74.5337 64.5564 74.3648 64.6551C74.196 64.7537 74.003 64.8277 73.7617 64.8277V64.803ZM73.1104 63.5454L74.1718 63.1016C74.1477 63.0276 74.0753 62.9536 74.003 62.9043C73.9065 62.8797 73.81 62.855 73.7135 62.855C73.5687 62.855 73.424 62.929 73.2792 63.0523C73.1345 63.1756 73.0862 63.3482 73.0862 63.5701L73.1104 63.5454ZM77.5251 64.803C77.0426 64.803 76.6567 64.6304 76.3189 64.3099C75.9812 63.9893 75.8364 63.5701 75.8364 63.0769C75.8364 62.5838 76.0053 62.1646 76.3189 61.844C76.6325 61.5235 77.0426 61.3509 77.5251 61.3509C78.0076 61.3509 78.4177 61.5235 78.7072 61.8933L78.4177 62.1892C78.2006 61.918 77.887 61.77 77.5251 61.77C77.1633 61.77 76.8738 61.8933 76.6325 62.1399C76.3913 62.3865 76.2707 62.7071 76.2707 63.1016C76.2707 63.4961 76.3913 63.8167 76.6325 64.0633C76.8738 64.3099 77.1633 64.4331 77.5251 64.4331C77.9111 64.4331 78.2489 64.2852 78.5142 63.9646L78.8037 64.2605C78.659 64.4331 78.466 64.5811 78.2489 64.6797C78.0076 64.7784 77.7664 64.8277 77.5251 64.8277V64.803ZM79.5998 64.729H79.1897V61.4495H79.5998V64.729ZM80.2753 62.7317C80.4924 62.5098 80.7578 62.3865 81.0955 62.3865C81.4333 62.3865 81.6986 62.5098 81.9158 62.7317C82.1329 62.9536 82.2294 63.2495 82.2294 63.5948C82.2294 63.94 82.1329 64.2359 81.9158 64.4578C81.6986 64.6797 81.4333 64.803 81.0955 64.803C80.7578 64.803 80.4924 64.6797 80.2753 64.4578C80.0582 64.2359 79.9617 63.94 79.9617 63.5948C79.9617 63.2495 80.0582 62.9536 80.2753 62.7317ZM80.5889 64.1866C80.7337 64.3345 80.9025 64.4085 81.0955 64.4085C81.385 64.4085 81.4574 64.3345 81.6022 64.1866C81.7469 64.0386 81.8193 63.8413 81.8193 63.5948C81.8193 63.3482 81.7469 63.1509 81.6022 63.003C81.4574 62.855 81.2885 62.781 81.0955 62.781C80.9025 62.781 80.7337 62.855 80.5889 63.003C80.4442 63.1509 80.3718 63.3482 80.3718 63.5948C80.3718 63.8413 80.4442 64.0386 80.5889 64.1866ZM84.5212 64.729H84.1352V64.4085H84.1111C84.0387 64.5071 83.9422 64.6058 83.8216 64.6797C83.701 64.7537 83.5562 64.803 83.4115 64.803C83.1461 64.803 82.929 64.729 82.7842 64.5564C82.6395 64.3838 82.5671 64.1619 82.5671 63.866V62.4851H82.9772V63.792C82.9772 64.2112 83.1702 64.4331 83.5321 64.4331C83.6768 64.4331 83.8457 64.3592 83.9422 64.2359C84.0387 64.0879 84.087 63.9153 84.087 63.7427V62.5098H84.4971V64.7784L84.5212 64.729ZM85.9204 64.803C85.6309 64.803 85.3897 64.6797 85.1726 64.4578C84.9554 64.2359 84.8589 63.94 84.8589 63.5948C84.8589 63.2495 84.9554 62.9783 85.1726 62.7317C85.3897 62.4851 85.6309 62.3865 85.9204 62.3865C86.0893 62.3865 86.234 62.4358 86.3788 62.4851C86.5235 62.5345 86.62 62.6577 86.6683 62.7564H86.6924L86.6683 62.4358V61.4002H87.0784V64.7044H86.6924V64.3838H86.6683C86.5959 64.4825 86.4994 64.5811 86.3788 64.6551C86.234 64.729 86.0893 64.7537 85.9204 64.7537V64.803ZM85.9928 64.4085C86.1617 64.4331 86.3547 64.3592 86.4753 64.2112C86.62 64.0633 86.6683 63.866 86.6683 63.6194C86.6683 63.3728 86.5959 63.1756 86.4753 63.0276C86.3547 62.9043 86.1617 62.8057 85.9928 62.8057C85.7998 62.8057 85.6309 62.8797 85.4862 63.0276C85.2691 63.2495 85.2691 63.3728 85.2691 63.6194C85.2691 63.866 85.3414 64.0633 85.4862 64.2112C85.6068 64.3592 85.7998 64.4578 85.9928 64.4578V64.4085Z" fill="#303030"/>
<defs>
<clipPath id="clip0_8271_810">
<rect width="30.8792" height="31.5626" fill="white" transform="translate(81.8398 73.3711)"/>
</clipPath>
</defs>
</svg>
