<svg width="148" height="148" viewBox="0 0 148 148" fill="none" xmlns="http://www.w3.org/2000/svg">
<circle cx="74" cy="74" r="74" fill="white"/>
<path d="M45.9447 109.805C39.431 109.805 33.8869 107.538 29.3124 103.003C24.7343 98.4755 22.4453 92.9599 22.4453 86.4564C22.4453 80.4877 24.4906 75.1908 28.5813 70.5658C32.6719 65.9408 37.7565 63.4564 43.835 63.1126C45.0082 55.5258 48.507 49.2585 54.3314 44.3106C60.1557 39.3626 66.934 36.8887 74.6662 36.8887C83.3766 36.8887 90.7763 39.9251 96.8652 45.9981C102.954 52.071 105.999 59.4512 105.999 68.1387V73.347H109.215C114.215 73.5067 118.41 75.3383 121.801 78.8418C125.192 82.3453 126.887 86.5901 126.887 91.5762C126.887 96.6838 125.122 101 121.592 104.524C118.055 108.045 113.727 109.805 108.61 109.805H45.9447ZM45.9447 104.597H108.61C112.265 104.597 115.355 103.338 117.879 100.821C120.403 98.3036 121.665 95.222 121.665 91.5762C121.665 87.9304 120.403 84.8488 117.879 82.3314C115.355 79.814 112.265 78.5554 108.61 78.5554H100.777V68.1387C100.777 60.9338 98.2299 54.7915 93.1367 49.7116C88.0434 44.6317 81.8866 42.0935 74.6662 42.097C67.4458 42.1005 61.2889 44.6404 56.1956 49.7168C51.1024 54.7932 48.5557 60.9338 48.5557 68.1387H45.9447C40.8967 68.1387 36.5885 69.9182 33.02 73.4772C29.4516 77.0363 27.6674 81.3331 27.6674 86.3679C27.6674 91.4026 29.4516 95.6995 33.02 99.2585C36.5885 102.818 40.8967 104.597 45.9447 104.597Z" fill="url(#paint0_linear_8271_825)"/>
<g clip-path="url(#clip0_8271_825)">
<path d="M63.0997 94.9629C59.8418 97.2804 55.1112 98.5183 51.0797 98.5183C45.3523 98.5183 40.22 96.4743 36.3373 93.0916C36.0249 92.8182 36.3075 92.4583 36.6794 92.6742C40.8746 95.0205 46.0366 96.4455 51.3921 96.4455C55.007 96.4455 58.979 95.7258 62.6237 94.2C63.1741 93.9841 63.6353 94.5743 63.0997 94.9629ZM64.4684 93.4803C64.0369 92.9477 61.7014 93.2212 60.6452 93.3363C60.3327 93.3795 60.2881 93.106 60.5708 92.9045C62.4303 91.6522 65.4948 92.0409 65.837 92.4295C66.194 92.8613 65.7477 95.8266 64.0072 97.2372C63.7245 97.4531 63.4716 97.338 63.5907 97.0789C63.9923 96.1 64.87 93.9697 64.4684 93.4803Z" fill="#F7AF15"/>
<path d="M39.5255 89.8374C39.007 89.8374 38.5383 89.7415 38.1192 89.5497C37.7002 89.3544 37.3682 89.0721 37.1231 88.7028C36.8817 88.3335 36.7609 87.8807 36.7609 87.3445C36.7609 86.8828 36.8497 86.5028 37.0273 86.2045C37.2048 85.9062 37.4445 85.6701 37.7464 85.4961C38.0482 85.3221 38.3856 85.1907 38.7584 85.1019C39.1313 85.0131 39.5113 84.9457 39.8984 84.8995C40.3884 84.8427 40.7861 84.7965 41.0915 84.761C41.3969 84.7219 41.6189 84.6598 41.7574 84.5746C41.8959 84.4893 41.9651 84.3509 41.9651 84.1591V84.1218C41.9651 83.6566 41.8337 83.2962 41.5709 83.0405C41.3117 82.7848 40.9246 82.657 40.4097 82.657C39.8735 82.657 39.4509 82.7759 39.142 83.0138C38.8366 83.2482 38.6253 83.5092 38.5081 83.7969L37.0113 83.456C37.1888 82.9588 37.4481 82.5575 37.789 82.2521C38.1334 81.9432 38.5294 81.7195 38.9768 81.581C39.4243 81.4389 39.8948 81.3679 40.3884 81.3679C40.7151 81.3679 41.0614 81.407 41.4271 81.4851C41.7964 81.5597 42.1409 81.6982 42.4605 81.9006C42.7837 82.103 43.0482 82.3924 43.2542 82.7688C43.4602 83.1417 43.5631 83.6264 43.5631 84.223V89.6562H42.0077V88.5376H41.9438C41.8408 88.7436 41.6864 88.946 41.4804 89.1449C41.2744 89.3437 41.0099 89.5089 40.6867 89.6403C40.3636 89.7717 39.9765 89.8374 39.5255 89.8374ZM39.8717 88.5589C40.3121 88.5589 40.6885 88.4719 41.001 88.2979C41.317 88.1239 41.5567 87.8967 41.7201 87.6161C41.887 87.332 41.9704 87.0284 41.9704 86.7053V85.6506C41.9136 85.7074 41.8035 85.7607 41.6402 85.8104C41.4804 85.8565 41.2975 85.8974 41.0915 85.9329C40.8856 85.9648 40.6849 85.995 40.4896 86.0234C40.2943 86.0483 40.131 86.0696 39.9996 86.0874C39.6906 86.1264 39.4083 86.1921 39.1526 86.2844C38.9005 86.3768 38.6981 86.5099 38.5454 86.6839C38.3962 86.8544 38.3217 87.0817 38.3217 87.3658C38.3217 87.7599 38.4673 88.0582 38.7584 88.2607C39.0496 88.4595 39.4207 88.5589 39.8717 88.5589ZM47.4583 89.6562L45.0506 81.4744H46.6966L48.2999 87.483H48.3798L49.9885 81.4744H51.6344L53.2324 87.4563H53.3123L54.905 81.4744H56.551L54.1486 89.6562H52.524L50.8621 83.7489H50.7395L49.0776 89.6562H47.4583ZM64.1935 83.4719L62.7499 83.7276C62.6896 83.543 62.5937 83.3672 62.4623 83.2003C62.3344 83.0334 62.1604 82.8967 61.9403 82.7901C61.7201 82.6836 61.4449 82.6303 61.1146 82.6303C60.6636 82.6303 60.2872 82.7315 59.9854 82.9339C59.6835 83.1328 59.5326 83.3903 59.5326 83.7063C59.5326 83.9798 59.6338 84.1999 59.8362 84.3668C60.0386 84.5337 60.3653 84.6705 60.8163 84.777L62.116 85.0753C62.8689 85.2493 63.43 85.5174 63.7993 85.8796C64.1686 86.2418 64.3533 86.7124 64.3533 87.2912C64.3533 87.7812 64.2112 88.218 63.9271 88.6016C63.6466 88.9815 63.2542 89.2798 62.7499 89.4964C62.2492 89.7131 61.6686 89.8214 61.0081 89.8214C60.0919 89.8214 59.3444 89.6261 58.7655 89.2354C58.1867 88.8413 57.8316 88.282 57.7002 87.5575L59.2396 87.3232C59.3355 87.7244 59.5326 88.0281 59.8309 88.234C60.1292 88.4364 60.518 88.5376 60.9974 88.5376C61.5195 88.5376 61.9367 88.4293 62.2492 88.2127C62.5617 87.9925 62.718 87.7244 62.718 87.4084C62.718 87.1527 62.6221 86.9379 62.4303 86.7638C62.2421 86.5898 61.9527 86.4585 61.5621 86.3697L60.1771 86.0661C59.4136 85.892 58.849 85.6151 58.4832 85.2351C58.121 84.8551 57.9399 84.3739 57.9399 83.7915C57.9399 83.3086 58.0749 82.886 58.3447 82.5238C58.6146 82.1616 58.9875 81.8793 59.4633 81.6768C59.9392 81.4709 60.4843 81.3679 61.0986 81.3679C61.9829 81.3679 62.6789 81.5597 63.1867 81.9432C63.6945 82.3232 64.0301 82.8327 64.1935 83.4719Z" fill="#202020"/>
</g>
<g clip-path="url(#clip1_8271_825)">
<path d="M104.697 91.6751C104.042 91.6333 103.66 91.2613 103.559 90.5652C103.532 90.38 103.532 90.3751 103.529 89.1731L103.527 88.0095H104.107L104.109 89.1351C104.111 90.1495 104.113 90.2683 104.122 90.3395C104.162 90.6292 104.241 90.8239 104.374 90.9637C104.481 91.0755 104.607 91.141 104.781 91.1759C104.863 91.1922 105.096 91.1922 105.17 91.1759C105.338 91.1417 105.492 91.0586 105.612 90.9369C105.754 90.7957 105.859 90.5953 105.909 90.3686L105.927 90.2921L105.929 89.1572L105.93 88.0223H106.523V91.5907H105.937V91.3075C105.937 91.1152 105.934 91.0252 105.93 91.0267C105.917 91.0422 105.905 91.0593 105.896 91.0777C105.79 91.267 105.633 91.4235 105.443 91.53C105.222 91.6515 105 91.6946 104.697 91.6751H104.697ZM111.351 91.6722C111.113 91.6523 110.882 91.5773 110.677 91.453C110.258 91.1944 110.009 90.7678 109.936 90.181C109.911 89.9781 109.908 89.7053 109.929 89.5328C109.976 89.1471 110.128 88.7686 110.345 88.4984C110.4 88.4291 110.526 88.3038 110.596 88.2485C110.783 88.0994 111.002 87.9952 111.236 87.9439C111.372 87.9143 111.611 87.9005 111.756 87.9138C112.118 87.9472 112.45 88.1173 112.676 88.3849C112.906 88.6568 113.032 89.0369 113.048 89.5049C113.05 89.5783 113.051 89.707 113.049 89.7907L113.046 89.943L111.776 89.9447L110.507 89.9461V90.0027C110.509 90.1865 110.548 90.368 110.621 90.5368C110.683 90.6805 110.791 90.8373 110.879 90.9131C111.06 91.0689 111.285 91.1638 111.523 91.1843C111.613 91.1927 111.841 91.1838 111.944 91.1682C112.23 91.1254 112.503 91.0136 112.737 90.8424C112.763 90.8227 112.788 90.8041 112.793 90.8015C112.799 90.7974 112.801 90.8486 112.8 91.0649V91.3335L112.74 91.3705C112.481 91.5287 112.191 91.6289 111.889 91.6643C111.798 91.6756 111.461 91.6806 111.351 91.6722ZM112.457 89.4072C112.457 89.1192 112.335 88.7994 112.162 88.6349C112.04 88.5174 111.883 88.4416 111.714 88.4183C111.63 88.4053 111.454 88.4101 111.366 88.4279C111.186 88.4621 111.02 88.5497 110.891 88.6794C110.749 88.82 110.641 88.9916 110.577 89.1808C110.553 89.2501 110.525 89.3636 110.516 89.4272L110.512 89.4572H112.456L112.457 89.4072ZM95.2311 91.5827L96.1893 89.0747L97.1449 86.5748H97.759L97.7844 86.6398C97.8623 86.8385 99.6974 91.5851 99.6974 91.5878C99.6974 91.5892 99.5502 91.5907 99.3708 91.5907H99.0441L98.7797 90.8891L98.5151 90.1875H96.3854L96.3763 90.2113C96.3712 90.2243 96.2581 90.54 96.1251 90.9126L95.8832 91.5904H95.5561C95.297 91.5904 95.2289 91.589 95.2311 91.5827ZM98.3206 89.6521C98.3206 89.6509 98.1429 89.1702 97.925 88.5839C97.5183 87.4867 97.4956 87.4208 97.4633 87.2444C97.4483 87.1619 97.4406 87.1597 97.4319 87.2348C97.4193 87.3166 97.4007 87.3973 97.3762 87.4764C97.3656 87.5096 97.1822 88.0105 96.969 88.5899C96.8384 88.9423 96.709 89.2952 96.5808 89.6485C96.5808 89.6516 96.9724 89.6541 97.4507 89.6541C97.9294 89.6541 98.3206 89.6531 98.3206 89.6521ZM99.895 91.4992V91.4078L100.956 89.9548L102.017 88.5016L101.056 88.4984L100.096 88.4953L100.094 88.2523L100.092 88.0095H102.871V88.1736L101.81 89.6348C101.227 90.4384 100.749 91.0972 100.749 91.0986C100.749 91.1003 101.221 91.1018 101.797 91.1018H102.846V91.5907H99.895V91.4992ZM107.681 91.5863C107.678 91.5839 107.677 90.7784 107.677 89.796V88.0095H108.257V88.3777C108.257 88.5805 108.259 88.7463 108.262 88.7463C108.265 88.7463 108.279 88.7131 108.293 88.6724C108.361 88.4836 108.472 88.3133 108.617 88.1753C108.743 88.0542 108.903 87.9749 109.076 87.9484C109.125 87.9405 109.167 87.9388 109.267 87.9414C109.392 87.9448 109.457 87.954 109.533 87.9785L109.557 87.9864V88.586L109.488 88.5519C109.37 88.492 109.237 88.4655 109.104 88.4751C109.011 88.4799 108.95 88.4919 108.875 88.5199C108.723 88.5755 108.594 88.6801 108.509 88.8172C108.38 89.0288 108.297 89.2657 108.267 89.5119C108.262 89.5544 108.259 89.9004 108.258 90.5825L108.256 91.5907H107.971C107.814 91.5907 107.683 91.5887 107.681 91.5863ZM86.9137 84.0762C87.0113 84.076 87.1065 84.1065 87.1859 84.1633C87.2652 84.2201 87.3246 84.3003 87.3557 84.3926L90.1893 92.766C90.2129 92.836 90.2195 92.9106 90.2086 92.9837C90.1976 93.0568 90.1693 93.1262 90.1261 93.1862C90.0829 93.2462 90.026 93.295 89.9601 93.3288C89.8941 93.3625 89.8211 93.38 89.7471 93.38H93.0125C93.1241 93.3796 93.2319 93.3394 93.3164 93.2667C93.401 93.194 93.4567 93.0936 93.4735 92.9835C93.4847 92.9105 93.4781 92.8359 93.4542 92.766L90.6208 84.3926C90.5897 84.3003 90.5303 84.2201 90.451 84.1633C90.3717 84.1065 90.2765 84.076 90.1789 84.0762H86.9137ZM86.8083 84.1123C86.7106 84.1124 86.6154 84.1431 86.5361 84.1999C86.4568 84.2567 86.3972 84.3369 86.3659 84.4291L83.5323 92.8021C83.5086 92.872 83.502 92.9466 83.5129 93.0196C83.5239 93.0926 83.5521 93.162 83.5953 93.2219C83.6385 93.2819 83.6953 93.3307 83.7612 93.3644C83.827 93.3981 83.9 93.4157 83.974 93.4156H86.2539C86.3516 93.4155 86.4468 93.385 86.5262 93.3282C86.6056 93.2714 86.6652 93.1913 86.6966 93.099L87.2505 91.4689L86.1922 90.4572C86.1729 90.4379 86.0853 90.2779 86.1632 90.1425C86.2506 90.0118 86.3963 90.0118 86.3963 90.0118H87.7602L88.4762 87.9542L87.2519 84.3635C87.2488 84.3459 87.1801 84.2557 87.072 84.184C86.9639 84.1118 86.8081 84.1123 86.8081 84.1123H86.8083ZM86.4233 90.0729C86.3801 90.0729 86.3379 90.0858 86.3022 90.1101C86.2665 90.1343 86.239 90.1687 86.2231 90.2087C86.2073 90.2488 86.2039 90.2927 86.2135 90.3347C86.223 90.3767 86.245 90.4148 86.2766 90.4442L89.2617 93.2232C89.3485 93.304 89.459 93.3514 89.5777 93.3514C89.5777 93.3514 89.679 93.3584 89.7401 93.3487C89.8834 93.3261 90.0182 93.2094 90.0628 93.1604C90.1777 93.0078 90.1256 92.7706 90.1256 92.7706L89.2219 90.0727L86.4233 90.0729Z" fill="#84D7F5"/>
</g>
<path d="M75.5753 55.3585H75.8953L76.7971 54.4591L76.8553 54.0819C76.1571 53.4436 75.1971 53.0664 74.1499 53.0664C72.2881 53.0664 70.6881 54.343 70.2227 56.0548C70.3099 55.9968 70.5427 56.0258 70.5427 56.0258L72.3463 55.7357C72.3463 55.7357 72.4335 55.5906 72.4917 55.5906C73.3062 54.7202 74.6444 54.6332 75.5753 55.3585Z" fill="#EA4535"/>
<path d="M78.107 56.055C77.8743 55.3006 77.467 54.6043 76.8561 54.082L75.5761 55.3586C76.1288 55.7938 76.4197 56.4322 76.4197 57.1285V57.3606C77.0306 57.3606 77.5543 57.8538 77.5543 58.4921C77.5543 59.1014 77.0597 59.5947 76.4197 59.5947H74.1507L73.918 59.8268V61.1904L74.1507 61.4225H76.4197C78.0488 61.4225 79.3579 60.1169 79.3579 58.4921C79.3579 57.5057 78.8633 56.6062 78.0779 56.084L78.107 56.055Z" fill="#557EBF"/>
<path d="M71.9112 61.3937H74.1803V59.5949H71.9112C71.7367 59.5949 71.5912 59.5658 71.4458 59.5078L71.1258 59.5949L70.224 60.4943L70.1367 60.7844C70.6313 61.1906 71.2712 61.3937 71.9112 61.3937Z" fill="#36A852"/>
<path d="M71.9108 55.5312C70.2817 55.5312 68.9727 56.8369 68.9727 58.4616C68.9727 59.3901 69.409 60.2605 70.1363 60.8118L71.4453 59.5061C71.0381 59.303 70.7763 58.9259 70.7763 58.4616C70.7763 57.8524 71.2708 57.3301 71.9108 57.3301C72.3471 57.3591 72.7544 57.6202 72.9289 57.9974L74.238 56.6918C73.7144 55.9955 72.8417 55.5312 71.9108 55.5312Z" fill="#F9BC15"/>
<path d="M60.2144 67.0795C59.6035 67.0795 59.0798 66.8473 58.6144 66.4121C58.1489 65.9769 57.9453 65.4837 57.9453 64.8454C57.9453 64.2071 58.178 63.7139 58.6144 63.2786C59.0507 62.8434 59.6035 62.6113 60.2144 62.6113C60.7671 62.6403 61.3198 62.8434 61.7271 63.2496L61.2907 63.6848C60.9998 63.3947 60.6216 63.2496 60.1853 63.2496C59.7489 63.2496 59.3707 63.3947 59.0507 63.7139C58.7598 64.004 58.5853 64.4392 58.6144 64.8454C58.6144 65.2806 58.7598 65.6868 59.0798 65.9769C59.3707 66.3251 59.778 66.4702 60.1853 66.4702C60.6507 66.4702 60.9998 66.3251 61.3198 66.035C61.4943 65.8609 61.6107 65.5997 61.6398 65.2806H60.2144V64.6713H62.2507C62.2798 64.7874 62.2798 64.9034 62.2798 65.0485C62.2798 65.6578 62.1052 66.122 61.7562 66.4702C61.3489 66.8764 60.8544 67.1085 60.2144 67.1085V67.0795ZM64.9852 66.6733C64.6943 66.9344 64.3743 67.0795 63.967 67.0795C63.5598 67.0795 63.2107 66.9344 62.9489 66.6733C62.687 66.4121 62.5416 66.064 62.5416 65.6578C62.5416 65.2516 62.687 64.9034 62.9489 64.6423C63.2107 64.3812 63.5598 64.2361 63.967 64.2361C64.3743 64.2361 64.7234 64.3812 64.9852 64.6423C65.247 64.9034 65.3925 65.2516 65.3925 65.6578C65.3925 66.064 65.247 66.4121 64.9852 66.6733ZM63.3852 66.2671C63.5307 66.4412 63.7343 66.5282 63.9379 66.5282C64.1707 66.5282 64.3452 66.4412 64.5197 66.2671C64.6943 66.093 64.7525 65.8899 64.7525 65.6578C64.7525 65.3967 64.6652 65.1936 64.5197 65.0195C64.3743 64.8454 64.1707 64.7874 63.9379 64.7874C63.7343 64.7874 63.5016 64.8744 63.3561 65.0195C63.2107 65.1936 63.1234 65.3967 63.1234 65.6578C63.1234 65.9189 63.2107 66.122 63.3561 66.2671H63.3852ZM68.127 66.6733C67.836 66.9344 67.5161 67.0795 67.1088 67.0795C66.7015 67.0795 66.3524 66.9344 66.0906 66.6733C65.8288 66.4121 65.6834 66.064 65.6834 65.6578C65.6834 65.2516 65.8288 64.9034 66.0906 64.6423C66.3524 64.3812 66.7015 64.2361 67.1088 64.2361C67.5161 64.2361 67.8651 64.3812 68.127 64.6423C68.3888 64.9034 68.5342 65.2516 68.5342 65.6578C68.5342 66.064 68.3888 66.4121 68.127 66.6733ZM66.527 66.2671C66.6724 66.4412 66.8761 66.5282 67.0797 66.5282C67.3124 66.5282 67.487 66.4412 67.6615 66.2671C67.836 66.093 67.8942 65.8899 67.8942 65.6578C67.8942 65.3967 67.807 65.1936 67.6615 65.0195C67.5161 64.8454 67.3124 64.7874 67.0797 64.7874C66.8761 64.7874 66.6433 64.8744 66.4979 65.0195C66.3524 65.1936 66.2652 65.3967 66.2652 65.6578C66.2652 65.9189 66.3524 66.122 66.4979 66.2671H66.527ZM70.1924 68.3561C69.8724 68.3561 69.6106 68.269 69.3778 68.0949C69.1451 67.9209 68.9997 67.7178 68.9124 67.5147L69.4651 67.2826C69.5233 67.4276 69.6106 67.5437 69.7269 67.6307C69.9015 67.7613 69.9887 67.7758 70.1924 67.7758C70.4251 67.7758 70.6287 67.6887 70.7451 67.5727C70.8615 67.4566 70.9487 67.2245 70.9487 66.9344V66.7313H70.9196C70.7451 66.9344 70.4833 67.0504 70.1633 67.0504C69.7851 67.0504 69.4651 66.9054 69.2033 66.6442C68.9124 66.4121 68.7669 66.035 68.796 65.6578C68.7669 65.2806 68.9124 64.9034 69.2033 64.6423C69.4651 64.3522 69.7851 64.2361 70.1633 64.2361C70.3378 64.2361 70.4833 64.2651 70.5996 64.3231C70.7742 64.4102 70.8324 64.4682 70.9196 64.5553H70.9487V64.3231H71.5596V66.9054C71.5596 67.3986 71.4433 67.7758 71.1814 68.0369C70.9196 68.269 70.5996 68.4141 70.1924 68.4141V68.3561ZM70.2215 66.4992C70.4251 66.5282 70.6287 66.4412 70.7451 66.2671C70.8905 66.093 70.9778 65.8899 70.9778 65.6578C70.9778 65.3967 70.8905 65.1936 70.7451 65.0195C70.6287 64.8744 70.4251 64.7874 70.2215 64.7874C69.9887 64.7874 69.8142 64.8744 69.6687 65.0485C69.5233 65.2226 69.436 65.4257 69.436 65.6868C69.436 65.9189 69.5233 66.151 69.6687 66.2961C69.8142 66.4411 70.0178 66.5572 70.2215 66.5572V66.4992ZM72.6069 62.7564V66.9634H71.9669V62.7564H72.6069ZM74.3232 67.0504C73.9159 67.0504 73.5669 66.9054 73.305 66.6442C73.0432 66.3831 72.8978 66.035 72.8978 65.6288C72.8978 65.2226 73.0432 64.8744 73.305 64.5843C73.5378 64.3522 73.8869 64.2071 74.265 64.2071C74.4396 64.2071 74.6141 64.2361 74.7596 64.2941C74.8759 64.3812 74.9923 64.4392 75.1086 64.5553C75.1959 64.6423 75.2832 64.7293 75.3414 64.8454C75.3996 64.9324 75.4577 65.0195 75.4868 65.1355L75.545 65.3096L73.625 66.093C73.7705 66.3831 74.0032 66.5282 74.3232 66.5282C74.6141 66.5282 74.8468 66.3831 75.0214 66.122L75.5159 66.4411C75.3996 66.6152 75.2541 66.7603 75.0505 66.8764C74.8468 66.9924 74.6141 67.0795 74.3232 67.0795V67.0504ZM73.5378 65.5707L74.8177 65.0485C74.7887 64.9614 74.7014 64.8744 74.6141 64.8164C74.4978 64.7874 74.3814 64.7584 74.265 64.7584C74.0905 64.7584 73.9159 64.8454 73.7414 64.9905C73.5669 65.1355 73.5087 65.3386 73.5087 65.5997L73.5378 65.5707ZM78.8613 67.0504C78.2795 67.0504 77.8141 66.8473 77.4068 66.4702C76.9995 66.093 76.825 65.5997 76.825 65.0195C76.825 64.4392 77.0286 63.946 77.4068 63.5688C77.785 63.1916 78.2795 62.9885 78.8613 62.9885C79.4431 62.9885 79.9377 63.1916 80.2867 63.6268L79.9377 63.975C79.6758 63.6558 79.2977 63.4817 78.8613 63.4817C78.425 63.4817 78.0759 63.6268 77.785 63.9169C77.4941 64.2071 77.3486 64.5843 77.3486 65.0485C77.3486 65.5127 77.4941 65.8899 77.785 66.18C78.0759 66.4702 78.425 66.6152 78.8613 66.6152C79.3268 66.6152 79.734 66.4412 80.054 66.064L80.4031 66.4121C80.2286 66.6152 79.9958 66.7893 79.734 66.9054C79.4431 67.0214 79.1522 67.0795 78.8613 67.0795V67.0504ZM81.3631 66.9634H80.8685V63.1046H81.3631V66.9634ZM82.1776 64.6133C82.4394 64.3522 82.7594 64.2071 83.1667 64.2071C83.574 64.2071 83.894 64.3522 84.1558 64.6133C84.4176 64.8744 84.5339 65.2226 84.5339 65.6288C84.5339 66.035 84.4176 66.3831 84.1558 66.6442C83.894 66.9054 83.574 67.0504 83.1667 67.0504C82.7594 67.0504 82.4394 66.9054 82.1776 66.6442C81.9158 66.3831 81.7994 66.035 81.7994 65.6288C81.7994 65.2226 81.9158 64.8744 82.1776 64.6133ZM82.5558 66.3251C82.7303 66.4992 82.934 66.5862 83.1667 66.5862C83.5158 66.5862 83.603 66.4992 83.7776 66.3251C83.9521 66.151 84.0394 65.9189 84.0394 65.6288C84.0394 65.3386 83.9521 65.1065 83.7776 64.9324C83.603 64.7583 83.3994 64.6713 83.1667 64.6713C82.934 64.6713 82.7303 64.7583 82.5558 64.9324C82.3812 65.1065 82.294 65.3386 82.294 65.6288C82.294 65.9189 82.3812 66.151 82.5558 66.3251ZM87.2975 66.9634H86.8321V66.5862H86.803C86.7157 66.7023 86.5994 66.8183 86.4539 66.9054C86.3085 66.9924 86.1339 67.0504 85.9594 67.0504C85.6394 67.0504 85.3776 66.9634 85.203 66.7603C85.0285 66.5572 84.9412 66.2961 84.9412 65.9479V64.3231H85.4357V65.8609C85.4357 66.3541 85.6685 66.6152 86.1048 66.6152C86.2794 66.6152 86.483 66.5282 86.5994 66.3831C86.7157 66.209 86.7739 66.0059 86.7739 65.8028V64.3522H87.2684V67.0214L87.2975 66.9634ZM88.9848 67.0504C88.6357 67.0504 88.3448 66.9054 88.083 66.6442C87.8212 66.3831 87.7048 66.035 87.7048 65.6288C87.7048 65.2226 87.8212 64.9034 88.083 64.6133C88.3448 64.3231 88.6357 64.2071 88.9848 64.2071C89.1884 64.2071 89.3629 64.2651 89.5375 64.3231C89.712 64.3812 89.8284 64.5262 89.8866 64.6423H89.9157L89.8866 64.2651V63.0465H90.3811V66.9344H89.9157V66.5572H89.8866C89.7993 66.6733 89.6829 66.7893 89.5375 66.8764C89.3629 66.9634 89.1884 66.9924 88.9848 66.9924V67.0504ZM89.072 66.5862C89.2757 66.6152 89.5084 66.5282 89.6539 66.3541C89.8284 66.18 89.8866 65.9479 89.8866 65.6578C89.8866 65.3676 89.7993 65.1355 89.6539 64.9614C89.5084 64.8164 89.2757 64.7003 89.072 64.7003C88.8393 64.7003 88.6357 64.7874 88.4611 64.9614C88.1993 65.2226 88.1993 65.3676 88.1993 65.6578C88.1993 65.9479 88.2866 66.18 88.4611 66.3541C88.6066 66.5282 88.8393 66.6442 89.072 66.6442V66.5862Z" fill="#5F6368"/>
<defs>
<linearGradient id="paint0_linear_8271_825" x1="52.8696" y1="45.7202" x2="87.2387" y2="111.012" gradientUnits="userSpaceOnUse">
<stop stop-color="#701088"/>
<stop offset="1" stop-color="#323EC0"/>
</linearGradient>
<clipPath id="clip0_8271_825">
<rect width="32.4028" height="34.5463" fill="white" transform="translate(33.3242 72.6074)"/>
</clipPath>
<clipPath id="clip1_8271_825">
<rect width="30.8784" height="30.7971" fill="white" transform="translate(82.8398 73.3477)"/>
</clipPath>
</defs>
</svg>
