<svg width="148" height="148" viewBox="0 0 148 148" fill="none" xmlns="http://www.w3.org/2000/svg">
<g clip-path="url(#clip0_8271_1600)">
<path d="M97.2 62.891C91.5498 37.9757 78.2003 29.8061 76.7659 26.6753C75.1905 24.4549 73.4941 20.2559 73.4941 20.2559C73.4773 20.3432 73.4773 20.3969 73.4605 20.4843V20.538C73.4605 20.6086 73.4437 20.6422 73.4437 20.7127V20.7833H73.4269V21.0083H73.4101C73.4101 21.0419 73.4101 21.0957 73.3933 21.1125V21.2166C73.3955 21.2547 73.3899 21.2838 73.3765 21.3039V21.3913C73.3787 21.4473 73.3731 21.4943 73.3597 21.5324V21.5492C73.3573 21.6263 73.346 21.703 73.3261 21.7776V21.8112C73.3127 21.8269 73.3071 21.8448 73.3093 21.8649V21.9355H73.2925V22.0396H73.2757V22.1101H73.2421V22.2143H73.2253V22.3016H73.2085V22.3722H73.1917V22.4427H73.1749V22.5132H73.1581V22.5838H73.1413V22.6375H73.1245V22.7081H73.1078V22.7786H73.091C73.0742 22.7786 73.0742 22.7954 73.0742 22.7954V22.829L73.0574 22.8626C73.0551 22.8984 73.0439 22.9332 73.0238 22.9667C73.007 22.9835 73.007 22.9835 73.007 23.0003V23.0339H72.9902V23.0675H72.9566V23.1549H72.923V23.2086H72.9062V23.2254H72.8894V23.259H72.8726V23.3127H72.8558V23.3463H72.8222V23.4001H72.8054V23.4337H72.7886V23.4673H72.7718V23.521H72.755V23.5546H72.7382V23.5714H72.7214V23.605H72.6879V23.6587H72.6711V23.6755H72.6543V23.7091H72.6375V23.7629H72.6207V23.7797H72.6039V23.8133H72.5871V23.8301H72.5703V23.8838H72.5367V23.9006H72.5199V23.9342H72.5031V23.951H72.4863V23.9846H72.4695V24.0182C72.4527 24.0182 72.4527 24.035 72.4527 24.035V24.0518H72.4359L72.3822 24.1391C72.3822 24.1391 72.3486 24.1727 72.3486 24.1929C72.3318 24.1929 72.3318 24.2096 72.3318 24.2096V24.2264H72.315V24.2432H72.2982V24.2768H72.2646V24.2936H72.2478V24.3104H72.231V24.3608H72.2142V24.3776H72.1974V24.3944H72.1806V24.428H72.1638V24.3944H72.1302V24.4112H72.1134V24.4448H72.0966V24.4784H72.0798V24.4952H72.063V24.512H72.0462V24.5288H72.0294V24.5624H71.9959V24.5792H71.9791V24.6128H71.9623V24.6296H71.9455V24.6463H71.9287V24.7001H71.9119V24.7169H71.8951V24.7337H71.8783V24.7505H71.8615V24.7673H71.8279V24.8009H71.8111V24.8177H71.7943V24.8345H71.7775V24.8681H71.7607V24.8849H71.7271V24.9016H71.7103V24.9184H71.6935V24.952H71.6767V24.9856H71.6599V25.0024H71.6431V25.0192H71.6095V25.036H71.5927V25.0528H71.576V25.0864H71.5592V25.1032H71.5424V25.1368H71.5256V25.1536H71.5088V25.1704H71.492V25.1872H71.4752V25.204H71.4416V25.2208C71.4248 25.2208 71.4248 25.2376 71.4248 25.2376L71.408 25.2544L71.3912 25.2712V25.3048H71.3744V25.3215H71.3576V25.3383H71.3408V25.3551H71.324L71.2904 25.3887V25.4055C71.2568 25.4223 71.2568 25.4391 71.2199 25.4761C71.2199 25.4761 71.1863 25.5097 71.1661 25.5097C71.1124 25.5433 71.0452 25.6138 70.9914 25.6675C70.9579 25.6843 70.9209 25.7213 70.8873 25.7381C70.8179 25.8053 70.7473 25.8635 70.6757 25.9128C70.5715 26.0169 70.4641 26.0874 70.3431 26.1916H70.3263L69.5033 26.9105H69.4865C68.7341 27.5756 67.8405 28.4322 66.826 29.4467L66.7387 29.534C60.6484 35.8325 51.0445 48.9704 50.0468 70.1939C49.9426 71.944 49.9594 73.6572 50.0636 75.32V75.3536C50.554 83.7181 53.1776 90.8564 56.4662 96.6645C57.7595 98.9756 59.1771 101.075 60.6115 102.963C65.5462 109.473 70.585 113.34 71.8615 114.284C73.8401 118.849 73.662 126.723 73.662 126.723L76.5476 127.683C76.5476 127.683 75.953 120.071 76.776 116.38C77.038 115.241 77.6326 114.263 78.3347 113.424C78.8251 113.091 80.2259 112.077 81.9055 110.538C81.9929 110.451 82.0466 110.38 82.1172 110.293C88.9229 103.941 101.644 88.3 97.2873 62.8271L97.2 62.891Z" fill="#202020"/>
</g>
<defs>
<clipPath id="clip0_8271_1600">
<rect width="107.495" height="107.495" fill="white" transform="translate(20.2539 20.252)"/>
</clipPath>
</defs>
</svg>
