<svg width="148" height="148" viewBox="0 0 148 148" fill="none" xmlns="http://www.w3.org/2000/svg">
<circle cx="74" cy="74" r="74" fill="white"/>
<g clip-path="url(#clip0_8271_1607)">
<path d="M99.3893 62.7688C93.3093 36.1962 80.6379 29.1221 77.4054 24.1215C76.0717 21.919 74.8909 19.629 73.8711 17.2676C73.7003 19.6287 73.3864 21.115 71.3611 22.9056C67.2948 26.4975 50.0246 40.441 48.5711 70.6335C47.2168 98.7846 69.4592 116.143 72.3974 117.937C74.657 119.039 77.4089 117.961 78.7516 116.949C89.4732 109.659 104.123 90.223 99.4009 62.7688" fill="#10AA50"/>
<path d="M73.9658 102.777C73.3939 109.774 72.9841 113.84 71.5312 117.838C71.5312 117.838 72.4847 124.499 73.1545 131.555H75.5241C76.0901 126.586 76.9532 121.654 78.109 116.783C75.0412 115.313 74.0837 108.917 73.9658 102.777Z" fill="#B8C4C2"/>
<path d="M78.8723 116.756C75.7258 115.361 74.8156 108.827 74.6756 102.741C75.4533 92.6999 75.6802 82.6268 75.3554 72.5631C75.1902 67.2828 75.4332 23.6552 74 17.2676C74.9798 19.4313 76.1096 21.5296 77.3816 23.5483C80.7339 28.5759 93.8793 35.6826 100.181 62.3776C105.089 89.911 89.9794 109.385 78.8723 116.756Z" fill="#12924F"/>
</g>
<defs>
<clipPath id="clip0_8271_1607">
<rect width="148" height="148" fill="white"/>
</clipPath>
</defs>
</svg>
