<svg width="150" height="148" viewBox="0 0 150 148" fill="none" xmlns="http://www.w3.org/2000/svg">
<g clip-path="url(#clip0_8271_879)">
<path d="M126.469 -21H25.5312C0.937321 -21 -19 -1.06268 -19 23.5312V124.469C-19 149.063 0.937321 169 25.5312 169H126.469C151.063 169 171 149.063 171 124.469V23.5312C171 -1.06268 151.063 -21 126.469 -21Z" fill="white"/>
<path d="M80.5019 35.0269L105 35L63.8989 75.5722L53.1874 86.0924L41 74.0408L80.5019 35.0269ZM80.2739 71.2528C80.5919 70.8381 81.177 71.0428 81.621 70.9894L104.979 70.9951L83.6907 92L71.4401 79.9749L80.2739 71.2528Z" fill="#44D1FD"/>
<path d="M59 92.9885L71.4541 80L83.948 92.9666L84 93.0241L71.4572 106L59 92.9885Z" fill="#1FBCFD"/>
<path d="M72 104.588L84.0988 92L105 113.971C97.1271 113.99 89.2568 113.965 81.387 113.984C80.9384 114.089 80.661 113.658 80.3746 113.392L72 104.588Z" fill="#08589C"/>
</g>
<defs>
<clipPath id="clip0_8271_879">
<rect x="2" width="148" height="148" rx="74" fill="white"/>
</clipPath>
</defs>
</svg>
