<svg width="148" height="148" viewBox="0 0 148 148" fill="none" xmlns="http://www.w3.org/2000/svg">
<path d="M74.0013 33.168C68.639 33.168 63.3292 34.2242 58.3751 36.2762C53.4209 38.3283 48.9195 41.3361 45.1278 45.1278C37.47 52.7855 33.168 63.1716 33.168 74.0013C33.168 92.0496 44.8871 107.362 61.098 112.793C63.1396 113.12 63.793 111.854 63.793 110.751V103.85C52.4821 106.3 50.073 98.3788 50.073 98.3788C48.1946 93.6421 45.5405 92.3763 45.5405 92.3763C41.8246 89.8446 45.8263 89.9263 45.8263 89.9263C49.9096 90.2121 52.0738 94.1321 52.0738 94.1321C55.6263 100.339 61.6288 98.5013 63.9563 97.5213C64.3238 94.8671 65.3855 93.0705 66.5288 92.0496C57.4638 91.0288 47.9496 87.5171 47.9496 71.9596C47.9496 67.4271 49.5013 63.793 52.1555 60.8938C51.7471 59.873 50.318 55.6263 52.5638 50.1138C52.5638 50.1138 55.9938 49.0113 63.793 54.2788C67.0188 53.3805 70.5305 52.9313 74.0013 52.9313C77.4721 52.9313 80.9838 53.3805 84.2096 54.2788C92.0088 49.0113 95.4388 50.1138 95.4388 50.1138C97.6846 55.6263 96.2555 59.873 95.8471 60.8938C98.5013 63.793 100.053 67.4271 100.053 71.9596C100.053 87.558 90.498 90.988 81.3921 92.0088C82.8621 93.2746 84.2096 95.7655 84.2096 99.563V110.751C84.2096 111.854 84.863 113.16 86.9455 112.793C103.156 107.321 114.835 92.0496 114.835 74.0013C114.835 68.639 113.778 63.3292 111.726 58.3751C109.674 53.4209 106.667 48.9195 102.875 45.1278C99.0831 41.3361 94.5817 38.3283 89.6275 36.2762C84.6734 34.2242 79.3636 33.168 74.0013 33.168Z" fill="#202020"/>
</svg>
