<svg width="148" height="148" viewBox="0 0 148 148" fill="none" xmlns="http://www.w3.org/2000/svg">
<circle cx="74" cy="74" r="74" fill="#FF2D20"/>
<g clip-path="url(#clip0_8271_958)">
<path d="M80.9831 70.0478L96.358 78.5894M80.9831 70.0478L51.9414 86.1061M80.9831 70.0478V52.9644M36.5664 45.1061L51.9414 36.5645L67.3164 45.1061M36.5664 45.1061V94.6478L67.3164 111.731M36.5664 45.1061L51.9414 53.6478M67.3164 111.731L96.358 95.6728V61.5061M67.3164 111.731V94.6478M96.358 61.5061L111.733 52.9644M96.358 61.5061L80.9831 52.9644M111.733 52.9644V70.0478L67.3164 94.6478M111.733 52.9644L96.358 44.4228L80.9831 52.9644M67.3164 94.6478L51.9414 86.1061M51.9414 86.1061V53.6478M51.9414 53.6478L67.3164 45.1061M67.3164 45.1061V77.5644" stroke="#F1F1F1" stroke-width="6" stroke-linecap="round" stroke-linejoin="round"/>
</g>
<defs>
<clipPath id="clip0_8271_958">
<rect width="82" height="82" fill="white" transform="translate(33 33)"/>
</clipPath>
</defs>
</svg>
