<svg width="148" height="148" viewBox="0 0 148 148" fill="none" xmlns="http://www.w3.org/2000/svg">
<circle cx="74" cy="74" r="74" fill="white"/>
<path d="M21 96.6195H24.5129V82.7508L29.9504 94.8398C30.5905 96.3056 31.4675 96.8199 33.1917 96.8199C34.9158 96.8199 35.7572 96.3056 36.3973 94.8398L41.8348 82.7508V96.6186H45.3477V82.774C45.3477 81.4217 44.8078 80.7683 43.6915 80.4321C41.0224 79.6007 39.2337 80.3186 38.4221 82.1206L33.0881 94.0539L27.9223 82.1206C27.1463 80.3186 25.322 79.6007 22.6563 80.4321C21.5399 80.7683 21 81.4217 21 82.774V96.6195ZM48.2702 85.3296H51.7798V92.9707C51.7475 93.3848 51.9123 94.3587 53.8368 94.391H61.4746V85.2907H64.9941C65.0107 85.2907 64.9875 97.6993 64.9875 97.7515C65.0066 100.811 61.193 101.475 59.4333 101.527H48.3447V99.1651L59.4532 99.1618C61.7139 98.9258 61.4456 97.7995 61.4456 97.4244V96.5027H53.9826C50.5086 96.4704 48.2991 94.9533 48.2702 93.2092C48.2668 93.0511 48.3447 85.4075 48.2702 85.3296Z" fill="#00618A"/>
<path d="M67.6992 96.6188H77.7982C78.9791 96.6188 80.1277 96.3695 81.0395 95.943C82.5599 95.2474 83.3003 94.3 83.3003 93.0611V90.4956C83.3003 89.4828 82.4589 88.5354 80.8026 87.9077C79.9257 87.5682 78.8425 87.3901 77.7974 87.3901H73.54C72.1231 87.3901 71.4473 86.9628 71.2792 86.0188C71.2469 85.9053 71.2469 85.815 71.2469 85.7016V84.1033C71.2469 84.013 71.2469 83.9219 71.2792 83.8093C71.4473 83.0913 71.8191 82.8876 73.068 82.7742L73.4075 82.7518H83.4352V80.4132H73.5764C72.1595 80.4132 71.4158 80.5034 70.7393 80.7047C68.6466 81.3581 67.734 82.3932 67.734 84.1952V86.2432C67.734 87.8183 69.5228 89.1706 72.528 89.4845L73.5408 89.53H77.1895C77.3253 89.53 77.4578 89.53 77.5614 89.5524C78.6744 89.6426 79.1464 89.8463 79.4859 90.2513C79.6607 90.4128 79.7609 90.643 79.7542 90.879V92.9303C79.7542 93.1762 79.5861 93.4934 79.2499 93.7617C78.946 94.0333 78.4383 94.2114 77.7651 94.2569L77.3933 94.2793H67.6992V96.6188ZM105.211 92.5427C105.211 94.9526 107.003 96.3016 110.613 96.5732L111.629 96.6188H120.78V94.2768H111.561C109.5 94.2768 108.724 93.7592 108.724 92.5204V80.4082H105.214V92.5419L105.211 92.5427ZM85.5428 92.6653V84.3161C85.5428 82.197 87.0343 80.9101 89.9774 80.5051C90.2915 80.4598 90.6084 80.4371 90.9256 80.4372H97.5896C97.9291 80.4372 98.233 80.4596 98.5734 80.5051C101.517 80.9092 103.006 82.197 103.006 84.3161V92.6653C103.006 94.3861 102.374 95.3053 100.916 95.9066L104.378 99.0286H100.298L97.5001 96.502L94.6828 96.68H90.9273C90.2293 96.6779 89.5349 96.5798 88.8636 96.3885C86.6285 95.7807 85.5445 94.6064 85.5445 92.6653H85.5428ZM89.334 92.4616C89.334 92.575 89.3663 92.6876 89.4019 92.8243C89.6056 93.7948 90.5182 94.3348 91.9053 94.3348H95.0953L92.1645 91.6889H96.2439L98.7995 93.9986C99.2715 93.746 99.5787 93.3642 99.6889 92.8698C99.7212 92.7564 99.7212 92.6438 99.7212 92.5303V84.524C99.7212 84.4337 99.7212 84.3203 99.6889 84.2068C99.4851 83.3042 98.5726 82.7866 97.2177 82.7866H91.9061C90.3501 82.7866 89.3348 83.4623 89.3348 84.524L89.334 92.4616Z" fill="#E48E00"/>
<path d="M123.87 76.5232C121.713 76.4652 120.063 76.6656 118.652 77.261C118.252 77.4291 117.611 77.4324 117.546 77.9343C117.766 78.167 117.802 78.5132 117.977 78.7947C118.313 79.3413 118.883 80.0692 119.39 80.451L121.108 81.6799C122.162 82.3234 123.343 82.6927 124.362 83.3362C124.961 83.7179 125.556 84.1966 126.141 84.6272C126.429 84.8375 126.623 85.1705 127.001 85.303V85.2417C126.804 84.9891 126.752 84.6429 126.571 84.3812L125.772 83.5821C124.992 82.5469 124.002 81.6377 122.948 80.8808C122.106 80.2787 120.231 79.4638 119.878 78.4867L119.817 78.4254C120.412 78.3608 121.111 78.1438 121.658 77.9981C122.583 77.7488 123.407 77.8134 124.359 77.5674L125.65 77.1956V76.953C125.168 76.4577 124.825 75.8044 124.298 75.3547C122.926 74.187 121.425 73.0161 119.879 72.0389C119.022 71.4989 117.964 71.1495 117.055 70.6899C116.751 70.535 116.213 70.4572 116.01 70.198C115.534 69.5901 115.275 68.82 114.907 68.1111L112.697 63.4462C112.232 62.3821 111.927 61.3304 111.345 60.3764C108.56 55.7927 105.558 53.0268 100.909 50.3097C99.9226 49.7308 98.7285 49.5039 97.4738 49.2066L95.4458 49.0841C95.035 48.9093 94.6077 48.405 94.2201 48.1624C92.6807 47.1885 88.7305 45.0735 87.5885 47.8551C86.8705 49.6116 88.6659 51.3258 89.3094 52.216C89.759 52.8404 90.3379 53.5394 90.6584 54.2408C90.872 54.7004 90.9076 55.1625 91.089 55.6511C91.5354 56.8544 91.9238 58.1612 92.5026 59.2742C92.7941 59.8373 93.1138 60.4294 93.4831 60.9304C93.7092 61.2376 94.0976 61.3768 94.1589 61.8521C93.7804 62.3829 93.758 63.2044 93.5444 63.8769C92.5838 66.9012 92.9457 70.66 94.3435 72.9018C94.7708 73.5875 95.7795 75.0624 97.1674 74.4967C98.3806 74.0015 98.109 72.472 98.4552 71.1197C98.5363 70.8157 98.4875 70.5888 98.6398 70.3851V70.4464L99.7462 72.6558C100.564 73.9725 102.014 75.3472 103.243 76.2756C103.884 76.7575 104.385 77.5923 105.21 77.8738V77.8092H105.149C104.987 77.5633 104.738 77.4598 104.534 77.2594C104.052 76.7873 103.518 76.2019 103.124 75.6611C102.005 74.144 101.015 72.4811 100.116 70.7503C99.6849 69.9255 99.3098 69.0129 98.9479 68.1724C98.8088 67.8486 98.8121 67.3575 98.5206 67.1919C98.1231 67.8063 97.5376 68.3049 97.2296 69.0328C96.7376 70.1938 96.6764 71.614 96.4917 73.0831L96.3691 73.1444C95.5153 72.9374 95.2139 72.0579 94.8976 71.3035C94.0918 69.3947 93.9435 66.3182 94.6516 64.122C94.833 63.5531 95.6611 61.7602 95.3249 61.2368C95.1667 60.7126 94.6392 60.4087 94.3444 60.0079C93.9589 59.4704 93.6296 58.8949 93.3614 58.2903C92.7047 56.7989 92.3974 55.1302 91.7051 53.6255C91.3755 52.9042 90.8157 52.1763 90.3561 51.5362C89.8452 50.8281 89.2754 50.3072 88.8812 49.4493C88.7421 49.1454 88.5516 48.6568 88.7587 48.3429C88.8233 48.1326 88.9201 48.0456 89.1272 47.9777C89.4833 47.7028 90.4762 48.068 90.8447 48.2203C91.831 48.6311 92.6533 49.0195 93.4873 49.5727C93.8848 49.8377 94.2897 50.3519 94.775 50.4944H95.3282C96.1919 50.6915 97.1592 50.5523 97.9682 50.7983C99.3951 51.2314 100.676 51.908 101.834 52.6425C105.373 54.8743 108.265 58.0543 110.244 61.8488C110.565 62.46 110.701 63.0421 110.982 63.6897C111.549 64.9965 112.26 66.3422 112.823 67.62C113.386 68.8978 113.933 70.1822 114.725 71.243C115.143 71.7995 116.757 72.0968 117.488 72.4074C118.002 72.6244 118.844 72.8504 119.329 73.1452C120.261 73.7051 121.16 74.3709 122.034 74.9862C122.467 75.2967 123.807 75.97 123.874 76.5223L123.87 76.5232ZM96.4288 53.1353C96.0574 53.1293 95.6867 53.1705 95.3257 53.2578V53.3191H95.387C95.6006 53.7622 95.9791 54.047 96.2441 54.4255L96.8585 55.7132L96.9198 55.6552C97.3016 55.3869 97.473 54.9563 97.473 54.3029C97.3182 54.1414 97.2983 53.941 97.1658 53.7497C96.991 53.4938 96.6523 53.3522 96.4288 53.1353Z" fill="#00618A"/>
</svg>
