<svg width="148" height="148" viewBox="0 0 148 148" fill="none" xmlns="http://www.w3.org/2000/svg">
<circle cx="74" cy="74" r="74" fill="white"/>
<g clip-path="url(#clip0_8274_1786)">
<path d="M73.4588 103.83C73.1339 103.83 72.8305 103.743 72.5487 103.591L69.6666 101.875C69.2331 101.636 69.4499 101.549 69.58 101.506C70.165 101.311 70.2734 101.267 70.8801 100.92C70.9452 100.876 71.032 100.898 71.0969 100.941L73.3073 102.266C73.3939 102.31 73.5023 102.31 73.5672 102.266L82.2138 97.2496C82.3004 97.2062 82.3439 97.1192 82.3439 97.0108V86.9996C82.3439 86.8908 82.3004 86.8042 82.2138 86.7606L73.5672 81.7659C73.4806 81.7223 73.3722 81.7223 73.3073 81.7659L64.6608 86.7606C64.5741 86.804 64.5306 86.9126 64.5306 86.9994V97.0106C64.5306 97.0976 64.5741 97.2061 64.6608 97.2496L67.0229 98.6177C68.3014 99.2692 69.1032 98.5091 69.1032 97.7491V87.8681C69.1032 87.7379 69.2116 87.6075 69.3633 87.6075H70.4684C70.5985 87.6075 70.7284 87.7161 70.7284 87.8681V97.7491C70.7284 99.4646 69.7966 100.464 68.1713 100.464C67.6729 100.464 67.2829 100.464 66.1776 99.9206L63.9023 98.6177C63.3389 98.2921 62.9922 97.6839 62.9922 97.0324V87.0212C62.9922 86.3698 63.3389 85.7616 63.9023 85.4359L72.5487 80.4194C73.0906 80.1154 73.8274 80.1154 74.3691 80.4194L83.0155 85.4359C83.5789 85.7616 83.9258 86.3698 83.9258 87.0212V97.0324C83.9258 97.6839 83.5789 98.2921 83.0155 98.6177L74.3691 103.634C74.0873 103.765 73.7622 103.83 73.4588 103.83ZM76.1245 96.9456C72.3323 96.9456 71.5521 95.2083 71.5521 93.7316C71.5521 93.6012 71.6605 93.471 71.8122 93.471H72.9391C73.069 93.471 73.1774 93.5578 73.1774 93.6882C73.3508 94.8391 73.8492 95.4037 76.1462 95.4037C77.9665 95.4037 78.7469 94.9911 78.7469 94.0138C78.7469 93.4492 78.5299 93.0368 75.6912 92.7544C73.3291 92.5154 71.8555 91.9943 71.8555 90.105C71.8555 88.3459 73.3292 87.3034 75.7996 87.3034C78.5732 87.3034 79.9386 88.2591 80.1121 90.3436C80.1121 90.4089 80.0904 90.4741 80.047 90.5392C80.0035 90.5826 79.9386 90.626 79.8736 90.626H78.7467C78.6383 90.626 78.5299 90.5392 78.5084 90.4306C78.2483 89.2364 77.5765 88.8453 75.7996 88.8453C73.8059 88.8453 73.5674 89.5404 73.5674 90.0614C73.5674 90.6912 73.8492 90.8867 76.5363 91.2341C79.2018 91.5817 80.4587 92.0811 80.4587 93.9486C80.437 95.8598 78.8768 96.9456 76.1245 96.9456Z" fill="#539E43"/>
<path d="M46.6299 64.6752C46.6299 64.2844 46.4132 63.915 46.0665 63.7196L36.8782 58.4209C36.7263 58.3339 36.5531 58.2905 36.3798 58.2687H36.293C36.1198 58.2687 35.9463 58.3339 35.7947 58.4209L26.6064 63.7196C26.2595 63.915 26.043 64.2842 26.043 64.6752L26.0647 78.9211C26.0647 79.1165 26.1731 79.3119 26.3463 79.3989C26.5198 79.5075 26.7363 79.5075 26.8882 79.3989L32.3492 76.2717C32.6958 76.0763 32.9126 75.7071 32.9126 75.3163V68.6493C32.9126 68.2584 33.1292 67.8892 33.476 67.6938L35.7947 66.3473C35.9681 66.2387 36.1631 66.1951 36.3581 66.1951C36.5531 66.1951 36.7481 66.2387 36.9 66.3473L39.2186 67.6938C39.5655 67.8892 39.782 68.2583 39.782 68.6493V75.3163C39.782 75.7071 39.9988 76.0763 40.3455 76.2717L45.8064 79.3989C45.8908 79.4522 45.9884 79.4804 46.0881 79.4804C46.1878 79.4804 46.2855 79.4522 46.3698 79.3989C46.5433 79.3119 46.6517 79.1165 46.6517 78.9211L46.6299 64.6752ZM90.7942 45.0652C90.621 44.9783 90.4042 44.9783 90.2523 45.0652C90.0791 45.1739 89.9707 45.3475 89.9707 45.5429V59.6587C89.9707 59.7889 89.9058 59.9192 89.7757 60.0062C89.6457 60.0712 89.5157 60.0712 89.3857 60.0062L87.0887 58.6815C86.9202 58.5854 86.7298 58.5349 86.536 58.5349C86.3422 58.5349 86.1518 58.5854 85.9833 58.6815L76.7951 64.002C76.4484 64.1974 76.2317 64.5666 76.2317 64.9575V75.5767C76.2317 75.9675 76.4484 76.3369 76.7951 76.5323L85.9833 81.8529C86.1518 81.9489 86.3422 81.9994 86.536 81.9994C86.7298 81.9994 86.9202 81.9489 87.0887 81.8529L96.2769 76.5323C96.6236 76.3369 96.8403 75.9677 96.8403 75.5767V49.1045C96.8403 48.6919 96.6236 48.3228 96.2769 48.1272L90.7942 45.0652ZM89.9492 72.0805C89.9492 72.1891 89.9058 72.2759 89.819 72.3193L86.6769 74.1434C86.633 74.1649 86.5848 74.1761 86.536 74.1761C86.4872 74.1761 86.439 74.1649 86.3951 74.1434L83.253 72.3193C83.1662 72.2759 83.1228 72.1673 83.1228 72.0805V68.4321C83.1228 68.3235 83.1662 68.2367 83.253 68.1932L86.3951 66.3689C86.439 66.3474 86.4872 66.3363 86.536 66.3363C86.5848 66.3363 86.633 66.3474 86.6769 66.3689L89.819 68.1932C89.9058 68.2365 89.9492 68.3453 89.9492 68.4321V72.0805ZM121.371 68.3453C121.718 68.1498 121.913 67.7806 121.913 67.3896V64.8054C121.913 64.4146 121.696 64.0454 121.371 63.85L112.248 58.5513C112.08 58.4552 111.889 58.4047 111.695 58.4047C111.502 58.4047 111.311 58.4552 111.143 58.5513L101.954 63.8716C101.608 64.067 101.391 64.4362 101.391 64.8271V75.4465C101.391 75.8373 101.608 76.2065 101.954 76.4019L111.078 81.6139C111.424 81.8093 111.836 81.8093 112.161 81.6139L117.687 78.5305C117.861 78.4435 117.969 78.248 117.969 78.0526C117.969 77.8572 117.861 77.6618 117.687 77.5748L108.456 72.2543C108.282 72.1457 108.174 71.9721 108.174 71.7766V68.454C108.174 68.2586 108.282 68.0632 108.456 67.9762L111.338 66.3257C111.422 66.2725 111.52 66.2443 111.619 66.2443C111.719 66.2443 111.817 66.2725 111.901 66.3257L114.783 67.9762C114.957 68.0848 115.065 68.2584 115.065 68.454V71.06C115.065 71.2554 115.173 71.4508 115.347 71.5376C115.431 71.5909 115.529 71.6191 115.629 71.6191C115.728 71.6191 115.826 71.5909 115.91 71.5376L121.371 68.3453Z" fill="#333333"/>
<path d="M111.555 67.8451C111.587 67.8238 111.625 67.8125 111.663 67.8125C111.702 67.8125 111.74 67.8238 111.772 67.8451L113.527 68.8657C113.592 68.9093 113.635 68.9744 113.635 69.0612V71.1027C113.635 71.1895 113.592 71.2547 113.527 71.2981L111.772 72.3187C111.74 72.34 111.702 72.3513 111.663 72.3513C111.625 72.3513 111.587 72.34 111.555 72.3187L109.8 71.2981C109.735 71.2547 109.691 71.1895 109.691 71.1027V69.0613C109.691 68.9744 109.735 68.9091 109.8 68.8659L111.555 67.8451Z" fill="#539E43"/>
<path d="M61.9928 58.5937C61.8244 58.4977 61.634 58.4473 61.4403 58.4473C61.2465 58.4473 61.0561 58.4977 60.8877 58.5937L51.7645 63.8705C51.4177 64.0659 51.2227 64.4351 51.2227 64.826V75.402C51.2227 75.7928 51.4394 76.162 51.7645 76.3574L60.8877 81.6346C61.0561 81.7306 61.2465 81.781 61.4403 81.781C61.634 81.781 61.8244 81.7306 61.9928 81.6346L71.1162 76.3574C71.4629 76.162 71.6581 75.7928 71.6581 75.402V64.8261C71.6581 64.4353 71.4412 64.0661 71.1162 63.8707L61.9928 58.5937Z" fill="url(#paint0_linear_8274_1786)"/>
<mask id="mask0_8274_1786" style="mask-type:luminance" maskUnits="userSpaceOnUse" x="51" y="58" width="21" height="24">
<path d="M61.9928 58.5937C61.8244 58.4977 61.634 58.4473 61.4403 58.4473C61.2465 58.4473 61.0561 58.4977 60.8877 58.5937L51.7645 63.8705C51.4177 64.0659 51.2227 64.4351 51.2227 64.826V75.402C51.2227 75.7928 51.4394 76.162 51.7645 76.3574L60.8877 81.6346C61.0561 81.7306 61.2465 81.781 61.4403 81.781C61.634 81.781 61.8244 81.7306 61.9928 81.6346L71.1162 76.3574C71.4629 76.162 71.6581 75.7928 71.6581 75.402V64.8261C71.6581 64.4353 71.4412 64.0661 71.1162 63.8707L61.9928 58.5937Z" fill="white"/>
</mask>
<g mask="url(#mask0_8274_1786)">
<path d="M71.1381 63.8699L61.9716 58.593C61.8815 58.5474 61.7871 58.511 61.6898 58.4844L51.418 76.1182C51.5031 76.2223 51.6059 76.3105 51.7215 76.3789L60.888 81.656C61.1481 81.808 61.4515 81.8514 61.7331 81.7644L71.3766 64.0873C71.3115 64.0005 71.2247 63.9349 71.1381 63.8699Z" fill="url(#paint1_linear_8274_1786)"/>
</g>
<mask id="mask1_8274_1786" style="mask-type:luminance" maskUnits="userSpaceOnUse" x="51" y="58" width="21" height="24">
<path d="M61.9928 58.5937C61.8244 58.4977 61.634 58.4473 61.4403 58.4473C61.2465 58.4473 61.0561 58.4977 60.8877 58.5937L51.7645 63.8705C51.4177 64.0659 51.2227 64.4351 51.2227 64.826V75.402C51.2227 75.7928 51.4394 76.162 51.7645 76.3574L60.8877 81.6346C61.0561 81.7306 61.2465 81.781 61.4403 81.781C61.634 81.781 61.8244 81.7306 61.9928 81.6346L71.1162 76.3574C71.4629 76.162 71.6581 75.7928 71.6581 75.402V64.8261C71.6581 64.4353 71.4412 64.0661 71.1162 63.8707L61.9928 58.5937Z" fill="white"/>
</mask>
<g mask="url(#mask1_8274_1786)">
<path fill-rule="evenodd" clip-rule="evenodd" d="M71.1608 76.3574C71.4209 76.2054 71.6159 75.9448 71.7027 75.6626L61.6472 58.4631C61.3872 58.4197 61.1054 58.4413 60.8672 58.5933L51.7656 63.8488L61.5822 81.7865C61.725 81.7633 61.8637 81.7194 61.9939 81.6563L71.1608 76.3574Z" fill="url(#paint2_linear_8274_1786)"/>
<path fill-rule="evenodd" clip-rule="evenodd" d="M71.1582 76.3573L62.0133 81.6344C61.8842 81.7003 61.745 81.7443 61.6016 81.7646L61.775 82.0904L71.9167 76.2054V76.075L71.6566 75.6406C71.6133 75.9446 71.4183 76.2053 71.1582 76.3573Z" fill="url(#paint3_linear_8274_1786)"/>
<path fill-rule="evenodd" clip-rule="evenodd" d="M71.1582 76.3573L62.0133 81.6344C61.8842 81.7003 61.745 81.7443 61.6016 81.7646L61.775 82.0904L71.9167 76.2054V76.075L71.6566 75.6406C71.6133 75.9446 71.4183 76.2053 71.1582 76.3573Z" fill="url(#paint4_linear_8274_1786)"/>
</g>
</g>
<defs>
<linearGradient id="paint0_linear_8274_1786" x1="1444.67" y1="466.485" x2="441.673" y2="2039.17" gradientUnits="userSpaceOnUse">
<stop stop-color="#41873F"/>
<stop offset="0.3288" stop-color="#418B3D"/>
<stop offset="0.6352" stop-color="#419637"/>
<stop offset="0.9319" stop-color="#3FA92D"/>
<stop offset="1" stop-color="#3FAE2A"/>
</linearGradient>
<linearGradient id="paint1_linear_8274_1786" x1="915.167" y1="1345.27" x2="3422.01" y2="-13.826" gradientUnits="userSpaceOnUse">
<stop offset="0.1376" stop-color="#41873F"/>
<stop offset="0.4032" stop-color="#54A044"/>
<stop offset="0.7136" stop-color="#66B848"/>
<stop offset="0.9081" stop-color="#6CC04A"/>
</linearGradient>
<linearGradient id="paint2_linear_8274_1786" x1="-35.7381" y1="1225.53" x2="2075.36" y2="1225.53" gradientUnits="userSpaceOnUse">
<stop offset="0.09192" stop-color="#6CC04A"/>
<stop offset="0.2864" stop-color="#66B848"/>
<stop offset="0.5968" stop-color="#54A044"/>
<stop offset="0.8624" stop-color="#41873F"/>
</linearGradient>
<linearGradient id="paint3_linear_8274_1786" x1="-1009.74" y1="399.904" x2="1101.34" y2="399.904" gradientUnits="userSpaceOnUse">
<stop offset="0.09192" stop-color="#6CC04A"/>
<stop offset="0.2864" stop-color="#66B848"/>
<stop offset="0.5968" stop-color="#54A044"/>
<stop offset="0.8624" stop-color="#41873F"/>
</linearGradient>
<linearGradient id="paint4_linear_8274_1786" x1="1408.89" y1="-1285.71" x2="871.881" y2="1522.25" gradientUnits="userSpaceOnUse">
<stop stop-color="#41873F"/>
<stop offset="0.3288" stop-color="#418B3D"/>
<stop offset="0.6352" stop-color="#419637"/>
<stop offset="0.9319" stop-color="#3FA92D"/>
<stop offset="1" stop-color="#3FAE2A"/>
</linearGradient>
<clipPath id="clip0_8274_1786">
<rect width="96" height="59" fill="white" transform="translate(26 45)"/>
</clipPath>
</defs>
</svg>
