<svg width="148" height="148" viewBox="0 0 148 148" fill="none" xmlns="http://www.w3.org/2000/svg">
<path fill-rule="evenodd" clip-rule="evenodd" d="M45.3737 63.0819C45.5462 63.181 45.6893 63.3236 45.7886 63.4954C45.8879 63.6672 45.9398 63.8621 45.9391 64.0602L45.9194 78.5785C45.9194 78.779 45.8113 78.9698 45.6392 79.0676C45.5536 79.1205 45.4548 79.1485 45.3541 79.1485C45.2533 79.1485 45.1546 79.1205 45.0689 79.0676L39.4795 75.8783C39.3061 75.7798 39.162 75.6375 39.0619 75.4656C38.9617 75.2938 38.9091 75.0986 38.9093 74.9V68.1153C38.9095 67.9167 38.8568 67.7215 38.7567 67.5497C38.6565 67.3779 38.5124 67.2355 38.339 67.137L35.9597 65.7723C35.7872 65.6726 35.5913 65.6201 35.3919 65.6201C35.1925 65.6201 34.9966 65.6726 34.8241 65.7723L32.4399 67.1419C32.2674 67.241 32.1243 67.3837 32.025 67.5554C31.9258 67.7272 31.8739 67.9221 31.8746 68.1202V74.9C31.8748 75.0986 31.8221 75.2938 31.722 75.4656C31.6218 75.6375 31.4777 75.7798 31.3043 75.8783L25.7051 79.0725C25.6206 79.1234 25.5236 79.1504 25.4248 79.1504C25.326 79.1504 25.2291 79.1234 25.1446 79.0725C25.0562 79.0253 24.9826 78.9546 24.9323 78.8682C24.8819 78.7818 24.8567 78.6832 24.8595 78.5833L24.8398 64.0651C24.8398 63.6591 25.0561 63.2825 25.4101 63.0819L34.8192 57.6914C34.9743 57.5958 35.153 57.5449 35.3354 57.5446H35.4337C35.6178 57.544 35.7983 57.5949 35.9548 57.6914L45.3737 63.0819ZM90.217 71.8672C90.2604 71.8423 90.2968 71.8067 90.3226 71.7639C90.3484 71.7211 90.3628 71.6725 90.3644 71.6226V67.905C90.3644 67.8072 90.3054 67.7093 90.217 67.6604L86.9823 65.8016C86.9386 65.7776 86.8896 65.7651 86.8397 65.7651C86.7898 65.7651 86.7408 65.7776 86.6971 65.8016L83.4674 67.6604C83.4248 67.686 83.3895 67.7218 83.3645 67.7645C83.3396 67.8073 83.3259 67.8556 83.3248 67.905V71.6226C83.3248 71.7204 83.3789 71.8183 83.4723 71.8672L86.7021 73.726C86.7905 73.7749 86.8987 73.7749 86.9872 73.726L90.217 71.8672ZM90.6692 44.1172C90.7555 44.0694 90.8525 44.0438 90.9513 44.043C91.05 44.0421 91.1474 44.066 91.2346 44.1123L96.8387 47.2234C97.0163 47.3207 97.1643 47.4638 97.2672 47.6377C97.3702 47.8115 97.4242 48.0097 97.4237 48.2115V75.1739C97.4239 75.3726 97.3713 75.5677 97.2711 75.7395C97.171 75.9114 97.0269 76.0538 96.8535 76.1522L87.4345 81.5672C87.2621 81.6669 87.0662 81.7194 86.8667 81.7194C86.6673 81.7194 86.4714 81.6669 86.2989 81.5672L76.88 76.1571C76.7066 76.0587 76.5625 75.9163 76.4624 75.7444C76.3622 75.5726 76.3095 75.3774 76.3098 75.1788V64.3586C76.3095 64.16 76.3622 63.9648 76.4624 63.793C76.5625 63.6211 76.7066 63.4787 76.88 63.3803L86.2989 57.9702C86.4714 57.8705 86.6673 57.818 86.8667 57.818C87.0662 57.818 87.2621 57.8705 87.4345 57.9702L89.7942 59.3252C89.8546 59.3593 89.9229 59.3771 89.9924 59.3768C90.0619 59.3766 90.1301 59.3582 90.1902 59.3236C90.2504 59.289 90.3003 59.2393 90.3352 59.1795C90.3701 59.1197 90.3886 59.0519 90.389 58.9827V44.5966C90.3908 44.4982 90.4174 44.4019 90.4663 44.3164C90.5153 44.2309 90.5851 44.1591 90.6692 44.1074M123.159 66.8338C123.159 67.0319 123.107 67.2268 123.008 67.3985C122.909 67.5703 122.766 67.713 122.593 67.8121L116.945 71.0748C116.858 71.1227 116.76 71.1479 116.66 71.1479C116.56 71.1479 116.462 71.1227 116.375 71.0748C116.29 71.0237 116.219 70.9521 116.169 70.8666C116.119 70.7811 116.092 70.6844 116.09 70.5856V67.9197C116.088 67.8213 116.061 67.725 116.012 67.6395C115.963 67.554 115.894 67.4822 115.809 67.4305L112.86 65.738C112.774 65.6852 112.675 65.6572 112.575 65.6572C112.474 65.6572 112.375 65.6852 112.29 65.738L109.34 67.4305C109.256 67.4822 109.186 67.554 109.137 67.6395C109.088 67.725 109.062 67.8213 109.06 67.9197V71.3144C109.06 71.5101 109.168 71.7058 109.345 71.8036L118.818 77.2088C118.906 77.2582 118.979 77.33 119.03 77.4168C119.081 77.5036 119.108 77.6024 119.108 77.7029C119.108 77.8034 119.081 77.9021 119.03 77.9889C118.979 78.0757 118.906 78.1475 118.818 78.1969L113.155 81.3275C112.984 81.4221 112.791 81.4709 112.595 81.4692C112.4 81.4675 112.208 81.4153 112.039 81.3177L102.684 76.0104C102.51 75.9119 102.366 75.7695 102.266 75.5977C102.166 75.4259 102.113 75.2307 102.114 75.0321V64.2119C102.113 64.0137 102.165 63.8189 102.264 63.6471C102.363 63.4753 102.506 63.3326 102.679 63.2335L112.098 57.8283C112.27 57.7287 112.466 57.6762 112.666 57.6762C112.865 57.6762 113.061 57.7287 113.233 57.8283L122.593 63.2335C122.766 63.3326 122.909 63.4753 123.008 63.6471C123.107 63.8189 123.159 64.0137 123.159 64.2119V66.8338ZM73.4339 103.956C73.107 103.953 72.786 103.869 72.4999 103.711L69.5405 101.96C69.0981 101.716 69.3144 101.628 69.4569 101.579C69.928 101.433 70.3789 101.229 70.799 100.972C70.8711 100.94 70.9448 100.944 71.0202 100.987L73.2963 102.332C73.3799 102.376 73.4929 102.376 73.5716 102.332L82.4498 97.2301C82.4907 97.2044 82.5247 97.1691 82.5487 97.1273C82.5727 97.0855 82.586 97.0385 82.5874 96.9904V86.7963C82.5874 86.6985 82.5383 86.6007 82.4498 86.5517L73.5765 81.4596C73.5341 81.4373 73.4868 81.4257 73.4388 81.4257C73.3909 81.4257 73.3436 81.4373 73.3012 81.4596L64.4279 86.5517C64.3854 86.5773 64.35 86.6131 64.3251 86.6558C64.3002 86.6986 64.2865 86.7469 64.2854 86.7963V96.9855C64.2854 97.0833 64.3394 97.1763 64.423 97.2203L66.8564 98.6193C68.1739 99.2748 68.9801 98.5019 68.9801 97.7241V87.6621C68.9801 87.5154 69.0981 87.4078 69.2406 87.4078H70.3664C70.504 87.4078 70.622 87.5154 70.622 87.6621V97.729C70.622 99.4802 69.6585 100.483 67.992 100.483C67.4758 100.483 67.0727 100.483 65.942 99.9302L63.6168 98.5948C63.3322 98.4313 63.0959 98.196 62.9319 97.9125C62.7679 97.6291 62.682 97.3076 62.6828 96.9806V86.7914C62.682 86.4644 62.7679 86.1429 62.9319 85.8595C63.0959 85.5761 63.3322 85.3407 63.6168 85.1772L72.5048 80.0753C72.7918 79.9212 73.1127 79.8405 73.4388 79.8405C73.7649 79.8405 74.0859 79.9212 74.3729 80.0753L83.2461 85.1821C83.5301 85.3452 83.7658 85.5798 83.9298 85.8623C84.0937 86.1448 84.1801 86.4652 84.1802 86.7914V96.9855C84.181 97.3125 84.095 97.634 83.931 97.9174C83.767 98.2009 83.5308 98.4362 83.2461 98.5997L74.368 103.697C74.0823 103.856 73.7613 103.942 73.4339 103.946M76.177 96.9219C72.2934 96.9219 71.4774 95.1463 71.4774 93.6592C71.4774 93.5125 71.5954 93.4049 71.7379 93.4049H72.8833C72.9446 93.4032 73.0042 93.4243 73.0506 93.4642C73.097 93.504 73.1267 93.5596 73.1341 93.6201C73.311 94.7843 73.8223 95.3713 76.1721 95.3713C78.0451 95.3713 78.8415 94.9457 78.8415 93.9625C78.8415 93.3902 78.6153 92.9695 75.7051 92.6907C73.2766 92.4461 71.7723 91.9129 71.7723 89.9807C71.7723 88.2002 73.2864 87.1338 75.8182 87.1338C78.6596 87.1338 80.0655 88.1171 80.2425 90.2253C80.2459 90.2607 80.2419 90.2965 80.2306 90.3302C80.2193 90.3639 80.201 90.3949 80.1769 90.4212C80.1528 90.4475 80.1235 90.4684 80.0907 90.4827C80.058 90.497 80.0226 90.5043 79.9869 90.5041H78.8316C78.7741 90.5053 78.718 90.4864 78.6731 90.4506C78.6282 90.4149 78.5973 90.3646 78.5858 90.3085C78.3056 89.0856 77.6371 88.6943 75.8132 88.6943C73.7682 88.6943 73.5322 89.3986 73.5322 89.9318C73.5322 90.5775 73.8125 90.7634 76.5654 91.1254C79.2986 91.4874 80.5965 91.9961 80.5965 93.9038C80.5965 95.8262 78.9742 96.9317 76.1672 96.9317L76.177 96.9219ZM86.9823 86.1164H87.2772C87.523 86.1164 87.5722 85.9501 87.5722 85.8474C87.5722 85.5881 87.3903 85.5881 87.2871 85.5881H86.9823V86.1164ZM86.6185 85.2848H87.2772C87.5034 85.2848 87.9507 85.2848 87.9507 85.7887C87.9507 86.136 87.7246 86.2093 87.5869 86.2534C87.8475 86.2729 87.8671 86.4392 87.9015 86.6691V86.6887L87.9065 86.7083C87.9261 86.8599 87.9556 87.1094 88.0048 87.1974H87.5968L87.5918 87.1338L87.523 86.5958C87.4984 86.4833 87.4591 86.4295 87.3264 86.4295H86.9872V87.1974H86.6185V85.2848ZM88.9683 86.2338C88.9693 86.5718 88.8694 86.9026 88.6812 87.1841C88.4931 87.4656 88.2252 87.6851 87.9115 87.815C87.5978 87.9448 87.2524 87.979 86.9191 87.9133C86.5859 87.8476 86.2797 87.6849 86.0395 87.4458C85.7993 87.2068 85.6358 86.9021 85.5697 86.5705C85.5037 86.2389 85.5381 85.8953 85.6685 85.5831C85.799 85.271 86.0196 85.0044 86.3025 84.8172C86.5854 84.63 86.9178 84.5306 87.2576 84.5315C88.1818 84.5315 88.9683 85.275 88.9683 86.2387M112.525 67.2985C112.558 67.2764 112.597 67.2646 112.636 67.2646C112.676 67.2646 112.714 67.2764 112.747 67.2985L114.551 68.3355C114.583 68.3562 114.611 68.3842 114.63 68.4174C114.65 68.4505 114.661 68.4878 114.664 68.5262V70.6003C114.661 70.6818 114.623 70.7438 114.551 70.7862L112.747 71.8281C112.714 71.8501 112.676 71.862 112.636 71.862C112.597 71.862 112.558 71.8501 112.525 71.8281L110.721 70.7862C110.687 70.769 110.659 70.7423 110.639 70.7093C110.62 70.6763 110.611 70.6384 110.613 70.6003V68.5262C110.613 68.4447 110.649 68.3811 110.721 68.3355L112.525 67.2985ZM61.9306 58.1267C61.753 58.0264 61.5523 57.9736 61.3481 57.9736C61.1439 57.9736 60.9431 58.0264 60.7655 58.1267L51.091 63.6787C50.9148 63.7822 50.7686 63.9295 50.6669 64.1061C50.5652 64.2828 50.5115 64.4828 50.5109 64.6863V75.8049C50.5109 76.2158 50.737 76.6023 51.1008 76.8077L60.7655 82.3645C60.9431 82.4649 61.1439 82.5176 61.3481 82.5176C61.5523 82.5176 61.753 82.4649 61.9306 82.3645L71.5954 76.8077C71.7718 76.7052 71.9184 76.559 72.021 76.3832C72.1235 76.2074 72.1784 76.0082 72.1804 75.8049V64.6863C72.1793 64.4823 72.1248 64.282 72.0222 64.1053C71.9196 63.9286 71.7725 63.7816 71.5954 63.6787L61.9306 58.1267Z" fill="#202020"/>
</svg>
