<svg width="148" height="148" viewBox="0 0 148 148" fill="none" xmlns="http://www.w3.org/2000/svg">
<circle cx="74" cy="74" r="74" fill="#F1592A"/>
<path d="M23.2109 93.8195V55.5267H32.5259V58.9583H27.5849V90.459H32.527V93.8907L23.2109 93.8195ZM54.8248 74.2936C54.8248 81.2777 50.5845 85.2549 44.8414 85.2549C39.0982 85.2549 35.2708 80.7742 35.2708 74.6558C35.2708 68.2528 39.2836 63.7441 45.154 63.7441C51.0244 63.7441 54.8248 68.4448 54.8248 74.2936ZM39.2836 74.6062C39.2836 78.8454 41.4108 82.207 45.0624 82.207C48.714 82.207 50.812 78.7753 50.812 74.4499C50.812 70.5223 48.8757 66.8135 45.0613 66.8135C41.2469 66.8135 39.248 70.4015 39.248 74.6914L39.2836 74.6062ZM58.0505 64.4675C59.8726 64.1549 61.7237 63.9996 63.5738 64.0061C65.653 63.8039 67.7428 64.2655 69.5434 65.3247C70.2191 65.7206 70.7762 66.2906 71.1566 66.9751C71.537 67.6597 71.7267 68.4338 71.7061 69.2167C71.6821 70.2341 71.3374 71.2179 70.7211 72.0278C70.1049 72.8376 69.2486 73.4321 68.2744 73.7265C70.7207 74.2224 72.4791 76.3787 72.4791 78.8745C72.4915 79.6947 72.3174 80.507 71.9698 81.25C71.6222 81.993 71.1103 82.6472 70.4727 83.1633C68.9978 84.4678 66.5451 85.0996 62.7512 85.0996C61.1918 85.1066 59.6337 85.014 58.0861 84.8226L58.0505 64.4675ZM61.8229 72.685H63.7581C66.3812 72.685 67.8561 71.4506 67.8561 69.6857C67.8561 67.9208 66.3812 66.8351 63.9641 66.8351C63.2397 66.8129 62.515 66.8653 61.8013 66.9914L61.8229 72.685ZM61.8229 82.2566C62.4892 82.3267 63.163 82.3558 63.8282 82.3407C66.268 82.3407 68.4232 81.4124 68.4232 78.9101C68.4232 76.4078 66.3316 75.4784 63.7085 75.4784H61.8218L61.8229 82.2566ZM79.9742 64.1905H83.766V77.7253C83.766 83.476 80.9877 85.3972 76.9037 85.3972C75.8127 85.3906 74.73 85.206 73.6985 84.8506L74.1599 81.7952C74.9178 82.0367 75.7124 82.1563 76.5134 82.1714C78.6762 82.1714 79.9451 81.1785 79.9451 77.5765L79.9742 64.1905ZM94.558 75.4633V78.0875H86.6661V75.4633H94.558ZM112.984 84.3827C111.279 85.0605 109.451 85.3769 107.617 85.312C101.01 85.312 96.9967 81.1785 96.9967 74.8467C96.6916 69.0755 101.123 64.1484 106.894 63.8433C107.298 63.8217 107.71 63.8218 108.113 63.8498C109.877 63.7761 111.635 64.0935 113.261 64.7791L112.417 67.799C111.126 67.2527 109.736 66.9775 108.333 66.9904C104.094 66.9904 101.045 69.6501 101.045 74.6623C101.045 79.2282 103.739 82.1779 108.305 82.1779C109.721 82.1998 111.127 81.9369 112.439 81.4049L112.984 84.3827ZM124.889 55.4199V93.812H115.573V90.3814H120.514V58.8516H115.573V55.4199H124.889Z" fill="white"/>
</svg>
