<svg width="148" height="148" viewBox="0 0 148 148" fill="none" xmlns="http://www.w3.org/2000/svg">
<path d="M74.5013 54.1439C98.3757 54.1439 116.641 64.1141 116.641 75.3831C116.641 86.6521 98.3757 96.7656 74.5013 96.7656C50.6269 96.7656 32.3611 86.6521 32.3611 75.3831C32.3611 64.1141 50.6269 54.1439 74.5013 54.1439ZM74.5013 51.6895C49.7665 51.6895 29.918 62.2374 29.918 75.2398C29.918 88.2421 49.7665 98.6467 74.5013 98.6467C99.2361 98.6467 119.085 88.2421 119.085 75.2398C119.085 62.2374 99.2361 51.6895 74.5013 51.6895ZM60.2614 73.5019C59.2583 79.1409 55.2279 78.5631 50.4843 78.5631L52.4994 68.593C57.8182 68.593 61.269 68.0107 60.2614 73.5019ZM43.4356 88.5377H48.6162L49.7665 82.1776C55.3751 82.1776 59.1111 82.6121 62.2766 79.5799C65.8744 76.1087 66.8775 70.1875 64.2917 67.2986C62.8517 65.7086 60.8365 64.8396 57.8182 64.8396H47.894L43.4356 88.5377ZM69.4678 58.6273H74.5013L73.351 64.9874C77.6667 64.9874 81.8353 64.8396 83.8504 66.573C85.8611 68.5975 84.858 70.9086 82.8428 82.4688H77.5196C79.5348 71.4864 79.9672 70.4742 79.3921 69.6097C78.817 68.7453 76.5165 68.7408 72.4861 68.7408L69.9003 82.4688H64.8624L69.4678 58.6273ZM100.244 73.5109C99.2361 79.1454 95.2103 78.5676 90.4666 78.5676L92.4773 68.5975C97.8005 68.5975 101.251 68.0197 100.244 73.5109ZM83.418 88.5333H88.4514L89.6017 82.4643C95.6427 82.4643 98.9508 82.8988 102.116 79.8665C105.71 76.3953 106.717 70.4697 104.127 67.5808C102.691 65.9907 100.676 65.1263 97.6579 65.1263H87.7336L83.418 88.5333Z" fill="#202020"/>
</svg>
