<svg width="148" height="148" viewBox="0 0 148 148" fill="none" xmlns="http://www.w3.org/2000/svg">
<circle cx="74" cy="74" r="74" fill="white"/>
<path d="M22 74.5003C22 89.7523 45.5052 102.118 74.5 102.118C103.495 102.118 127 89.7523 127 74.5003C127 59.2482 103.494 46.8828 74.5 46.8828C45.5061 46.8828 22 59.2482 22 74.5003Z" fill="url(#paint0_radial_8274_1833)"/>
<path d="M74.5 100.067C102.362 100.067 124.949 88.6195 124.949 74.5003C124.949 60.3794 102.362 48.9336 74.5 48.9336C46.6381 48.9336 24.0508 60.3794 24.0508 74.5003C24.0508 88.6195 46.6381 100.067 74.5 100.067Z" fill="#777BB3"/>
<path d="M50.5247 77.6689C52.8159 77.6689 54.5254 77.2464 55.6074 76.4138C56.6787 75.5886 57.4178 74.1604 57.8058 72.1687C58.1668 70.3066 58.029 69.0072 57.3957 68.305C56.7493 67.5881 55.3506 67.2247 53.2392 67.2247H49.5773L47.5486 77.6689H50.5247ZM38.549 90.5339C38.465 90.5338 38.382 90.515 38.3061 90.4791C38.2302 90.4431 38.1631 90.3908 38.1098 90.3259C38.0565 90.261 38.0182 90.185 37.9977 90.1036C37.9772 90.0221 37.975 89.9371 37.9912 89.8547L43.37 62.1789C43.3954 62.0496 43.4649 61.933 43.5666 61.8491C43.6683 61.7652 43.7959 61.7191 43.9278 61.7188H55.5221C59.1659 61.7188 61.8779 62.708 63.5833 64.6596C65.2961 66.6201 65.826 69.3632 65.1558 72.8094C64.8827 74.2129 64.4134 75.5164 63.7613 76.6845C63.0826 77.8862 62.2164 78.9717 61.1954 79.9002C59.9395 81.0748 58.5179 81.928 56.9732 82.4292C55.454 82.9246 53.5017 83.1757 51.1736 83.1757H46.4781L45.1377 90.0729C45.1124 90.2027 45.0428 90.3196 44.9407 90.4037C44.8387 90.4878 44.7105 90.5338 44.5783 90.5339H38.549Z" fill="black"/>
<path d="M50.0472 67.7938H53.239C55.7877 67.7938 56.6728 68.3532 56.9739 68.6871C57.4718 69.24 57.567 70.4073 57.2454 72.0602C56.8853 73.9117 56.2175 75.225 55.2602 75.9616C54.2808 76.7163 52.6861 77.0986 50.5246 77.0986H48.2392L50.0472 67.7938ZM55.5219 61.1493H43.9284C43.6641 61.1493 43.4079 61.2412 43.2038 61.4092C42.9997 61.5773 42.8603 61.811 42.8095 62.0705L37.4308 89.747C37.399 89.9119 37.404 90.0817 37.4455 90.2444C37.487 90.4071 37.5638 90.5586 37.6707 90.6881C37.7775 90.8177 37.9116 90.922 38.0634 90.9937C38.2152 91.0654 38.3809 91.1027 38.5488 91.103H44.5781C44.8425 91.1027 45.0986 91.0106 45.3025 90.8424C45.5065 90.6742 45.6456 90.4404 45.6962 90.1809L46.9472 83.7448H51.1726C53.5614 83.7448 55.5728 83.4839 57.1502 82.9704C58.772 82.4438 60.2642 81.5504 61.5849 80.315C62.6485 79.3467 63.5509 78.2149 64.2583 76.9624C64.9399 75.7426 65.4305 74.3809 65.7143 72.9175C66.4198 69.2892 65.8464 66.3845 64.0113 64.2845C62.1935 62.2034 59.3372 61.1484 55.5219 61.1484V61.1493ZM46.857 78.2372H50.5246C52.9554 78.2377 54.7656 77.7797 55.955 76.8632C57.1445 75.9477 57.9479 74.4189 58.3651 72.2768C58.7633 70.2195 58.5814 68.768 57.8196 67.9226C57.0567 67.0771 55.5299 66.6544 53.239 66.6544H49.1079L46.857 78.2372ZM55.5227 62.2862C59.0107 62.2862 61.5545 63.2017 63.1541 65.0326C64.7537 66.8636 65.235 69.4191 64.5979 72.6993C64.3343 74.0511 63.8899 75.2865 63.2649 76.4054C62.6387 77.5254 61.8208 78.55 60.8113 79.4791C59.6082 80.6057 58.2705 81.4082 56.7983 81.8868C55.3267 82.3658 53.4517 82.6051 51.1734 82.6045H46.0088L44.579 89.9627H38.5497L43.9293 62.2862H55.5227Z" fill="white"/>
<path d="M78.9782 83.1764C78.8941 83.1766 78.8111 83.158 78.735 83.1222C78.6589 83.0864 78.5918 83.0342 78.5383 82.9694C78.4848 82.9045 78.4463 82.8286 78.4257 82.7471C78.405 82.6656 78.4026 82.5806 78.4187 82.498L80.7976 70.2524C81.0249 69.0876 80.9691 68.2525 80.6418 67.8981C80.4408 67.6824 79.8387 67.3206 78.0578 67.3206H73.7462L70.7554 82.7162C70.7297 82.8459 70.6598 82.9626 70.5576 83.0464C70.4554 83.1302 70.3273 83.1759 70.1951 83.1756H64.215C64.131 83.1757 64.048 83.1572 63.972 83.1214C63.896 83.0857 63.8288 83.0336 63.7753 82.9688C63.7217 82.9041 63.6832 82.8283 63.6623 82.7469C63.6415 82.6655 63.6389 82.5805 63.6548 82.498L69.0344 54.8215C69.0598 54.6919 69.1296 54.5751 69.2316 54.4911C69.3336 54.4072 69.4617 54.3613 69.5938 54.3613H75.5739C75.6579 54.3613 75.7409 54.3798 75.8169 54.4155C75.8929 54.4513 75.9601 54.5034 76.0136 54.5681C76.0672 54.6329 76.1057 54.7087 76.1266 54.79C76.1474 54.8714 76.15 54.9564 76.1342 55.0389L74.8364 61.7195H79.4737C83.0067 61.7195 85.4021 62.3413 86.7974 63.6235C88.219 64.9302 88.6636 67.0196 88.1165 69.8357L85.6137 82.7162C85.5881 82.8458 85.5183 82.9623 85.4162 83.0461C85.3142 83.1299 85.1863 83.1757 85.0542 83.1756L78.9782 83.1764Z" fill="black"/>
<path d="M75.5736 53.791H69.5927C69.3282 53.7911 69.0719 53.8831 68.8678 54.0513C68.6637 54.2195 68.5244 54.4534 68.4738 54.713L63.095 82.3887C63.0631 82.5537 63.068 82.7236 63.1094 82.8864C63.1508 83.0492 63.2277 83.2008 63.3345 83.3305C63.4413 83.4601 63.5755 83.5645 63.7273 83.6363C63.8792 83.708 64.0451 83.7453 64.2131 83.7456H70.194C70.4585 83.7455 70.7147 83.6535 70.9188 83.4853C71.123 83.3171 71.2622 83.0831 71.3129 82.8235L74.2143 67.8897H78.055C79.8334 67.8897 80.2075 68.2695 80.2215 68.2868C80.3297 68.4016 80.4717 68.9389 80.237 70.1439L77.8581 82.3887C77.8262 82.5537 77.8312 82.7237 77.8726 82.8866C77.9141 83.0494 77.991 83.2011 78.0979 83.3308C78.2048 83.4604 78.3391 83.5648 78.4911 83.6365C78.643 83.7082 78.809 83.7455 78.977 83.7456H85.0539C85.3183 83.7453 85.5743 83.6532 85.7783 83.485C85.9822 83.3168 86.1214 83.083 86.172 82.8235L88.6748 69.9446C89.2613 66.9209 88.7593 64.6536 87.1818 63.2041C85.6757 61.8211 83.1541 61.1492 79.4725 61.1492H75.5268L76.6925 55.1486C76.7245 54.9836 76.7197 54.8135 76.6783 54.6505C76.6369 54.4876 76.56 54.3358 76.4531 54.2061C76.3461 54.0763 76.2118 53.9718 76.0598 53.9001C75.9077 53.8283 75.7417 53.7911 75.5736 53.791ZM75.5736 54.9312L74.1438 62.2878H79.4725C82.8254 62.2878 85.1379 62.873 86.4099 64.0433C87.683 65.2125 88.0653 67.1074 87.5567 69.728L85.0531 82.6061H78.977L81.3568 70.3605C81.6275 68.9676 81.5277 68.0177 81.0574 67.5107C80.587 67.0043 79.5868 66.7511 78.0567 66.7511H73.2751L70.194 82.6053H64.2122L69.5918 54.9288H75.5736V54.9312Z" fill="white"/>
<path d="M97.5825 77.6689C99.8736 77.6689 101.584 77.2464 102.667 76.4138C103.736 75.5886 104.476 74.1604 104.864 72.1687C105.225 70.3066 105.088 69.0072 104.454 68.305C103.808 67.5881 102.409 67.2247 100.298 67.2247H96.6367L94.6064 77.6689H97.5825ZM85.6092 90.5339C85.5251 90.534 85.4419 90.5155 85.3658 90.4796C85.2897 90.4438 85.2224 90.3915 85.1689 90.3265C85.1154 90.2616 85.077 90.1856 85.0564 90.104C85.0358 90.0224 85.0335 89.9372 85.0498 89.8547L90.4286 62.1789C90.454 62.0493 90.5238 61.9325 90.6258 61.8486C90.7279 61.7646 90.8559 61.7187 90.988 61.7188H102.581C106.225 61.7188 108.937 62.708 110.642 64.6596C112.356 66.6201 112.885 69.3632 112.214 72.8094C111.958 74.1667 111.488 75.4748 110.821 76.6845C110.142 77.8862 109.276 78.9717 108.255 79.9002C107 81.0748 105.576 81.928 104.033 82.4292C102.513 82.9246 100.561 83.1757 98.2322 83.1757H93.5375L92.198 90.0729C92.1726 90.2028 92.1029 90.3199 92.0006 90.404C91.8984 90.4881 91.7701 90.534 91.6377 90.5339H85.6092Z" fill="black"/>
<path d="M97.1018 67.7938H100.294C102.842 67.7938 103.728 68.3532 104.028 68.6871C104.528 69.24 104.622 70.4073 104.301 72.0602C103.94 73.9117 103.272 75.225 102.315 75.9616C101.335 76.7163 99.74 77.0986 97.5793 77.0986H95.2939L97.1018 67.7938ZM102.577 61.1493H90.9831C90.7189 61.1495 90.4629 61.2415 90.259 61.4095C90.0551 61.5775 89.9158 61.8111 89.865 62.0705L84.4854 89.747C84.4537 89.9119 84.4587 90.0818 84.5002 90.2446C84.5417 90.4073 84.6187 90.5589 84.7256 90.6884C84.8325 90.818 84.9667 90.9223 85.1186 90.994C85.2705 91.0656 85.4364 91.1029 85.6043 91.103H91.6336C91.898 91.1027 92.1541 91.0106 92.358 90.8424C92.562 90.6742 92.7011 90.4404 92.7517 90.1809L94.0027 83.7448H98.2273C100.615 83.7448 102.627 83.4839 104.204 82.9704C105.827 82.4438 107.319 81.5504 108.64 80.3142C109.704 79.346 110.606 78.2146 111.313 76.9624C111.995 75.7426 112.484 74.3809 112.769 72.9175C113.474 69.2892 112.902 66.3845 111.066 64.2845C109.248 62.2034 106.393 61.1484 102.576 61.1484L102.577 61.1493ZM93.9116 78.2372H97.5784C100.009 78.2377 101.82 77.7797 103.011 76.8632C104.2 75.9477 105.003 74.4189 105.419 72.2768C105.819 70.2195 105.637 68.768 104.873 67.9226C104.11 67.0771 102.583 66.6544 100.294 66.6544H96.1634L93.9116 78.2372ZM102.577 62.2862C106.065 62.2862 108.608 63.2017 110.208 65.0326C111.808 66.8636 112.289 69.4191 111.651 72.6993C111.388 74.0511 110.944 75.2865 110.319 76.4054C109.693 77.5254 108.875 78.55 107.864 79.4791C106.661 80.6057 105.324 81.4082 103.851 81.8868C102.38 82.3658 100.506 82.6051 98.2273 82.6045H93.0634L91.632 89.9627H85.6027L90.9823 62.2862H102.577Z" fill="white"/>
<defs>
<radialGradient id="paint0_radial_8274_1833" cx="0" cy="0" r="1" gradientUnits="userSpaceOnUse" gradientTransform="translate(53.5213 56.592) scale(68.9402 68.9402)">
<stop stop-color="#AEB2D5"/>
<stop offset="0.3" stop-color="#AEB2D5"/>
<stop offset="0.75" stop-color="#484C89"/>
<stop offset="1" stop-color="#484C89"/>
</radialGradient>
</defs>
</svg>
