<svg width="148" height="148" viewBox="0 0 148 148" fill="none" xmlns="http://www.w3.org/2000/svg">
<path d="M105.837 75.6826C105.311 75.0824 104.758 74.4807 104.175 73.8775C104.581 73.4476 104.976 73.0191 105.358 72.5921C112.546 64.5121 115.583 56.4052 112.77 51.5365C110.074 46.865 102.052 45.472 92.006 47.4249C91.0177 47.619 90.0338 47.8369 89.0544 48.0788C88.8663 47.4338 88.6677 46.7918 88.4587 46.1528C85.0502 35.8826 79.5456 29.2045 73.92 29.209C68.5274 29.209 63.3139 35.4661 59.986 45.1451C59.6576 46.1006 59.3545 47.0621 59.0768 48.0295C58.4229 47.8683 57.7659 47.719 57.106 47.5816C46.5089 45.4093 37.9765 46.8426 35.1682 51.7202C32.4763 56.3917 35.2891 64.0373 42.012 71.75C42.6808 72.5115 43.3676 73.2579 44.0723 73.9895C43.2392 74.8405 42.4554 75.693 41.7209 76.547C35.1592 84.1522 32.5077 91.6679 35.195 96.3215C37.972 101.132 46.3834 102.704 56.6268 100.689C57.4569 100.524 58.2825 100.339 59.1037 100.133C59.4023 101.181 59.7322 102.222 60.0935 103.255C63.4079 112.737 68.5901 118.788 73.9648 118.788C79.5187 118.788 85.0816 112.28 88.4542 102.399C88.72 101.62 88.9723 100.812 89.2111 99.9764C90.2712 100.239 91.3386 100.472 92.4136 100.675C102.281 102.543 110.114 101.078 112.797 96.4201C115.57 91.6052 112.708 83.5341 105.837 75.6826ZM38.4826 53.6282C40.2115 50.6273 47.1852 49.4538 56.3357 51.335C56.9209 51.4544 57.5166 51.5888 58.1228 51.7381C57.2288 55.6902 56.5973 59.6972 56.2326 63.7327C52.9336 66.0542 49.7874 68.5856 46.8134 71.3111C46.1595 70.6333 45.522 69.939 44.9009 69.2284C39.1365 62.6264 36.8612 56.4455 38.4826 53.6282ZM55.8922 79.2836C53.608 77.5503 51.4805 75.7766 49.5501 73.994C51.476 72.2203 53.6035 70.4556 55.8878 68.7267C55.8042 70.4855 55.7639 72.2457 55.7668 74.0074C55.7668 75.7691 55.8086 77.5279 55.8922 79.2836ZM55.8922 96.9307C52.0105 97.7991 48.0015 97.9418 44.0678 97.3517C42.9896 97.2663 41.9403 96.9612 40.9843 96.4551C40.0284 95.9491 39.1862 95.2527 38.5095 94.409C36.8746 91.5873 39.0066 85.5497 44.6187 79.0462C45.3234 78.2311 46.052 77.4368 46.8045 76.6634C49.779 79.4067 52.9316 81.9503 56.2416 84.2777C56.612 88.3639 57.2494 92.4215 58.1496 96.4246C57.4031 96.6127 56.6492 96.7829 55.8878 96.9352L55.8922 96.9307ZM87.6928 60.9244C86.1908 59.9779 84.671 59.0627 83.1332 58.1788C81.6163 57.3069 80.083 56.4664 78.5333 55.6572C81.0819 54.5831 83.6813 53.634 86.3222 52.813C86.9168 55.4917 87.3743 58.1991 87.6928 60.9244ZM63.6095 46.3858C66.4581 38.0997 70.6773 33.0385 73.929 33.0385C77.3912 33.034 81.8881 38.4938 84.8307 47.3577C85.0218 47.937 85.201 48.5192 85.3682 49.1045C81.5054 50.3019 77.7259 51.7533 74.0544 53.4491C70.3955 51.7315 66.6246 50.2635 62.7674 49.0552C63.0272 48.1594 63.3079 47.2696 63.6095 46.3858ZM61.8179 52.7638C64.4482 53.5892 67.0345 54.5489 69.5665 55.6393C66.4252 57.2576 63.3676 59.0209 60.3936 60.9289C60.7519 58.0713 61.2312 55.3347 61.8179 52.7638ZM60.3981 87.0725C61.8821 88.025 63.3885 88.9402 64.9173 89.8181C66.476 90.7139 68.0541 91.5739 69.6516 92.398C67.1011 93.5252 64.4938 94.5194 61.8403 95.3765C61.2228 92.6355 60.7415 89.8656 60.3981 87.077V87.0725ZM84.8352 101.163C83.647 104.959 81.7671 108.501 79.2903 111.613C78.6787 112.504 77.8912 113.262 76.9761 113.838C76.0611 114.414 75.0378 114.797 73.9693 114.963C70.7041 114.963 66.5432 110.103 63.7125 101.992C63.3781 101.033 63.0705 100.066 62.7898 99.0895C66.6655 97.8409 70.4515 96.3295 74.1216 94.5658C77.8251 96.2732 81.6358 97.7379 85.5294 98.9507C85.3145 99.6942 85.083 100.432 84.8352 101.163ZM86.4566 95.2332C83.7799 94.3993 81.1461 93.4336 78.5647 92.3398C80.0845 91.5425 81.6148 90.699 83.1556 89.8091C84.7382 88.8954 86.2789 87.9593 87.7779 87.0008C87.4797 89.7659 87.0387 92.5137 86.4566 95.2332ZM88.4587 73.9895C88.4587 76.7097 88.3736 79.4269 88.2034 82.1412C85.9908 83.6401 83.6707 85.0913 81.2431 86.4947C78.8245 87.8892 76.4402 89.1672 74.0902 90.3287C71.6208 89.1463 69.1992 87.8713 66.8254 86.5037C64.4664 85.1451 62.1613 83.6984 59.9099 82.1636C59.7008 79.4464 59.5963 76.7261 59.5963 74.0029C59.5963 71.2827 59.6979 68.564 59.9009 65.8468C64.4019 62.7703 69.1303 60.0407 74.0454 57.6817C76.482 58.8671 78.8752 60.1376 81.2252 61.4932C83.5841 62.8489 85.8982 64.2806 88.1675 65.7886C88.3616 68.5177 88.4587 71.2514 88.4587 73.9895ZM92.7406 51.1782C101.349 49.5076 107.835 50.6318 109.46 53.4491C111.194 56.4499 108.712 63.0698 102.5 70.048C102.157 70.4332 101.801 70.8199 101.434 71.2081C98.4091 68.4722 95.2007 65.9462 91.8313 63.6476C91.4926 59.6566 90.8866 55.6928 90.0174 51.7829C90.943 51.5559 91.8507 51.3544 92.7406 51.1782ZM92.1583 68.5789C94.4324 70.2371 96.6181 72.0132 98.7065 73.8999C96.6276 75.8166 94.4493 77.6227 92.1807 79.3105C92.2494 77.5368 92.2837 75.7632 92.2837 73.9895C92.2837 72.186 92.2419 70.3825 92.1583 68.5789ZM109.487 94.5076C107.857 97.3338 101.569 98.5117 93.1257 96.9172C92.1583 96.7351 91.1669 96.5171 90.1517 96.2633C91.0004 92.3029 91.5795 88.2895 91.8851 84.2508C95.2474 81.9121 98.4454 79.3456 101.457 76.5694C101.985 77.1158 102.487 77.6593 102.962 78.1997C105.656 81.1249 107.787 84.5234 109.245 88.2236C109.712 89.1992 109.975 90.2599 110.016 91.3406C110.058 92.4213 109.878 93.499 109.487 94.5076ZM69.9875 67.0023C68.6175 67.7934 67.5128 68.973 66.8131 70.3919C66.1134 71.8108 65.8501 73.4053 66.0566 74.9739C66.2631 76.5424 66.93 78.0144 67.9731 79.2039C69.0162 80.3934 70.3885 81.2469 71.9166 81.6565C73.4447 82.0661 75.0599 82.0133 76.5581 81.505C78.0562 80.9966 79.37 80.0554 80.3332 78.8005C81.2965 77.5455 81.866 76.0331 81.9698 74.4544C82.0735 72.8758 81.7069 71.3018 80.9161 69.9316C80.391 69.0216 79.6917 68.2239 78.8582 67.5842C78.0248 66.9444 77.0734 66.4752 76.0586 66.2031C75.0437 65.9311 73.9852 65.8617 72.9435 65.9988C71.9019 66.136 70.8974 66.477 69.9875 67.0023Z" fill="#202020"/>
</svg>
