<svg width="148" height="148" viewBox="0 0 148 148" fill="none" xmlns="http://www.w3.org/2000/svg">
<circle cx="74" cy="74" r="74" fill="white"/>
<path fill-rule="evenodd" clip-rule="evenodd" d="M21.0391 69.046C21.0391 69.5348 21.2153 69.8574 21.3141 70.171C21.9579 72.2103 23.3417 73.9604 24.9835 75.5569C27.3219 77.8319 30.1857 79.6634 33.1193 81.3857C35.6638 82.8792 38.2602 84.3394 40.8149 85.8218C41.2535 86.0763 41.6682 86.369 42.1442 86.6812C41.7346 86.862 41.394 87.0212 41.0397 87.1679C37.6684 88.5641 34.4248 90.1292 31.4349 92.0253C29.633 93.1684 27.8907 94.3832 26.6602 95.9705C24.6803 98.5237 23.9795 101.244 25.4553 104.148C25.8862 104.996 26.5436 105.729 27.4709 106.271C27.7715 106.446 28.1087 106.62 28.4604 106.688C29.3614 106.861 30.2794 106.975 31.1914 107.112L33.7742 107.11C36.6303 106.902 39.2301 106.103 41.5796 104.779C45.2515 102.71 47.7253 99.9359 48.7889 96.3752C49.5621 93.7873 49.5937 91.1965 48.6825 88.6204C48.5949 88.3818 48.4943 88.1466 48.381 87.9154C48.2703 87.6838 48.14 87.4585 47.9868 87.17L53.8421 84.4207L53.9298 84.4819C53.8234 84.7663 53.7101 85.05 53.6139 85.3371C52.9182 87.4119 52.4558 89.5229 52.6218 91.6763C52.7989 93.9708 53.5832 96.1187 55.2284 98.0356C56.5586 99.5862 59.7281 99.6439 61.1417 98.0878C61.6433 97.535 62.1295 96.9572 62.4948 96.3405C63.4494 94.7308 64.3333 93.0927 65.2454 91.4656L65.4046 91.168C65.339 91.9384 65.2624 92.615 65.2275 93.2922C65.173 94.3498 65.2488 95.4011 65.6916 96.4072C66.0705 97.268 66.7152 97.9112 67.9227 98.0245C68.7487 98.1017 69.407 97.793 70.0141 97.4015C70.9545 96.7943 71.7341 96.0376 72.3057 95.1772C73.9245 92.7499 75.5867 90.3371 77.054 87.8486C78.6413 85.157 80.0293 82.3869 81.5034 79.6495L81.7469 79.1642C82.0952 80.2815 82.3379 81.3759 82.785 82.412C83.3045 83.6142 83.9474 84.7878 84.6474 85.9288C84.9786 86.4677 84.9403 86.8175 84.4813 87.2694C82.5602 89.1607 80.6723 91.0749 78.7827 92.987C78.3645 93.409 77.9481 93.8387 77.5998 94.2997C77.3885 94.5908 77.2496 94.9131 77.1911 95.2481C77.1325 95.5565 77.2224 95.8715 77.4419 96.127C77.6615 96.3825 77.9937 96.5587 78.3688 96.6186C79.126 96.7514 79.9022 96.7965 80.6748 96.7528C83.3121 96.5942 85.7067 95.8384 87.8237 94.5577C90.5666 92.8987 91.4471 90.6347 90.7829 87.9515C90.6032 87.2235 90.2856 86.5157 89.9764 85.8141C89.8376 85.4978 89.8283 85.2759 90.0812 84.9811C92.274 82.4245 94.1474 79.7121 95.8897 76.9371C95.9587 76.8279 96.0293 76.7187 96.1503 76.6019C96.7149 79.0008 97.5647 81.3127 99.0873 83.4104C98.3107 84.0216 97.5417 84.5758 96.846 85.1863C95.314 86.531 93.9856 87.9911 93.2924 89.7718C92.9944 90.5395 92.7653 91.3196 92.8982 92.1394C93.1042 93.4125 94.3816 94.2399 95.9152 93.95C99.1972 93.3298 102.03 92.0671 104.1 89.8302C105.494 88.3242 105.621 86.6443 105.037 84.8845C104.877 84.4061 104.687 83.9354 104.483 83.3868C105.293 83.1817 106.082 82.9355 106.899 82.7833C111.139 81.9934 115.333 82.1311 119.418 83.3812C121.804 84.1113 123.731 85.333 124.873 87.2548C126.269 89.6043 125.498 91.8334 122.785 93.3186C122.533 93.457 122.243 93.5662 122.034 93.7393C121.966 93.8028 121.916 93.877 121.886 93.9572C121.856 94.0374 121.847 94.1219 121.859 94.2051C121.877 94.2907 122.154 94.3978 122.313 94.3964C123.204 94.3908 123.927 94.0091 124.621 93.6169C126.36 92.6344 127.629 91.3127 127.902 89.5723L127.956 89.4416L127.891 88.3082C127.864 88.2428 127.91 88.1782 127.904 88.1288C127.535 85.5944 125.877 83.6288 123.465 82.0879C120.672 80.3045 117.374 79.5702 113.886 79.4541C111.057 79.3547 108.232 79.7097 105.57 80.4992C104.806 80.7251 104.049 80.9928 103.281 81.2452C103.178 81.0929 103.068 80.9469 102.976 80.7961C102.188 79.4777 101.232 78.2178 101.021 76.7062C100.871 75.6327 100.687 74.5605 101 73.4987C101.301 72.4773 101.692 71.4733 102.061 70.4658C102.251 69.9471 102.117 69.6565 101.511 69.4228C101.299 69.3381 101.074 69.2777 100.842 69.2434C99.3513 69.0668 97.8815 69.1676 96.4381 69.5104C95.9272 69.6321 95.5559 69.8657 95.4426 70.3274C95.3779 70.5923 95.2459 70.8461 95.1539 71.1076C94.7767 72.1943 94.5093 73.302 93.8996 74.3373C92.3719 76.9343 90.6279 79.4332 88.843 81.9141C88.6497 82.1818 88.4462 82.4446 88.2026 82.7693C87.5759 81.6986 86.9074 80.7376 86.7047 79.6112C86.4757 78.3374 86.2951 77.0657 86.6835 75.8016C86.9721 74.8588 87.3494 73.9333 87.6968 73.003C87.8612 72.5608 87.7854 72.3285 87.2949 72.0956C87.0471 71.9781 86.7669 71.8738 86.4876 71.8397C84.9595 71.6496 83.3982 71.7539 81.9283 72.1443C81.4659 72.2667 81.2232 72.5107 81.0819 72.9001C80.6663 74.0487 80.3121 75.2252 79.7287 76.3175C77.3665 80.7397 74.9362 85.139 72.5083 89.5375C72.0017 90.456 71.4081 91.3426 70.8367 92.2367C70.692 92.4634 70.4808 92.6629 70.3002 92.8757C70.1555 92.736 70.0993 92.64 70.1001 92.544C70.1044 91.9788 70.0218 91.3968 70.1538 90.8503C70.559 89.1974 71.0071 87.5517 71.4975 85.9142C71.8978 84.5612 72.3636 83.2206 72.8072 81.8766C72.9563 81.4267 72.9588 81.006 72.5628 80.6278C71.8978 79.9944 70.508 79.8553 69.6837 80.3434L69.3192 80.5117L69.3899 80.0319C69.5636 79.0035 69.5986 77.9786 69.2528 76.9656C68.8219 75.7029 67.7183 74.9763 66.114 75.0166C65.3663 75.0354 64.5812 75.1397 63.8888 75.3622C60.9773 76.2939 58.7386 77.9439 56.8328 79.929C56.656 80.1132 56.4371 80.2677 56.1882 80.3837C53.7246 81.499 51.2533 82.6004 48.783 83.7059L46.0333 84.9359C45.2958 84.3616 44.6256 83.7657 43.8652 83.2602C41.543 81.7139 39.1833 80.2057 36.8449 78.6767C34.7722 77.3216 32.7642 75.9101 31.228 74.1155C30.0852 72.7805 29.3486 71.3196 29.2779 69.669C29.1885 67.5656 29.9192 65.6438 31.2306 63.8548C32.9081 61.5658 35.1963 59.7288 37.7118 58.0649C40.3729 56.3058 43.2512 54.8122 46.2342 53.4487C50.4077 51.5415 54.7005 49.8533 59.3032 48.7387C64.0225 47.5956 68.8109 46.9413 73.7499 47.3974C75.6915 47.5768 77.5768 47.9398 79.3081 48.715C80.634 49.3081 81.7214 50.0848 82.2272 51.2988C82.7262 52.4934 82.7109 53.7039 82.3652 54.9172C81.6626 57.3745 80.0149 59.3999 77.9413 61.2098C74.5402 64.1767 70.3914 66.1966 65.7205 67.5309C63.0349 68.2989 60.2407 68.7856 57.405 68.9792C55.0811 69.1384 52.8057 68.9702 50.6053 68.3103C49.1483 67.873 47.8795 67.2041 46.8593 66.2334C46.6771 66.0596 46.4437 65.8712 46.104 66.0339C45.771 66.1938 45.7122 66.4525 45.8238 66.7146C46.0103 67.1499 46.1823 67.6032 46.4727 67.9926C47.2025 68.9695 48.2669 69.678 49.4387 70.2857C51.6893 71.4545 54.2049 71.8474 56.8132 71.9385C60.7713 72.0782 64.6331 71.5957 68.4404 70.7286C73.876 69.491 78.6021 67.3049 82.3924 63.8562C85.5483 60.9845 87.8024 57.7437 88.2852 53.8304C88.5211 51.9204 88.2699 50.0493 87.1748 48.3069C85.9869 46.4191 84.0981 45.0153 81.8398 44.0481C78.551 42.6401 75.0017 41.8203 71.3383 41.8203H67.6681C63.2314 41.8203 58.9421 42.8584 54.7729 44.0968C51.617 45.0347 48.5224 46.1417 45.5181 47.3668C38.9755 50.0361 32.8826 53.2547 27.878 57.6804C25.3846 59.8852 23.2736 62.3181 22.0592 65.1828C21.6934 66.0383 21.3776 66.9075 21.1131 67.7875M44.8198 92.8277C44.5362 95.9281 42.8152 98.4417 40.0025 100.478C38.4203 101.622 36.6056 102.437 34.492 102.723C33.7256 102.827 32.9414 102.852 32.1979 102.593C31.1377 102.223 30.9002 101.454 30.8797 100.636C30.8482 99.3317 31.4077 98.1524 32.1749 97.0302C33.1764 95.5673 34.6445 94.452 36.2122 93.4104C38.6817 91.7688 41.3607 90.3795 44.1045 89.0682L44.3114 88.9987C44.7355 90.278 44.9373 91.5414 44.8198 92.8277ZM66.2434 79.3533C66.0433 80.3434 65.7929 81.3342 65.4387 82.2938C64.2141 85.6153 62.6413 88.8339 60.9407 92.0094C60.6265 92.5969 60.1692 93.133 59.7715 93.6899C59.7038 93.7755 59.6228 93.8536 59.5305 93.9222C59.0383 94.3192 58.5717 94.2983 58.323 93.7789C58.0335 93.1754 57.8555 92.5294 57.7022 91.8905C57.5992 91.4614 57.6239 91.0109 57.5915 90.5714C57.6247 87.4467 58.7922 84.6071 60.773 81.9635C61.5896 80.8732 62.4786 79.8344 63.8369 79.1447C64.2596 78.9304 64.7167 78.7652 65.1951 78.6538C65.919 78.4876 66.3635 78.7609 66.2434 79.3533ZM80.8596 94.5584L86.1129 89.55C86.3318 91.41 82.4597 95.123 80.8596 94.5584ZM97.638 91.1882C97.2667 91.362 96.8622 91.4872 96.4815 91.6478C96.1332 91.7952 96.0183 91.6464 96.0081 91.4017C96.0031 91.2322 96.0298 91.0632 96.0873 90.9003C96.7966 88.8575 98.1021 87.1137 100.044 85.6952L100.181 85.6382C101.105 87.7485 100.037 90.066 97.638 91.1882Z" fill="#CB6699"/>
</svg>
