<svg width="148" height="148" viewBox="0 0 148 148" fill="none" xmlns="http://www.w3.org/2000/svg">
<path fill-rule="evenodd" clip-rule="evenodd" d="M20 73.5251C20 74.109 20.1715 74.4944 20.2676 74.8691C20.8938 77.3054 22.2398 79.3961 23.8368 81.3033C26.1114 84.0212 28.8971 86.2091 31.7507 88.2667C34.2257 90.0509 36.7513 91.7953 39.2363 93.5662C39.6629 93.8702 40.0663 94.22 40.5293 94.5929C40.1309 94.8089 39.7995 94.9991 39.455 95.1744C36.1756 96.8423 33.0205 98.7121 30.1122 100.977C28.3595 102.343 26.6647 103.794 25.4678 105.69C23.5419 108.741 22.8602 111.99 24.2957 115.46C24.7148 116.473 25.3543 117.349 26.2564 117.996C26.5488 118.205 26.8768 118.413 27.2189 118.494C28.0953 118.701 28.9882 118.836 29.8753 119L32.3877 118.998C35.1659 118.75 37.6948 117.796 39.9801 116.214C43.5519 113.742 45.9582 110.428 46.9928 106.174C47.7449 103.082 47.7755 99.9872 46.8892 96.9096C46.8041 96.6246 46.7062 96.3436 46.596 96.0673C46.4883 95.7907 46.3616 95.5216 46.2125 95.1769L51.9081 91.8925L51.9934 91.9656C51.8898 92.3053 51.7797 92.6442 51.6861 92.9873C51.0093 95.4659 50.5595 97.9878 50.7211 100.56C50.8934 103.301 51.6562 105.867 53.2566 108.157C54.5504 110.01 57.6335 110.079 59.0085 108.22C59.4964 107.559 59.9694 106.869 60.3247 106.132C61.2533 104.209 62.1131 102.252 63.0002 100.309L63.1551 99.9531C63.0913 100.873 63.0168 101.682 62.9828 102.491C62.9298 103.754 63.0035 105.01 63.4342 106.212C63.8029 107.24 64.4299 108.009 65.6045 108.144C66.408 108.236 67.0482 107.868 67.6388 107.4C68.5535 106.675 69.3119 105.771 69.8679 104.743C71.4425 101.843 73.0594 98.9605 74.4866 95.9876C76.0306 92.7721 77.3808 89.4628 78.8147 86.1925L79.0516 85.6127C79.3904 86.9476 79.6264 88.255 80.0613 89.4927C80.5666 90.9289 81.192 92.331 81.8729 93.6941C82.1951 94.3379 82.1578 94.7557 81.7113 95.2956C79.8426 97.555 78.0062 99.8418 76.1681 102.126C75.7614 102.63 75.3564 103.144 75.0176 103.694C74.812 104.042 74.6769 104.427 74.62 104.827C74.563 105.196 74.6504 105.572 74.864 105.877C75.0776 106.183 75.4007 106.393 75.7656 106.465C76.5021 106.623 77.2572 106.677 78.0087 106.625C80.574 106.436 82.9033 105.533 84.9625 104.003C87.6306 102.021 88.4871 99.316 87.841 96.1105C87.6662 95.2408 87.3572 94.3952 87.0565 93.5571C86.9215 93.1791 86.9124 92.9142 87.1584 92.562C89.2914 89.5077 91.1137 86.2673 92.8084 82.9521C92.8755 82.8217 92.9443 82.6913 93.0619 82.5518C93.6111 85.4175 94.4378 88.1794 95.9188 90.6855C95.1634 91.4157 94.4154 92.0777 93.7387 92.807C92.2485 94.4135 90.9563 96.1579 90.282 98.2852C89.9921 99.2022 89.7693 100.134 89.8985 101.114C90.099 102.634 91.3415 103.623 92.8333 103.277C96.0257 102.536 98.7815 101.027 100.795 98.3549C102.15 96.5557 102.274 94.5489 101.706 92.4465C101.551 91.875 101.366 91.3127 101.167 90.6573C101.955 90.4122 102.723 90.1182 103.517 89.9363C107.641 88.9927 111.721 89.1571 115.695 90.6506C118.015 91.5228 119.89 92.9823 121.001 95.2782C122.359 98.085 121.609 100.748 118.97 102.522C118.724 102.688 118.443 102.818 118.239 103.025C118.174 103.101 118.125 103.189 118.096 103.285C118.066 103.381 118.057 103.482 118.069 103.581C118.087 103.684 118.356 103.812 118.511 103.81C119.378 103.803 120.081 103.347 120.756 102.879C122.448 101.705 123.682 100.126 123.948 98.0468L124 97.8906L123.936 96.5366C123.911 96.4586 123.955 96.3813 123.949 96.3223C123.59 93.2946 121.977 90.9464 119.631 89.1056C116.914 86.975 113.706 86.0978 110.314 85.9591C107.562 85.8403 104.814 86.2645 102.225 87.2076C101.482 87.4775 100.745 87.7973 99.9983 88.0989C99.8981 87.917 99.7904 87.7425 99.7018 87.5623C98.9348 85.9873 98.0054 84.4822 97.8 82.6764C97.6542 81.3938 97.4752 80.113 97.7792 78.8446C98.0716 77.6243 98.4527 76.4249 98.8113 75.2213C98.9961 74.6016 98.866 74.2544 98.2762 73.9753C98.0701 73.874 97.851 73.8019 97.6252 73.761C96.1756 73.55 94.7459 73.6704 93.3419 74.0799C92.8449 74.2253 92.4837 74.5044 92.3736 75.056C92.3106 75.3724 92.1822 75.6756 92.0928 75.9879C91.7258 77.2863 91.4657 78.6095 90.8726 79.8463C89.3866 82.9488 87.6902 85.9342 85.954 88.898C85.766 89.2178 85.568 89.5317 85.3311 89.9197C84.7215 88.6405 84.0712 87.4925 83.8741 86.1468C83.6513 84.6251 83.4757 83.1058 83.8534 81.5957C84.1342 80.4693 84.5011 79.3637 84.8391 78.2523C84.999 77.724 84.9252 77.4466 84.4481 77.1683C84.2071 77.0279 83.9346 76.9033 83.6629 76.8626C82.1765 76.6355 80.6578 76.7601 79.228 77.2264C78.7782 77.3726 78.5421 77.6642 78.4046 78.1294C78.0004 79.5016 77.6558 80.9071 77.0884 82.212C74.7906 87.495 72.4266 92.7505 70.065 98.0052C69.5722 99.1025 68.9948 100.162 68.439 101.23C68.2982 101.501 68.0928 101.739 67.9172 101.993C67.7764 101.826 67.7217 101.712 67.7225 101.597C67.7267 100.922 67.6463 100.226 67.7747 99.5735C68.1689 97.5989 68.6047 95.6329 69.0818 93.6767C69.4711 92.0603 69.9242 90.4588 70.3558 88.8531C70.5007 88.3157 70.5032 87.8131 70.118 87.3613C69.4711 86.6045 68.1193 86.4384 67.3175 87.0215L66.9629 87.2225L67.0317 86.6494C67.2007 85.4208 67.2346 84.1965 66.8983 82.9862C66.4792 81.4777 65.4057 80.6097 63.8451 80.6579C63.1178 80.6803 62.3541 80.8049 61.6807 81.0707C58.8486 82.1838 56.6709 84.1549 54.8171 86.5264C54.6452 86.7465 54.4322 86.931 54.1901 87.0697C51.7937 88.4021 49.3899 89.7178 46.987 91.0386L44.3123 92.508C43.5949 91.8219 42.9431 91.11 42.2034 90.5061C39.9445 88.6587 37.6492 86.857 35.3746 85.0304C33.3585 83.4115 31.4053 81.7253 29.911 79.5814C28.7993 77.9865 28.0828 76.2413 28.0141 74.2693C27.9271 71.7566 28.6378 69.4607 29.9134 67.3234C31.5452 64.5889 33.771 62.3943 36.2179 60.4066C38.8064 58.305 41.6061 56.5208 44.5078 54.8918C48.5674 52.6134 52.743 50.5965 57.2201 49.265C61.8107 47.8994 66.4684 47.1178 71.2727 47.6627C73.1613 47.877 74.9952 48.3106 76.6792 49.2368C77.9689 49.9453 79.0267 50.8731 79.5187 52.3235C80.0041 53.7505 79.9892 55.1967 79.6529 56.6462C78.9696 59.5817 77.3667 62.0014 75.3498 64.1636C72.0414 67.708 68.0058 70.121 63.4624 71.7151C60.85 72.6326 58.1321 73.214 55.3738 73.4453C53.1133 73.6355 50.9 73.4345 48.7596 72.6462C47.3423 72.1237 46.1081 71.3247 45.1158 70.1651C44.9385 69.9574 44.7115 69.7323 44.381 69.9267C44.0572 70.1177 44 70.4267 44.1085 70.7399C44.2899 71.2599 44.4572 71.8015 44.7397 72.2666C45.4496 73.4337 46.485 74.2801 47.6248 75.0061C49.814 76.4024 52.2609 76.8718 54.7981 76.9806C58.6482 77.1475 62.4046 76.5711 66.1081 75.5352C71.3953 74.0567 75.9925 71.4451 79.6794 67.3251C82.7492 63.8945 84.9418 60.0228 85.4115 55.3479C85.6409 53.0661 85.3966 50.8308 84.3313 48.7492C83.1758 46.4939 81.3386 44.8169 79.1418 43.6614C75.9428 41.9793 72.4904 41 68.9269 41H65.3568C61.0412 41 56.8689 42.2402 52.8134 43.7196C49.7436 44.8401 46.7335 46.1625 43.8111 47.6261C37.4471 50.815 31.5204 54.6601 26.6523 59.9472C24.227 62.5812 22.1735 65.4877 20.9923 68.9099C20.6364 69.9319 20.3293 70.9703 20.0721 72.0216M43.1319 101.936C42.8561 105.64 41.182 108.643 38.4461 111.075C36.907 112.442 35.1419 113.416 33.0859 113.758C32.3404 113.882 31.5776 113.911 30.8544 113.602C29.8232 113.16 29.592 112.242 29.5722 111.264C29.5415 109.706 30.0857 108.297 30.8321 106.956C31.8062 105.209 33.2342 103.876 34.7592 102.632C37.1613 100.671 39.7672 99.0112 42.4361 97.4446L42.6374 97.3615C43.0499 98.8899 43.2462 100.399 43.1319 101.936ZM63.971 85.8387C63.7764 87.0215 63.5328 88.2052 63.1882 89.3515C61.9971 93.3195 60.4672 97.1646 58.813 100.958C58.5074 101.66 58.0625 102.301 57.6757 102.966C57.6098 103.068 57.531 103.161 57.4413 103.243C56.9625 103.718 56.5086 103.693 56.2667 103.072C55.9851 102.351 55.812 101.58 55.6629 100.816C55.5626 100.304 55.5867 99.7654 55.5552 99.2404C55.5875 95.5075 56.7231 92.1151 58.6498 88.9569C59.4442 87.6545 60.309 86.4135 61.6302 85.5895C62.0413 85.3335 62.486 85.1361 62.9513 85.003C63.6554 84.8045 64.0878 85.1309 63.971 85.8387ZM78.1884 104.003L83.2984 98.0202C83.5113 100.242 79.7449 104.678 78.1884 104.003ZM94.509 99.9772C94.1479 100.185 93.7544 100.334 93.3841 100.526C93.0453 100.702 92.9335 100.525 92.9236 100.232C92.9188 100.03 92.9448 99.8279 93.0006 99.6333C93.6906 97.1929 94.9604 95.1096 96.8499 93.415L96.9824 93.3469C97.8811 95.868 96.8424 98.6365 94.509 99.9772Z" fill="#202020"/>
</svg>
