<svg width="148" height="148" viewBox="0 0 148 148" fill="none" xmlns="http://www.w3.org/2000/svg">
<path d="M85.8439 30C130.679 59.4531 116.177 91.9335 116.177 91.9335C116.177 91.9335 128.926 105.839 123.773 118C123.773 118 118.514 109.482 109.696 109.482C101.196 109.482 96.2028 118 79.0974 118C41.0085 118 23 87.2641 23 87.2641C57.3171 109.072 80.7442 93.6268 80.7442 93.6268C65.2855 84.9551 32.4027 43.495 32.4027 43.495C61.0357 67.0472 73.4133 73.256 73.4133 73.256C66.0292 67.3551 45.3115 38.5178 45.3115 38.5178C61.8857 54.7324 94.8217 77.3609 94.8217 77.3609C104.171 52.3207 85.8439 30 85.8439 30Z" fill="#303030"/>
</svg>
