<svg width="148" height="148" viewBox="0 0 148 148" fill="none" xmlns="http://www.w3.org/2000/svg">
<circle cx="74" cy="74" r="74" fill="white"/>
<g clip-path="url(#clip0_8274_1866)">
<path d="M74.0052 41.752C59.6723 41.752 50.7175 48.9155 47.1315 63.2484C52.5046 56.084 58.777 53.3975 65.9414 55.1888C70.0321 56.2083 72.9554 59.1745 76.1929 62.4615C81.4618 67.8085 87.5604 73.9987 100.879 73.9987C115.211 73.9987 124.167 66.8343 127.753 52.4981C122.378 59.6661 116.108 62.354 108.942 60.5619C104.852 59.5415 101.932 56.5761 98.6903 53.2892C93.4248 47.9421 87.3278 41.752 74.0052 41.752ZM47.1315 73.9987C32.7994 73.9987 23.8438 81.1631 20.2578 95.4993C25.632 88.3313 31.902 85.6434 39.0677 87.4355C43.1584 88.4559 46.0817 91.4212 49.3192 94.7082C54.5881 100.055 60.6867 106.245 74.0052 106.245C88.3372 106.245 97.2929 99.0819 100.879 84.749C95.5041 91.9136 89.2339 94.6002 82.0681 92.8086C77.9783 91.7891 75.0583 88.8229 71.8167 85.5359C66.5511 80.1889 60.4541 73.9987 47.1315 73.9987Z" fill="#38BDF8"/>
</g>
<defs>
<clipPath id="clip0_8274_1866">
<rect width="107.495" height="107.495" fill="white" transform="translate(20.2539 20.252)"/>
</clipPath>
</defs>
</svg>
