<svg width="148" height="148" viewBox="0 0 148 148" fill="none" xmlns="http://www.w3.org/2000/svg">
<circle cx="74" cy="74" r="74" fill="#3178C6"/>
<g clip-path="url(#clip0_8274_1875)">
<path d="M79.4059 86.5893V98.0257C81.2659 98.9788 83.4656 99.6936 86.0052 100.17C88.5448 100.647 91.2214 100.885 94.0351 100.885C96.7773 100.885 99.3823 100.623 101.85 100.098C104.318 99.5743 106.482 98.7107 108.342 97.5077C110.202 96.3044 111.674 94.7318 112.759 92.7898C113.844 90.8484 114.387 88.4481 114.387 85.5889C114.387 83.5158 114.077 81.699 113.457 80.1386C112.843 78.5888 111.932 77.1743 110.774 75.9752C109.606 74.76 108.205 73.67 106.572 72.7049C104.938 71.7399 103.096 70.8287 101.045 69.9713C99.543 69.3516 98.1958 68.7499 97.0035 68.1664C95.8113 67.5828 94.798 66.9871 93.9635 66.3793C93.1287 65.772 92.4849 65.1287 92.0319 64.4493C91.5789 63.77 91.3524 63.0016 91.3524 62.1443C91.3524 61.3581 91.555 60.6493 91.9603 60.018C92.3658 59.3865 92.9381 58.8445 93.6774 58.392C94.4166 57.9396 95.3227 57.588 96.3957 57.3374C97.4687 57.0873 98.6609 56.9623 99.9724 56.9623C100.926 56.9623 101.934 57.0338 102.995 57.1767C104.056 57.3195 105.123 57.5399 106.196 57.838C107.266 58.1351 108.312 58.5114 109.326 58.9638C110.308 59.3994 111.248 59.9257 112.133 60.536V49.8503C110.393 49.1831 108.491 48.6887 106.428 48.3671C104.366 48.0456 101.999 47.8848 99.3285 47.8848C96.6103 47.8848 94.0351 48.1767 91.6029 48.7605C89.1707 49.3441 87.0306 50.2553 85.1825 51.4941C83.3347 52.7336 81.8741 54.3121 80.8009 56.2298C79.7279 58.1477 79.1914 60.4409 79.1914 63.1094C79.1914 66.5163 80.1751 69.4231 82.1424 71.8296C84.1098 74.2361 87.0963 76.2732 91.1019 77.9407C92.5808 78.5431 94.0475 79.1746 95.5013 79.8351C96.8606 80.4545 98.035 81.0977 99.0246 81.7646C100.014 82.4315 100.795 83.1582 101.367 83.9446C101.94 84.7311 102.226 85.6246 102.226 86.6253C102.23 87.3455 102.045 88.0543 101.689 88.6803C101.332 89.3116 100.789 89.8595 100.062 90.3241C99.3344 90.7887 98.4283 91.152 97.3435 91.4139C96.2587 91.6759 94.9889 91.807 93.5341 91.8073C91.0544 91.8073 88.5985 91.3724 86.1663 90.5026C83.7341 89.6328 81.4806 88.3283 79.4059 86.5893ZM60.3441 58.1295H75.0508V48.7129H34.0586V58.1295H48.6936V100.057H60.3441V58.1295Z" fill="white"/>
</g>
<defs>
<clipPath id="clip0_8274_1875">
<rect width="106" height="106" fill="white" transform="translate(21 21)"/>
</clipPath>
</defs>
</svg>
