<svg width="148" height="148" viewBox="0 0 148 148" fill="none" xmlns="http://www.w3.org/2000/svg">
<circle cx="74" cy="74" r="74" fill="white"/>
<g clip-path="url(#clip0_8274_1895)">
<path d="M73.993 127.747L117.413 102.674L100.77 93.0494L83.7557 102.878C83.6108 102.958 83.4478 102.999 83.2824 102.998C83.1169 102.997 82.9546 102.953 82.811 102.871C82.6678 102.787 82.5487 102.667 82.4651 102.524C82.3816 102.381 82.3364 102.218 82.3339 102.052V78.7089C82.3339 78.0211 82.69 77.3988 83.2854 77.0562L103.503 65.3804C103.647 65.2984 103.81 65.2558 103.976 65.2572C104.142 65.2585 104.304 65.3036 104.447 65.3879C104.742 65.5517 104.927 65.8616 104.931 66.1992V85.8489L121.584 95.468V45.3242L73.9922 72.795L73.993 127.747Z" fill="black"/>
<path d="M64.257 102.89L47.2342 93.0494L30.5792 102.674L73.9936 127.747V72.7958L26.418 45.3242V95.4655L43.0671 85.8497V66.2017C43.0746 65.865 43.256 65.5551 43.5474 65.3905C43.691 65.306 43.8543 65.2609 44.0209 65.2595C44.1875 65.2582 44.3515 65.3008 44.4964 65.3829L64.7239 77.057C65.0133 77.2255 65.2535 77.4669 65.4204 77.7572C65.5874 78.0475 65.6753 78.3765 65.6754 78.7114V102.058C65.6731 102.224 65.6283 102.387 65.5453 102.531C65.4622 102.675 65.3436 102.796 65.2009 102.881C65.0581 102.965 64.8959 103.01 64.7303 103.012C64.5647 103.013 64.4015 102.972 64.257 102.891" fill="#4D4D4D"/>
<path d="M78.1666 20.252V39.4834L95.1819 49.3066C95.4741 49.4771 95.6479 49.7903 95.6479 50.133C95.6479 50.4714 95.4699 50.7813 95.1819 50.9518L74.9569 62.6351C74.6663 62.8 74.3378 62.8867 74.0037 62.8867C73.6696 62.8867 73.3411 62.8 73.0505 62.6351L52.8314 50.9518C52.6878 50.8689 52.5687 50.7495 52.4861 50.6057C52.4035 50.4619 52.3604 50.2988 52.3611 50.133C52.3599 49.966 52.4028 49.8017 52.4853 49.6566C52.5679 49.5116 52.6873 49.3908 52.8314 49.3066L69.8433 39.4834V20.252L26.418 45.3243L73.9945 72.795L121.582 45.3251L78.1666 20.252Z" fill="#808080"/>
</g>
<defs>
<clipPath id="clip0_8274_1895">
<rect width="107.495" height="107.495" fill="white" transform="translate(20.2539 20.252)"/>
</clipPath>
</defs>
</svg>
