<svg width="150" height="150" viewBox="0 0 150 150" fill="none" xmlns="http://www.w3.org/2000/svg">
<path d="M55.862 70.041C53.6894 70.041 51.2641 70.8641 50.7558 73.5733C50.7017 73.8611 50.8955 73.9984 51.0826 74.0404L53.3094 74.3029C53.5155 74.2927 53.6552 74.0722 53.6951 73.8648C53.8851 72.9324 54.665 72.4924 55.5362 72.4924C56.0064 72.4924 56.5346 72.6512 56.8129 73.0763C57.1321 73.55 57.1093 74.1936 57.1093 74.7402V75.0615C55.786 75.211 54.0437 75.3016 52.805 75.85C51.3752 76.475 50.3711 77.7465 50.3711 79.6159C50.3711 82.0112 51.8635 83.207 53.7853 83.207C55.4079 83.207 56.3047 82.8324 57.5558 81.5432C57.971 82.1504 58.104 82.426 58.8621 83.0613C58.9459 83.1083 59.0427 83.128 59.1386 83.1176C59.2345 83.1072 59.3246 83.0672 59.3959 83.0034V83.0323C59.8519 82.6232 60.6813 81.8795 61.1477 81.4853C61.3339 81.3321 61.2931 81.0798 61.1477 80.8724C60.7307 80.2913 60.287 79.8223 60.287 78.7415V75.1503C60.287 73.6294 60.4181 72.2271 59.3076 71.1798C58.4308 70.3325 56.9716 70.041 55.862 70.041ZM85.7865 70.041C83.613 70.041 81.1895 70.8641 80.6804 73.5733C80.6262 73.8611 80.819 73.9984 81.0071 74.0404L83.2339 74.3029C83.4401 74.2927 83.5807 74.0722 83.6196 73.8648C83.8106 72.9324 84.5895 72.4924 85.4607 72.4924C85.9319 72.4924 86.4591 72.6512 86.7375 73.0763C87.0557 73.55 87.0044 74.1936 87.0044 74.7402V75.0615C85.6811 75.211 83.9692 75.3016 82.7295 75.85C81.2988 76.475 80.2956 77.7465 80.2956 79.6159C80.2956 82.0112 81.789 83.207 83.7099 83.207C85.3305 83.207 86.2273 82.8324 87.4803 81.5432C87.8945 82.1504 88.0285 82.426 88.7866 83.0613C88.9576 83.151 89.1694 83.1416 89.3205 83.0034V83.0323C89.7765 82.6232 90.6058 81.8795 91.0722 81.4853C91.2575 81.3321 91.2147 81.0798 91.0722 80.8724C90.6552 80.2913 90.2115 79.8223 90.2115 78.7415V75.1503C90.2115 73.6294 90.3113 72.2271 89.2027 71.1798C88.3249 70.3325 86.8961 70.041 85.7865 70.041ZM68.9537 70.1578C67.5497 70.1578 66.5085 70.8547 65.9556 72.3476H65.9261V70.8005C65.9186 70.6945 65.8724 70.5946 65.7959 70.5194C65.7194 70.4442 65.6179 70.3988 65.51 70.3913H63.3726C63.255 70.393 63.1426 70.4397 63.0594 70.5215C62.9762 70.6034 62.9288 70.7138 62.927 70.8295V82.6531C62.9372 82.7582 62.9843 82.8566 63.0602 82.9313C63.1362 83.006 63.2362 83.0523 63.3431 83.0622H65.6288C65.7466 83.061 65.8592 83.0145 65.9425 82.9326C66.0258 82.8507 66.0731 82.7399 66.0743 82.6241V76.347C66.0743 74.9784 66.0069 73.1062 67.6475 73.1062C69.2672 73.1062 69.043 75.0298 69.043 76.347V82.6241C69.043 82.8474 69.2283 83.0473 69.4591 83.0622H71.7448C71.8626 83.061 71.9752 83.0145 72.0585 82.9326C72.1418 82.8507 72.1891 82.7399 72.1903 82.6241V76.347C72.1903 75.6753 72.1628 74.6972 72.3984 74.0993C72.633 73.5014 73.2097 73.1071 73.7645 73.1071C74.4257 73.1071 74.9301 73.3342 75.1001 74.1292C75.2065 74.6019 75.159 75.851 75.159 76.348V82.625C75.159 82.8483 75.3443 83.0482 75.5751 83.0632H77.8608C77.9786 83.062 78.0912 83.0154 78.1745 82.9335C78.2578 82.8516 78.3051 82.7409 78.3063 82.625V75.1512C78.3063 73.8816 78.4365 72.4401 77.7126 71.4433C77.0733 70.5483 76.0283 70.1587 75.0707 70.1587C73.7274 70.1587 72.4782 70.8557 71.9243 72.3486C71.2841 70.8557 70.3816 70.1578 68.9537 70.1578ZM107.815 70.1578C104.512 70.1578 102.679 73.0137 102.679 76.6974C102.679 80.3558 104.492 83.2949 107.815 83.2949C111.011 83.2949 113.04 80.4231 113.04 76.8132C113.04 73.0829 111.202 70.1578 107.815 70.1578ZM120.847 70.1578C119.269 70.1578 118.367 70.9341 117.73 72.5513H117.7V70.7408C117.659 70.5576 117.484 70.4306 117.284 70.4194H115.176C115.067 70.417 114.961 70.4545 114.879 70.5246C114.797 70.5947 114.744 70.6924 114.731 70.7987V82.6222C114.733 82.7329 114.776 82.8388 114.853 82.9197C114.93 83.0006 115.035 83.0507 115.147 83.0604H117.403C117.521 83.0587 117.633 83.012 117.716 82.9302C117.799 82.8484 117.847 82.7379 117.849 82.6222V76.2583C117.849 75.4605 117.917 74.7327 118.234 74.0105C118.491 73.4379 118.986 73.0763 119.54 73.0763C121.116 73.0763 120.965 74.9644 120.965 76.2583V82.6811C120.98 82.7816 121.029 82.8742 121.105 82.9433C121.181 83.0123 121.278 83.0537 121.381 83.0604H123.667C123.891 83.0604 124.086 82.8922 124.113 82.6811V75.2362C124.113 74.0918 124.116 72.5018 123.519 71.5573C122.88 70.538 121.868 70.1578 120.847 70.1578ZM93.4158 70.3624C93.1841 70.3624 93.0007 70.5436 92.9998 70.8005V72.4934C93.0007 72.7465 93.1784 72.9296 93.4158 72.9315H97.3345L92.8516 79.4421C92.578 79.8616 92.5552 80.3371 92.5552 80.6099V82.3326C92.5552 82.5811 92.8297 82.8511 93.0891 82.7119C95.6436 81.3405 98.7054 81.4619 101.016 82.6829C101.296 82.8334 101.58 82.5512 101.58 82.3037V80.4931C101.574 80.3596 101.532 80.2301 101.459 80.1174C101.386 80.0047 101.284 79.9126 101.164 79.8504C99.8529 79.1086 98.3311 78.8816 96.889 78.9162L100.778 73.3108C101.138 72.8073 101.34 72.5036 101.343 72.2598V70.8005C101.343 70.5492 101.168 70.3624 100.926 70.3624H93.4158ZM107.815 72.5812C108.539 72.5812 109.073 72.8988 109.329 73.72C109.625 74.6664 109.656 75.8482 109.656 76.844C109.656 78.3612 109.584 80.8724 107.815 80.8724C106.026 80.8724 106.034 77.7633 106.034 76.3181C106.034 74.8766 106.131 72.5812 107.815 72.5812ZM57.0789 76.902V77.398C57.0789 78.2958 57.1122 79.0516 56.6628 79.8504C56.2999 80.4997 55.73 80.9014 55.0897 80.9014C54.2157 80.9014 53.6941 80.2044 53.6941 79.2086C53.6951 77.2448 55.4298 76.902 57.0789 76.902ZM87.0035 76.902V77.398C87.0035 78.2958 87.0367 79.0516 86.5874 79.8504C86.2245 80.4997 85.6573 80.9014 85.0142 80.9014C84.1392 80.9014 83.6187 80.2044 83.6187 79.2086C83.6196 77.2448 85.3524 76.902 87.0035 76.902Z" fill="#202020"/>
<path d="M101.818 83.4414V85.1342H102.976V83.4414H101.818ZM68.2414 83.7329V95.79H69.3102V94.71C69.5382 95.1379 69.7975 95.4583 70.1119 95.6732C70.4254 95.8881 70.7855 95.9946 71.1807 95.9946C71.9654 95.9946 72.6427 95.6003 73.2288 94.7978C73.815 93.9953 74.1199 92.8322 74.1199 91.3524C74.1199 90.3836 73.9936 89.5811 73.7342 88.9001C73.4749 88.2209 73.1281 87.7155 72.6949 87.382C72.2618 87.0484 71.7697 86.8569 71.2405 86.8569C70.8727 86.8531 70.5117 86.9544 70.2012 87.1484C69.8925 87.3427 69.6426 87.6594 69.3995 88.0537V83.7329H68.2414ZM79.2261 86.5655C78.4205 86.5655 77.7812 86.7999 77.3261 87.2661C76.8711 87.7314 76.6431 88.3321 76.6431 89.0767C76.6431 89.5092 76.7419 89.8745 76.91 90.2155C77.0782 90.5565 77.3204 90.8302 77.6225 91.0329C77.9265 91.2356 78.5326 91.5019 79.4332 91.7915C80.0564 91.9886 80.4288 92.1568 80.5912 92.2876C80.8268 92.4791 80.9475 92.7304 80.9475 93.0761C80.9475 93.4759 80.8069 93.8094 80.5314 94.0682C80.2568 94.3289 79.8749 94.4475 79.3733 94.4475C78.8717 94.4475 78.4585 94.3092 78.1564 94.0094C77.8543 93.7095 77.6909 93.2536 77.6225 92.637L76.4645 92.8705C76.7257 94.7437 77.6757 95.6741 79.3144 95.6732C80.1884 95.6732 80.8572 95.4294 81.3626 94.9146C81.868 94.3999 82.134 93.7048 82.134 92.8705C82.134 92.4202 82.0532 92.0297 81.8965 91.7028C81.7397 91.3758 81.5241 91.1338 81.2429 90.9442C80.9608 90.7555 80.3319 90.5032 79.3724 90.1856C78.6751 89.9455 78.2666 89.7698 78.126 89.6605C77.8895 89.4756 77.7698 89.2233 77.7698 88.902C77.7698 88.5731 77.88 88.2947 78.126 88.0845C78.3721 87.8743 78.7511 87.7631 79.2546 87.7631C80.14 87.7631 80.6349 88.2415 80.7385 89.1934L81.867 89.0178C81.7892 88.4152 81.6552 87.9397 81.451 87.6165C81.2467 87.2932 80.9446 87.0204 80.5599 86.828C80.1761 86.6365 79.7343 86.5655 79.2261 86.5655ZM86.3215 86.5655C85.3934 86.5655 84.6106 86.941 84.0055 87.7332C83.4003 88.5255 83.1144 89.6727 83.1144 91.1787C83.1144 92.6295 83.406 93.7665 84.0055 94.5363C84.6049 95.3051 85.382 95.6751 86.351 95.6751C87.1214 95.6751 87.7598 95.4481 88.2804 94.9744C88.8019 94.5008 89.18 93.8038 89.3786 92.8724L88.1911 92.6678C87.85 93.8608 87.2212 94.4466 86.35 94.4484C85.7952 94.4484 85.3421 94.2168 84.9545 93.7188C84.5669 93.2199 84.3475 92.48 84.3009 91.5H89.4071V91.0908C89.4071 89.6176 89.1088 88.5114 88.516 87.7332C87.9251 86.955 87.206 86.5655 86.3215 86.5655ZM93.3571 86.5655C93.0797 86.5655 92.8375 86.6579 92.6152 86.8569C92.3929 87.0559 92.1402 87.4688 91.8732 88.0826V86.7392H90.8339V95.4686H91.992V90.9152C91.992 90.2799 92.0528 89.669 92.2 89.1047C92.2836 88.7814 92.4413 88.5264 92.6456 88.3461C92.8498 88.1658 93.0826 88.0836 93.3286 88.0836C93.6012 88.0836 93.872 88.191 94.1598 88.4049L94.5455 87.0326C94.1408 86.7149 93.7447 86.5655 93.3571 86.5655ZM107.547 86.5655C106.63 86.5655 105.875 86.9448 105.291 87.7043C104.708 88.4629 104.4 89.6026 104.4 91.1198C104.4 92.6248 104.711 93.7655 105.291 94.5353C105.869 95.3042 106.593 95.6742 107.487 95.6742C108.225 95.6742 108.86 95.4042 109.387 94.8567C109.914 94.3092 110.235 93.5039 110.367 92.4632L109.238 92.2876C109.154 93.0322 108.957 93.5675 108.644 93.9225C108.332 94.2756 107.956 94.4475 107.516 94.4475C106.955 94.4475 106.478 94.1906 106.12 93.659C105.762 93.1275 105.586 92.2773 105.586 91.0899C105.586 89.9389 105.775 89.1084 106.151 88.5787C106.526 88.049 107.004 87.7613 107.576 87.7613C107.957 87.7613 108.283 87.907 108.555 88.1994C108.829 88.4909 109.01 88.9543 109.119 89.5428L110.248 89.3093C110.112 88.39 109.812 87.6959 109.327 87.2362C108.843 86.7757 108.255 86.5655 107.547 86.5655ZM114.167 86.5655C113.239 86.5655 112.457 86.941 111.851 87.7332C111.246 88.5255 110.96 89.6727 110.96 91.1787C110.96 92.6295 111.252 93.7665 111.851 94.5363C112.452 95.3051 113.228 95.6751 114.197 95.6751C114.965 95.6751 115.605 95.4481 116.126 94.9744C116.647 94.5008 117.025 93.8038 117.225 92.8724L116.037 92.6678C115.696 93.8608 115.095 94.4466 114.226 94.4484C113.672 94.4484 113.189 94.2168 112.801 93.7188C112.414 93.2199 112.195 92.48 112.148 91.5H117.254V91.0908C117.254 89.6176 116.956 88.5114 116.363 87.7332C115.774 86.955 115.053 86.5655 114.167 86.5655ZM121.025 86.5655C120.218 86.5655 119.58 86.7999 119.125 87.2661C118.669 87.7314 118.442 88.3321 118.442 89.0767C118.442 89.5092 118.512 89.8745 118.68 90.2155C118.847 90.5555 119.088 90.8302 119.392 91.0329C119.694 91.2356 120.303 91.5019 121.203 91.7915C121.824 91.9886 122.228 92.1568 122.391 92.2876C122.626 92.4791 122.747 92.7304 122.747 93.0761C122.747 93.4759 122.606 93.8094 122.331 94.0682C122.057 94.3289 121.674 94.4475 121.173 94.4475C120.67 94.4475 120.258 94.3092 119.956 94.0094C119.654 93.7095 119.459 93.2536 119.391 92.637L118.233 92.8705C118.495 94.7437 119.443 95.6741 121.083 95.6732C121.958 95.6732 122.656 95.4294 123.162 94.9146C123.668 94.3999 123.933 93.7048 123.933 92.8705C123.933 92.4202 123.853 92.0297 123.696 91.7028C123.539 91.3758 123.295 91.1338 123.013 90.9442C122.732 90.7555 122.131 90.5032 121.172 90.1856C120.474 89.9455 120.036 89.7698 119.895 89.6605C119.658 89.4756 119.539 89.2233 119.539 88.902C119.539 88.5731 119.678 88.2947 119.924 88.0845C120.17 87.8743 120.551 87.7631 121.053 87.7631C121.938 87.7631 122.433 88.2415 122.537 89.1934L123.665 89.0178C123.587 88.4152 123.455 87.9397 123.249 87.6165C123.031 87.2783 122.723 87.0055 122.358 86.828C121.977 86.6365 121.533 86.5655 121.025 86.5655ZM94.5446 86.7402L97.1276 95.4696H98.2258L100.809 86.7402H99.6213L98.107 92.083C97.9237 92.7285 97.7622 93.2863 97.6615 93.7468C97.5351 93.1667 97.4145 92.5576 97.2454 91.9662L95.7615 86.7402H94.5446ZM101.818 86.7402V95.4696H102.976V86.7402H101.818ZM63.7594 86.8569C62.8408 86.8569 62.1017 87.2624 61.5032 88.0537C60.9037 88.8459 60.5826 89.9931 60.5826 91.4991C60.5826 92.95 60.879 94.0579 61.4737 94.8268C62.0684 95.5957 62.8598 95.9946 63.8192 95.9946C64.5811 95.9946 65.2034 95.7386 65.7192 95.265C66.2341 94.7913 66.5903 94.0944 66.7879 93.163L65.6299 92.9873C65.2927 94.1803 64.6799 94.7661 63.8192 94.768C63.2692 94.768 62.8075 94.5363 62.4237 94.0383C62.0399 93.5394 61.8167 92.7995 61.7701 91.8195H66.8164L66.8459 91.4103C66.8459 89.9371 66.5419 88.802 65.9548 88.0238C65.3677 87.2456 64.6343 86.8569 63.7594 86.8569ZM50.7266 87.0615L52.8051 95.7909H54.0221L55.3881 89.0757L55.6256 90.5649L56.7238 95.7909H57.9113L60.0193 87.0615H58.9211L57.7631 92.1119L57.3774 93.8048L57.0212 92.1119L56.0123 87.0615H54.8248L53.7561 92.1708L53.3998 93.9813L52.9837 92.1129L51.915 87.0625L50.7266 87.0615ZM123.013 91.0879C122.932 91.3214 123.053 90.9655 123.013 91.0879V91.0879ZM86.2911 87.7622C86.8678 87.7622 87.3428 88.0369 87.7161 88.5796C87.9726 88.9515 88.1388 89.5176 88.1911 90.2725H84.3617C84.3978 89.5064 84.6182 88.915 84.9849 88.4619C85.3516 88.0088 85.7734 87.7622 86.2911 87.7622ZM114.138 87.7622C114.713 87.7622 115.19 88.0369 115.563 88.5796C115.819 88.9515 115.986 89.5176 116.038 90.2725H112.209C112.245 89.5064 112.465 88.915 112.832 88.4619C113.198 88.0107 113.619 87.7622 114.138 87.7622ZM63.7594 88.0836C64.3294 88.0836 64.7873 88.3582 65.1549 88.901C65.4086 89.2728 65.5777 89.839 65.6299 90.5938H61.8594C61.8955 89.8278 62.0884 89.2074 62.4532 88.7543C62.8151 88.3022 63.2455 88.0836 63.7594 88.0836ZM71.1218 88.0836C71.6367 88.0836 72.0746 88.3648 72.428 88.901C72.7814 89.4382 72.9324 90.2659 72.9324 91.4122C72.9324 92.5286 72.7652 93.361 72.3986 93.9234C72.0319 94.4858 71.5949 94.7698 71.1218 94.7698C70.7741 94.7698 70.4577 94.6549 70.1718 94.4195C69.8849 94.1841 69.6749 93.8468 69.5182 93.3974C69.3615 92.9481 69.2807 92.2568 69.2807 91.3534C69.2807 90.2893 69.4736 89.4924 69.845 88.93C70.2164 88.3676 70.6487 88.0836 71.1218 88.0836Z" fill="#202020"/>
<path d="M34.0864 78.8305L29.6632 80.699L33.7596 82.4217L38.5095 80.699L34.0864 78.8305ZM27.4365 81.1661L27.2883 89.5741L33.7596 92.3768V83.6474L27.4365 81.1661ZM40.7363 81.1661L34.8882 83.3559V91.5883L40.7363 89.2528V81.1661ZM47.7129 55.0078L43.2594 56.8763L47.3861 58.599L52.1361 56.8763L47.7129 55.0078ZM41.538 57.49V65.8981L47.0594 67.475L47.2379 59.8256L41.538 57.49ZM53.8878 57.9572L48.6629 60.147V68.4093L53.8878 66.0737V57.9572ZM26.7981 66.8416L22.375 68.7101L26.4713 70.4328L31.2212 68.7101L26.7981 66.8416ZM20.1482 69.1772L20 77.5852L26.4713 80.3879V71.6585L20.1482 69.1772ZM33.448 69.1772L27.5999 71.367V79.5994L33.448 77.2639V69.1772ZM41.0479 66.5315L36.6247 68.3999L40.7211 70.1226L45.471 68.3999L41.0479 66.5315ZM34.398 68.867L34.2498 77.2751L40.7211 80.0777V71.3493L34.398 68.867ZM47.6977 68.867L41.8496 71.0569V79.2893L47.6977 76.9537V68.867ZM61.6312 55.0078L57.208 56.8763L61.3044 58.599L66.0543 56.8763L61.6312 55.0078ZM54.9813 57.3434L54.8331 65.7514L61.3044 68.5541V59.8256L54.9813 57.3434ZM68.2811 57.3434L62.4329 59.5332V67.7656L68.2811 65.43V57.3434Z" fill="#202020"/>
<circle cx="75" cy="75" r="74.5" stroke="#FABA0B"/>
</svg>
