<svg width="178" height="178" viewBox="0 0 178 178" fill="none" xmlns="http://www.w3.org/2000/svg">
<g filter="url(#filter0_d_6035_1932)">
<circle cx="82" cy="86" r="74" fill="#2C2B2B"/>
<g clip-path="url(#clip0_6035_1932)">
<path d="M59.1019 79.8555C56.5252 79.8555 53.6489 80.8406 53.0461 84.0834C52.9819 84.4278 53.2118 84.5921 53.4337 84.6424L56.0746 84.9567C56.319 84.9444 56.4847 84.6805 56.532 84.4322C56.7573 83.3163 57.6823 82.7896 58.7154 82.7896C59.2731 82.7896 59.8995 82.9797 60.2296 83.4885C60.6082 84.0554 60.5812 84.8258 60.5812 85.48V85.8646C59.0117 86.0435 56.9455 86.152 55.4763 86.8084C53.7807 87.5565 52.5898 89.0783 52.5898 91.3158C52.5898 94.1829 54.3598 95.6141 56.639 95.6141C58.5633 95.6141 59.6269 95.1657 61.1107 93.6226C61.603 94.3495 61.7608 94.6793 62.6598 95.4397C62.7592 95.496 62.874 95.5196 62.9878 95.5071C63.1015 95.4947 63.2084 95.4468 63.293 95.3704V95.405C63.8338 94.9153 64.8174 94.0252 65.3705 93.5533C65.5914 93.3699 65.5429 93.068 65.3705 92.8198C64.8759 92.1243 64.3498 91.5629 64.3498 90.2692V85.9709C64.3498 84.1504 64.5053 82.472 63.1882 81.2185C62.1483 80.2043 60.4178 79.8555 59.1019 79.8555ZM94.5913 79.8555C92.0135 79.8555 89.1395 80.8406 88.5356 84.0834C88.4713 84.4278 88.7001 84.5921 88.9231 84.6424L91.564 84.9567C91.8085 84.9444 91.9752 84.6805 92.0214 84.4322C92.2479 83.3163 93.1717 82.7896 94.2049 82.7896C94.7637 82.7896 95.389 82.9797 95.7191 83.4885C96.0965 84.0554 96.0357 84.8258 96.0357 85.48V85.8646C94.4662 86.0435 92.436 86.152 90.9657 86.8084C89.269 87.5565 88.0793 89.0783 88.0793 91.3158C88.0793 94.1829 89.8504 95.6141 92.1284 95.6141C94.0505 95.6141 95.1141 95.1657 96.6001 93.6226C97.0913 94.3495 97.2502 94.6793 98.1493 95.4397C98.3521 95.547 98.6033 95.5359 98.7824 95.3704V95.405C99.3232 94.9153 100.307 94.0252 100.86 93.5533C101.08 93.3699 101.029 93.068 100.86 92.8198C100.365 92.1243 99.8392 91.5629 99.8392 90.2692V85.9709C99.8392 84.1504 99.9575 82.472 98.6427 81.2185C97.6017 80.2043 95.9072 79.8555 94.5913 79.8555ZM74.6282 79.9952C72.963 79.9952 71.7282 80.8294 71.0725 82.6163H71.0376V80.7646C71.0287 80.6376 70.9738 80.5181 70.8831 80.4281C70.7924 80.3381 70.672 80.2837 70.5441 80.2748H68.0092C67.8696 80.2768 67.7364 80.3327 67.6378 80.4306C67.5391 80.5285 67.4828 80.6608 67.4808 80.7992V94.9511C67.4928 95.0769 67.5486 95.1947 67.6387 95.2841C67.7288 95.3735 67.8474 95.4289 67.9742 95.4408H70.6849C70.8246 95.4394 70.9582 95.3836 71.057 95.2856C71.1557 95.1876 71.2119 95.055 71.2133 94.9164V87.4033C71.2133 85.7651 71.1334 83.5243 73.0791 83.5243C75 83.5243 74.7341 85.8266 74.7341 87.4033V94.9164C74.7341 95.1836 74.9538 95.4229 75.2276 95.4408H77.9383C78.078 95.4394 78.2115 95.3836 78.3103 95.2856C78.4091 95.1876 78.4652 95.055 78.4667 94.9164V87.4033C78.4667 86.5993 78.434 85.4285 78.7134 84.7129C78.9917 83.9973 79.6756 83.5254 80.3336 83.5254C81.1177 83.5254 81.716 83.7971 81.9176 84.7487C82.0438 85.3145 81.9875 86.8095 81.9875 87.4044V94.9175C81.9875 95.1848 82.2072 95.4241 82.481 95.4419H85.1917C85.3314 95.4405 85.4649 95.3848 85.5637 95.2867C85.6625 95.1887 85.7186 95.0561 85.7201 94.9175V85.972C85.7201 84.4524 85.8744 82.727 85.0159 81.5339C84.2577 80.4626 83.0184 79.9964 81.8827 79.9964C80.2896 79.9964 78.8081 80.8305 78.1512 82.6174C77.3919 80.8305 76.3216 79.9952 74.6282 79.9952ZM120.716 79.9952C116.799 79.9952 114.625 83.4136 114.625 87.8226C114.625 92.2014 116.775 95.7193 120.716 95.7193C124.507 95.7193 126.913 92.2819 126.913 87.9612C126.913 83.4963 124.734 79.9952 120.716 79.9952ZM136.171 79.9952C134.3 79.9952 133.231 80.9245 132.475 82.86H132.44V80.693C132.391 80.4738 132.183 80.3218 131.946 80.3083H129.446C129.317 80.3055 129.192 80.3503 129.094 80.4342C128.996 80.5181 128.934 80.6351 128.918 80.7623V94.9142C128.921 95.0466 128.972 95.1734 129.063 95.2702C129.155 95.3671 129.279 95.427 129.411 95.4386H132.087C132.227 95.4366 132.36 95.3807 132.459 95.2827C132.557 95.1848 132.614 95.0526 132.616 94.9142V87.297C132.616 86.3421 132.697 85.471 133.073 84.6067C133.377 83.9212 133.964 83.4885 134.622 83.4885C136.49 83.4885 136.312 85.7483 136.312 87.297V94.9846C136.33 95.105 136.388 95.2158 136.478 95.2984C136.568 95.3811 136.683 95.4306 136.806 95.4386H139.516C139.782 95.4386 140.013 95.2373 140.045 94.9846V86.0737C140.045 84.7039 140.048 82.8008 139.341 81.6703C138.582 80.4503 137.383 79.9952 136.171 79.9952ZM103.639 80.2401C103.365 80.2401 103.147 80.4571 103.146 80.7646V82.7907C103.147 83.0938 103.358 83.3129 103.639 83.3152H108.287L102.97 91.1078C102.646 91.6099 102.619 92.1791 102.619 92.5056V94.5675C102.619 94.865 102.944 95.1881 103.252 95.0215C106.281 93.38 109.913 93.5254 112.653 94.9868C112.985 95.1669 113.322 94.8292 113.322 94.5329V92.3658C113.314 92.206 113.265 92.051 113.178 91.9161C113.091 91.7812 112.971 91.671 112.828 91.5965C111.274 90.7086 109.469 90.4369 107.758 90.4783L112.371 83.7691C112.798 83.1664 113.037 82.803 113.04 82.5112V80.7646C113.04 80.4638 112.833 80.2401 112.547 80.2401H103.639ZM120.716 82.8958C121.575 82.8958 122.208 83.276 122.512 84.2589C122.863 85.3916 122.899 86.8061 122.899 87.9981C122.899 89.8141 122.814 92.8198 120.716 92.8198C118.595 92.8198 118.604 89.0984 118.604 87.3686C118.604 85.6432 118.72 82.8958 120.716 82.8958ZM60.5451 88.0675V88.6612C60.5451 89.7358 60.5845 90.6404 60.0516 91.5965C59.6213 92.3736 58.9453 92.8544 58.1859 92.8544C57.1494 92.8544 56.5309 92.0203 56.5309 90.8283C56.532 88.4778 58.5892 88.0675 60.5451 88.0675ZM96.0345 88.0675V88.6612C96.0345 89.7358 96.074 90.6404 95.5411 91.5965C95.1107 92.3736 94.4381 92.8544 93.6753 92.8544C92.6377 92.8544 92.0203 92.0203 92.0203 90.8283C92.0214 88.4778 94.0764 88.0675 96.0345 88.0675Z" fill="white"/>
<path d="M113.604 95.8965V97.9226H114.977V95.8965H113.604ZM73.7837 96.2454V110.677H75.0512V109.384C75.3216 109.896 75.6292 110.28 76.0021 110.537C76.3739 110.794 76.8009 110.922 77.2696 110.922C78.2002 110.922 79.0035 110.45 79.6986 109.489C80.3938 108.529 80.7554 107.137 80.7554 105.365C80.7554 104.206 80.6056 103.245 80.298 102.43C79.9904 101.617 79.5792 101.012 79.0655 100.613C78.5517 100.214 77.9681 99.9846 77.3406 99.9846C76.9043 99.98 76.4762 100.101 76.108 100.333C75.7418 100.566 75.4455 100.945 75.1571 101.417V96.2454H73.7837ZM86.8112 99.6357C85.8558 99.6357 85.0975 99.9164 84.5579 100.474C84.0182 101.031 83.7478 101.75 83.7478 102.641C83.7478 103.159 83.865 103.596 84.0644 104.004C84.2638 104.413 84.5511 104.74 84.9094 104.983C85.2699 105.226 85.9887 105.544 87.0568 105.891C87.7958 106.127 88.2375 106.328 88.4302 106.485C88.7096 106.714 88.8526 107.015 88.8526 107.428C88.8526 107.907 88.6859 108.306 88.3592 108.616C88.0336 108.928 87.5807 109.07 86.9858 109.07C86.3909 109.07 85.9008 108.904 85.5426 108.545C85.1843 108.187 84.9905 107.641 84.9094 106.903L83.536 107.182C83.8458 109.424 84.9725 110.538 86.9159 110.537C87.9525 110.537 88.7456 110.245 89.345 109.629C89.9444 109.013 90.2598 108.181 90.2598 107.182C90.2598 106.643 90.1641 106.176 89.9782 105.785C89.7923 105.393 89.5365 105.104 89.203 104.877C88.8684 104.651 88.1226 104.349 86.9847 103.969C86.1577 103.681 85.6732 103.471 85.5065 103.34C85.226 103.119 85.084 102.817 85.084 102.432C85.084 102.039 85.2147 101.705 85.5065 101.454C85.7983 101.202 86.2478 101.069 86.845 101.069C87.895 101.069 88.482 101.642 88.6048 102.781L89.9432 102.571C89.8509 101.85 89.692 101.281 89.4498 100.894C89.2075 100.507 88.8493 100.18 88.393 99.9499C87.9378 99.7207 87.4139 99.6357 86.8112 99.6357ZM95.2261 99.6357C94.1254 99.6357 93.197 100.085 92.4793 101.033C91.7617 101.982 91.4225 103.355 91.4225 105.157C91.4225 106.894 91.7684 108.255 92.4793 109.176C93.1902 110.096 94.1118 110.539 95.261 110.539C96.1747 110.539 96.9318 110.267 97.5492 109.701C98.1678 109.134 98.6162 108.299 98.8517 107.185L97.4433 106.94C97.0389 108.368 96.293 109.069 95.2599 109.071C94.6019 109.071 94.0645 108.794 93.6049 108.198C93.1452 107.601 92.8849 106.715 92.8297 105.542H98.8854V105.052C98.8854 103.289 98.5317 101.965 97.8286 101.033C97.1279 100.102 96.275 99.6357 95.2261 99.6357ZM103.57 99.6357C103.241 99.6357 102.954 99.7464 102.69 99.9846C102.427 100.223 102.127 100.717 101.81 101.452V99.8437H100.578V110.292H101.951V104.842C101.951 104.082 102.023 103.35 102.198 102.675C102.297 102.288 102.484 101.983 102.726 101.767C102.968 101.551 103.244 101.453 103.536 101.453C103.86 101.453 104.181 101.581 104.522 101.837L104.979 100.195C104.5 99.8146 104.03 99.6357 103.57 99.6357ZM120.399 99.6357C119.312 99.6357 118.416 100.09 117.723 100.999C117.032 101.907 116.666 103.271 116.666 105.087C116.666 106.888 117.036 108.254 117.723 109.175C118.409 110.095 119.268 110.538 120.328 110.538C121.203 110.538 121.956 110.215 122.581 109.56C123.206 108.904 123.587 107.941 123.743 106.695L122.404 106.485C122.305 107.376 122.071 108.017 121.7 108.441C121.329 108.864 120.883 109.07 120.362 109.07C119.697 109.07 119.131 108.762 118.707 108.126C118.282 107.49 118.073 106.472 118.073 105.051C118.073 103.674 118.298 102.679 118.743 102.045C119.188 101.411 119.754 101.067 120.433 101.067C120.885 101.067 121.272 101.241 121.594 101.591C121.919 101.94 122.134 102.495 122.263 103.199L123.602 102.92C123.441 101.82 123.085 100.989 122.51 100.439C121.936 99.8873 121.238 99.6357 120.399 99.6357ZM128.25 99.6357C127.15 99.6357 126.221 100.085 125.504 101.033C124.786 101.982 124.447 103.355 124.447 105.157C124.447 106.894 124.793 108.255 125.504 109.176C126.216 110.096 127.136 110.539 128.285 110.539C129.197 110.539 129.955 110.267 130.574 109.701C131.191 109.134 131.639 108.299 131.876 107.185L130.468 106.94C130.063 108.368 129.35 109.069 128.32 109.071C127.662 109.071 127.09 108.794 126.63 108.198C126.171 107.601 125.911 106.715 125.855 105.542H131.911V105.052C131.911 103.289 131.557 101.965 130.854 101.033C130.156 100.102 129.3 99.6357 128.25 99.6357ZM136.384 99.6357C135.426 99.6357 134.67 99.9164 134.13 100.474C133.59 101.031 133.32 101.75 133.32 102.641C133.32 103.159 133.403 103.596 133.602 104.004C133.8 104.412 134.086 104.74 134.447 104.983C134.805 105.226 135.527 105.544 136.594 105.891C137.331 106.127 137.81 106.328 138.003 106.485C138.282 106.714 138.425 107.015 138.425 107.428C138.425 107.907 138.258 108.306 137.932 108.616C137.607 108.928 137.153 109.07 136.558 109.07C135.962 109.07 135.473 108.904 135.115 108.545C134.757 108.187 134.526 107.641 134.446 106.903L133.072 107.182C133.382 109.424 134.507 110.538 136.452 110.537C137.49 110.537 138.317 110.245 138.917 109.629C139.518 109.013 139.832 108.181 139.832 107.182C139.832 106.643 139.737 106.176 139.551 105.785C139.365 105.393 139.075 105.104 138.741 104.877C138.407 104.651 137.695 104.349 136.557 103.969C135.73 103.681 135.211 103.471 135.043 103.34C134.762 103.119 134.62 102.817 134.62 102.432C134.62 102.039 134.786 101.705 135.078 101.454C135.37 101.202 135.821 101.069 136.416 101.069C137.466 101.069 138.053 101.642 138.176 102.781L139.515 102.571C139.421 101.85 139.265 101.281 139.021 100.894C138.763 100.489 138.397 100.162 137.964 99.9499C137.513 99.7207 136.985 99.6357 136.384 99.6357ZM104.978 99.8448L108.042 110.293H109.344L112.407 99.8448H110.999L109.203 106.24C108.986 107.012 108.794 107.68 108.675 108.231C108.525 107.537 108.382 106.808 108.181 106.1L106.422 99.8448H104.978ZM113.604 99.8448V110.293H114.977V99.8448H113.604ZM68.4682 99.9846C67.3787 99.9846 66.5022 100.47 65.7924 101.417C65.0815 102.365 64.7007 103.738 64.7007 105.541C64.7007 107.277 65.0522 108.604 65.7575 109.524C66.4628 110.444 67.4013 110.922 68.5392 110.922C69.4428 110.922 70.1807 110.615 70.7925 110.048C71.4031 109.481 71.8256 108.647 72.06 107.532L70.6866 107.322C70.2866 108.75 69.5599 109.451 68.5392 109.453C67.8869 109.453 67.3393 109.176 66.8841 108.58C66.429 107.983 66.1642 107.097 66.109 105.924H72.0938L72.1287 105.435C72.1287 103.671 71.7682 102.313 71.0719 101.381C70.3756 100.45 69.5058 99.9846 68.4682 99.9846ZM53.0117 100.229L55.4768 110.678H56.9201L58.5402 102.64L58.8218 104.423L60.1242 110.678H61.5326L64.0326 100.229H62.7302L61.3568 106.274L60.8994 108.301L60.4769 106.274L59.2804 100.229H57.8721L56.6046 106.345L56.1821 108.512L55.6886 106.276L54.4212 100.231L53.0117 100.229ZM138.741 105.049C138.645 105.328 138.788 104.902 138.741 105.049V105.049ZM95.19 101.068C95.8739 101.068 96.4372 101.397 96.88 102.047C97.1842 102.492 97.3814 103.169 97.4433 104.073H92.9018C92.9446 103.156 93.206 102.448 93.6409 101.906C94.0758 101.363 94.576 101.068 95.19 101.068ZM128.215 101.068C128.897 101.068 129.463 101.397 129.905 102.047C130.21 102.492 130.407 103.169 130.469 104.073H125.927C125.97 103.156 126.231 102.448 126.666 101.906C127.1 101.366 127.6 101.068 128.215 101.068ZM68.4682 101.453C69.1442 101.453 69.6872 101.782 70.1232 102.431C70.4241 102.876 70.6246 103.554 70.6866 104.457H66.2149C66.2577 103.54 66.4864 102.798 66.9191 102.256C67.3483 101.714 67.8587 101.453 68.4682 101.453ZM77.1997 101.453C77.8104 101.453 78.3298 101.789 78.7489 102.431C79.168 103.074 79.3471 104.065 79.3471 105.437C79.3471 106.773 79.1488 107.769 78.7139 108.443C78.2791 109.116 77.7608 109.456 77.1997 109.456C76.7874 109.456 76.4122 109.318 76.0731 109.036C75.7328 108.755 75.4838 108.351 75.2979 107.813C75.112 107.275 75.0163 106.448 75.0163 105.366C75.0163 104.093 75.245 103.139 75.6855 102.466C76.126 101.793 76.6387 101.453 77.1997 101.453Z" fill="white"/>
<path d="M33.2762 90.3772L28.0306 92.6136L32.8887 94.6755L38.5219 92.6136L33.2762 90.3772ZM25.3897 93.1726L25.214 103.236L32.8887 106.591V96.1426L25.3897 93.1726ZM41.1628 93.1726L34.2271 95.7937V105.647L41.1628 102.852V93.1726ZM49.4369 61.8633L44.1552 64.0997L49.0493 66.1616L54.6826 64.0997L49.4369 61.8633ZM42.1137 64.8343V74.898L48.6618 76.7855L48.8736 67.6298L42.1137 64.8343ZM56.7601 65.3934L50.5635 68.0145V77.9037L56.7601 75.1083V65.3934ZM24.6326 76.0274L19.3869 78.2638L24.245 80.3257L29.8783 78.2638L24.6326 76.0274ZM16.7461 78.8229L16.5703 88.8866L24.245 92.2412V81.7928L16.7461 78.8229ZM32.5191 78.8229L25.5835 81.4439V91.2974L32.5191 88.502V78.8229ZM41.5323 75.6562L36.2867 77.8926L41.1448 79.9545L46.778 77.8926L41.5323 75.6562ZM33.6458 78.4517L33.47 88.5154L41.1448 91.87V81.4227L33.6458 78.4517ZM49.4189 78.4517L42.4832 81.0727V90.9262L49.4189 88.1307V78.4517ZM65.9434 61.8633L60.6977 64.0997L65.5558 66.1616L71.1891 64.0997L65.9434 61.8633ZM58.0569 64.6588L57.8811 74.7225L65.5558 78.0771V67.6298L58.0569 64.6588ZM73.8299 64.6588L66.8943 67.2798V77.1333L73.8299 74.3378V64.6588Z" fill="#FE9E16"/>
</g>
</g>
<defs>
<filter id="filter0_d_6035_1932" x="0" y="0" width="178" height="178" filterUnits="userSpaceOnUse" color-interpolation-filters="sRGB">
<feFlood flood-opacity="0" result="BackgroundImageFix"/>
<feColorMatrix in="SourceAlpha" type="matrix" values="0 0 0 0 0 0 0 0 0 0 0 0 0 0 0 0 0 0 127 0" result="hardAlpha"/>
<feOffset dx="7" dy="3"/>
<feGaussianBlur stdDeviation="7.5"/>
<feComposite in2="hardAlpha" operator="out"/>
<feColorMatrix type="matrix" values="0 0 0 0 0.188235 0 0 0 0 0.188235 0 0 0 0 0.188235 0 0 0 0.25 0"/>
<feBlend mode="normal" in2="BackgroundImageFix" result="effect1_dropShadow_6035_1932"/>
<feBlend mode="normal" in="SourceGraphic" in2="effect1_dropShadow_6035_1932" result="shape"/>
</filter>
<clipPath id="clip0_6035_1932">
<rect width="131.642" height="49.0737" fill="white" transform="translate(16.5703 61.8535)"/>
</clipPath>
</defs>
</svg>
