<svg width="178" height="178" viewBox="0 0 178 178" fill="none" xmlns="http://www.w3.org/2000/svg">
<g filter="url(#filter0_d_6035_1878)">
<circle cx="82" cy="86" r="74" fill="white"/>
<path d="M53.9447 121.805C47.431 121.805 41.8869 119.538 37.3124 115.003C32.7343 110.476 30.4453 104.96 30.4453 98.4564C30.4453 92.4877 32.4906 87.1908 36.5813 82.5658C40.6719 77.9408 45.7565 75.4564 51.835 75.1126C53.0082 67.5258 56.507 61.2585 62.3314 56.3106C68.1557 51.3626 74.934 48.8887 82.6662 48.8887C91.3766 48.8887 98.7763 51.9251 104.865 57.9981C110.954 64.071 113.999 71.4512 113.999 80.1387V85.347H117.215C122.215 85.5067 126.41 87.3383 129.801 90.8418C133.192 94.3453 134.887 98.5901 134.887 103.576C134.887 108.684 133.122 113 129.592 116.524C126.055 120.045 121.727 121.805 116.61 121.805H53.9447ZM53.9447 116.597H116.61C120.265 116.597 123.355 115.338 125.879 112.821C128.403 110.304 129.665 107.222 129.665 103.576C129.665 99.9304 128.403 96.8488 125.879 94.3314C123.355 91.814 120.265 90.5554 116.61 90.5554H108.777V80.1387C108.777 72.9338 106.23 66.7915 101.137 61.7116C96.0434 56.6317 89.8866 54.0935 82.6662 54.097C75.4458 54.1005 69.2889 56.6404 64.1956 61.7168C59.1024 66.7932 56.5557 72.9338 56.5557 80.1387H53.9447C48.8967 80.1387 44.5885 81.9182 41.02 85.4772C37.4516 89.0363 35.6674 93.3331 35.6674 98.3679C35.6674 103.403 37.4516 107.699 41.02 111.258C44.5885 114.818 48.8967 116.597 53.9447 116.597Z" fill="url(#paint0_linear_6035_1878)"/>
<g clip-path="url(#clip0_6035_1878)">
<path d="M71.0997 106.963C67.8418 109.28 63.1112 110.518 59.0797 110.518C53.3523 110.518 48.22 108.474 44.3373 105.092C44.0249 104.818 44.3075 104.458 44.6794 104.674C48.8746 107.02 54.0366 108.446 59.3921 108.446C63.007 108.446 66.979 107.726 70.6237 106.2C71.1741 105.984 71.6353 106.574 71.0997 106.963ZM72.4684 105.48C72.0369 104.948 69.7014 105.221 68.6451 105.336C68.3327 105.38 68.2881 105.106 68.5708 104.905C70.4303 103.652 73.4948 104.041 73.837 104.43C74.194 104.861 73.7477 107.827 72.0072 109.237C71.7245 109.453 71.4716 109.338 71.5907 109.079C71.9923 108.1 72.87 105.97 72.4684 105.48Z" fill="#F7AF15"/>
<path d="M47.5255 101.837C47.007 101.837 46.5383 101.741 46.1192 101.55C45.7002 101.354 45.3682 101.072 45.1231 100.703C44.8817 100.333 44.7609 99.8807 44.7609 99.3445C44.7609 98.8828 44.8497 98.5028 45.0273 98.2045C45.2048 97.9062 45.4445 97.6701 45.7464 97.4961C46.0482 97.3221 46.3856 97.1907 46.7584 97.1019C47.1313 97.0131 47.5113 96.9457 47.8984 96.8995C48.3884 96.8427 48.7861 96.7965 49.0915 96.761C49.3969 96.7219 49.6189 96.6598 49.7574 96.5746C49.8959 96.4893 49.9651 96.3509 49.9651 96.1591V96.1218C49.9651 95.6566 49.8337 95.2962 49.5709 95.0405C49.3117 94.7848 48.9246 94.657 48.4097 94.657C47.8735 94.657 47.4509 94.7759 47.142 95.0138C46.8366 95.2482 46.6253 95.5092 46.5081 95.7969L45.0113 95.456C45.1888 94.9588 45.4481 94.5575 45.789 94.2521C46.1334 93.9432 46.5294 93.7195 46.9768 93.581C47.4243 93.4389 47.8948 93.3679 48.3884 93.3679C48.7151 93.3679 49.0614 93.407 49.4271 93.4851C49.7964 93.5597 50.1409 93.6982 50.4605 93.9006C50.7837 94.103 51.0482 94.3924 51.2542 94.7688C51.4602 95.1417 51.5631 95.6264 51.5631 96.223V101.656H50.0077V100.538H49.9438C49.8408 100.744 49.6864 100.946 49.4804 101.145C49.2744 101.344 49.0099 101.509 48.6867 101.64C48.3636 101.772 47.9765 101.837 47.5255 101.837ZM47.8717 100.559C48.3121 100.559 48.6885 100.472 49.001 100.298C49.317 100.124 49.5567 99.8967 49.7201 99.6161C49.887 99.332 49.9704 99.0284 49.9704 98.7053V97.6506C49.9136 97.7074 49.8035 97.7607 49.6402 97.8104C49.4804 97.8565 49.2975 97.8974 49.0915 97.9329C48.8856 97.9648 48.6849 97.995 48.4896 98.0234C48.2943 98.0483 48.131 98.0696 47.9996 98.0874C47.6906 98.1264 47.4083 98.1921 47.1526 98.2844C46.9005 98.3768 46.6981 98.5099 46.5454 98.6839C46.3962 98.8544 46.3217 99.0817 46.3217 99.3658C46.3217 99.7599 46.4673 100.058 46.7584 100.261C47.0496 100.46 47.4207 100.559 47.8717 100.559ZM55.4583 101.656L53.0506 93.4744H54.6966L56.2999 99.483H56.3798L57.9885 93.4744H59.6344L61.2324 99.4563H61.3123L62.905 93.4744H64.551L62.1486 101.656H60.524L58.8621 95.7489H58.7395L57.0776 101.656H55.4583ZM72.1935 95.4719L70.7499 95.7276C70.6896 95.543 70.5937 95.3672 70.4623 95.2003C70.3344 95.0334 70.1604 94.8967 69.9403 94.7901C69.7201 94.6836 69.4449 94.6303 69.1146 94.6303C68.6636 94.6303 68.2872 94.7315 67.9854 94.9339C67.6835 95.1328 67.5326 95.3903 67.5326 95.7063C67.5326 95.9798 67.6338 96.1999 67.8362 96.3668C68.0386 96.5337 68.3653 96.6705 68.8163 96.777L70.116 97.0753C70.8689 97.2493 71.43 97.5174 71.7993 97.8796C72.1686 98.2418 72.3533 98.7124 72.3533 99.2912C72.3533 99.7812 72.2112 100.218 71.9271 100.602C71.6466 100.982 71.2542 101.28 70.7499 101.496C70.2492 101.713 69.6686 101.821 69.0081 101.821C68.0919 101.821 67.3444 101.626 66.7655 101.235C66.1867 100.841 65.8316 100.282 65.7002 99.5575L67.2396 99.3232C67.3355 99.7244 67.5326 100.028 67.8309 100.234C68.1292 100.436 68.518 100.538 68.9974 100.538C69.5195 100.538 69.9367 100.429 70.2492 100.213C70.5617 99.9925 70.718 99.7244 70.718 99.4084C70.718 99.1527 70.6221 98.9379 70.4303 98.7638C70.2421 98.5898 69.9527 98.4585 69.5621 98.3697L68.1771 98.0661C67.4136 97.892 66.849 97.6151 66.4832 97.2351C66.121 96.8551 65.9399 96.3739 65.9399 95.7915C65.9399 95.3086 66.0749 94.886 66.3447 94.5238C66.6146 94.1616 66.9875 93.8793 67.4633 93.6768C67.9392 93.4709 68.4843 93.3679 69.0986 93.3679C69.9829 93.3679 70.6789 93.5597 71.1867 93.9432C71.6945 94.3232 72.0301 94.8327 72.1935 95.4719Z" fill="#202020"/>
</g>
<g clip-path="url(#clip1_6035_1878)">
<path d="M112.697 103.675C112.042 103.633 111.66 103.261 111.559 102.565C111.532 102.38 111.532 102.375 111.529 101.173L111.527 100.01H112.107L112.109 101.135C112.111 102.149 112.113 102.268 112.122 102.34C112.162 102.629 112.241 102.824 112.374 102.964C112.481 103.076 112.607 103.141 112.781 103.176C112.863 103.192 113.096 103.192 113.17 103.176C113.338 103.142 113.492 103.059 113.612 102.937C113.754 102.796 113.859 102.595 113.909 102.369L113.927 102.292L113.929 101.157L113.93 100.022H114.523V103.591H113.937V103.307C113.937 103.115 113.934 103.025 113.93 103.027C113.917 103.042 113.905 103.059 113.896 103.078C113.79 103.267 113.633 103.423 113.443 103.53C113.222 103.652 113 103.695 112.697 103.675H112.697ZM119.351 103.672C119.113 103.652 118.882 103.577 118.677 103.453C118.258 103.194 118.009 102.768 117.936 102.181C117.911 101.978 117.908 101.705 117.929 101.533C117.976 101.147 118.128 100.769 118.345 100.498C118.4 100.429 118.526 100.304 118.596 100.248C118.783 100.099 119.002 99.9952 119.236 99.9439C119.372 99.9143 119.611 99.9005 119.756 99.9138C120.118 99.9472 120.45 100.117 120.676 100.385C120.906 100.657 121.032 101.037 121.048 101.505C121.05 101.578 121.051 101.707 121.049 101.791L121.046 101.943L119.776 101.945L118.507 101.946V102.003C118.509 102.187 118.548 102.368 118.621 102.537C118.683 102.68 118.791 102.837 118.879 102.913C119.06 103.069 119.285 103.164 119.523 103.184C119.613 103.193 119.841 103.184 119.944 103.168C120.23 103.125 120.503 103.014 120.737 102.842C120.763 102.823 120.788 102.804 120.793 102.801C120.799 102.797 120.801 102.849 120.8 103.065V103.333L120.74 103.371C120.481 103.529 120.191 103.629 119.889 103.664C119.798 103.676 119.461 103.681 119.351 103.672ZM120.457 101.407C120.457 101.119 120.335 100.799 120.162 100.635C120.04 100.517 119.883 100.442 119.714 100.418C119.63 100.405 119.454 100.41 119.366 100.428C119.186 100.462 119.02 100.55 118.891 100.679C118.749 100.82 118.641 100.992 118.577 101.181C118.553 101.25 118.525 101.364 118.516 101.427L118.512 101.457H120.456L120.457 101.407ZM103.231 103.583L104.189 101.075L105.145 98.5748H105.759L105.784 98.6398C105.862 98.8385 107.697 103.585 107.697 103.588C107.697 103.589 107.55 103.591 107.371 103.591H107.044L106.78 102.889L106.515 102.187H104.385L104.376 102.211C104.371 102.224 104.258 102.54 104.125 102.913L103.883 103.59H103.556C103.297 103.59 103.229 103.589 103.231 103.583ZM106.321 101.652C106.321 101.651 106.143 101.17 105.925 100.584C105.518 99.4867 105.496 99.4208 105.463 99.2444C105.448 99.1619 105.441 99.1597 105.432 99.2348C105.419 99.3166 105.401 99.3973 105.376 99.4764C105.366 99.5096 105.182 100.011 104.969 100.59C104.838 100.942 104.709 101.295 104.581 101.649C104.581 101.652 104.972 101.654 105.451 101.654C105.929 101.654 106.321 101.653 106.321 101.652ZM107.895 103.499V103.408L108.956 101.955L110.017 100.502L109.056 100.498L108.096 100.495L108.094 100.252L108.092 100.01H110.871V100.174L109.81 101.635C109.227 102.438 108.749 103.097 108.749 103.099C108.749 103.1 109.221 103.102 109.797 103.102H110.846V103.591H107.895V103.499ZM115.681 103.586C115.678 103.584 115.677 102.778 115.677 101.796V100.01H116.257V100.378C116.257 100.58 116.259 100.746 116.262 100.746C116.265 100.746 116.279 100.713 116.293 100.672C116.361 100.484 116.472 100.313 116.617 100.175C116.743 100.054 116.903 99.9749 117.076 99.9484C117.125 99.9405 117.167 99.9388 117.267 99.9414C117.392 99.9448 117.457 99.954 117.533 99.9785L117.557 99.9864V100.586L117.488 100.552C117.37 100.492 117.237 100.465 117.104 100.475C117.011 100.48 116.95 100.492 116.875 100.52C116.723 100.575 116.594 100.68 116.509 100.817C116.38 101.029 116.297 101.266 116.267 101.512C116.262 101.554 116.259 101.9 116.258 102.583L116.256 103.591H115.971C115.814 103.591 115.683 103.589 115.681 103.586ZM94.9137 96.0762C95.0113 96.076 95.1065 96.1065 95.1859 96.1633C95.2652 96.2201 95.3246 96.3003 95.3557 96.3926L98.1893 104.766C98.2129 104.836 98.2195 104.911 98.2086 104.984C98.1976 105.057 98.1693 105.126 98.1261 105.186C98.0829 105.246 98.026 105.295 97.9601 105.329C97.8941 105.362 97.8211 105.38 97.7471 105.38H101.012C101.124 105.38 101.232 105.339 101.316 105.267C101.401 105.194 101.457 105.094 101.473 104.984C101.485 104.911 101.478 104.836 101.454 104.766L98.6208 96.3926C98.5897 96.3003 98.5303 96.2201 98.451 96.1633C98.3717 96.1065 98.2765 96.076 98.1789 96.0762H94.9137ZM94.8083 96.1123C94.7106 96.1124 94.6154 96.1431 94.5361 96.1999C94.4568 96.2567 94.3972 96.3369 94.3659 96.4291L91.5323 104.802C91.5086 104.872 91.502 104.947 91.5129 105.02C91.5239 105.093 91.5521 105.162 91.5953 105.222C91.6385 105.282 91.6953 105.331 91.7612 105.364C91.827 105.398 91.9 105.416 91.974 105.416H94.2539C94.3516 105.416 94.4468 105.385 94.5262 105.328C94.6056 105.271 94.6652 105.191 94.6966 105.099L95.2505 103.469L94.1922 102.457C94.1729 102.438 94.0853 102.278 94.1632 102.142C94.2506 102.012 94.3963 102.012 94.3963 102.012H95.7602L96.4762 99.9542L95.2519 96.3635C95.2488 96.3459 95.1801 96.2557 95.072 96.184C94.9639 96.1118 94.8081 96.1123 94.8081 96.1123H94.8083ZM94.4233 102.073C94.3801 102.073 94.3379 102.086 94.3022 102.11C94.2665 102.134 94.239 102.169 94.2231 102.209C94.2073 102.249 94.2039 102.293 94.2135 102.335C94.223 102.377 94.245 102.415 94.2766 102.444L97.2617 105.223C97.3485 105.304 97.459 105.351 97.5777 105.351C97.5777 105.351 97.679 105.358 97.7401 105.349C97.8834 105.326 98.0182 105.209 98.0628 105.16C98.1777 105.008 98.1256 104.771 98.1256 104.771L97.2219 102.073L94.4233 102.073Z" fill="#84D7F5"/>
</g>
<path d="M83.5753 67.3585H83.8953L84.7971 66.4591L84.8553 66.0819C84.1571 65.4436 83.1971 65.0664 82.1499 65.0664C80.2881 65.0664 78.6881 66.343 78.2227 68.0548C78.3099 67.9968 78.5427 68.0258 78.5427 68.0258L80.3463 67.7357C80.3463 67.7357 80.4335 67.5906 80.4917 67.5906C81.3062 66.7202 82.6444 66.6332 83.5753 67.3585Z" fill="#EA4535"/>
<path d="M86.107 68.055C85.8743 67.3006 85.467 66.6043 84.8561 66.082L83.5761 67.3586C84.1288 67.7938 84.4197 68.4322 84.4197 69.1285V69.3606C85.0306 69.3606 85.5543 69.8538 85.5543 70.4921C85.5543 71.1014 85.0597 71.5947 84.4197 71.5947H82.1507L81.918 71.8268V73.1904L82.1507 73.4225H84.4197C86.0488 73.4225 87.3579 72.1169 87.3579 70.4921C87.3579 69.5057 86.8633 68.6062 86.0779 68.084L86.107 68.055Z" fill="#557EBF"/>
<path d="M79.9112 73.3937H82.1803V71.5949H79.9112C79.7367 71.5949 79.5912 71.5658 79.4458 71.5078L79.1258 71.5949L78.224 72.4943L78.1367 72.7844C78.6313 73.1906 79.2712 73.3937 79.9112 73.3937Z" fill="#36A852"/>
<path d="M79.9108 67.5312C78.2817 67.5312 76.9727 68.8369 76.9727 70.4616C76.9727 71.3901 77.409 72.2605 78.1363 72.8118L79.4453 71.5061C79.0381 71.303 78.7763 70.9259 78.7763 70.4616C78.7763 69.8524 79.2708 69.3301 79.9108 69.3301C80.3471 69.3591 80.7544 69.6202 80.9289 69.9974L82.238 68.6918C81.7144 67.9955 80.8417 67.5312 79.9108 67.5312Z" fill="#F9BC15"/>
<path d="M68.2144 79.0795C67.6035 79.0795 67.0798 78.8473 66.6144 78.4121C66.1489 77.9769 65.9453 77.4837 65.9453 76.8454C65.9453 76.2071 66.178 75.7139 66.6144 75.2786C67.0507 74.8434 67.6035 74.6113 68.2144 74.6113C68.7671 74.6403 69.3198 74.8434 69.7271 75.2496L69.2907 75.6848C68.9998 75.3947 68.6216 75.2496 68.1853 75.2496C67.7489 75.2496 67.3707 75.3947 67.0507 75.7139C66.7598 76.004 66.5853 76.4392 66.6144 76.8454C66.6144 77.2806 66.7598 77.6868 67.0798 77.9769C67.3707 78.3251 67.778 78.4702 68.1853 78.4702C68.6507 78.4702 68.9998 78.3251 69.3198 78.035C69.4943 77.8609 69.6107 77.5997 69.6398 77.2806H68.2144V76.6713H70.2507C70.2798 76.7874 70.2798 76.9034 70.2798 77.0485C70.2798 77.6578 70.1052 78.122 69.7562 78.4702C69.3489 78.8764 68.8544 79.1085 68.2144 79.1085V79.0795ZM72.9852 78.6733C72.6943 78.9344 72.3743 79.0795 71.967 79.0795C71.5598 79.0795 71.2107 78.9344 70.9489 78.6733C70.687 78.4121 70.5416 78.064 70.5416 77.6578C70.5416 77.2516 70.687 76.9034 70.9489 76.6423C71.2107 76.3812 71.5598 76.2361 71.967 76.2361C72.3743 76.2361 72.7234 76.3812 72.9852 76.6423C73.247 76.9034 73.3925 77.2516 73.3925 77.6578C73.3925 78.064 73.247 78.4121 72.9852 78.6733ZM71.3852 78.2671C71.5307 78.4412 71.7343 78.5282 71.9379 78.5282C72.1707 78.5282 72.3452 78.4412 72.5197 78.2671C72.6943 78.093 72.7525 77.8899 72.7525 77.6578C72.7525 77.3967 72.6652 77.1936 72.5197 77.0195C72.3743 76.8454 72.1707 76.7874 71.9379 76.7874C71.7343 76.7874 71.5016 76.8744 71.3561 77.0195C71.2107 77.1936 71.1234 77.3967 71.1234 77.6578C71.1234 77.9189 71.2107 78.122 71.3561 78.2671H71.3852ZM76.127 78.6733C75.836 78.9344 75.5161 79.0795 75.1088 79.0795C74.7015 79.0795 74.3524 78.9344 74.0906 78.6733C73.8288 78.4121 73.6834 78.064 73.6834 77.6578C73.6834 77.2516 73.8288 76.9034 74.0906 76.6423C74.3524 76.3812 74.7015 76.2361 75.1088 76.2361C75.5161 76.2361 75.8651 76.3812 76.127 76.6423C76.3888 76.9034 76.5342 77.2516 76.5342 77.6578C76.5342 78.064 76.3888 78.4121 76.127 78.6733ZM74.527 78.2671C74.6724 78.4412 74.8761 78.5282 75.0797 78.5282C75.3124 78.5282 75.487 78.4412 75.6615 78.2671C75.836 78.093 75.8942 77.8899 75.8942 77.6578C75.8942 77.3967 75.807 77.1936 75.6615 77.0195C75.5161 76.8454 75.3124 76.7874 75.0797 76.7874C74.8761 76.7874 74.6433 76.8744 74.4979 77.0195C74.3524 77.1936 74.2652 77.3967 74.2652 77.6578C74.2652 77.9189 74.3524 78.122 74.4979 78.2671H74.527ZM78.1924 80.3561C77.8724 80.3561 77.6106 80.269 77.3778 80.0949C77.1451 79.9209 76.9997 79.7178 76.9124 79.5147L77.4651 79.2826C77.5233 79.4276 77.6106 79.5437 77.7269 79.6307C77.9015 79.7613 77.9887 79.7758 78.1924 79.7758C78.4251 79.7758 78.6287 79.6887 78.7451 79.5727C78.8615 79.4566 78.9487 79.2245 78.9487 78.9344V78.7313H78.9196C78.7451 78.9344 78.4833 79.0504 78.1633 79.0504C77.7851 79.0504 77.4651 78.9054 77.2033 78.6442C76.9124 78.4121 76.7669 78.035 76.796 77.6578C76.7669 77.2806 76.9124 76.9034 77.2033 76.6423C77.4651 76.3522 77.7851 76.2361 78.1633 76.2361C78.3378 76.2361 78.4833 76.2651 78.5996 76.3231C78.7742 76.4102 78.8324 76.4682 78.9196 76.5553H78.9487V76.3231H79.5596V78.9054C79.5596 79.3986 79.4433 79.7758 79.1814 80.0369C78.9196 80.269 78.5996 80.4141 78.1924 80.4141V80.3561ZM78.2215 78.4992C78.4251 78.5282 78.6287 78.4412 78.7451 78.2671C78.8905 78.093 78.9778 77.8899 78.9778 77.6578C78.9778 77.3967 78.8905 77.1936 78.7451 77.0195C78.6287 76.8744 78.4251 76.7874 78.2215 76.7874C77.9887 76.7874 77.8142 76.8744 77.6687 77.0485C77.5233 77.2226 77.436 77.4257 77.436 77.6868C77.436 77.9189 77.5233 78.151 77.6687 78.2961C77.8142 78.4411 78.0178 78.5572 78.2215 78.5572V78.4992ZM80.6069 74.7564V78.9634H79.9669V74.7564H80.6069ZM82.3232 79.0504C81.9159 79.0504 81.5669 78.9054 81.305 78.6442C81.0432 78.3831 80.8978 78.035 80.8978 77.6288C80.8978 77.2226 81.0432 76.8744 81.305 76.5843C81.5378 76.3522 81.8869 76.2071 82.265 76.2071C82.4396 76.2071 82.6141 76.2361 82.7596 76.2941C82.8759 76.3812 82.9923 76.4392 83.1087 76.5553C83.1959 76.6423 83.2832 76.7293 83.3414 76.8454C83.3996 76.9324 83.4577 77.0195 83.4868 77.1355L83.545 77.3096L81.625 78.093C81.7705 78.3831 82.0032 78.5282 82.3232 78.5282C82.6141 78.5282 82.8468 78.3831 83.0214 78.122L83.5159 78.4411C83.3996 78.6152 83.2541 78.7603 83.0505 78.8764C82.8468 78.9924 82.6141 79.0795 82.3232 79.0795V79.0504ZM81.5378 77.5707L82.8177 77.0485C82.7887 76.9614 82.7014 76.8744 82.6141 76.8164C82.4978 76.7874 82.3814 76.7584 82.265 76.7584C82.0905 76.7584 81.9159 76.8454 81.7414 76.9905C81.5669 77.1355 81.5087 77.3386 81.5087 77.5997L81.5378 77.5707ZM86.8613 79.0504C86.2795 79.0504 85.8141 78.8473 85.4068 78.4702C84.9995 78.093 84.825 77.5997 84.825 77.0195C84.825 76.4392 85.0286 75.946 85.4068 75.5688C85.785 75.1916 86.2795 74.9885 86.8613 74.9885C87.4431 74.9885 87.9377 75.1916 88.2867 75.6268L87.9377 75.975C87.6758 75.6558 87.2977 75.4817 86.8613 75.4817C86.425 75.4817 86.0759 75.6268 85.785 75.9169C85.4941 76.2071 85.3486 76.5843 85.3486 77.0485C85.3486 77.5127 85.4941 77.8899 85.785 78.18C86.0759 78.4702 86.425 78.6152 86.8613 78.6152C87.3268 78.6152 87.734 78.4412 88.054 78.064L88.4031 78.4121C88.2286 78.6152 87.9958 78.7893 87.734 78.9054C87.4431 79.0214 87.1522 79.0795 86.8613 79.0795V79.0504ZM89.3631 78.9634H88.8685V75.1046H89.3631V78.9634ZM90.1776 76.6133C90.4394 76.3522 90.7594 76.2071 91.1667 76.2071C91.574 76.2071 91.8939 76.3522 92.1558 76.6133C92.4176 76.8744 92.5339 77.2226 92.5339 77.6288C92.5339 78.035 92.4176 78.3831 92.1558 78.6442C91.8939 78.9054 91.574 79.0504 91.1667 79.0504C90.7594 79.0504 90.4394 78.9054 90.1776 78.6442C89.9158 78.3831 89.7994 78.035 89.7994 77.6288C89.7994 77.2226 89.9158 76.8744 90.1776 76.6133ZM90.5558 78.3251C90.7303 78.4992 90.934 78.5862 91.1667 78.5862C91.5158 78.5862 91.603 78.4992 91.7776 78.3251C91.9521 78.151 92.0394 77.9189 92.0394 77.6288C92.0394 77.3386 91.9521 77.1065 91.7776 76.9324C91.603 76.7583 91.3994 76.6713 91.1667 76.6713C90.934 76.6713 90.7303 76.7583 90.5558 76.9324C90.3812 77.1065 90.294 77.3386 90.294 77.6288C90.294 77.9189 90.3812 78.151 90.5558 78.3251ZM95.2975 78.9634H94.8321V78.5862H94.803C94.7157 78.7023 94.5994 78.8183 94.4539 78.9054C94.3085 78.9924 94.1339 79.0504 93.9594 79.0504C93.6394 79.0504 93.3776 78.9634 93.203 78.7603C93.0285 78.5572 92.9412 78.2961 92.9412 77.9479V76.3231H93.4357V77.8609C93.4357 78.3541 93.6685 78.6152 94.1048 78.6152C94.2794 78.6152 94.483 78.5282 94.5994 78.3831C94.7157 78.209 94.7739 78.0059 94.7739 77.8028V76.3522H95.2684V79.0214L95.2975 78.9634ZM96.9848 79.0504C96.6357 79.0504 96.3448 78.9054 96.083 78.6442C95.8212 78.3831 95.7048 78.035 95.7048 77.6288C95.7048 77.2226 95.8212 76.9034 96.083 76.6133C96.3448 76.3231 96.6357 76.2071 96.9848 76.2071C97.1884 76.2071 97.3629 76.2651 97.5375 76.3231C97.712 76.3812 97.8284 76.5262 97.8866 76.6423H97.9157L97.8866 76.2651V75.0465H98.3811V78.9344H97.9157V78.5572H97.8866C97.7993 78.6733 97.6829 78.7893 97.5375 78.8764C97.3629 78.9634 97.1884 78.9924 96.9848 78.9924V79.0504ZM97.072 78.5862C97.2757 78.6152 97.5084 78.5282 97.6539 78.3541C97.8284 78.18 97.8866 77.9479 97.8866 77.6578C97.8866 77.3676 97.7993 77.1355 97.6539 76.9614C97.5084 76.8164 97.2757 76.7003 97.072 76.7003C96.8393 76.7003 96.6357 76.7874 96.4611 76.9614C96.1993 77.2226 96.1993 77.3676 96.1993 77.6578C96.1993 77.9479 96.2866 78.18 96.4611 78.3541C96.6066 78.5282 96.8393 78.6442 97.072 78.6442V78.5862Z" fill="#5F6368"/>
</g>
<defs>
<filter id="filter0_d_6035_1878" x="0" y="0" width="178" height="178" filterUnits="userSpaceOnUse" color-interpolation-filters="sRGB">
<feFlood flood-opacity="0" result="BackgroundImageFix"/>
<feColorMatrix in="SourceAlpha" type="matrix" values="0 0 0 0 0 0 0 0 0 0 0 0 0 0 0 0 0 0 127 0" result="hardAlpha"/>
<feOffset dx="7" dy="3"/>
<feGaussianBlur stdDeviation="7.5"/>
<feComposite in2="hardAlpha" operator="out"/>
<feColorMatrix type="matrix" values="0 0 0 0 0.188235 0 0 0 0 0.188235 0 0 0 0 0.188235 0 0 0 0.25 0"/>
<feBlend mode="normal" in2="BackgroundImageFix" result="effect1_dropShadow_6035_1878"/>
<feBlend mode="normal" in="SourceGraphic" in2="effect1_dropShadow_6035_1878" result="shape"/>
</filter>
<linearGradient id="paint0_linear_6035_1878" x1="60.8696" y1="57.7202" x2="95.2387" y2="123.012" gradientUnits="userSpaceOnUse">
<stop stop-color="#701088"/>
<stop offset="1" stop-color="#323EC0"/>
</linearGradient>
<clipPath id="clip0_6035_1878">
<rect width="32.4028" height="34.5463" fill="white" transform="translate(41.3242 84.6074)"/>
</clipPath>
<clipPath id="clip1_6035_1878">
<rect width="30.8784" height="30.7971" fill="white" transform="translate(90.8398 85.3477)"/>
</clipPath>
</defs>
</svg>
