<svg width="150" height="150" viewBox="0 0 150 150" fill="none" xmlns="http://www.w3.org/2000/svg">
<circle cx="75" cy="75" r="74.5" stroke="#FABA0B"/>
<path d="M45.9453 111.735C39.4315 111.735 33.8872 109.411 29.3125 104.764C24.7344 100.124 22.4453 94.4708 22.4453 87.8057C22.4453 81.6886 24.4907 76.26 28.5814 71.5201C32.6722 66.7801 37.7569 64.234 43.8355 63.8817C45.0088 56.1063 48.5077 49.6831 54.3322 44.6122C60.1567 39.5413 66.9352 37.0059 74.6675 37.0059C83.3782 37.0059 90.7781 40.1178 96.8672 46.3417C102.956 52.5655 106.001 60.1292 106.001 69.0327V74.3705H109.218C114.217 74.5341 118.412 76.4113 121.803 80.0018C125.194 83.5924 126.89 87.9427 126.89 93.0527C126.89 98.2873 125.125 102.711 121.594 106.323C118.057 109.931 113.73 111.735 108.612 111.735H45.9453ZM45.9453 106.397H108.612C112.268 106.397 115.357 105.107 117.881 102.527C120.405 99.9474 121.668 96.7892 121.668 93.0527C121.668 89.3163 120.405 86.1581 117.881 83.5782C115.357 80.9982 112.268 79.7083 108.612 79.7083H100.779V69.0327C100.779 61.6487 98.2319 55.3537 93.1385 50.1475C88.0451 44.9414 81.8881 42.3401 74.6675 42.3437C67.4469 42.3472 61.2899 44.9503 56.1965 50.1529C51.1031 55.3554 48.5564 61.6487 48.5564 69.0327H45.9453C40.8972 69.0327 36.5888 70.8564 33.0203 74.5039C29.4518 78.1514 27.6675 82.5551 27.6675 87.715C27.6675 92.8748 29.4518 97.2785 33.0203 100.926C36.5888 104.574 40.8972 106.397 45.9453 106.397Z" fill="#303030"/>
<path d="M43.6279 88.022C43.6279 88.3508 43.6537 88.6138 43.718 88.8374C43.7823 88.9952 43.8724 89.2056 43.9882 89.4423C44.0397 89.495 44.0525 89.5739 44.0525 89.6396C44.0525 89.7317 44.0011 89.8106 43.8853 89.9026L43.3449 90.2709C43.2677 90.3235 43.1905 90.3498 43.1262 90.3498C43.0361 90.3498 42.9589 90.2972 42.8688 90.2183C42.753 90.0868 42.6501 89.9552 42.56 89.8106C42.4828 89.6659 42.3928 89.495 42.3027 89.2977C41.6337 90.0999 40.7973 90.5076 39.7809 90.5076C39.0604 90.5076 38.4943 90.2972 38.0697 89.8763C37.658 89.4555 37.4392 88.89 37.4392 88.1798C37.4392 87.4565 37.6966 86.8647 38.2112 86.3913C38.7387 85.9442 39.4335 85.7074 40.3084 85.7074C40.6044 85.7074 40.8745 85.7337 41.2219 85.7863C41.5179 85.8258 41.8653 85.8916 42.1998 85.9705V85.3392C42.1998 84.6685 42.0711 84.2345 41.8009 83.932C41.5179 83.6559 41.0675 83.5375 40.4114 83.5375C40.1026 83.5375 39.7938 83.577 39.485 83.6427C39.1633 83.7216 38.8545 83.8137 38.5586 83.9452C38.4171 83.9978 38.3013 84.0372 38.2627 84.0504C38.1983 84.0767 38.1597 84.0767 38.1211 84.0767C38.0054 84.0767 37.941 83.9978 37.941 83.8137V83.3797C37.941 83.2482 37.9539 83.143 38.0054 83.0772C38.044 83.0115 38.1211 82.9589 38.2369 82.9194C38.5457 82.7353 38.8931 82.6038 39.3177 82.4986C39.7545 82.3818 40.2044 82.3244 40.6558 82.3276C41.6723 82.3276 42.4185 82.5643 42.8946 83.0378C43.3706 83.5112 43.6022 84.2345 43.6022 85.1945V88.022H43.6279ZM40.154 89.3634C40.4371 89.3634 40.7202 89.3108 41.0289 89.2056C41.3377 89.1004 41.6079 88.9032 41.8395 88.6401C41.9811 88.4692 42.084 88.2851 42.1612 88.0746C42.1612 87.8642 42.2255 87.6143 42.2255 87.3119V86.9568C41.9682 86.8647 41.7109 86.8647 41.4278 86.799C41.1628 86.7694 40.8966 86.7518 40.6301 86.7464C40.0511 86.7464 39.6394 86.8647 39.3563 87.1015C39.0733 87.3382 38.9446 87.6669 38.9446 88.1009C38.9446 88.5218 39.0347 88.8374 39.2534 89.0347C39.4592 89.2582 39.7552 89.3634 40.154 89.3634ZM47.0247 90.2972C46.9001 90.301 46.7765 90.2739 46.6644 90.2183C46.6258 90.1525 46.5615 90.0341 46.51 89.8763L44.5029 83.1167C44.4514 82.9194 44.4257 82.8273 44.4257 82.7616C44.4257 82.6169 44.49 82.538 44.6315 82.538H45.4678C45.6351 82.538 45.7509 82.5643 45.8024 82.6301C45.8796 82.6827 45.931 82.801 45.9825 82.972L47.4107 88.7585L48.7487 82.972C48.7873 82.801 48.8388 82.6827 48.916 82.6301C48.9803 82.5775 49.0961 82.538 49.2377 82.538H49.9453C50.0997 82.538 50.2155 82.5643 50.2798 82.6301C50.3442 82.6827 50.4085 82.801 50.4471 82.972L51.8109 88.8374L53.2777 82.972C53.3292 82.801 53.3935 82.6827 53.445 82.6301C53.5222 82.5775 53.6251 82.538 53.7795 82.538H54.5772C54.7187 82.538 54.7959 82.6169 54.7959 82.7616C54.7959 82.801 54.7831 82.8536 54.7702 82.9194C54.7702 82.9194 54.7445 83.0246 54.7187 83.1167L52.6473 89.8763C52.5958 90.0604 52.5443 90.1525 52.4543 90.2183C52.4028 90.2709 52.287 90.3103 52.1455 90.3103H51.4121C51.2448 90.3103 51.1676 90.284 51.0647 90.2183C50.9782 90.1245 50.924 90.0045 50.9103 89.8763L49.5851 84.2345L48.2598 89.8632C48.2212 90.0341 48.1698 90.1525 48.1054 90.2183C47.9992 90.2774 47.8788 90.3048 47.758 90.2972H47.0247ZM58.0254 90.5339C57.6008 90.5339 57.1247 90.4813 56.7001 90.3761C56.2756 90.2709 55.941 90.1525 55.7223 90.0341C55.6106 89.9792 55.5167 89.8924 55.4521 89.7843C55.4172 89.7105 55.3995 89.6295 55.4007 89.5476V89.1004C55.4007 88.9163 55.465 88.8374 55.5936 88.8374H55.748C55.7995 88.8374 55.8767 88.9032 55.9668 88.9426C56.2498 89.0741 56.5715 89.1793 56.906 89.2451C57.2534 89.3108 57.6008 89.3503 57.9225 89.3503C58.4628 89.3503 58.8874 89.2582 59.1705 89.061C59.4664 88.8374 59.6208 88.5875 59.6208 88.2324C59.6208 87.9826 59.5307 87.7853 59.3892 87.6143C59.2348 87.4565 58.9389 87.2987 58.5272 87.1672L57.2791 86.7727C56.6616 86.5623 56.1984 86.2729 55.9153 85.8784C55.6391 85.5132 55.4897 85.0644 55.4907 84.6027C55.4907 84.2345 55.5679 83.9189 55.7223 83.6427C55.8767 83.3534 56.0826 83.1167 56.3142 82.9194C56.5972 82.7221 56.8803 82.5775 57.2277 82.4723C57.5622 82.3671 57.9225 82.3145 58.3084 82.3145C58.4886 82.3145 58.6816 82.3276 58.8874 82.3539C59.0676 82.3802 59.2477 82.4197 59.4278 82.446C59.6079 82.4986 59.7623 82.538 59.9167 82.5906C60.0711 82.6432 60.1741 82.6958 60.277 82.7484C60.3928 82.8142 60.4829 82.88 60.5343 82.9589C60.5858 83.0378 60.6115 83.1298 60.6115 83.2482V83.669C60.6115 83.8531 60.5472 83.9452 60.4185 83.9452C60.3542 83.9452 60.2384 83.9057 60.084 83.84C59.6079 83.6164 59.0547 83.4981 58.45 83.4981C57.9611 83.4981 57.6008 83.577 57.3049 83.7479C57.0475 83.9057 56.906 84.1688 56.906 84.5238C56.906 84.7737 56.9961 84.9841 57.1633 85.1419C57.3306 85.3129 57.6523 85.4707 58.1026 85.6285L59.3249 86.0231C59.9425 86.2072 60.3799 86.4965 60.6501 86.8647C60.9074 87.2198 61.0361 87.6275 61.0361 88.0878C61.0361 88.456 60.9589 88.7979 60.8174 89.1004C60.663 89.3897 60.4571 89.6528 60.1741 89.8632C59.9296 90.0868 59.6079 90.2446 59.2477 90.3629C58.8874 90.4813 58.45 90.5339 58.0254 90.5339ZM59.6337 94.7948C56.8159 96.9122 52.7245 98.0432 49.2377 98.0432C44.2841 98.0432 39.8452 96.1757 36.4871 93.0852C36.2169 92.8353 36.4614 92.5066 36.783 92.7038C40.4114 94.8474 44.876 96.1494 49.5079 96.1494C52.6344 96.1494 56.0697 95.4919 59.222 94.0978C59.698 93.9006 60.0969 94.4398 59.6337 94.7948ZM60.8174 93.4403C60.4443 92.9537 58.4242 93.2036 57.5107 93.3088C57.2405 93.3482 57.2019 93.0984 57.4464 92.9142C59.0547 91.7701 61.7052 92.1252 62.0011 92.4803C62.3099 92.8748 61.9239 95.5839 60.4185 96.8727C60.1741 97.07 59.9553 96.9648 60.0583 96.7281C60.4057 95.8338 61.1648 93.8874 60.8174 93.4403Z" fill="#303030"/>
<g clip-path="url(#clip0_6035_1863)">
<path d="M104.698 93.155C104.042 93.1121 103.661 92.7309 103.56 92.0175C103.533 91.8277 103.533 91.8227 103.53 90.5908L103.528 89.3983H104.108L104.11 90.5518C104.112 91.5914 104.113 91.7133 104.123 91.7862C104.162 92.0831 104.241 92.2826 104.375 92.4259C104.482 92.5405 104.608 92.6076 104.781 92.6434C104.863 92.6601 105.096 92.6601 105.171 92.6434C105.339 92.6084 105.492 92.5231 105.612 92.3985C105.754 92.2538 105.859 92.0484 105.91 91.8161L105.927 91.7377L105.929 90.5745L105.931 89.4114H106.523V93.0685H105.937V92.7782C105.937 92.5812 105.935 92.489 105.931 92.4905C105.917 92.5064 105.906 92.5239 105.897 92.5428C105.79 92.7368 105.633 92.8971 105.443 93.0063C105.222 93.1309 105 93.175 104.698 93.155H104.698ZM111.352 93.1521C111.113 93.1316 110.883 93.0547 110.678 92.9274C110.258 92.6623 110.01 92.2252 109.937 91.6237C109.912 91.4159 109.909 91.1362 109.93 90.9594C109.977 90.5642 110.129 90.1763 110.345 89.8994C110.401 89.8284 110.527 89.6999 110.596 89.6432C110.784 89.4905 111.003 89.3837 111.237 89.331C111.373 89.3007 111.612 89.2866 111.756 89.3002C112.119 89.3345 112.451 89.5088 112.677 89.783C112.907 90.0616 113.033 90.4512 113.049 90.9308C113.051 91.0061 113.052 91.138 113.05 91.2238L113.047 91.3799L111.777 91.3816L110.507 91.3831V91.441C110.51 91.6294 110.549 91.8154 110.622 91.9884C110.684 92.1356 110.792 92.2964 110.88 92.3741C111.06 92.5338 111.286 92.631 111.524 92.652C111.613 92.6606 111.842 92.6515 111.944 92.6355C112.231 92.5917 112.503 92.4771 112.737 92.3016C112.764 92.2814 112.789 92.2624 112.794 92.2597C112.8 92.2555 112.801 92.308 112.801 92.5297V92.8049L112.741 92.8428C112.482 93.0049 112.192 93.1077 111.89 93.1439C111.798 93.1555 111.462 93.1607 111.352 93.1521ZM112.457 90.8307C112.457 90.5356 112.336 90.2079 112.163 90.0392C112.04 89.9188 111.883 89.8412 111.715 89.8173C111.631 89.804 111.455 89.8089 111.367 89.8271C111.187 89.8621 111.021 89.9519 110.892 90.0848C110.75 90.2289 110.642 90.4049 110.578 90.5987C110.554 90.6697 110.526 90.7861 110.517 90.8512L110.513 90.882H112.457L112.457 90.8307ZM95.2314 93.0603L96.1896 90.49L97.1452 87.928H97.7594L97.7848 87.9945C97.8627 88.1982 99.6978 93.0628 99.6978 93.0655C99.6978 93.067 99.5507 93.0685 99.3712 93.0685H99.0445L98.7801 92.3494L98.5155 91.6304H96.3858L96.3766 91.6548C96.3715 91.6681 96.2584 91.9916 96.1255 92.3736L95.8835 93.0682H95.5564C95.2973 93.0682 95.2293 93.0667 95.2314 93.0603ZM98.321 91.0818C98.321 91.0805 98.1432 90.5878 97.9254 89.9869C97.5187 88.8625 97.496 88.7949 97.4637 88.6142C97.4487 88.5296 97.441 88.5274 97.4323 88.6043C97.4197 88.6881 97.4011 88.7709 97.3766 88.8519C97.366 88.8859 97.1826 89.3993 96.9693 89.9931C96.8388 90.3543 96.7094 90.716 96.5812 91.0781C96.5812 91.0813 96.9727 91.0837 97.4511 91.0837C97.9297 91.0837 98.321 91.0827 98.321 91.0818ZM99.8954 92.9748V92.8811L100.956 91.392L102.018 89.9026L101.057 89.8994L100.096 89.8962L100.094 89.6471L100.093 89.3983H102.872V89.5665L101.81 91.064C101.227 91.8876 100.749 92.5627 100.749 92.5642C100.749 92.5659 101.221 92.5674 101.798 92.5674H102.846V93.0685H99.8954V92.9748ZM107.682 93.064C107.679 93.0616 107.677 92.236 107.677 91.2292V89.3983H108.257V89.7756C108.257 89.9835 108.26 90.1534 108.263 90.1534C108.266 90.1534 108.28 90.1193 108.294 90.0777C108.361 89.8842 108.472 89.7097 108.618 89.5682C108.744 89.4441 108.904 89.3629 109.076 89.3357C109.126 89.3276 109.168 89.3258 109.267 89.3285C109.392 89.332 109.458 89.3414 109.534 89.3665L109.558 89.3747V89.9891L109.489 89.9541C109.37 89.8928 109.238 89.8656 109.105 89.8755C109.012 89.8804 108.95 89.8927 108.876 89.9213C108.724 89.9783 108.595 90.0856 108.51 90.2261C108.38 90.4429 108.298 90.6857 108.268 90.938C108.263 90.9816 108.26 91.3362 108.259 92.0353L108.257 93.0685H107.972C107.814 93.0685 107.684 93.0665 107.682 93.064ZM86.9138 85.3672C87.0114 85.3671 87.1066 85.3983 87.1859 85.4565C87.2653 85.5147 87.3247 85.5969 87.3558 85.6914L90.1894 94.273C90.2131 94.3448 90.2197 94.4212 90.2087 94.4961C90.1978 94.571 90.1695 94.6421 90.1263 94.7036C90.0831 94.7651 90.0261 94.8152 89.9602 94.8498C89.8943 94.8843 89.8213 94.9023 89.7472 94.9023H93.0127C93.1243 94.9019 93.2322 94.8607 93.3167 94.7862C93.4012 94.7117 93.4569 94.6087 93.4737 94.4959C93.485 94.4211 93.4784 94.3446 93.4544 94.273L90.621 85.6914C90.5899 85.5969 90.5305 85.5147 90.4512 85.4565C90.3719 85.3983 90.2767 85.3671 90.1791 85.3672H86.9138ZM86.8084 85.4042C86.7107 85.4043 86.6155 85.4357 86.5362 85.494C86.4568 85.5522 86.3973 85.6344 86.366 85.7289L83.5323 94.31C83.5086 94.3817 83.502 94.4581 83.5129 94.5329C83.5239 94.6077 83.5521 94.6788 83.5953 94.7403C83.6385 94.8017 83.6953 94.8518 83.7612 94.8863C83.8271 94.9208 83.9 94.9388 83.974 94.9388H86.254C86.3517 94.9387 86.4469 94.9074 86.5263 94.8492C86.6057 94.791 86.6653 94.7088 86.6967 94.6143L87.2506 92.9437L86.1923 91.9068C86.173 91.8871 86.0854 91.7231 86.1633 91.5843C86.2506 91.4504 86.3963 91.4504 86.3963 91.4504H87.7603L88.4764 89.3416L87.252 85.6616C87.2489 85.6436 87.1802 85.5511 87.0721 85.4777C86.964 85.4037 86.8082 85.4042 86.8082 85.4042H86.8084ZM86.4234 91.513C86.3802 91.513 86.338 91.5262 86.3023 91.5511C86.2666 91.5759 86.239 91.6111 86.2232 91.6522C86.2074 91.6932 86.204 91.7382 86.2136 91.7813C86.2231 91.8243 86.2451 91.8634 86.2767 91.8935L89.2618 94.7415C89.3487 94.8244 89.4592 94.873 89.5779 94.873C89.5779 94.873 89.6792 94.8801 89.7402 94.8703C89.8835 94.8471 90.0184 94.7275 90.063 94.6772C90.1778 94.5208 90.1257 94.2777 90.1257 94.2777L89.222 91.5128L86.4234 91.513Z" fill="#303030"/>
</g>
<path d="M75.7983 55.866H76.0636L76.8115 55.1016L76.8597 54.781C76.2808 54.2385 75.4846 53.918 74.6162 53.918C73.0722 53.918 71.7454 55.0029 71.3594 56.4578C71.4317 56.4085 71.6247 56.4331 71.6247 56.4331L73.1205 56.1865C73.1205 56.1865 73.1928 56.0632 73.2411 56.0632C73.9166 55.3235 75.0263 55.2495 75.7983 55.866Z" fill="#303030"/>
<path d="M77.8997 56.458C77.7067 55.8169 77.369 55.2251 76.8623 54.7812L75.8009 55.8662C76.2592 56.2361 76.5005 56.7786 76.5005 57.3704V57.5676C77.0071 57.5676 77.4413 57.9868 77.4413 58.5293C77.4413 59.0471 77.0312 59.4663 76.5005 59.4663H74.6188L74.4258 59.6636V60.8225L74.6188 61.0198H76.5005C77.8514 61.0198 78.937 59.9102 78.937 58.5293C78.937 57.6909 78.5269 56.9265 77.8756 56.4827L77.8997 56.458Z" fill="#303030"/>
<path d="M72.7607 60.9954H74.6424V59.4666H72.7607C72.6159 59.4666 72.4953 59.4419 72.3747 59.3926L72.1093 59.4666L71.3614 60.231L71.2891 60.4775C71.6992 60.8228 72.2299 60.9954 72.7607 60.9954Z" fill="#303030"/>
<path d="M72.7594 56.0137C71.4084 56.0137 70.3228 57.1233 70.3228 58.5042C70.3228 59.2932 70.6847 60.033 71.2878 60.5015L72.3734 59.3919C72.0357 59.2193 71.8185 58.8987 71.8185 58.5042C71.8185 57.9863 72.2287 57.5425 72.7594 57.5425C73.1213 57.5671 73.459 57.7891 73.6038 58.1096L74.6893 57C74.2551 56.4082 73.5314 56.0137 72.7594 56.0137ZM63.0614 65.8277C62.5548 65.8277 62.1205 65.6304 61.7345 65.2605C61.3486 64.8907 61.1797 64.4715 61.1797 63.929C61.1797 63.3865 61.3727 62.9673 61.7345 62.5974C62.0964 62.2276 62.5548 62.0303 63.0614 62.0303C63.5198 62.055 63.9781 62.2276 64.3159 62.5728L63.954 62.9427C63.7127 62.6961 63.3991 62.5728 63.0373 62.5728C62.6754 62.5728 62.3618 62.6961 62.0964 62.9673C61.8552 63.2139 61.7104 63.5838 61.7345 63.929C61.7345 64.2989 61.8552 64.6441 62.1205 64.8907C62.3618 65.1866 62.6995 65.3099 63.0373 65.3099C63.4233 65.3099 63.7127 65.1866 63.9781 64.94C64.1229 64.792 64.2194 64.5701 64.2435 64.2989H63.0614V63.781H64.7501C64.7742 63.8797 64.7742 63.9783 64.7742 64.1016C64.7742 64.6194 64.6295 65.014 64.34 65.3099C64.0022 65.6551 63.5921 65.8523 63.0614 65.8523V65.8277ZM67.0178 65.4825C66.7765 65.7044 66.5112 65.8277 66.1734 65.8277C65.8357 65.8277 65.5462 65.7044 65.3291 65.4825C65.112 65.2605 64.9913 64.9646 64.9913 64.6194C64.9913 64.2742 65.112 63.9783 65.3291 63.7564C65.5462 63.5345 65.8357 63.4112 66.1734 63.4112C66.5112 63.4112 66.8007 63.5345 67.0178 63.7564C67.2349 63.9783 67.3555 64.2742 67.3555 64.6194C67.3555 64.9646 67.2349 65.2605 67.0178 65.4825ZM65.6909 65.1372C65.8116 65.2852 65.9804 65.3592 66.1493 65.3592C66.3423 65.3592 66.4871 65.2852 66.6318 65.1372C66.7765 64.9893 66.8248 64.8167 66.8248 64.6194C66.8248 64.3975 66.7524 64.2249 66.6318 64.0769C66.5112 63.929 66.3423 63.8797 66.1493 63.8797C65.9804 63.8797 65.7874 63.9536 65.6668 64.0769C65.5462 64.2249 65.4738 64.3975 65.4738 64.6194C65.4738 64.8413 65.5462 65.014 65.6668 65.1372H65.6909ZM69.6232 65.4825C69.382 65.7044 69.1166 65.8277 68.7789 65.8277C68.4411 65.8277 68.1516 65.7044 67.9345 65.4825C67.7174 65.2605 67.5968 64.9646 67.5968 64.6194C67.5968 64.2742 67.7174 63.9783 67.9345 63.7564C68.1516 63.5345 68.4411 63.4112 68.7789 63.4112C69.1166 63.4112 69.4061 63.5345 69.6232 63.7564C69.8403 63.9783 69.961 64.2742 69.961 64.6194C69.961 64.9646 69.8403 65.2605 69.6232 65.4825ZM68.2964 65.1372C68.417 65.2852 68.5859 65.3592 68.7547 65.3592C68.9477 65.3592 69.0925 65.2852 69.2372 65.1372C69.382 64.9893 69.4302 64.8167 69.4302 64.6194C69.4302 64.3975 69.3579 64.2249 69.2372 64.0769C69.1166 63.929 68.9477 63.8797 68.7547 63.8797C68.5859 63.8797 68.3929 63.9536 68.2723 64.0769C68.1516 64.2249 68.0793 64.3975 68.0793 64.6194C68.0793 64.8413 68.1516 65.014 68.2723 65.1372H68.2964ZM71.3361 66.9126C71.0707 66.9126 70.8536 66.8387 70.6606 66.6907C70.4676 66.5428 70.347 66.3702 70.2746 66.1976L70.7329 66.0003C70.7812 66.1236 70.8536 66.2222 70.9501 66.2962C71.0948 66.4071 71.1672 66.4195 71.3361 66.4195C71.5291 66.4195 71.6979 66.3455 71.7944 66.2469C71.8909 66.1482 71.9633 65.951 71.9633 65.7044V65.5318H71.9392C71.7944 65.7044 71.5773 65.803 71.3119 65.803C70.9983 65.803 70.7329 65.6797 70.5158 65.4578C70.2746 65.2605 70.154 64.94 70.1781 64.6194C70.154 64.2989 70.2746 63.9783 70.5158 63.7564C70.7329 63.5098 70.9983 63.4112 71.3119 63.4112C71.4567 63.4112 71.5773 63.4358 71.6738 63.4851C71.8185 63.5591 71.8668 63.6084 71.9392 63.6824H71.9633V63.4851H72.4699V65.6797C72.4699 66.0989 72.3734 66.4195 72.1563 66.6414C71.9392 66.8387 71.6738 66.962 71.3361 66.962V66.9126ZM71.3602 65.3345C71.5291 65.3592 71.6979 65.2852 71.7944 65.1372C71.915 64.9893 71.9874 64.8167 71.9874 64.6194C71.9874 64.3975 71.915 64.2249 71.7944 64.0769C71.6979 63.9536 71.5291 63.8797 71.3602 63.8797C71.1672 63.8797 71.0224 63.9536 70.9018 64.1016C70.7812 64.2495 70.7088 64.4222 70.7088 64.6441C70.7088 64.8413 70.7812 65.0386 70.9018 65.1619C71.0224 65.2852 71.1913 65.3838 71.3602 65.3838V65.3345ZM73.3384 62.1536V65.729H72.8076V62.1536H73.3384ZM74.7617 65.803C74.424 65.803 74.1345 65.6797 73.9174 65.4578C73.7002 65.2359 73.5796 64.94 73.5796 64.5948C73.5796 64.2495 73.7002 63.9536 73.9174 63.7071C74.1104 63.5098 74.3999 63.3865 74.7135 63.3865C74.8582 63.3865 75.003 63.4112 75.1236 63.4605C75.2201 63.5345 75.3166 63.5838 75.4131 63.6824C75.4855 63.7564 75.5578 63.8304 75.6061 63.929C75.6543 64.003 75.7026 64.0769 75.7267 64.1756L75.7749 64.3235L74.1827 64.9893C74.3034 65.2359 74.4964 65.3592 74.7617 65.3592C75.003 65.3592 75.196 65.2359 75.3407 65.014L75.7508 65.2852C75.6543 65.4331 75.5337 65.5564 75.3648 65.6551C75.196 65.7537 75.003 65.8277 74.7617 65.8277V65.803ZM74.1104 64.5454L75.1718 64.1016C75.1477 64.0276 75.0753 63.9536 75.003 63.9043C74.9065 63.8797 74.81 63.855 74.7135 63.855C74.5687 63.855 74.424 63.929 74.2792 64.0523C74.1345 64.1756 74.0862 64.3482 74.0862 64.5701L74.1104 64.5454ZM78.5251 65.803C78.0426 65.803 77.6567 65.6304 77.3189 65.3099C76.9812 64.9893 76.8364 64.5701 76.8364 64.0769C76.8364 63.5838 77.0053 63.1646 77.3189 62.844C77.6325 62.5235 78.0426 62.3509 78.5251 62.3509C79.0076 62.3509 79.4177 62.5235 79.7072 62.8933L79.4177 63.1892C79.2006 62.918 78.887 62.77 78.5251 62.77C78.1633 62.77 77.8738 62.8933 77.6325 63.1399C77.3913 63.3865 77.2707 63.7071 77.2707 64.1016C77.2707 64.4961 77.3913 64.8167 77.6325 65.0633C77.8738 65.3099 78.1633 65.4331 78.5251 65.4331C78.9111 65.4331 79.2489 65.2852 79.5142 64.9646L79.8037 65.2605C79.659 65.4331 79.466 65.5811 79.2489 65.6797C79.0076 65.7784 78.7664 65.8277 78.5251 65.8277V65.803ZM80.5998 65.729H80.1897V62.4495H80.5998V65.729ZM81.2753 63.7317C81.4924 63.5098 81.7578 63.3865 82.0955 63.3865C82.4333 63.3865 82.6986 63.5098 82.9158 63.7317C83.1329 63.9536 83.2294 64.2495 83.2294 64.5948C83.2294 64.94 83.1329 65.2359 82.9158 65.4578C82.6986 65.6797 82.4333 65.803 82.0955 65.803C81.7578 65.803 81.4924 65.6797 81.2753 65.4578C81.0582 65.2359 80.9617 64.94 80.9617 64.5948C80.9617 64.2495 81.0582 63.9536 81.2753 63.7317ZM81.5889 65.1866C81.7337 65.3345 81.9025 65.4085 82.0955 65.4085C82.385 65.4085 82.4574 65.3345 82.6022 65.1866C82.7469 65.0386 82.8193 64.8413 82.8193 64.5948C82.8193 64.3482 82.7469 64.1509 82.6022 64.003C82.4574 63.855 82.2885 63.781 82.0955 63.781C81.9025 63.781 81.7337 63.855 81.5889 64.003C81.4442 64.1509 81.3718 64.3482 81.3718 64.5948C81.3718 64.8413 81.4442 65.0386 81.5889 65.1866ZM85.5212 65.729H85.1352V65.4085H85.1111C85.0387 65.5071 84.9422 65.6058 84.8216 65.6797C84.701 65.7537 84.5562 65.803 84.4115 65.803C84.1461 65.803 83.929 65.729 83.7842 65.5564C83.6395 65.3838 83.5671 65.1619 83.5671 64.866V63.4851H83.9772V64.792C83.9772 65.2112 84.1702 65.4331 84.5321 65.4331C84.6768 65.4331 84.8457 65.3592 84.9422 65.2359C85.0387 65.0879 85.087 64.9153 85.087 64.7427V63.5098H85.4971V65.7784L85.5212 65.729ZM86.9204 65.803C86.6309 65.803 86.3897 65.6797 86.1726 65.4578C85.9554 65.2359 85.8589 64.94 85.8589 64.5948C85.8589 64.2495 85.9554 63.9783 86.1726 63.7317C86.3897 63.4851 86.6309 63.3865 86.9204 63.3865C87.0893 63.3865 87.234 63.4358 87.3788 63.4851C87.5235 63.5345 87.62 63.6577 87.6683 63.7564H87.6924L87.6683 63.4358V62.4002H88.0784V65.7044H87.6924V65.3838H87.6683C87.5959 65.4825 87.4994 65.5811 87.3788 65.6551C87.234 65.729 87.0893 65.7537 86.9204 65.7537V65.803ZM86.9928 65.4085C87.1617 65.4331 87.3547 65.3592 87.4753 65.2112C87.62 65.0633 87.6683 64.866 87.6683 64.6194C87.6683 64.3728 87.5959 64.1756 87.4753 64.0276C87.3547 63.9043 87.1617 63.8057 86.9928 63.8057C86.7998 63.8057 86.6309 63.8797 86.4862 64.0276C86.2691 64.2495 86.2691 64.3728 86.2691 64.6194C86.2691 64.866 86.3414 65.0633 86.4862 65.2112C86.6068 65.3592 86.7998 65.4578 86.9928 65.4578V65.4085Z" fill="#303030"/>
<defs>
<clipPath id="clip0_6035_1863">
<rect width="30.8792" height="31.5626" fill="white" transform="translate(82.8398 74.3711)"/>
</clipPath>
</defs>
</svg>
