<svg width="150" height="150" viewBox="0 0 150 150" fill="none" xmlns="http://www.w3.org/2000/svg">
<g clip-path="url(#clip0_6035_2693)">
<path d="M69.5743 72.2952H61.6479V59.0308H71.0512C76.1636 59.0308 79.065 61.3099 79.065 65.4316C79.065 69.8327 75.6873 72.2952 69.5656 72.2952H69.5743ZM70.9901 77.5608H61.6523V92.1787H71.4008C77.776 92.1787 81.1537 89.6245 81.1537 84.8217C81.1537 80.0189 77.6799 77.5608 70.9901 77.5608ZM123.014 72.9501V78.2681C118.085 78.7396 115.075 82.3897 113.287 88.1705C111.509 93.9295 111.264 100.994 111.452 106.447C111.649 112.123 107.222 117.363 101.241 117.363H39.9268C33.9405 117.363 29.5141 112.123 29.7151 106.447C29.903 100.994 29.6583 93.9295 27.8799 88.1705C26.0884 82.3897 23.0734 78.7396 18.1445 78.2681V72.9501C23.0734 72.4786 26.0928 68.8284 27.8756 63.0476C29.6583 57.2887 29.903 50.2242 29.7108 44.7709C29.5141 39.0949 33.9405 33.8555 39.9268 33.8555H101.241C107.227 33.8555 111.649 39.0949 111.452 44.7709C111.264 50.2242 111.509 57.2887 113.287 63.0476C115.075 68.8284 118.085 72.4786 123.014 72.9501ZM88.3766 85.2496C88.3766 79.3378 84.2124 75.0633 78.0294 74.3866V74.1377C82.5738 73.3998 86.1393 69.1821 86.1393 64.4754C86.1393 57.7646 80.8391 53.394 72.7597 53.394H54.5823V97.8067H72.8515C82.5432 97.8067 88.3766 93.065 88.3766 85.2496Z" fill="#202020"/>
</g>
<circle cx="75" cy="75" r="74.5" stroke="#FABA0B"/>
<defs>
<clipPath id="clip0_6035_2693">
<rect width="105" height="93" fill="white" transform="translate(23 29)"/>
</clipPath>
</defs>
</svg>
