<svg width="148" height="148" viewBox="0 0 148 148" fill="none" xmlns="http://www.w3.org/2000/svg">
<g clip-path="url(#clip0_8271_1616)">
<path d="M68.5743 71.2952H60.6479V58.0308H70.0512C75.1636 58.0308 78.065 60.3099 78.065 64.4316C78.065 68.8327 74.6873 71.2952 68.5656 71.2952H68.5743ZM69.9901 76.5608H60.6523V91.1787H70.4008C76.776 91.1787 80.1537 88.6245 80.1537 83.8217C80.1537 79.0189 76.6799 76.5608 69.9901 76.5608ZM122.014 71.9501V77.2681C117.085 77.7396 114.075 81.3897 112.287 87.1705C110.509 92.9295 110.264 99.994 110.452 105.447C110.649 111.123 106.222 116.363 100.241 116.363H38.9268C32.9405 116.363 28.5141 111.123 28.7151 105.447C28.903 99.994 28.6583 92.9295 26.8799 87.1705C25.0884 81.3897 22.0734 77.7396 17.1445 77.2681V71.9501C22.0734 71.4786 25.0928 67.8284 26.8756 62.0476C28.6583 56.2887 28.903 49.2242 28.7108 43.7709C28.5141 38.0949 32.9405 32.8555 38.9268 32.8555H100.241C106.227 32.8555 110.649 38.0949 110.452 43.7709C110.264 49.2242 110.509 56.2887 112.287 62.0476C114.075 67.8284 117.085 71.4786 122.014 71.9501ZM87.3766 84.2496C87.3766 78.3378 83.2124 74.0633 77.0294 73.3866V73.1377C81.5738 72.3998 85.1393 68.1821 85.1393 63.4754C85.1393 56.7646 79.8391 52.394 71.7597 52.394H53.5823V96.8067H71.8515C81.5432 96.8067 87.3766 92.065 87.3766 84.2496Z" fill="#202020"/>
</g>
<defs>
<clipPath id="clip0_8271_1616">
<rect width="105" height="93" fill="white" transform="translate(22 28)"/>
</clipPath>
</defs>
</svg>
