<svg width="148" height="148" viewBox="0 0 148 148" fill="none" xmlns="http://www.w3.org/2000/svg">
<circle cx="74" cy="74" r="74" fill="white"/>
<g clip-path="url(#clip0_8271_1620)">
<path d="M44.1857 33C38.3657 33 34.059 38.1391 34.2519 43.7123C34.4371 49.0664 34.1965 56.0014 32.4661 61.6566C30.7305 67.3283 27.7948 70.921 23 71.3824V76.5902C27.7948 77.0517 30.7305 80.6444 32.4661 86.3165C34.1965 91.9717 34.4371 98.9059 34.2519 104.26C34.059 109.833 38.3657 114.973 44.1865 114.973H103.822C109.642 114.973 113.948 109.834 113.755 104.26C113.57 98.9063 113.81 91.9717 115.541 86.3165C117.277 80.6448 120.205 77.0513 125 76.5902V71.3824C120.205 70.921 117.277 67.3283 115.541 61.6566C113.81 56.0022 113.57 49.0668 113.755 43.7123C113.948 38.1399 109.642 33 103.822 33H44.1849H44.1857ZM92.1528 83.4593C92.1528 91.1336 86.4791 95.7875 77.0632 95.7875H61.034C60.5756 95.7873 60.1361 95.6034 59.812 95.2764C59.4879 94.9493 59.3057 94.5058 59.3056 94.0434V53.9293C59.3056 53.4667 59.4878 53.023 59.812 52.6959C60.1362 52.3687 60.5759 52.1849 61.0344 52.1848H76.9715C84.8228 52.1848 89.9754 56.4757 89.9754 63.063C89.9754 67.6868 86.5089 71.8262 82.0931 72.5509V72.7925C88.1051 73.4578 92.1528 77.6578 92.1528 83.4593ZM75.3148 57.7138H66.1759V70.7373H73.8737C79.824 70.7373 83.1055 68.3199 83.1055 63.9988C83.1055 59.9499 80.2834 57.7138 75.3148 57.7138ZM66.1763 75.9049V90.2569H75.6519C81.8468 90.2569 85.1292 87.7491 85.1292 83.0357C85.1292 78.3215 81.7556 75.9041 75.2535 75.9041H66.1763V75.9049Z" fill="#7E13F8"/>
</g>
<defs>
<clipPath id="clip0_8271_1620">
<rect width="102" height="82" fill="white" transform="translate(23 33)"/>
</clipPath>
</defs>
</svg>
