<svg width="178" height="178" viewBox="0 0 178 178" fill="none" xmlns="http://www.w3.org/2000/svg">
<g filter="url(#filter0_d_6035_2697)">
<circle cx="82" cy="86" r="74" fill="white"/>
</g>
<g clip-path="url(#clip0_6035_2697)">
<path d="M52.1857 45C46.3657 45 42.059 50.1391 42.2519 55.7123C42.4371 61.0664 42.1965 68.0014 40.4661 73.6566C38.7305 79.3283 35.7948 82.921 31 83.3824V88.5902C35.7948 89.0517 38.7305 92.6444 40.4661 98.3165C42.1965 103.972 42.4371 110.906 42.2519 116.26C42.059 121.833 46.3657 126.973 52.1865 126.973H111.822C117.642 126.973 121.948 121.834 121.755 116.26C121.57 110.906 121.81 103.972 123.541 98.3165C125.277 92.6448 128.205 89.0513 133 88.5902V83.3824C128.205 82.921 125.277 79.3283 123.541 73.6566C121.81 68.0022 121.57 61.0668 121.755 55.7123C121.948 50.1399 117.642 45 111.822 45H52.1849H52.1857ZM100.153 95.4593C100.153 103.134 94.4791 107.787 85.0632 107.787H69.034C68.5756 107.787 68.1361 107.603 67.812 107.276C67.4879 106.949 67.3057 106.506 67.3056 106.043V65.9293C67.3056 65.4667 67.4878 65.023 67.812 64.6959C68.1362 64.3687 68.5759 64.1849 69.0344 64.1848H84.9715C92.8228 64.1848 97.9753 68.4757 97.9753 75.063C97.9753 79.6868 94.5089 83.8262 90.0931 84.5509V84.7925C96.1051 85.4578 100.153 89.6578 100.153 95.4593ZM83.3148 69.7138H74.1759V82.7373H81.8737C87.824 82.7373 91.1055 80.3199 91.1055 75.9988C91.1055 71.9499 88.2834 69.7138 83.3148 69.7138ZM74.1763 87.9049V102.257H83.6519C89.8468 102.257 93.1292 99.7491 93.1292 95.0357C93.1292 90.3215 89.7556 87.9041 83.2535 87.9041H74.1763V87.9049Z" fill="#7E13F8"/>
</g>
<defs>
<filter id="filter0_d_6035_2697" x="0" y="0" width="178" height="178" filterUnits="userSpaceOnUse" color-interpolation-filters="sRGB">
<feFlood flood-opacity="0" result="BackgroundImageFix"/>
<feColorMatrix in="SourceAlpha" type="matrix" values="0 0 0 0 0 0 0 0 0 0 0 0 0 0 0 0 0 0 127 0" result="hardAlpha"/>
<feOffset dx="7" dy="3"/>
<feGaussianBlur stdDeviation="7.5"/>
<feComposite in2="hardAlpha" operator="out"/>
<feColorMatrix type="matrix" values="0 0 0 0 0.188235 0 0 0 0 0.188235 0 0 0 0 0.188235 0 0 0 0.25 0"/>
<feBlend mode="normal" in2="BackgroundImageFix" result="effect1_dropShadow_6035_2697"/>
<feBlend mode="normal" in="SourceGraphic" in2="effect1_dropShadow_6035_2697" result="shape"/>
</filter>
<clipPath id="clip0_6035_2697">
<rect width="102" height="82" fill="white" transform="translate(31 45)"/>
</clipPath>
</defs>
</svg>
