<svg width="150" height="150" viewBox="0 0 150 150" fill="none" xmlns="http://www.w3.org/2000/svg">
<circle cx="75" cy="75" r="74.5" stroke="#FABA0B"/>
<g clip-path="url(#clip0_6035_2678)">
<path d="M98.2 63.891C92.5498 38.9757 79.2003 30.8061 77.7659 27.6753C76.1905 25.4549 74.4941 21.2559 74.4941 21.2559C74.4773 21.3432 74.4773 21.3969 74.4605 21.4843V21.538C74.4605 21.6086 74.4437 21.6422 74.4437 21.7127V21.7833H74.4269V22.0083H74.4101C74.4101 22.0419 74.4101 22.0957 74.3933 22.1125V22.2166C74.3955 22.2547 74.3899 22.2838 74.3765 22.3039V22.3913C74.3787 22.4473 74.3731 22.4943 74.3597 22.5324V22.5492C74.3573 22.6263 74.346 22.703 74.3261 22.7776V22.8112C74.3127 22.8269 74.3071 22.8448 74.3093 22.8649V22.9355H74.2925V23.0396H74.2757V23.1101H74.2421V23.2143H74.2253V23.3016H74.2085V23.3722H74.1917V23.4427H74.1749V23.5132H74.1581V23.5838H74.1413V23.6375H74.1245V23.7081H74.1078V23.7786H74.091C74.0742 23.7786 74.0742 23.7954 74.0742 23.7954V23.829L74.0574 23.8626C74.0551 23.8984 74.0439 23.9332 74.0238 23.9667C74.007 23.9835 74.007 23.9835 74.007 24.0003V24.0339H73.9902V24.0675H73.9566V24.1549H73.923V24.2086H73.9062V24.2254H73.8894V24.259H73.8726V24.3127H73.8558V24.3463H73.8222V24.4001H73.8054V24.4337H73.7886V24.4673H73.7718V24.521H73.755V24.5546H73.7382V24.5714H73.7214V24.605H73.6879V24.6587H73.6711V24.6755H73.6543V24.7091H73.6375V24.7629H73.6207V24.7797H73.6039V24.8133H73.5871V24.8301H73.5703V24.8838H73.5367V24.9006H73.5199V24.9342H73.5031V24.951H73.4863V24.9846H73.4695V25.0182C73.4527 25.0182 73.4527 25.035 73.4527 25.035V25.0518H73.4359L73.3822 25.1391C73.3822 25.1391 73.3486 25.1727 73.3486 25.1929C73.3318 25.1929 73.3318 25.2096 73.3318 25.2096V25.2264H73.315V25.2432H73.2982V25.2768H73.2646V25.2936H73.2478V25.3104H73.231V25.3608H73.2142V25.3776H73.1974V25.3944H73.1806V25.428H73.1638V25.3944H73.1302V25.4112H73.1134V25.4448H73.0966V25.4784H73.0798V25.4952H73.063V25.512H73.0462V25.5288H73.0294V25.5624H72.9959V25.5792H72.9791V25.6128H72.9623V25.6296H72.9455V25.6463H72.9287V25.7001H72.9119V25.7169H72.8951V25.7337H72.8783V25.7505H72.8615V25.7673H72.8279V25.8009H72.8111V25.8177H72.7943V25.8345H72.7775V25.8681H72.7607V25.8849H72.7271V25.9016H72.7103V25.9184H72.6935V25.952H72.6767V25.9856H72.6599V26.0024H72.6431V26.0192H72.6095V26.036H72.5927V26.0528H72.576V26.0864H72.5592V26.1032H72.5424V26.1368H72.5256V26.1536H72.5088V26.1704H72.492V26.1872H72.4752V26.204H72.4416V26.2208C72.4248 26.2208 72.4248 26.2376 72.4248 26.2376L72.408 26.2544L72.3912 26.2712V26.3048H72.3744V26.3215H72.3576V26.3383H72.3408V26.3551H72.324L72.2904 26.3887V26.4055C72.2568 26.4223 72.2568 26.4391 72.2199 26.4761C72.2199 26.4761 72.1863 26.5097 72.1661 26.5097C72.1124 26.5433 72.0452 26.6138 71.9914 26.6675C71.9579 26.6843 71.9209 26.7213 71.8873 26.7381C71.8179 26.8053 71.7473 26.8635 71.6757 26.9128C71.5715 27.0169 71.4641 27.0874 71.3431 27.1916H71.3263L70.5033 27.9105H70.4865C69.7341 28.5756 68.8405 29.4322 67.826 30.4467L67.7387 30.534C61.6484 36.8325 52.0445 49.9704 51.0468 71.1939C50.9426 72.944 50.9594 74.6572 51.0636 76.32V76.3536C51.554 84.7181 54.1776 91.8564 57.4662 97.6645C58.7595 99.9756 60.1771 102.075 61.6115 103.963C66.5462 110.473 71.585 114.34 72.8615 115.284C74.8401 119.849 74.662 127.723 74.662 127.723L77.5476 128.683C77.5476 128.683 76.953 121.071 77.776 117.38C78.038 116.241 78.6326 115.263 79.3347 114.424C79.8251 114.091 81.2259 113.077 82.9055 111.538C82.9929 111.451 83.0466 111.38 83.1172 111.293C89.9229 104.941 102.644 89.3 98.2873 63.8271L98.2 63.891Z" fill="#202020"/>
</g>
<defs>
<clipPath id="clip0_6035_2678">
<rect width="107.495" height="107.495" fill="white" transform="translate(21.2539 21.252)"/>
</clipPath>
</defs>
</svg>
