<svg width="178" height="178" viewBox="0 0 178 178" fill="none" xmlns="http://www.w3.org/2000/svg">
<g filter="url(#filter0_d_6035_2684)">
<circle cx="82" cy="86" r="74" fill="white"/>
</g>
<g clip-path="url(#clip0_6035_2684)">
<path d="M107.389 74.7688C101.309 48.1962 88.6379 41.1221 85.4054 36.1215C84.0717 33.919 82.8909 31.629 81.8711 29.2676C81.7003 31.6287 81.3864 33.115 79.3611 34.9056C75.2948 38.4975 58.0246 52.441 56.5711 82.6335C55.2168 110.785 77.4592 128.143 80.3974 129.937C82.657 131.039 85.4089 129.961 86.7516 128.949C97.4732 121.659 112.123 102.223 107.401 74.7688" fill="#10AA50"/>
<path d="M81.9658 114.777C81.3939 121.774 80.9841 125.84 79.5312 129.838C79.5312 129.838 80.4847 136.499 81.1545 143.555H83.5241C84.0901 138.586 84.9532 133.654 86.109 128.783C83.0412 127.313 82.0837 120.917 81.9658 114.777Z" fill="#B8C4C2"/>
<path d="M86.8723 128.756C83.7258 127.361 82.8156 120.827 82.6756 114.741C83.4533 104.7 83.6802 94.6268 83.3554 84.5631C83.1902 79.2828 83.4332 35.6552 82 29.2676C82.9798 31.4313 84.1096 33.5296 85.3816 35.5483C88.7339 40.5759 101.879 47.6826 108.181 74.3776C113.089 101.911 97.9794 121.385 86.8723 128.756Z" fill="#12924F"/>
</g>
<defs>
<filter id="filter0_d_6035_2684" x="0" y="0" width="178" height="178" filterUnits="userSpaceOnUse" color-interpolation-filters="sRGB">
<feFlood flood-opacity="0" result="BackgroundImageFix"/>
<feColorMatrix in="SourceAlpha" type="matrix" values="0 0 0 0 0 0 0 0 0 0 0 0 0 0 0 0 0 0 127 0" result="hardAlpha"/>
<feOffset dx="7" dy="3"/>
<feGaussianBlur stdDeviation="7.5"/>
<feComposite in2="hardAlpha" operator="out"/>
<feColorMatrix type="matrix" values="0 0 0 0 0.188235 0 0 0 0 0.188235 0 0 0 0 0.188235 0 0 0 0.25 0"/>
<feBlend mode="normal" in2="BackgroundImageFix" result="effect1_dropShadow_6035_2684"/>
<feBlend mode="normal" in="SourceGraphic" in2="effect1_dropShadow_6035_2684" result="shape"/>
</filter>
<clipPath id="clip0_6035_2684">
<rect width="148" height="148" fill="white" transform="translate(8 12)"/>
</clipPath>
</defs>
</svg>
