<svg width="178" height="178" viewBox="0 0 178 178" fill="none" xmlns="http://www.w3.org/2000/svg">
<g filter="url(#filter0_d_6035_2047)">
<circle cx="82" cy="86" r="74" fill="#F1F1F1"/>
<g clip-path="url(#clip0_6035_2047)">
<mask id="mask0_6035_2047" style="mask-type:luminance" maskUnits="userSpaceOnUse" x="70" y="72" width="21" height="37">
<path d="M70.2742 73.9034C74.3614 86.4076 75.9119 108.715 87.8691 108.715C88.7799 108.714 89.6978 108.626 90.6228 108.45C79.7526 105.916 78.4629 83.8509 71.8303 72.4252C71.3012 72.9071 70.7821 73.3999 70.2734 73.9034" fill="white"/>
</mask>
<g mask="url(#mask0_6035_2047)">
<mask id="mask1_6035_2047" style="mask-type:luminance" maskUnits="userSpaceOnUse" x="70" y="72" width="21" height="37">
<path d="M90.583 108.723H70.2344V72.433H90.583V108.723Z" fill="white"/>
</mask>
<g mask="url(#mask1_6035_2047)">
<mask id="mask2_6035_2047" style="mask-type:luminance" maskUnits="userSpaceOnUse" x="70" y="72" width="21" height="37">
<path d="M90.583 72.4323V108.723H70.2344V72.433L90.583 72.4323Z" fill="white"/>
</mask>
<g mask="url(#mask2_6035_2047)">
<path d="M90.583 108.723H70.2344V72.433H90.583V108.723Z" fill="url(#paint0_linear_6035_2047)"/>
</g>
</g>
</g>
<mask id="mask3_6035_2047" style="mask-type:luminance" maskUnits="userSpaceOnUse" x="71" y="71" width="23" height="38">
<path d="M71.832 72.4246C78.4647 83.8503 79.7529 105.915 90.6245 108.449C91.477 108.292 92.3344 108.055 93.1919 107.755C83.4342 102.974 80.7372 81.5502 73.2053 71.2348C72.7386 71.6205 72.281 72.0169 71.8327 72.4239" fill="white"/>
</mask>
<g mask="url(#mask3_6035_2047)">
<mask id="mask4_6035_2047" style="mask-type:luminance" maskUnits="userSpaceOnUse" x="71" y="71" width="23" height="38">
<path d="M93.2561 108.498H71.8984V71.2837H93.2561V108.498Z" fill="white"/>
</mask>
<g mask="url(#mask4_6035_2047)">
<mask id="mask5_6035_2047" style="mask-type:luminance" maskUnits="userSpaceOnUse" x="71" y="71" width="23" height="38">
<path d="M93.2561 71.2837V108.498H71.8984V71.2837H93.2561Z" fill="white"/>
</mask>
<g mask="url(#mask5_6035_2047)">
<path d="M93.2561 108.498H71.8984V71.2837H93.2561V108.498Z" fill="url(#paint1_linear_6035_2047)"/>
</g>
</g>
</g>
<path d="M81.3908 65.629C80.4832 65.629 79.5604 65.7176 78.6355 65.8938C76.2163 66.3501 73.7585 67.3911 71.2812 68.9679C71.9834 69.6706 72.6272 70.4293 73.2064 71.2363C75.7264 69.138 78.2281 67.5989 80.7246 66.67C81.6355 66.3297 82.5741 66.0687 83.5299 65.8897C82.8305 65.7141 82.1119 65.6265 81.3908 65.629Z" fill="#14559A"/>
<path d="M100.598 105.993C100.117 105.529 99.6643 105.037 99.2408 104.52C97.2169 105.954 95.197 107.043 93.1914 107.748C93.9031 108.099 94.6545 108.355 95.4456 108.516C96.0798 108.646 96.7255 108.709 97.3727 108.707C99.6218 108.707 101.4 108.439 102.915 107.716C102.069 107.248 101.291 106.667 100.603 105.988" fill="#1969BC"/>
<mask id="mask6_6035_2047" style="mask-type:luminance" maskUnits="userSpaceOnUse" x="80" y="65" width="21" height="40">
<path d="M80.7219 66.6711C90.5455 71.8086 91.3987 95.0767 99.2381 104.525C99.7629 104.155 100.283 103.763 100.797 103.349C95.8913 92.4789 94.4868 68.6127 83.521 65.8895C82.5842 66.0638 81.6502 66.3147 80.7148 66.6711" fill="white"/>
</mask>
<g mask="url(#mask6_6035_2047)">
<mask id="mask7_6035_2047" style="mask-type:luminance" maskUnits="userSpaceOnUse" x="80" y="65" width="21" height="40">
<path d="M100.856 104.574H80.7734V65.9362H100.856V104.574Z" fill="white"/>
</mask>
<g mask="url(#mask7_6035_2047)">
<mask id="mask8_6035_2047" style="mask-type:luminance" maskUnits="userSpaceOnUse" x="80" y="65" width="21" height="40">
<path d="M100.856 65.9362V104.574H80.7734V65.9362H100.856Z" fill="white"/>
</mask>
<g mask="url(#mask8_6035_2047)">
<path d="M100.856 104.574H80.7734V65.9362H100.856V104.574Z" fill="url(#paint2_linear_6035_2047)"/>
</g>
</g>
</g>
<mask id="mask9_6035_2047" style="mask-type:luminance" maskUnits="userSpaceOnUse" x="73" y="66" width="27" height="42">
<path d="M73.2031 71.2359C80.7357 81.5505 83.432 102.982 93.1896 107.756C95.195 107.049 97.2132 105.962 99.2377 104.527C91.3983 95.0773 90.5451 71.8099 80.7215 66.6724C78.2272 67.5993 75.723 69.1441 73.2102 71.2359" fill="white"/>
</mask>
<g mask="url(#mask9_6035_2047)">
<mask id="mask10_6035_2047" style="mask-type:luminance" maskUnits="userSpaceOnUse" x="73" y="66" width="27" height="42">
<path d="M99.226 107.766H73.1914V66.68H99.226V107.766Z" fill="white"/>
</mask>
<g mask="url(#mask10_6035_2047)">
<mask id="mask11_6035_2047" style="mask-type:luminance" maskUnits="userSpaceOnUse" x="73" y="66" width="27" height="42">
<path d="M99.226 66.68V107.766H73.1914V66.68H99.226Z" fill="white"/>
</mask>
<g mask="url(#mask11_6035_2047)">
<path d="M99.226 107.766H73.1914V66.68H99.226V107.766Z" fill="url(#paint3_linear_6035_2047)"/>
</g>
</g>
</g>
<path d="M70.0412 69.793L68.9961 70.562C69.4545 71.5623 69.8782 72.6858 70.2744 73.9071L71.8329 72.4301C71.3052 71.5077 70.7061 70.628 70.0412 69.7991" fill="#2B74B1"/>
<path d="M71.2767 68.9688L70.0391 69.7939C70.6808 70.5843 71.2726 71.4685 71.8318 72.4239L73.2028 71.2342C72.6236 70.4275 71.9797 69.6692 71.2777 68.9668" fill="#125A9E"/>
<path d="M65.4553 73.6035C66.5794 72.5266 67.7613 71.512 68.996 70.564L68.1454 68.9363C67.1961 70.0893 66.3283 71.6101 65.4492 73.6035M66.3089 66.6444C66.9883 67.2138 67.5954 67.9961 68.1505 68.9342L68.6863 68.3332C67.9408 67.6267 67.0947 67.0345 66.1755 66.5762L66.2875 66.6302L66.3069 66.6434" fill="#0D82CA"/>
<mask id="mask12_6035_2047" style="mask-type:luminance" maskUnits="userSpaceOnUse" x="37" y="66" width="23" height="34">
<path d="M37.7227 99.4355C47.1969 81.1795 51.6859 69.6241 59.6076 66.4991C51.44 69.6963 42.2465 81.7542 37.7227 99.4355Z" fill="white"/>
</mask>
<g mask="url(#mask12_6035_2047)">
<mask id="mask13_6035_2047" style="mask-type:luminance" maskUnits="userSpaceOnUse" x="37" y="66" width="23" height="34">
<path d="M37.7109 66.5223H59.5965V99.4609H37.7109V66.5223Z" fill="white"/>
</mask>
<g mask="url(#mask13_6035_2047)">
<mask id="mask14_6035_2047" style="mask-type:luminance" maskUnits="userSpaceOnUse" x="37" y="66" width="23" height="34">
<path d="M37.7109 99.459V66.5225H59.5965V99.459H37.7109Z" fill="white"/>
</mask>
<g mask="url(#mask14_6035_2047)">
<path d="M37.7109 66.5223H59.5965V99.4609H37.7109V66.5223Z" fill="url(#paint4_linear_6035_2047)"/>
</g>
</g>
</g>
<path d="M68.6842 68.334L68.1484 68.935C68.4459 69.433 68.7229 69.976 68.999 70.5647L70.044 69.7946C69.6162 69.265 69.163 68.775 68.6842 68.334Z" fill="#127BCA"/>
<mask id="mask15_6035_2047" style="mask-type:luminance" maskUnits="userSpaceOnUse" x="42" y="73" width="24" height="37">
<path d="M42.0234 109.78V109.783C44.573 109.459 47.5492 107.941 49.5043 104.301C53.5611 96.7539 57.5981 90.0128 61.6089 84.3602C63.07 79.7768 64.2733 76.2699 65.4567 73.602C57.4592 81.2139 49.4292 93.8726 42.0234 109.78Z" fill="white"/>
</mask>
<g mask="url(#mask15_6035_2047)">
<mask id="mask16_6035_2047" style="mask-type:luminance" maskUnits="userSpaceOnUse" x="42" y="73" width="24" height="37">
<path d="M42.0742 73.654H65.5067V109.836H42.0742V73.654Z" fill="white"/>
</mask>
<g mask="url(#mask16_6035_2047)">
<mask id="mask17_6035_2047" style="mask-type:luminance" maskUnits="userSpaceOnUse" x="42" y="73" width="24" height="37">
<path d="M42.0742 109.836V73.654H65.5067V109.836H42.0742Z" fill="white"/>
</mask>
<g mask="url(#mask17_6035_2047)">
<path d="M42.0742 73.654H65.5067V109.836H42.0742V73.654Z" fill="url(#paint5_linear_6035_2047)"/>
</g>
</g>
</g>
<path d="M37.7218 99.4355C35.9058 102.941 34.0347 106.418 32.1094 109.865L35.7254 109.864C36.1818 106.351 36.8485 102.869 37.7218 99.4355Z" fill="#05A1E6"/>
<mask id="mask18_6035_2047" style="mask-type:luminance" maskUnits="userSpaceOnUse" x="35" y="65" width="34" height="45">
<path d="M62.6749 65.7101C62.6466 65.7158 62.6253 65.7172 62.6041 65.7193C62.56 65.7281 62.5156 65.7347 62.4709 65.7392L62.3908 65.7477L62.2491 65.7725L62.1867 65.7796L61.8785 65.8341C61.8652 65.837 61.8534 65.8388 61.843 65.8398L61.7013 65.8681L61.6262 65.8894L61.4809 65.9177L61.4129 65.934L60.9048 66.0658C60.8906 66.0715 60.8673 66.0758 60.846 66.0835C60.7964 66.0956 60.7468 66.1133 60.6929 66.1303L60.6235 66.1495L60.4711 66.1955C60.4527 66.2005 60.4357 66.2097 60.418 66.2097L60.0658 66.3316L59.8957 66.3925L59.8277 66.4209C59.7792 66.4349 59.7318 66.4527 59.686 66.474C59.6697 66.4825 59.6491 66.4896 59.6364 66.4988C51.7141 69.6252 47.2257 81.1799 37.7515 99.4353C36.876 102.868 36.209 106.35 35.7539 109.863H36.262L40.9835 109.856H41.0281L41.3293 109.849L41.6786 109.824L41.6999 109.822C41.75 109.816 41.7986 109.811 41.8459 109.808L41.8813 109.803C41.933 109.798 41.9947 109.792 42.0528 109.783V109.78C49.4578 93.8726 57.4879 81.2139 65.4853 73.602C66.3654 71.6086 67.2313 70.0872 68.1816 68.9357C67.6253 67.9961 67.018 67.2138 66.3392 66.6426C66.3321 66.6391 66.325 66.637 66.3194 66.6299C66.2813 66.6138 66.2439 66.5961 66.2074 66.5768C66.1707 66.5565 66.1333 66.5374 66.0954 66.5194C66.06 66.5052 66.0203 66.486 65.9863 66.4662C65.942 66.4516 65.8993 66.4326 65.8588 66.4095C65.8233 66.3982 65.7929 66.3812 65.7596 66.367C65.6886 66.3398 65.6185 66.3108 65.5491 66.2798L65.4598 66.2444C65.4067 66.227 65.3546 66.2064 65.3039 66.1828C65.277 66.1757 65.2486 66.1643 65.2189 66.1558L65.0035 66.0807C64.9914 66.0772 64.9872 66.0772 64.9843 66.0736C64.8993 66.0474 64.8178 66.0262 64.7328 66.0028C64.7129 65.9936 64.6973 65.99 64.6761 65.9844C64.601 65.9645 64.5344 65.9432 64.4663 65.9248C64.4495 65.9225 64.4329 65.9187 64.4167 65.9135C64.2427 65.8676 64.0668 65.829 63.8895 65.798C63.8732 65.7966 63.8519 65.7909 63.8342 65.7867L63.6061 65.7512C63.5919 65.7441 63.5777 65.7441 63.5614 65.7413L63.29 65.7059C63.2758 65.703 63.26 65.7011 63.2425 65.7002C63.1717 65.6889 63.1036 65.6839 63.0356 65.6775C62.9201 65.686 62.8117 65.6966 62.7026 65.7073" fill="white"/>
</mask>
<g mask="url(#mask18_6035_2047)">
<mask id="mask19_6035_2047" style="mask-type:luminance" maskUnits="userSpaceOnUse" x="28" y="60" width="48" height="56">
<path d="M36.6081 115.406L28.0742 67.0071L67.0793 60.13L75.6131 108.528L36.6081 115.406V115.406Z" fill="white"/>
</mask>
<g mask="url(#mask19_6035_2047)">
<mask id="mask20_6035_2047" style="mask-type:luminance" maskUnits="userSpaceOnUse" x="28" y="60" width="48" height="56">
<path d="M36.6081 115.406L28.0742 67.0078L67.0786 60.13L75.6124 108.528L36.6081 115.406Z" fill="white"/>
</mask>
<g mask="url(#mask20_6035_2047)">
<path d="M36.6081 115.406L28.0742 67.0071L67.0793 60.13L75.6131 108.528L36.6081 115.406V115.406Z" fill="url(#paint6_linear_6035_2047)"/>
</g>
</g>
</g>
<mask id="mask21_6035_2047" style="mask-type:luminance" maskUnits="userSpaceOnUse" x="112" y="65" width="15" height="27">
<path d="M116.583 76.5394L112 91.1582C117.003 84.2747 121.929 75.6182 126.619 65.6246C121.148 67.3444 118.229 71.2766 116.583 76.5387" fill="white"/>
</mask>
<g mask="url(#mask21_6035_2047)">
<mask id="mask22_6035_2047" style="mask-type:luminance" maskUnits="userSpaceOnUse" x="112" y="65" width="15" height="27">
<path d="M112.027 65.6195H126.646V91.1523H112.027V65.6195Z" fill="white"/>
</mask>
<g mask="url(#mask22_6035_2047)">
<mask id="mask23_6035_2047" style="mask-type:luminance" maskUnits="userSpaceOnUse" x="112" y="65" width="15" height="27">
<path d="M112.027 91.1523V65.6188H126.646V91.1523H112.027Z" fill="white"/>
</mask>
<g mask="url(#mask23_6035_2047)">
<path d="M112.027 65.6195H126.646V91.1523H112.027V65.6195Z" fill="url(#paint7_linear_6035_2047)"/>
</g>
</g>
</g>
<path d="M105.799 105.373C107.916 102.789 109.641 98.3953 111.992 91.1582C109.279 94.8883 106.551 98.0928 103.811 100.709C103.807 100.716 103.807 100.723 103.801 100.732C104.399 102.518 105.054 104.098 105.799 105.373Z" fill="#079AE1"/>
<path d="M105.799 105.374C105.079 106.255 104.317 106.922 103.467 107.418L102.902 107.722C103.823 108.219 104.831 108.536 105.871 108.657H105.878L106.363 108.701H106.393L106.619 108.711H106.652L106.891 108.715L107.149 108.712L107.228 108.706L107.41 108.701L107.499 108.69L107.669 108.677C107.678 108.678 107.685 108.676 107.69 108.672L107.755 108.669L107.944 108.649C107.95 108.649 107.953 108.647 107.962 108.647L108.018 108.637L108.221 108.608C108.242 108.608 108.26 108.602 108.283 108.6L108.511 108.562H108.523L108.543 108.556L108.999 108.46C107.744 108.006 106.694 106.915 105.787 105.373" fill="#1969BC"/>
<path d="M87.8711 108.713C88.7951 108.711 89.7169 108.623 90.6244 108.449C91.4969 108.283 92.3554 108.051 93.1922 107.754C93.9078 108.105 94.6653 108.364 95.4464 108.524C96.0811 108.652 96.7271 108.716 97.3746 108.713H87.8711Z" fill="#1E5CB3"/>
<path d="M97.3665 108.715C99.6156 108.715 101.395 108.45 102.908 107.723C103.828 108.222 104.836 108.54 105.876 108.658H105.883L106.368 108.701H106.398L106.626 108.712H106.657L106.897 108.716H97.3594L97.3665 108.715Z" fill="#1E5CB3"/>
<path d="M106.905 108.713L107.162 108.709L107.242 108.704L107.423 108.697L107.513 108.686L107.683 108.675C107.692 108.675 107.695 108.675 107.703 108.672C107.726 108.672 107.746 108.666 107.77 108.666L107.958 108.645L107.974 108.643L108.031 108.634L108.235 108.604C108.255 108.603 108.276 108.601 108.296 108.597L108.523 108.559H108.534L108.558 108.553L109.013 108.457C109.459 108.621 109.93 108.703 110.404 108.7L106.898 108.71L106.905 108.713Z" fill="#1D60B5"/>
<path d="M103.809 100.734L103.806 100.721L100.801 103.35L99.2344 104.526L100.591 106C101.305 106.693 102.065 107.276 102.903 107.728L103.468 107.424C104.318 106.928 105.081 106.26 105.8 105.381C105.057 104.104 104.401 102.526 103.804 100.74" fill="#175FAB"/>
<mask id="mask24_6035_2047" style="mask-type:luminance" maskUnits="userSpaceOnUse" x="105" y="64" width="33" height="45">
<path d="M133.595 64.6755H128.863C128.704 64.6765 128.547 64.6784 128.391 64.6812L127.946 64.6862H127.936L127.038 64.7287L126.613 65.623C121.922 75.6159 116.996 84.2738 111.994 91.1565C109.641 98.3943 107.917 102.787 105.801 105.371C106.706 106.914 107.757 107.999 109.011 108.461C109.048 108.449 109.076 108.444 109.108 108.438C109.115 108.433 109.122 108.432 109.129 108.433C109.15 108.429 109.174 108.42 109.196 108.418C109.248 108.406 109.303 108.395 109.352 108.377L109.447 108.353C109.493 108.34 109.544 108.328 109.588 108.317C109.616 108.304 109.644 108.298 109.675 108.291C109.748 108.267 109.814 108.252 109.884 108.229C109.915 108.215 109.949 108.204 109.987 108.195C110.026 108.181 110.067 108.17 110.103 108.153C110.145 108.14 110.186 108.131 110.223 108.115C110.257 108.105 110.29 108.093 110.322 108.078C110.404 108.049 110.484 108.024 110.568 107.993C110.59 107.985 110.611 107.973 110.634 107.968C110.684 107.947 110.736 107.933 110.776 107.909C110.796 107.902 110.817 107.893 110.847 107.886C111.023 107.814 111.199 107.739 111.373 107.662C111.635 107.545 111.894 107.421 112.149 107.29C120.283 102.746 124.388 87.4823 137.153 64.6784H133.588L133.595 64.6755Z" fill="white"/>
</mask>
<g mask="url(#mask24_6035_2047)">
<mask id="mask25_6035_2047" style="mask-type:luminance" maskUnits="userSpaceOnUse" x="105" y="64" width="33" height="45">
<path d="M137.141 108.465H105.785V64.6724H137.141V108.465Z" fill="white"/>
</mask>
<g mask="url(#mask25_6035_2047)">
<mask id="mask26_6035_2047" style="mask-type:luminance" maskUnits="userSpaceOnUse" x="105" y="64" width="33" height="45">
<path d="M137.141 64.6782V108.471H105.785V64.6782H137.141Z" fill="white"/>
</mask>
<g mask="url(#mask26_6035_2047)">
<path d="M137.141 108.465H105.785V64.6724H137.141V108.465Z" fill="url(#paint8_linear_6035_2047)"/>
</g>
</g>
</g>
</g>
</g>
<defs>
<filter id="filter0_d_6035_2047" x="0" y="0" width="178" height="178" filterUnits="userSpaceOnUse" color-interpolation-filters="sRGB">
<feFlood flood-opacity="0" result="BackgroundImageFix"/>
<feColorMatrix in="SourceAlpha" type="matrix" values="0 0 0 0 0 0 0 0 0 0 0 0 0 0 0 0 0 0 127 0" result="hardAlpha"/>
<feOffset dx="7" dy="3"/>
<feGaussianBlur stdDeviation="7.5"/>
<feComposite in2="hardAlpha" operator="out"/>
<feColorMatrix type="matrix" values="0 0 0 0 0.188235 0 0 0 0 0.188235 0 0 0 0 0.188235 0 0 0 0.25 0"/>
<feBlend mode="normal" in2="BackgroundImageFix" result="effect1_dropShadow_6035_2047"/>
<feBlend mode="normal" in="SourceGraphic" in2="effect1_dropShadow_6035_2047" result="shape"/>
</filter>
<linearGradient id="paint0_linear_6035_2047" x1="3755.88" y1="-14918.4" x2="3755.88" y2="-12146.7" gradientUnits="userSpaceOnUse">
<stop stop-color="#0994DC"/>
<stop offset="0.11" stop-color="#0994DC"/>
<stop offset="0.35" stop-color="#66CEF5"/>
<stop offset="0.45" stop-color="#66CEF5"/>
<stop offset="0.846" stop-color="#127BCA"/>
<stop offset="1" stop-color="#127BCA"/>
</linearGradient>
<linearGradient id="paint1_linear_6035_2047" x1="4005.73" y1="-15371.3" x2="4005.73" y2="-12456.5" gradientUnits="userSpaceOnUse">
<stop stop-color="#0E76BC"/>
<stop offset="0.176" stop-color="#0E76BC"/>
<stop offset="0.36" stop-color="#36AEE8"/>
<stop offset="0.52" stop-color="#36AEE8"/>
<stop offset="0.846" stop-color="#00ADEF"/>
<stop offset="1" stop-color="#00ADEF"/>
</linearGradient>
<linearGradient id="paint2_linear_6035_2047" x1="4013.13" y1="-16274.1" x2="4013.13" y2="-13132" gradientUnits="userSpaceOnUse">
<stop stop-color="#166AB8"/>
<stop offset="0.099" stop-color="#166AB8"/>
<stop offset="0.4" stop-color="#36AEE8"/>
<stop offset="0.516" stop-color="#36AEE8"/>
<stop offset="0.846" stop-color="#0798DD"/>
<stop offset="1" stop-color="#0798DD"/>
</linearGradient>
<linearGradient id="paint3_linear_6035_2047" x1="5001.87" y1="-17293" x2="5001.87" y2="-13740.2" gradientUnits="userSpaceOnUse">
<stop stop-color="#124379"/>
<stop offset="0.11" stop-color="#124379"/>
<stop offset="0.39" stop-color="#1487CB"/>
<stop offset="0.52" stop-color="#1487CB"/>
<stop offset="0.78" stop-color="#165197"/>
<stop offset="1" stop-color="#165197"/>
</linearGradient>
<linearGradient id="paint4_linear_6035_2047" x1="3021" y1="-11582.2" x2="3021" y2="-13629.8" gradientUnits="userSpaceOnUse">
<stop stop-color="#318ED5"/>
<stop offset="0.675" stop-color="#38A7E4"/>
<stop offset="1" stop-color="#38A7E4"/>
</linearGradient>
<linearGradient id="paint5_linear_6035_2047" x1="3406.12" y1="-12601.1" x2="3406.12" y2="-14448.6" gradientUnits="userSpaceOnUse">
<stop stop-color="#1959A6"/>
<stop offset="0.154" stop-color="#1959A6"/>
<stop offset="0.484" stop-color="#05A1E6"/>
<stop offset="0.5" stop-color="#05A1E6"/>
<stop offset="0.918" stop-color="#7EC5EA"/>
<stop offset="1" stop-color="#7EC5EA"/>
</linearGradient>
<linearGradient id="paint6_linear_6035_2047" x1="6936.1" y1="-19488.3" x2="6315.19" y2="-22516.5" gradientUnits="userSpaceOnUse">
<stop stop-color="#165096"/>
<stop offset="0.104" stop-color="#165096"/>
<stop offset="1" stop-color="#0D82CA"/>
</linearGradient>
<linearGradient id="paint7_linear_6035_2047" x1="3562.97" y1="-9763.59" x2="3562.97" y2="-10502.3" gradientUnits="userSpaceOnUse">
<stop stop-color="#05A1E6"/>
<stop offset="0.649" stop-color="#05A1E6"/>
<stop offset="0.874" stop-color="#0495D6"/>
<stop offset="1" stop-color="#0495D6"/>
</linearGradient>
<linearGradient id="paint8_linear_6035_2047" x1="7601.91" y1="-18074.7" x2="7601.91" y2="-15310.6" gradientUnits="userSpaceOnUse">
<stop stop-color="#168CD4"/>
<stop offset="0.5" stop-color="#1C87CC"/>
<stop offset="1" stop-color="#154B8D"/>
</linearGradient>
<clipPath id="clip0_6035_2047">
<rect width="123.25" height="61.1157" fill="white" transform="translate(20.6836 55.8848)"/>
</clipPath>
</defs>
</svg>
