<svg width="148" height="148" viewBox="0 0 148 148" fill="none" xmlns="http://www.w3.org/2000/svg">
<circle cx="74" cy="74" r="73.5" stroke="#FABA0B"/>
<path d="M48.3947 85.7175L55.862 37.1492C56.1189 35.497 58.3039 35.106 59.0782 36.5857L67.0975 51.8309L48.3947 85.7175ZM101.448 97.5242L94.3295 52.7892C94.281 52.4756 94.1466 52.1815 93.9414 51.9394C93.7361 51.6973 93.4679 51.5167 93.1664 51.4176C92.865 51.3184 92.5419 51.3045 92.233 51.3774C91.9241 51.4504 91.6415 51.6073 91.4162 51.8309L46.5547 97.5242L71.387 111.677C72.928 112.551 74.86 112.551 76.4049 111.677L101.448 97.5242ZM81.2962 58.497L75.5462 47.388C75.4054 47.1054 75.1885 46.8677 74.92 46.7015C74.6515 46.5353 74.342 46.4473 74.0263 46.4473C73.7105 46.4473 73.401 46.5353 73.1325 46.7015C72.864 46.8677 72.6472 47.1054 72.5064 47.388L47.2447 93.1235L81.2962 58.497Z" fill="#202020"/>
</svg>
