<svg width="178" height="178" viewBox="0 0 178 178" fill="none" xmlns="http://www.w3.org/2000/svg">
<g filter="url(#filter0_d_6035_1960)">
<circle cx="82" cy="86" r="74" fill="#F4F2ED"/>
<g clip-path="url(#clip0_6035_1960)">
<path d="M53.6484 109.934L63.2491 48.5008C63.3066 48.1337 63.478 47.7939 63.7391 47.5294C64.0002 47.265 64.3377 47.0892 64.7041 47.027C65.0705 46.9648 65.4472 47.0192 65.7809 47.1826C66.1147 47.3461 66.3886 47.6102 66.5641 47.9378L76.4933 66.4567L80.4506 58.9212C80.601 58.6353 80.8267 58.396 81.1033 58.2291C81.3798 58.0621 81.6967 57.9739 82.0197 57.9739C82.3427 57.9739 82.6596 58.0621 82.9362 58.2291C83.2127 58.396 83.4384 58.6353 83.5889 58.9212L110.383 109.934H53.6484Z" fill="#FFA000"/>
<path d="M86.8161 86.0033L76.4884 66.4473L53.6484 109.934L86.8161 86.0033Z" fill="#F57C00"/>
<path d="M110.383 109.933L103.03 64.4298C102.975 64.1091 102.834 63.8094 102.621 63.5637C102.407 63.318 102.131 63.1357 101.821 63.0368C101.511 62.9381 101.18 62.9265 100.864 63.0032C100.548 63.0799 100.259 63.2421 100.029 63.4719L53.6484 109.932L79.3123 124.325C80.1048 124.767 80.9975 124.999 81.9052 124.999C82.8129 124.999 83.7055 124.767 84.498 124.325L110.383 109.933Z" fill="#FFCA28"/>
<path d="M103.03 64.4312C102.975 64.1105 102.834 63.8108 102.62 63.5651C102.407 63.3194 102.13 63.1371 101.821 63.0382C101.511 62.9394 101.18 62.9277 100.864 63.0043C100.548 63.081 100.259 63.243 100.029 63.4727L90.8232 72.7029L83.5844 58.9213C83.434 58.6354 83.2083 58.3961 82.9317 58.2292C82.6552 58.0622 82.3383 57.974 82.0153 57.974C81.6923 57.974 81.3754 58.0622 81.0988 58.2292C80.8223 58.3961 80.5966 58.6354 80.4461 58.9213L76.4889 66.4562L66.5597 47.9379C66.384 47.6099 66.1095 47.3454 65.7752 47.182C65.4409 47.0186 65.0636 46.9646 64.6968 47.0275C64.3303 47.0904 63.9929 47.2669 63.7322 47.5321C63.4715 47.7972 63.3007 48.1377 63.2441 48.5052L53.6483 109.934H53.6172L53.6477 109.97L53.9005 110.094L100.016 63.9254C100.246 63.6944 100.535 63.5313 100.851 63.454C101.168 63.3766 101.5 63.388 101.81 63.4869C102.121 63.5859 102.398 63.7685 102.612 64.0147C102.825 64.261 102.967 64.5613 103.021 64.8828L110.312 109.978L110.383 109.934L103.03 64.4312ZM53.7324 109.85L63.2484 48.9397C63.3049 48.572 63.4757 48.2313 63.7365 47.966C63.9973 47.7007 64.335 47.5241 64.7017 47.4613C65.0686 47.3985 65.4459 47.4527 65.7802 47.6162C66.1145 47.7797 66.3889 48.0442 66.5646 48.3724L76.4925 66.8913L80.4504 59.3557C80.6009 59.0699 80.8266 58.8306 81.1031 58.6637C81.3796 58.4967 81.6965 58.4085 82.0195 58.4085C82.3426 58.4085 82.6595 58.4967 82.936 58.6637C83.2125 58.8306 83.4382 59.0699 83.5887 59.3557L90.6806 72.8443L53.7311 109.85H53.7324Z" fill="white" fill-opacity="0.2"/>
<path opacity="0.2" d="M84.4993 123.89C83.7067 124.333 82.8141 124.565 81.9064 124.565C80.9987 124.565 80.1061 124.333 79.3135 123.89L53.7106 109.539L53.6484 109.934L79.3123 124.321C80.1049 124.763 80.9975 124.996 81.9052 124.996C82.8129 124.996 83.7055 124.763 84.498 124.321L110.384 109.934L110.317 109.525L84.498 123.891L84.4993 123.89Z" fill="#A52714"/>
</g>
</g>
<defs>
<filter id="filter0_d_6035_1960" x="0" y="0" width="185" height="178" filterUnits="userSpaceOnUse" color-interpolation-filters="sRGB">
<feFlood flood-opacity="0" result="BackgroundImageFix"/>
<feColorMatrix in="SourceAlpha" type="matrix" values="0 0 0 0 0 0 0 0 0 0 0 0 0 0 0 0 0 0 127 0" result="hardAlpha"/>
<feOffset dx="7" dy="3"/>
<feGaussianBlur stdDeviation="7.5"/>
<feComposite in2="hardAlpha" operator="out"/>
<feColorMatrix type="matrix" values="0 0 0 0 0.188235 0 0 0 0 0.188235 0 0 0 0 0.188235 0 0 0 0.25 0"/>
<feBlend mode="normal" in2="BackgroundImageFix" result="effect1_dropShadow_6035_1960"/>
<feBlend mode="normal" in="SourceGraphic" in2="effect1_dropShadow_6035_1960" result="shape"/>
</filter>
<clipPath id="clip0_6035_1960">
<rect width="78" height="78" fill="white" transform="translate(43 47)"/>
</clipPath>
</defs>
</svg>
