<svg width="178" height="178" viewBox="0 0 178 178" fill="none" xmlns="http://www.w3.org/2000/svg">
<g filter="url(#filter0_d_6035_1971)">
<rect x="8" y="12" width="148" height="148" rx="74" fill="#202020"/>
<path d="M81.9987 24.334C73.9005 24.334 65.8816 25.929 58.3999 29.0281C50.9181 32.1271 44.1201 36.6695 38.3938 42.3957C26.829 53.9605 20.332 69.6456 20.332 86.0006C20.332 113.257 38.0304 136.382 62.512 144.584C65.5954 145.077 66.582 143.166 66.582 141.501V131.079C49.5004 134.779 45.862 122.816 45.862 122.816C43.0254 115.662 39.017 113.751 39.017 113.751C33.4054 109.927 39.4487 110.051 39.4487 110.051C45.6154 110.482 48.8837 116.402 48.8837 116.402C54.2487 125.776 63.3137 123.001 66.8287 121.521C67.3837 117.512 68.987 114.799 70.7137 113.257C57.0237 111.716 42.6554 106.412 42.6554 82.9173C42.6554 76.0723 44.9987 70.584 49.007 66.2057C48.3904 64.664 46.232 58.2507 49.6237 49.9257C49.6237 49.9257 54.8037 48.2607 66.582 56.2157C71.4537 54.859 76.757 54.1807 81.9987 54.1807C87.2404 54.1807 92.5437 54.859 97.4154 56.2157C109.194 48.2607 114.374 49.9257 114.374 49.9257C117.765 58.2507 115.607 64.664 114.99 66.2057C118.999 70.584 121.342 76.0723 121.342 82.9173C121.342 106.474 106.912 111.654 93.1604 113.196C95.3804 115.107 97.4154 118.869 97.4154 124.604V141.501C97.4154 143.166 98.402 145.139 101.547 144.584C126.029 136.321 143.665 113.257 143.665 86.0006C143.665 77.9025 142.07 69.8836 138.971 62.4018C135.872 54.9201 131.33 48.122 125.604 42.3957C119.877 36.6695 113.079 32.1271 105.598 29.0281C98.1158 25.929 90.0969 24.334 81.9987 24.334Z" fill="#F1F1F1"/>
</g>
<defs>
<filter id="filter0_d_6035_1971" x="0" y="0" width="178" height="178" filterUnits="userSpaceOnUse" color-interpolation-filters="sRGB">
<feFlood flood-opacity="0" result="BackgroundImageFix"/>
<feColorMatrix in="SourceAlpha" type="matrix" values="0 0 0 0 0 0 0 0 0 0 0 0 0 0 0 0 0 0 127 0" result="hardAlpha"/>
<feOffset dx="7" dy="3"/>
<feGaussianBlur stdDeviation="7.5"/>
<feComposite in2="hardAlpha" operator="out"/>
<feColorMatrix type="matrix" values="0 0 0 0 0.188235 0 0 0 0 0.188235 0 0 0 0 0.188235 0 0 0 0.25 0"/>
<feBlend mode="normal" in2="BackgroundImageFix" result="effect1_dropShadow_6035_1971"/>
<feBlend mode="normal" in="SourceGraphic" in2="effect1_dropShadow_6035_1971" result="shape"/>
</filter>
</defs>
</svg>
