<svg width="148" height="148" viewBox="0 0 148 148" fill="none" xmlns="http://www.w3.org/2000/svg">
<path d="M90.1755 84.77C91.8913 83.523 94.5448 82.4306 94.5448 82.4306C94.5448 82.4306 87.3673 83.6776 80.0448 84.4606C71.1515 84.9246 61.6395 85.234 56.8062 84.4606C45.4237 82.8946 62.8817 78.6896 62.8817 78.6896C62.8817 78.6896 56.0183 78.2208 47.444 82.4306C37.7773 87.1093 72.239 89.294 90.1707 84.77M74.269 78.535C70.5232 70.4246 58.5123 63.4066 74.269 51.0865C93.757 35.4941 83.6215 25.668 83.6215 25.668C87.8313 41.7291 69.2762 46.5625 62.727 56.3886C58.203 62.9378 65.0712 70.2651 74.269 78.535ZM95.7822 45.475C95.7822 45.475 62.5675 53.8946 78.4692 71.981C83.1478 77.2831 77.2222 82.1213 77.2222 82.1213C77.2222 82.1213 89.0735 76.0361 83.6167 68.24C78.6287 61.0673 74.5735 57.481 95.7822 45.475ZM94.6898 96.312C94.5352 96.4666 94.5352 96.4666 94.5352 96.776C118.702 90.3863 109.973 74.1656 98.2762 78.3755C97.9421 78.46 97.6299 78.615 97.3607 78.8301C97.0914 79.0451 96.8713 79.3153 96.715 79.6225C97.3433 79.4678 97.962 79.1536 98.8997 78.999C104.361 77.9066 112.781 86.9546 94.6898 96.312ZM103.424 108.163C103.424 108.163 106.072 110.343 100.301 112.059C89.3877 115.336 54.926 116.269 45.2545 112.218C41.6682 110.657 48.3768 108.473 50.2473 108.004C52.4272 107.54 53.5195 107.849 53.5195 107.849C49.7785 105.2 28.7245 113.151 42.9152 115.336C81.7462 121.885 113.559 112.837 103.424 108.163ZM61.3157 100.362C46.661 104.577 70.3637 113.151 89.233 105.041C87.3915 104.315 85.6173 103.429 83.9308 102.392C75.3517 104.108 71.6058 104.108 63.9692 103.325C57.5747 102.552 61.3157 100.362 61.3157 100.362ZM95.3133 118.768C80.6538 121.416 61.9392 121.102 51.185 119.391C51.185 119.391 53.3648 121.107 64.7473 122.04C82.0603 123.132 108.876 121.416 109.504 112.997C109.504 112.997 108.412 116.428 95.3133 118.768ZM86.8937 92.2568C75.6658 94.4366 69.1167 94.4366 61.0063 93.5038C54.6118 92.8755 58.8217 89.7628 58.8217 89.7628C42.6058 95.2196 67.8648 101.459 90.9488 94.5961C89.5472 94.1273 88.2953 93.3491 86.8888 92.2568" fill="#202020"/>
</svg>
