<svg width="148" height="148" viewBox="0 0 148 148" fill="none" xmlns="http://www.w3.org/2000/svg">
<circle cx="74" cy="74" r="74" fill="white"/>
<path d="M60.1754 102.79C60.1754 102.79 56.1532 105.13 63.0416 105.92C71.388 106.873 75.6531 106.737 84.8483 104.999C84.8483 104.999 87.2707 106.513 90.6474 107.826C70.027 116.66 43.9813 107.314 60.1754 102.79ZM57.6543 91.2598C57.6543 91.2598 53.1419 94.6002 60.0362 95.314C68.9521 96.2345 75.9915 96.3096 88.1786 93.964C88.1786 93.964 89.8602 95.6726 92.5087 96.6058C67.5827 103.896 39.8199 97.1795 57.6543 91.2598Z" fill="#0074BD"/>
<path d="M78.6345 72.1075C83.6919 77.7728 77.3083 82.8663 77.3083 82.8663C77.3083 82.8663 90.1418 76.42 84.2492 68.344C78.7436 60.8161 74.5232 57.0771 97.3731 44.1797C97.3731 44.1805 61.505 52.8962 78.6345 72.1075Z" fill="#EA2D2E"/>
<path d="M106.165 111.319C106.165 111.319 109.142 113.774 102.884 115.672C90.9858 119.276 53.3511 120.363 42.8988 115.816C39.1432 114.181 46.1885 111.914 48.4051 111.435C50.7161 110.935 52.0357 111.026 52.0357 111.026C47.8566 108.084 25.0248 116.806 40.4401 119.307C82.4765 126.122 117.067 116.239 106.165 111.319ZM62.1118 79.3112C62.1118 79.3112 42.9705 83.8582 55.334 85.5111C60.5551 86.2097 70.9585 86.0494 80.6557 85.236C88.5786 84.5703 96.5292 83.1486 96.5292 83.1486C96.5292 83.1486 93.7381 84.3459 91.7165 85.7246C72.2748 90.8385 34.7262 88.4566 45.5372 83.2287C54.6767 78.8083 62.1118 79.3112 62.1118 79.3112ZM96.4499 98.504C116.211 88.2381 107.074 78.3721 100.696 79.701C99.1364 80.0259 98.4369 80.3085 98.4369 80.3085C98.4369 80.3085 99.0174 79.3981 100.124 79.0066C112.741 74.5727 122.442 92.0873 96.055 99.0246C96.055 99.0229 96.3579 98.7487 96.4499 98.504Z" fill="#0074BD"/>
<path d="M84.8671 23.2246C84.8671 23.2246 95.9094 33.4565 74.3912 49.1853C57.1348 61.8065 70.4564 69.001 74.3852 77.2246C64.3112 68.8086 56.9219 61.3988 61.8785 54.5032C69.157 44.3832 89.3213 39.4746 84.8671 23.2246Z" fill="#EA2D2E"/>
<path d="M64.0537 126.331C83.0179 127.543 112.147 125.656 112.837 116.682C112.837 116.682 111.511 120.084 97.1625 122.783C80.9743 125.83 61.0044 125.475 49.1641 123.52C49.1641 123.521 51.5898 125.529 64.0537 126.331Z" fill="#0074BD"/>
</svg>
