<svg width="178" height="178" viewBox="0 0 178 178" fill="none" xmlns="http://www.w3.org/2000/svg">
<g filter="url(#filter0_d_6035_1834)">
<circle cx="82" cy="86" r="74" fill="white"/>
<path d="M68.1754 114.79C68.1754 114.79 64.1532 117.13 71.0416 117.92C79.388 118.873 83.6531 118.737 92.8483 116.999C92.8483 116.999 95.2707 118.513 98.6474 119.826C78.027 128.66 51.9813 119.314 68.1754 114.79ZM65.6543 103.26C65.6543 103.26 61.1419 106.6 68.0362 107.314C76.9521 108.235 83.9915 108.31 96.1786 105.964C96.1786 105.964 97.8602 107.673 100.509 108.606C75.5827 115.896 47.8199 109.18 65.6543 103.26Z" fill="#0074BD"/>
<path d="M86.6345 84.1075C91.6919 89.7728 85.3083 94.8663 85.3083 94.8663C85.3083 94.8663 98.1418 88.42 92.2492 80.344C86.7436 72.8161 82.5232 69.0771 105.373 56.1797C105.373 56.1805 69.505 64.8962 86.6345 84.1075Z" fill="#EA2D2E"/>
<path d="M114.165 123.319C114.165 123.319 117.142 125.774 110.884 127.672C98.9858 131.276 61.3511 132.363 50.8988 127.816C47.1432 126.181 54.1885 123.914 56.4051 123.435C58.7161 122.935 60.0357 123.026 60.0357 123.026C55.8566 120.084 33.0248 128.806 48.4401 131.307C90.4766 138.122 125.067 128.239 114.165 123.319ZM70.1118 91.3112C70.1118 91.3112 50.9705 95.8582 63.334 97.5111C68.5551 98.2097 78.9585 98.0494 88.6557 97.236C96.5786 96.5703 104.529 95.1486 104.529 95.1486C104.529 95.1486 101.738 96.3459 99.7165 97.7246C80.2748 102.839 42.7262 100.457 53.5372 95.2287C62.6767 90.8083 70.1118 91.3112 70.1118 91.3112ZM104.45 110.504C124.211 100.238 115.074 90.3721 108.696 91.701C107.136 92.0259 106.437 92.3085 106.437 92.3085C106.437 92.3085 107.017 91.3981 108.124 91.0066C120.741 86.5727 130.442 104.087 104.055 111.025C104.055 111.023 104.358 110.749 104.45 110.504Z" fill="#0074BD"/>
<path d="M92.8671 35.2246C92.8671 35.2246 103.909 45.4565 82.3912 61.1853C65.1348 73.8065 78.4564 81.001 82.3852 89.2246C72.3112 80.8086 64.9219 73.3988 69.8785 66.5032C77.1571 56.3832 97.3213 51.4746 92.8671 35.2246Z" fill="#EA2D2E"/>
<path d="M72.0537 138.331C91.0178 139.543 120.147 137.656 120.837 128.682C120.837 128.682 119.511 132.084 105.162 134.783C88.9743 137.83 69.0044 137.475 57.1641 135.52C57.1641 135.521 59.5898 137.529 72.0537 138.331Z" fill="#0074BD"/>
</g>
<defs>
<filter id="filter0_d_6035_1834" x="0" y="0" width="178" height="178" filterUnits="userSpaceOnUse" color-interpolation-filters="sRGB">
<feFlood flood-opacity="0" result="BackgroundImageFix"/>
<feColorMatrix in="SourceAlpha" type="matrix" values="0 0 0 0 0 0 0 0 0 0 0 0 0 0 0 0 0 0 127 0" result="hardAlpha"/>
<feOffset dx="7" dy="3"/>
<feGaussianBlur stdDeviation="7.5"/>
<feComposite in2="hardAlpha" operator="out"/>
<feColorMatrix type="matrix" values="0 0 0 0 0.188235 0 0 0 0 0.188235 0 0 0 0 0.188235 0 0 0 0.25 0"/>
<feBlend mode="normal" in2="BackgroundImageFix" result="effect1_dropShadow_6035_1834"/>
<feBlend mode="normal" in="SourceGraphic" in2="effect1_dropShadow_6035_1834" result="shape"/>
</filter>
</defs>
</svg>
