<svg width="150" height="150" viewBox="0 0 150 150" fill="none" xmlns="http://www.w3.org/2000/svg">
<circle cx="75" cy="75" r="74.5" stroke="#FABA0B"/>
<path d="M91.1755 85.77C92.8913 84.523 95.5448 83.4306 95.5448 83.4306C95.5448 83.4306 88.3673 84.6776 81.0448 85.4606C72.1515 85.9246 62.6395 86.234 57.8062 85.4606C46.4237 83.8946 63.8817 79.6896 63.8817 79.6896C63.8817 79.6896 57.0183 79.2208 48.444 83.4306C38.7773 88.1093 73.239 90.294 91.1707 85.77M75.269 79.535C71.5232 71.4246 59.5123 64.4066 75.269 52.0865C94.757 36.4941 84.6215 26.668 84.6215 26.668C88.8313 42.7291 70.2762 47.5625 63.727 57.3886C59.203 63.9378 66.0712 71.2651 75.269 79.535ZM96.7822 46.475C96.7822 46.475 63.5675 54.8946 79.4692 72.981C84.1478 78.2831 78.2222 83.1213 78.2222 83.1213C78.2222 83.1213 90.0735 77.0361 84.6167 69.24C79.6287 62.0673 75.5735 58.481 96.7822 46.475ZM95.6898 97.312C95.5352 97.4666 95.5352 97.4666 95.5352 97.776C119.702 91.3863 110.973 75.1656 99.2762 79.3755C98.9421 79.46 98.6299 79.615 98.3607 79.8301C98.0914 80.0451 97.8713 80.3153 97.715 80.6225C98.3433 80.4678 98.962 80.1536 99.8997 79.999C105.361 78.9066 113.781 87.9546 95.6898 97.312ZM104.424 109.163C104.424 109.163 107.072 111.343 101.301 113.059C90.3877 116.336 55.926 117.269 46.2545 113.218C42.6682 111.657 49.3768 109.473 51.2473 109.004C53.4272 108.54 54.5195 108.849 54.5195 108.849C50.7785 106.2 29.7245 114.151 43.9152 116.336C82.7462 122.885 114.559 113.837 104.424 109.163ZM62.3157 101.362C47.661 105.577 71.3637 114.151 90.233 106.041C88.3915 105.315 86.6173 104.429 84.9308 103.392C76.3517 105.108 72.6058 105.108 64.9692 104.325C58.5747 103.552 62.3157 101.362 62.3157 101.362ZM96.3133 119.768C81.6538 122.416 62.9392 122.102 52.185 120.391C52.185 120.391 54.3648 122.107 65.7473 123.04C83.0603 124.132 109.876 122.416 110.504 113.997C110.504 113.997 109.412 117.428 96.3133 119.768ZM87.8937 93.2568C76.6658 95.4366 70.1167 95.4366 62.0063 94.5038C55.6118 93.8755 59.8217 90.7628 59.8217 90.7628C43.6058 96.2196 68.8648 102.459 91.9488 95.5961C90.5472 95.1273 89.2953 94.3491 87.8888 93.2568" fill="#202020"/>
</svg>
