<svg width="148" height="148" viewBox="0 0 148 148" fill="none" xmlns="http://www.w3.org/2000/svg">
<path d="M147.365 74C147.365 114.593 114.487 147.5 73.9323 147.5C33.3772 147.5 0.5 114.593 0.5 74C0.5 33.4066 33.3772 0.5 73.9323 0.5C114.487 0.5 147.365 33.4066 147.365 74Z" stroke="#FABA0B"/>
<g clip-path="url(#clip0_6035_1981)">
<path d="M74.1881 123.252L46.1236 115.354L40.5075 46.63L107.358 46.7677L101.419 115.357L74.1881 123.252Z" fill="#404040" stroke="#636262"/>
<path d="M74.1914 117.05V52.7598L102.169 52.853L97.1796 110.373L74.1914 117.05Z" fill="#636262"/>
<path d="M71.1931 60.3926H63.7967V103.182L58.0439 102.085V96.325L51.1953 95.2279V108.12L71.1931 113.331V60.3926ZM76.7416 60.3926H97.2177L95.848 68.594H84.5582V82.0525H95.848L94.4782 109.217L76.7416 113.331V104.828L88.7255 100.714L89.4174 89.4677L76.7416 91.3055V60.3926Z" fill="white"/>
</g>
<defs>
<clipPath id="clip0_6035_1981">
<rect width="67.9378" height="77.9029" fill="white" transform="translate(39.9648 46)"/>
</clipPath>
</defs>
</svg>
