<svg width="148" height="148" viewBox="0 0 148 148" fill="none" xmlns="http://www.w3.org/2000/svg">
<circle cx="74" cy="74" r="74" fill="white"/>
<g clip-path="url(#clip0_6043_1791)">
<rect width="66.5424" height="76.233" transform="translate(41 42)" fill="white"/>
<path d="M74.5203 117.585L47.0418 109.86L41.5427 42.6281L106.997 42.7627L101.182 109.862L74.5203 117.585Z" fill="#FFD448" stroke="#FFDE25"/>
<path d="M74.5234 111.527V48.6152L101.926 48.7065L97.0394 104.993L74.5234 111.527Z" fill="#FFDE25"/>
<path d="M71.5871 56.084H64.3425V97.9566L58.7079 96.8829V91.2462L52 90.1726V102.788L71.5871 107.888V56.084ZM77.0215 56.084H97.0771L95.7355 64.1096H84.6777V77.2796H95.7355L94.3939 103.862L77.0215 107.888V99.5671L88.7593 95.5408L89.4371 84.5359L77.0215 86.3342V56.084Z" fill="#FABA0B"/>
</g>
<defs>
<clipPath id="clip0_6043_1791">
<rect width="66.5424" height="76.233" fill="white" transform="translate(41 42)"/>
</clipPath>
</defs>
</svg>
