<svg width="148" height="148" viewBox="0 0 148 148" fill="none" xmlns="http://www.w3.org/2000/svg">
<path d="M80.8346 69.9013L96.2096 78.443M80.8346 69.9013L51.793 85.9596M80.8346 69.9013V52.818M36.418 44.9596L51.793 36.418L67.168 44.9596M36.418 44.9596V94.5013L67.168 111.585M36.418 44.9596L51.793 53.5013M67.168 111.585L96.2096 95.5263V61.3596M67.168 111.585V94.5013M96.2096 61.3596L111.585 52.818M96.2096 61.3596L80.8346 52.818M111.585 52.818V69.9013L67.168 94.5013M111.585 52.818L96.2096 44.2763L80.8346 52.818M67.168 94.5013L51.793 85.9596M51.793 85.9596V53.5013M51.793 53.5013L67.168 44.9596M67.168 44.9596V77.418" stroke="#202020" stroke-width="4" stroke-linecap="round" stroke-linejoin="round"/>
<circle cx="74" cy="74" r="73.5" stroke="#FABA0B"/>
</svg>
