<svg width="178" height="178" viewBox="0 0 178 178" fill="none" xmlns="http://www.w3.org/2000/svg">
<g filter="url(#filter0_d_6035_2036)">
<circle cx="82" cy="86" r="74" fill="#FF2D20"/>
<g clip-path="url(#clip0_6035_2036)">
<path d="M88.9831 82.0478L104.358 90.5894M88.9831 82.0478L59.9414 98.1061M88.9831 82.0478V64.9644M44.5664 57.1061L59.9414 48.5645L75.3164 57.1061M44.5664 57.1061V106.648L75.3164 123.731M44.5664 57.1061L59.9414 65.6478M75.3164 123.731L104.358 107.673V73.5061M75.3164 123.731V106.648M104.358 73.5061L119.733 64.9644M104.358 73.5061L88.9831 64.9644M119.733 64.9644V82.0478L75.3164 106.648M119.733 64.9644L104.358 56.4228L88.9831 64.9644M75.3164 106.648L59.9414 98.1061M59.9414 98.1061V65.6478M59.9414 65.6478L75.3164 57.1061M75.3164 57.1061V89.5644" stroke="#F1F1F1" stroke-width="6" stroke-linecap="round" stroke-linejoin="round"/>
</g>
</g>
<defs>
<filter id="filter0_d_6035_2036" x="0" y="0" width="178" height="178" filterUnits="userSpaceOnUse" color-interpolation-filters="sRGB">
<feFlood flood-opacity="0" result="BackgroundImageFix"/>
<feColorMatrix in="SourceAlpha" type="matrix" values="0 0 0 0 0 0 0 0 0 0 0 0 0 0 0 0 0 0 127 0" result="hardAlpha"/>
<feOffset dx="7" dy="3"/>
<feGaussianBlur stdDeviation="7.5"/>
<feComposite in2="hardAlpha" operator="out"/>
<feColorMatrix type="matrix" values="0 0 0 0 0.188235 0 0 0 0 0.188235 0 0 0 0 0.188235 0 0 0 0.25 0"/>
<feBlend mode="normal" in2="BackgroundImageFix" result="effect1_dropShadow_6035_2036"/>
<feBlend mode="normal" in="SourceGraphic" in2="effect1_dropShadow_6035_2036" result="shape"/>
</filter>
<clipPath id="clip0_6035_2036">
<rect width="82" height="82" fill="white" transform="translate(41 45)"/>
</clipPath>
</defs>
</svg>
