<svg width="178" height="178" viewBox="0 0 178 178" fill="none" xmlns="http://www.w3.org/2000/svg">
<g filter="url(#filter0_d_6035_2702)">
<circle cx="82" cy="86" r="74" fill="white"/>
</g>
<path d="M29 108.619H32.5129V94.7508L37.9504 106.84C38.5905 108.306 39.4675 108.82 41.1917 108.82C42.9158 108.82 43.7572 108.306 44.3973 106.84L49.8348 94.7508V108.619H53.3477V94.774C53.3477 93.4217 52.8078 92.7683 51.6915 92.4321C49.0224 91.6007 47.2337 92.3186 46.4221 94.1206L41.0881 106.054L35.9223 94.1206C35.1463 92.3186 33.322 91.6007 30.6563 92.4321C29.5399 92.7683 29 93.4217 29 94.774V108.619ZM56.2702 97.3296H59.7798V104.971C59.7475 105.385 59.9123 106.359 61.8368 106.391H69.4746V97.2907H72.9941C73.0107 97.2907 72.9875 109.699 72.9875 109.751C73.0066 112.811 69.1931 113.475 67.4333 113.527H56.3447V111.165L67.4532 111.162C69.7139 110.926 69.4456 109.8 69.4456 109.424V108.503H61.9826C58.5086 108.47 56.2991 106.953 56.2702 105.209C56.2668 105.051 56.3447 97.4075 56.2702 97.3296Z" fill="#00618A"/>
<path d="M75.6992 108.619H85.7982C86.9791 108.619 88.1277 108.369 89.0395 107.943C90.5599 107.247 91.3003 106.3 91.3003 105.061V102.496C91.3003 101.483 90.4589 100.535 88.8026 99.9077C87.9257 99.5682 86.8425 99.3901 85.7974 99.3901H81.54C80.1231 99.3901 79.4473 98.9628 79.2792 98.0188C79.2469 97.9053 79.2469 97.815 79.2469 97.7016V96.1033C79.2469 96.013 79.2469 95.9219 79.2792 95.8093C79.4473 95.0913 79.8191 94.8876 81.068 94.7742L81.4075 94.7518H91.4352V92.4132H81.5764C80.1595 92.4132 79.4158 92.5034 78.7393 92.7047C76.6466 93.3581 75.734 94.3932 75.734 96.1952V98.2432C75.734 99.8183 77.5228 101.171 80.528 101.484L81.5408 101.53H85.1895C85.3253 101.53 85.4578 101.53 85.5614 101.552C86.6744 101.643 87.1464 101.846 87.4859 102.251C87.6607 102.413 87.7609 102.643 87.7542 102.879V104.93C87.7542 105.176 87.5861 105.493 87.2499 105.762C86.946 106.033 86.4383 106.211 85.7651 106.257L85.3933 106.279H75.6992V108.619ZM113.211 104.543C113.211 106.953 115.003 108.302 118.613 108.573L119.629 108.619H128.78V106.277H119.561C117.5 106.277 116.724 105.759 116.724 104.52V92.4082H113.214V104.542L113.211 104.543ZM93.5428 104.665V96.3161C93.5428 94.197 95.0343 92.9101 97.9774 92.5051C98.2915 92.4598 98.6084 92.4371 98.9256 92.4372H105.59C105.929 92.4372 106.233 92.4596 106.573 92.5051C109.517 92.9092 111.006 94.197 111.006 96.3161V104.665C111.006 106.386 110.374 107.305 108.916 107.907L112.378 111.029H108.298L105.5 108.502L102.683 108.68H98.9273C98.2293 108.678 97.5349 108.58 96.8636 108.389C94.6285 107.781 93.5445 106.606 93.5445 104.665H93.5428ZM97.334 104.462C97.334 104.575 97.3663 104.688 97.4019 104.824C97.6056 105.795 98.5182 106.335 99.9053 106.335H103.095L100.165 103.689H104.244L106.799 105.999C107.271 105.746 107.579 105.364 107.689 104.87C107.721 104.756 107.721 104.644 107.721 104.53V96.524C107.721 96.4337 107.721 96.3203 107.689 96.2068C107.485 95.3042 106.573 94.7866 105.218 94.7866H99.9061C98.3501 94.7866 97.3348 95.4623 97.3348 96.524L97.334 104.462Z" fill="#E48E00"/>
<path d="M131.87 88.5232C129.713 88.4652 128.063 88.6656 126.652 89.261C126.252 89.4291 125.611 89.4324 125.546 89.9343C125.766 90.167 125.802 90.5132 125.977 90.7947C126.313 91.3413 126.883 92.0692 127.39 92.451L129.108 93.6799C130.162 94.3234 131.343 94.6927 132.362 95.3362C132.961 95.7179 133.556 96.1966 134.141 96.6272C134.429 96.8375 134.623 97.1705 135.001 97.303V97.2417C134.804 96.9891 134.752 96.6429 134.571 96.3812L133.772 95.5821C132.992 94.5469 132.002 93.6377 130.948 92.8808C130.106 92.2787 128.231 91.4638 127.878 90.4867L127.817 90.4254C128.412 90.3608 129.111 90.1438 129.658 89.9981C130.583 89.7488 131.407 89.8134 132.359 89.5674L133.65 89.1956V88.953C133.168 88.4577 132.825 87.8044 132.298 87.3547C130.926 86.187 129.425 85.0161 127.879 84.0389C127.022 83.4989 125.964 83.1495 125.055 82.6899C124.751 82.535 124.213 82.4572 124.01 82.198C123.534 81.5901 123.275 80.82 122.907 80.1111L120.697 75.4462C120.232 74.3821 119.927 73.3304 119.345 72.3764C116.56 67.7927 113.558 65.0268 108.909 62.3097C107.923 61.7308 106.728 61.5039 105.474 61.2066L103.446 61.0841C103.035 60.9093 102.608 60.405 102.22 60.1624C100.681 59.1885 96.7305 57.0735 95.5885 59.8551C94.8705 61.6116 96.6659 63.3258 97.3094 64.216C97.759 64.8404 98.3379 65.5394 98.6584 66.2408C98.872 66.7004 98.9076 67.1625 99.089 67.6511C99.5354 68.8544 99.9238 70.1612 100.503 71.2742C100.794 71.8373 101.114 72.4294 101.483 72.9304C101.709 73.2376 102.098 73.3768 102.159 73.8521C101.78 74.3829 101.758 75.2044 101.544 75.8769C100.584 78.9012 100.946 82.66 102.344 84.9018C102.771 85.5875 103.78 87.0624 105.167 86.4967C106.381 86.0015 106.109 84.472 106.455 83.1197C106.536 82.8157 106.487 82.5888 106.64 82.3851V82.4464L107.746 84.6558C108.564 85.9725 110.014 87.3472 111.243 88.2756C111.884 88.7575 112.385 89.5923 113.21 89.8738V89.8092H113.149C112.987 89.5633 112.738 89.4598 112.534 89.2594C112.052 88.7873 111.518 88.2019 111.124 87.6611C110.005 86.144 109.015 84.4811 108.116 82.7503C107.685 81.9255 107.31 81.0129 106.948 80.1724C106.809 79.8486 106.812 79.3575 106.521 79.1919C106.123 79.8063 105.538 80.3049 105.23 81.0328C104.738 82.1938 104.676 83.614 104.492 85.0831L104.369 85.1444C103.515 84.9374 103.214 84.0579 102.898 83.3035C102.092 81.3947 101.944 78.3182 102.652 76.122C102.833 75.5531 103.661 73.7602 103.325 73.2368C103.167 72.7126 102.639 72.4087 102.344 72.0079C101.959 71.4704 101.63 70.8949 101.361 70.2903C100.705 68.7989 100.397 67.1302 99.7051 65.6255C99.3755 64.9042 98.8157 64.1763 98.3561 63.5362C97.8452 62.8281 97.2754 62.3072 96.8812 61.4493C96.7421 61.1454 96.5516 60.6568 96.7587 60.3429C96.8233 60.1326 96.9201 60.0456 97.1272 59.9777C97.4833 59.7028 98.4762 60.068 98.8447 60.2203C99.831 60.6311 100.653 61.0195 101.487 61.5727C101.885 61.8377 102.29 62.3519 102.775 62.4944H103.328C104.192 62.6915 105.159 62.5523 105.968 62.7983C107.395 63.2314 108.676 63.908 109.834 64.6425C113.373 66.8743 116.265 70.0543 118.244 73.8488C118.565 74.46 118.701 75.0421 118.982 75.6897C119.549 76.9965 120.26 78.3422 120.823 79.62C121.386 80.8978 121.933 82.1822 122.725 83.243C123.143 83.7995 124.757 84.0968 125.488 84.4074C126.002 84.6244 126.844 84.8504 127.329 85.1452C128.261 85.7051 129.16 86.3709 130.034 86.9862C130.467 87.2967 131.807 87.97 131.874 88.5223L131.87 88.5232ZM104.429 65.1353C104.057 65.1293 103.687 65.1705 103.326 65.2578V65.3191H103.387C103.601 65.7622 103.979 66.047 104.244 66.4255L104.859 67.7132L104.92 67.6552C105.302 67.3869 105.473 66.9563 105.473 66.3029C105.318 66.1414 105.298 65.941 105.166 65.7497C104.991 65.4938 104.652 65.3522 104.429 65.1353Z" fill="#00618A"/>
<defs>
<filter id="filter0_d_6035_2702" x="0" y="0" width="178" height="178" filterUnits="userSpaceOnUse" color-interpolation-filters="sRGB">
<feFlood flood-opacity="0" result="BackgroundImageFix"/>
<feColorMatrix in="SourceAlpha" type="matrix" values="0 0 0 0 0 0 0 0 0 0 0 0 0 0 0 0 0 0 127 0" result="hardAlpha"/>
<feOffset dx="7" dy="3"/>
<feGaussianBlur stdDeviation="7.5"/>
<feComposite in2="hardAlpha" operator="out"/>
<feColorMatrix type="matrix" values="0 0 0 0 0.188235 0 0 0 0 0.188235 0 0 0 0 0.188235 0 0 0 0.25 0"/>
<feBlend mode="normal" in2="BackgroundImageFix" result="effect1_dropShadow_6035_2702"/>
<feBlend mode="normal" in="SourceGraphic" in2="effect1_dropShadow_6035_2702" result="shape"/>
</filter>
</defs>
</svg>
