<svg width="148" height="148" viewBox="0 0 148 148" fill="none" xmlns="http://www.w3.org/2000/svg">
<path d="M24 95.3386H27.3141V82.255L32.4437 93.6597C33.0477 95.0425 33.875 95.5277 35.5016 95.5277C37.1281 95.5277 37.9219 95.0425 38.5258 93.6597L43.6555 82.255V95.3378H46.9695V82.2769C46.9695 81.0011 46.4602 80.3847 45.407 80.0675C42.8891 79.2831 41.2016 79.9605 40.4359 81.6605L35.4039 92.9183L30.5305 81.6605C29.7984 79.9605 28.0773 79.2831 25.5625 80.0675C24.5094 80.3847 24 81.0011 24 82.2769V95.3386ZM49.7266 84.6878H53.0375V91.8964C53.007 92.287 53.1625 93.2058 54.9781 93.2363H62.1836V84.6511H65.5039C65.5195 84.6511 65.4977 96.3574 65.4977 96.4066C65.5156 99.2933 61.918 99.9191 60.2578 99.9683H49.7969V97.7402L60.2766 97.737C62.4094 97.5144 62.1563 96.4519 62.1563 96.098V95.2284H55.1156C51.8383 95.198 49.7539 93.7667 49.7266 92.1214C49.7234 91.9722 49.7969 84.7613 49.7266 84.6878ZM68.0555 95.3386H77.5828C78.6969 95.3386 79.7805 95.1034 80.6406 94.7011C82.075 94.0449 82.7734 93.1511 82.7734 91.9824V89.562C82.7734 88.6066 81.9797 87.7128 80.4172 87.1206C79.5898 86.8003 78.568 86.6324 77.582 86.6324H73.5656C72.2289 86.6324 71.5914 86.2292 71.4328 85.3386C71.4023 85.2316 71.4023 85.1464 71.4023 85.0394V83.5316C71.4023 83.4464 71.4023 83.3605 71.4328 83.2542C71.5914 82.5769 71.9422 82.3847 73.1203 82.2777L73.4406 82.2566H82.9008V80.0503H73.6C72.2633 80.0503 71.5617 80.1355 70.9234 80.3253C68.9492 80.9417 68.0883 81.9183 68.0883 83.6183V85.5503C68.0883 87.0363 69.7758 88.312 72.6109 88.6081C72.9313 88.6292 73.2484 88.6511 73.5664 88.6511H77.0086C77.1367 88.6511 77.2617 88.6511 77.3594 88.6722C78.4094 88.7574 78.8547 88.9495 79.175 89.3316C79.3398 89.4839 79.4344 89.7011 79.4281 89.9238V91.8589C79.4281 92.0909 79.2695 92.3902 78.9523 92.6433C78.6656 92.8995 78.1867 93.0675 77.5516 93.1105L77.2008 93.1316H68.0555V95.3386ZM103.444 91.4933C103.444 93.7667 105.134 95.0394 108.54 95.2956C108.86 95.3167 109.177 95.3386 109.498 95.3386H118.132V93.1292H109.434C107.491 93.1292 106.758 92.6409 106.758 91.4722V80.0456H103.447V91.4925L103.444 91.4933ZM84.8891 91.6089V83.7324C84.8891 81.7331 86.2961 80.5191 89.0727 80.137C89.3689 80.0943 89.6679 80.0729 89.9672 80.073H96.2539C96.5742 80.073 96.8609 80.0941 97.182 80.137C99.9594 80.5183 101.363 81.7331 101.363 83.7324V91.6089C101.363 93.2324 100.768 94.0995 99.3922 94.6667L102.658 97.612H98.8094L96.1695 95.2284L93.5117 95.3964H89.9688C89.3103 95.3944 88.6552 95.3018 88.0219 95.1214C85.9133 94.548 84.8906 93.4402 84.8906 91.6089H84.8891ZM88.4656 91.4167C88.4656 91.5238 88.4992 91.63 88.5297 91.7589C88.7219 92.6745 89.5859 93.1839 90.8914 93.1839H93.9008L91.1359 90.6878H94.9844L97.3953 92.8667C97.8406 92.6284 98.1336 92.2683 98.2344 91.8019C98.268 91.6949 98.268 91.5886 98.268 91.4816V83.9284C98.268 83.8433 98.268 83.7363 98.2344 83.6292C98.0422 82.7777 97.1813 82.2894 95.9063 82.2894H90.8922C89.4242 82.2894 88.4664 82.9269 88.4664 83.9284L88.4656 91.4167ZM121.046 76.3808C119.011 76.3261 117.454 76.5152 116.123 77.0769C115.745 77.2355 115.141 77.2386 115.08 77.712C115.288 77.9316 115.321 78.2581 115.486 78.5238C115.803 79.0394 116.341 79.7261 116.82 80.0863C117.338 80.4831 117.878 80.9042 118.44 81.2456C119.434 81.8527 120.548 82.2011 121.51 82.8081C122.075 83.1683 122.636 83.6199 123.188 84.0261C123.46 84.2245 123.643 84.5386 124 84.6636V84.6058C123.814 84.3675 123.765 84.0409 123.594 83.7941L122.84 83.0402C122.105 82.0636 121.17 81.2058 120.176 80.4917C119.382 79.9238 117.613 79.155 117.28 78.2331L117.222 78.1753C117.784 78.1144 118.443 77.9097 118.959 77.7722C119.831 77.537 120.609 77.598 121.507 77.3659L122.725 77.0152V76.7863C122.27 76.3191 121.947 75.7027 121.449 75.2784C120.155 74.1769 118.739 73.0722 117.28 72.1503C116.472 71.6409 115.474 71.3113 114.616 70.8777C114.33 70.7316 113.823 70.6581 113.63 70.4136C113.182 69.8402 112.937 69.1136 112.59 68.4449C111.848 67.0006 111.153 65.5329 110.505 64.0441C110.066 63.0402 109.779 62.048 109.23 61.148C106.602 56.8238 103.77 54.2144 99.3844 51.6511C98.4539 51.105 97.3273 50.8909 96.1438 50.6105L94.2305 50.4949C93.843 50.33 93.4398 49.8542 93.0742 49.6253C91.6219 48.7066 87.8953 46.7113 86.818 49.3355C86.1406 50.9925 87.8344 52.6097 88.4414 53.4495C88.8656 54.0386 89.4117 54.698 89.7141 55.3597C89.9156 55.7933 89.9492 56.2292 90.1203 56.6902C90.5414 57.8253 90.9078 59.0581 91.4539 60.1081C91.7289 60.6394 92.0305 61.198 92.3789 61.6706C92.5922 61.9605 92.9586 62.0917 93.0164 62.5402C92.6594 63.0409 92.6383 63.8159 92.4367 64.4503C91.5305 67.3034 91.8719 70.8495 93.1906 72.9644C93.5938 73.6113 94.5453 75.0027 95.8547 74.4691C96.9992 74.0019 96.743 72.5589 97.0695 71.2831C97.1461 70.9964 97.1 70.7824 97.2437 70.5902V70.648L98.2875 72.7324C99.0594 73.9745 100.427 75.2714 101.587 76.1472C102.191 76.6019 102.664 77.3894 103.442 77.655V77.5941H103.384C103.232 77.362 102.997 77.2644 102.805 77.0753C102.35 76.63 101.846 76.0777 101.474 75.5675C100.418 74.1363 99.4844 72.5675 98.6359 70.9347C98.2297 70.1566 97.8758 69.2956 97.5344 68.5027C97.4031 68.1972 97.4063 67.7339 97.1313 67.5777C96.7563 68.1574 96.2039 68.6277 95.9133 69.3144C95.4492 70.4097 95.3914 71.7495 95.2172 73.1355L95.1016 73.1933C94.2961 72.998 94.0117 72.1683 93.7133 71.4566C92.9531 69.6558 92.8133 66.7534 93.4812 64.6816C93.6523 64.1449 94.4336 62.4534 94.1164 61.9597C93.9672 61.4652 93.4695 61.1784 93.1914 60.8003C92.8278 60.2933 92.5171 59.7503 92.2641 59.18C91.6445 57.773 91.3547 56.1988 90.7016 54.7792C90.3906 54.0988 89.8625 53.412 89.4289 52.8081C88.9469 52.1402 88.4094 51.6488 88.0375 50.8394C87.9063 50.5527 87.7266 50.0917 87.9219 49.7956C87.9828 49.5972 88.0742 49.5152 88.2695 49.4511C88.6055 49.1917 89.5422 49.5363 89.8898 49.68C90.8203 50.0675 91.5961 50.4339 92.3828 50.9558C92.7578 51.2058 93.1398 51.6909 93.5977 51.8253H94.1195C94.9344 52.0113 95.8469 51.88 96.6102 52.112C97.9563 52.5206 99.1648 53.1589 100.257 53.8519C103.595 55.9574 106.324 58.9574 108.191 62.537C108.494 63.1136 108.622 63.6628 108.887 64.2738C109.422 65.5066 110.093 66.7761 110.624 67.9816C111.155 69.187 111.671 70.3988 112.419 71.3995C112.813 71.9245 114.335 72.205 115.025 72.498C115.51 72.7027 116.304 72.9159 116.762 73.1941C117.641 73.7222 118.489 74.3503 119.313 74.9308C119.722 75.2238 120.986 75.8589 121.05 76.38L121.046 76.3808ZM95.1578 54.3167C94.8074 54.3111 94.4578 54.3499 94.1172 54.4324V54.4902H94.175C94.3766 54.9081 94.7336 55.1769 94.9836 55.5339L95.5633 56.7488L95.6211 56.6941C95.9813 56.4409 96.143 56.0347 96.143 55.4183C95.9969 55.2659 95.9781 55.0769 95.8531 54.8964C95.6883 54.655 95.3688 54.5214 95.1578 54.3167Z" fill="#202020"/>
</svg>
