<svg width="150" height="150" viewBox="0 0 150 150" fill="none" xmlns="http://www.w3.org/2000/svg">
<path d="M25 96.3386H28.3141V83.255L33.4437 94.6597C34.0477 96.0425 34.875 96.5277 36.5016 96.5277C38.1281 96.5277 38.9219 96.0425 39.5258 94.6597L44.6555 83.255V96.3378H47.9695V83.2769C47.9695 82.0011 47.4602 81.3847 46.407 81.0675C43.8891 80.2831 42.2016 80.9605 41.4359 82.6605L36.4039 93.9183L31.5305 82.6605C30.7984 80.9605 29.0773 80.2831 26.5625 81.0675C25.5094 81.3847 25 82.0011 25 83.2769V96.3386ZM50.7266 85.6878H54.0375V92.8964C54.007 93.287 54.1625 94.2058 55.9781 94.2363H63.1836V85.6511H66.5039C66.5195 85.6511 66.4977 97.3574 66.4977 97.4066C66.5156 100.293 62.918 100.919 61.2578 100.968H50.7969V98.7402L61.2766 98.737C63.4094 98.5144 63.1562 97.4519 63.1562 97.098V96.2284H56.1156C52.8383 96.198 50.7539 94.7667 50.7266 93.1214C50.7234 92.9722 50.7969 85.7613 50.7266 85.6878ZM69.0555 96.3386H78.5828C79.6969 96.3386 80.7805 96.1034 81.6406 95.7011C83.075 95.0449 83.7734 94.1511 83.7734 92.9823V90.562C83.7734 89.6066 82.9797 88.7128 81.4172 88.1206C80.5898 87.8003 79.568 87.6324 78.582 87.6324H74.5656C73.2289 87.6324 72.5914 87.2292 72.4328 86.3386C72.4023 86.2316 72.4023 86.1464 72.4023 86.0394V84.5316C72.4023 84.4464 72.4023 84.3605 72.4328 84.2542C72.5914 83.5769 72.9422 83.3847 74.1203 83.2777L74.4406 83.2566H83.9008V81.0503H74.6C73.2633 81.0503 72.5617 81.1355 71.9234 81.3253C69.9492 81.9417 69.0883 82.9183 69.0883 84.6183V86.5503C69.0883 88.0363 70.7758 89.312 73.6109 89.6081C73.9313 89.6292 74.2484 89.6511 74.5664 89.6511H78.0086C78.1367 89.6511 78.2617 89.6511 78.3594 89.6722C79.4094 89.7574 79.8547 89.9495 80.175 90.3316C80.3398 90.4839 80.4344 90.7011 80.4281 90.9238V92.8589C80.4281 93.0909 80.2695 93.3902 79.9523 93.6433C79.6656 93.8995 79.1867 94.0675 78.5516 94.1105L78.2008 94.1316H69.0555V96.3386ZM104.444 92.4933C104.444 94.7667 106.134 96.0394 109.54 96.2956C109.86 96.3167 110.177 96.3386 110.498 96.3386H119.132V94.1292H110.434C108.491 94.1292 107.758 93.6409 107.758 92.4722V81.0456H104.447V92.4925L104.444 92.4933ZM85.8891 92.6089V84.7324C85.8891 82.7331 87.2961 81.5191 90.0727 81.137C90.3689 81.0943 90.6679 81.0729 90.9672 81.073H97.2539C97.5742 81.073 97.8609 81.0941 98.182 81.137C100.959 81.5183 102.363 82.7331 102.363 84.7324V92.6089C102.363 94.2324 101.768 95.0995 100.392 95.6667L103.658 98.612H99.8094L97.1695 96.2284L94.5117 96.3964H90.9688C90.3103 96.3944 89.6552 96.3018 89.0219 96.1214C86.9133 95.548 85.8906 94.4402 85.8906 92.6089H85.8891ZM89.4656 92.4167C89.4656 92.5238 89.4992 92.63 89.5297 92.7589C89.7219 93.6745 90.5859 94.1839 91.8914 94.1839H94.9008L92.1359 91.6878H95.9844L98.3953 93.8667C98.8406 93.6284 99.1336 93.2683 99.2344 92.8019C99.268 92.6949 99.268 92.5886 99.268 92.4816V84.9284C99.268 84.8433 99.268 84.7363 99.2344 84.6292C99.0422 83.7777 98.1813 83.2894 96.9062 83.2894H91.8922C90.4242 83.2894 89.4664 83.9269 89.4664 84.9284L89.4656 92.4167ZM122.046 77.3808C120.011 77.3261 118.454 77.5152 117.123 78.0769C116.745 78.2355 116.141 78.2386 116.08 78.712C116.287 78.9316 116.321 79.2581 116.486 79.5238C116.803 80.0394 117.341 80.7261 117.82 81.0863C118.338 81.4831 118.878 81.9042 119.44 82.2456C120.434 82.8527 121.548 83.2011 122.51 83.8081C123.075 84.1683 123.636 84.6199 124.188 85.0261C124.46 85.2245 124.643 85.5386 125 85.6636V85.6058C124.814 85.3675 124.765 85.0409 124.594 84.7941L123.84 84.0402C123.105 83.0636 122.17 82.2058 121.176 81.4917C120.382 80.9238 118.613 80.155 118.28 79.2331L118.222 79.1753C118.784 79.1144 119.443 78.9097 119.959 78.7722C120.831 78.537 121.609 78.598 122.507 78.3659L123.725 78.0152V77.7863C123.27 77.3191 122.947 76.7027 122.449 76.2784C121.155 75.1769 119.739 74.0722 118.28 73.1503C117.472 72.6409 116.474 72.3113 115.616 71.8777C115.33 71.7316 114.823 71.6581 114.63 71.4136C114.182 70.8402 113.938 70.1136 113.59 69.4449C112.848 68.0006 112.153 66.5329 111.505 65.0441C111.066 64.0402 110.779 63.048 110.23 62.148C107.602 57.8238 104.77 55.2144 100.384 52.6511C99.4539 52.105 98.3273 51.8909 97.1438 51.6105L95.2305 51.4949C94.843 51.33 94.4398 50.8542 94.0742 50.6253C92.6219 49.7066 88.8953 47.7113 87.818 50.3355C87.1406 51.9925 88.8344 53.6097 89.4414 54.4495C89.8656 55.0386 90.4117 55.698 90.7141 56.3597C90.9156 56.7933 90.9492 57.2292 91.1203 57.6902C91.5414 58.8253 91.9078 60.0581 92.4539 61.1081C92.7289 61.6394 93.0305 62.198 93.3789 62.6706C93.5922 62.9605 93.9586 63.0917 94.0164 63.5402C93.6594 64.0409 93.6383 64.8159 93.4367 65.4503C92.5305 68.3034 92.8719 71.8495 94.1906 73.9644C94.5938 74.6113 95.5453 76.0027 96.8547 75.4691C97.9992 75.0019 97.743 73.5589 98.0695 72.2831C98.1461 71.9964 98.1 71.7824 98.2438 71.5902V71.648L99.2875 73.7324C100.059 74.9745 101.427 76.2714 102.587 77.1472C103.191 77.6019 103.664 78.3894 104.442 78.655V78.5941H104.384C104.232 78.362 103.997 78.2644 103.805 78.0753C103.35 77.63 102.846 77.0777 102.474 76.5675C101.418 75.1363 100.484 73.5675 99.6359 71.9347C99.2297 71.1566 98.8758 70.2956 98.5344 69.5027C98.4031 69.1972 98.4062 68.7339 98.1312 68.5777C97.7562 69.1574 97.2039 69.6277 96.9133 70.3144C96.4492 71.4097 96.3914 72.7495 96.2172 74.1355L96.1016 74.1933C95.2961 73.998 95.0117 73.1683 94.7133 72.4566C93.9531 70.6558 93.8133 67.7534 94.4812 65.6816C94.6523 65.1449 95.4336 63.4534 95.1164 62.9597C94.9672 62.4652 94.4695 62.1784 94.1914 61.8003C93.8278 61.2933 93.5171 60.7503 93.2641 60.18C92.6445 58.773 92.3547 57.1988 91.7016 55.7792C91.3906 55.0988 90.8625 54.412 90.4289 53.8081C89.9469 53.1402 89.4094 52.6488 89.0375 51.8394C88.9062 51.5527 88.7266 51.0917 88.9219 50.7956C88.9828 50.5972 89.0742 50.5152 89.2695 50.4511C89.6055 50.1917 90.5422 50.5363 90.8898 50.68C91.8203 51.0675 92.5961 51.4339 93.3828 51.9558C93.7578 52.2058 94.1398 52.6909 94.5977 52.8253H95.1195C95.9344 53.0113 96.8469 52.88 97.6102 53.112C98.9563 53.5206 100.165 54.1589 101.257 54.8519C104.595 56.9574 107.324 59.9574 109.191 63.537C109.494 64.1136 109.622 64.6628 109.887 65.2738C110.422 66.5066 111.093 67.7761 111.624 68.9816C112.155 70.187 112.671 71.3988 113.419 72.3995C113.812 72.9245 115.335 73.205 116.025 73.498C116.51 73.7027 117.304 73.9159 117.762 74.1941C118.641 74.7222 119.489 75.3503 120.313 75.9308C120.722 76.2238 121.986 76.8589 122.05 77.38L122.046 77.3808ZM96.1578 55.3167C95.8074 55.3111 95.4578 55.3499 95.1172 55.4324V55.4902H95.175C95.3766 55.9081 95.7336 56.1769 95.9836 56.5339L96.5633 57.7488L96.6211 57.6941C96.9813 57.4409 97.143 57.0347 97.143 56.4183C96.9969 56.2659 96.9781 56.0769 96.8531 55.8964C96.6883 55.655 96.3688 55.5214 96.1578 55.3167Z" fill="#202020"/>
<circle cx="75" cy="75" r="74.5" stroke="#FABA0B"/>
</svg>
