<svg width="150" height="150" viewBox="0 0 150 150" fill="none" xmlns="http://www.w3.org/2000/svg">
<path fill-rule="evenodd" clip-rule="evenodd" d="M46.3737 64.0819C46.5462 64.181 46.6893 64.3236 46.7886 64.4954C46.8879 64.6672 46.9398 64.8621 46.9391 65.0602L46.9194 79.5785C46.9194 79.779 46.8113 79.9698 46.6392 80.0676C46.5536 80.1205 46.4548 80.1485 46.3541 80.1485C46.2533 80.1485 46.1546 80.1205 46.0689 80.0676L40.4795 76.8783C40.3061 76.7798 40.162 76.6375 40.0619 76.4656C39.9617 76.2938 39.9091 76.0986 39.9093 75.9V69.1153C39.9095 68.9167 39.8568 68.7215 39.7567 68.5497C39.6565 68.3779 39.5124 68.2355 39.339 68.137L36.9597 66.7723C36.7872 66.6726 36.5913 66.6201 36.3919 66.6201C36.1925 66.6201 35.9966 66.6726 35.8241 66.7723L33.4399 68.1419C33.2674 68.241 33.1243 68.3837 33.025 68.5554C32.9258 68.7272 32.8739 68.9221 32.8746 69.1202V75.9C32.8748 76.0986 32.8221 76.2938 32.722 76.4656C32.6218 76.6375 32.4777 76.7798 32.3043 76.8783L26.7051 80.0725C26.6206 80.1234 26.5236 80.1504 26.4248 80.1504C26.326 80.1504 26.2291 80.1234 26.1446 80.0725C26.0562 80.0253 25.9826 79.9546 25.9323 79.8682C25.8819 79.7818 25.8567 79.6832 25.8595 79.5833L25.8398 65.0651C25.8398 64.6591 26.0561 64.2825 26.4101 64.0819L35.8192 58.6914C35.9743 58.5958 36.153 58.5449 36.3354 58.5446H36.4337C36.6178 58.544 36.7983 58.5949 36.9548 58.6914L46.3737 64.0819ZM91.2169 72.8672C91.2604 72.8423 91.2968 72.8067 91.3226 72.7639C91.3484 72.7211 91.3628 72.6725 91.3644 72.6226V68.905C91.3644 68.8072 91.3054 68.7093 91.2169 68.6604L87.9823 66.8016C87.9386 66.7776 87.8896 66.7651 87.8397 66.7651C87.7898 66.7651 87.7408 66.7776 87.6971 66.8016L84.4674 68.6604C84.4248 68.686 84.3895 68.7218 84.3645 68.7645C84.3396 68.8073 84.3259 68.8556 84.3248 68.905V72.6226C84.3248 72.7204 84.3789 72.8183 84.4723 72.8672L87.7021 74.726C87.7905 74.7749 87.8987 74.7749 87.9872 74.726L91.2169 72.8672ZM91.6692 45.1172C91.7555 45.0694 91.8525 45.0438 91.9513 45.043C92.05 45.0421 92.1474 45.066 92.2346 45.1123L97.8387 48.2234C98.0163 48.3207 98.1643 48.4638 98.2673 48.6377C98.3702 48.8115 98.4242 49.0097 98.4237 49.2115V76.1739C98.4239 76.3726 98.3713 76.5677 98.2711 76.7395C98.171 76.9114 98.0269 77.0538 97.8535 77.1522L88.4345 82.5672C88.2621 82.6669 88.0662 82.7194 87.8667 82.7194C87.6673 82.7194 87.4714 82.6669 87.2989 82.5672L77.88 77.1571C77.7066 77.0587 77.5625 76.9163 77.4624 76.7444C77.3622 76.5726 77.3095 76.3774 77.3098 76.1788V65.3586C77.3095 65.16 77.3622 64.9648 77.4624 64.793C77.5625 64.6211 77.7066 64.4787 77.88 64.3803L87.2989 58.9702C87.4714 58.8705 87.6673 58.818 87.8667 58.818C88.0662 58.818 88.2621 58.8705 88.4345 58.9702L90.7942 60.3252C90.8546 60.3593 90.9229 60.3771 90.9924 60.3768C91.0619 60.3766 91.1301 60.3582 91.1902 60.3236C91.2504 60.289 91.3003 60.2393 91.3352 60.1795C91.3701 60.1197 91.3886 60.0519 91.389 59.9827V45.5966C91.3908 45.4982 91.4174 45.4019 91.4663 45.3164C91.5153 45.2309 91.5851 45.1591 91.6692 45.1074M124.159 67.8338C124.159 68.0319 124.107 68.2268 124.008 68.3985C123.909 68.5703 123.766 68.713 123.593 68.8121L117.945 72.0748C117.858 72.1227 117.76 72.1479 117.66 72.1479C117.56 72.1479 117.462 72.1227 117.375 72.0748C117.29 72.0237 117.219 71.9521 117.169 71.8666C117.119 71.7811 117.092 71.6844 117.09 71.5856V68.9197C117.088 68.8213 117.061 68.725 117.012 68.6395C116.963 68.554 116.894 68.4822 116.809 68.4305L113.86 66.738C113.774 66.6852 113.675 66.6572 113.575 66.6572C113.474 66.6572 113.375 66.6852 113.29 66.738L110.34 68.4305C110.256 68.4822 110.186 68.554 110.137 68.6395C110.088 68.725 110.062 68.8213 110.06 68.9197V72.3144C110.06 72.5101 110.168 72.7058 110.345 72.8036L119.818 78.2088C119.906 78.2582 119.979 78.33 120.03 78.4168C120.081 78.5036 120.108 78.6024 120.108 78.7029C120.108 78.8034 120.081 78.9021 120.03 78.9889C119.979 79.0757 119.906 79.1475 119.818 79.1969L114.155 82.3275C113.984 82.4221 113.791 82.4709 113.595 82.4692C113.4 82.4675 113.208 82.4153 113.039 82.3177L103.684 77.0104C103.51 76.9119 103.366 76.7695 103.266 76.5977C103.166 76.4259 103.113 76.2307 103.114 76.0321V65.2119C103.113 65.0137 103.165 64.8189 103.264 64.6471C103.363 64.4753 103.506 64.3326 103.679 64.2335L113.098 58.8283C113.27 58.7287 113.466 58.6762 113.666 58.6762C113.865 58.6762 114.061 58.7287 114.233 58.8283L123.593 64.2335C123.766 64.3326 123.909 64.4753 124.008 64.6471C124.107 64.8189 124.159 65.0137 124.159 65.2119V67.8338ZM74.4339 104.956C74.107 104.953 73.786 104.869 73.4999 104.711L70.5405 102.96C70.0981 102.716 70.3144 102.628 70.4569 102.579C70.928 102.433 71.3789 102.229 71.799 101.972C71.8711 101.94 71.9448 101.944 72.0202 101.987L74.2963 103.332C74.3799 103.376 74.4929 103.376 74.5716 103.332L83.4498 98.2301C83.4907 98.2044 83.5247 98.1691 83.5487 98.1273C83.5727 98.0855 83.586 98.0385 83.5874 97.9904V87.7963C83.5874 87.6985 83.5382 87.6007 83.4498 87.5517L74.5765 82.4596C74.5341 82.4373 74.4868 82.4257 74.4388 82.4257C74.3909 82.4257 74.3436 82.4373 74.3012 82.4596L65.4279 87.5517C65.3854 87.5773 65.35 87.6131 65.3251 87.6558C65.3002 87.6986 65.2865 87.7469 65.2854 87.7963V97.9855C65.2854 98.0833 65.3394 98.1763 65.423 98.2203L67.8564 99.6193C69.1739 100.275 69.9801 99.5019 69.9801 98.7241V88.6621C69.9801 88.5154 70.0981 88.4078 70.2406 88.4078H71.3664C71.504 88.4078 71.622 88.5154 71.622 88.6621V98.729C71.622 100.48 70.6585 101.483 68.992 101.483C68.4758 101.483 68.0727 101.483 66.942 100.93L64.6168 99.5948C64.3321 99.4313 64.0959 99.196 63.9319 98.9125C63.7679 98.6291 63.682 98.3076 63.6828 97.9806V87.7914C63.682 87.4644 63.7679 87.1429 63.9319 86.8595C64.0959 86.5761 64.3321 86.3407 64.6168 86.1772L73.5048 81.0753C73.7918 80.9212 74.1127 80.8405 74.4388 80.8405C74.7649 80.8405 75.0859 80.9212 75.3729 81.0753L84.2461 86.1821C84.5301 86.3452 84.7658 86.5798 84.9298 86.8623C85.0937 87.1448 85.1801 87.4652 85.1802 87.7914V97.9855C85.181 98.3125 85.095 98.634 84.931 98.9174C84.767 99.2009 84.5308 99.4362 84.2461 99.5997L75.368 104.697C75.0823 104.856 74.7613 104.942 74.4339 104.946M77.177 97.9219C73.2934 97.9219 72.4774 96.1463 72.4774 94.6592C72.4774 94.5125 72.5954 94.4049 72.7379 94.4049H73.8833C73.9446 94.4032 74.0042 94.4244 74.0506 94.4642C74.097 94.504 74.1267 94.5596 74.1341 94.6201C74.311 95.7843 74.8223 96.3713 77.1721 96.3713C79.0451 96.3713 79.8415 95.9457 79.8415 94.9625C79.8415 94.3902 79.6153 93.9695 76.7051 93.6907C74.2766 93.4461 72.7723 92.9129 72.7723 90.9807C72.7723 89.2002 74.2864 88.1338 76.8182 88.1338C79.6596 88.1338 81.0655 89.1171 81.2425 91.2253C81.2459 91.2607 81.2419 91.2965 81.2306 91.3302C81.2193 91.3639 81.201 91.3949 81.1769 91.4212C81.1528 91.4475 81.1235 91.4684 81.0907 91.4827C81.058 91.497 81.0226 91.5043 80.9869 91.5041H79.8316C79.7741 91.5053 79.718 91.4864 79.6731 91.4506C79.6282 91.4149 79.5973 91.3646 79.5858 91.3085C79.3056 90.0856 78.6371 89.6943 76.8132 89.6943C74.7682 89.6943 74.5322 90.3987 74.5322 90.9318C74.5322 91.5775 74.8125 91.7634 77.5654 92.1254C80.2986 92.4874 81.5965 92.9961 81.5965 94.9038C81.5965 96.8262 79.9742 97.9317 77.1672 97.9317L77.177 97.9219ZM87.9823 87.1164H88.2772C88.523 87.1164 88.5722 86.9501 88.5722 86.8474C88.5722 86.5881 88.3903 86.5881 88.2871 86.5881H87.9823V87.1164ZM87.6185 86.2848H88.2772C88.5034 86.2848 88.9507 86.2848 88.9507 86.7887C88.9507 87.136 88.7246 87.2093 88.5869 87.2534C88.8475 87.2729 88.8671 87.4392 88.9015 87.6691V87.6887L88.9065 87.7083C88.9261 87.8599 88.9556 88.1094 89.0048 88.1974H88.5968L88.5918 88.1338L88.523 87.5958C88.4984 87.4833 88.4591 87.4295 88.3264 87.4295H87.9872V88.1974H87.6185V86.2848ZM89.9683 87.2338C89.9693 87.5718 89.8694 87.9026 89.6812 88.1841C89.4931 88.4656 89.2252 88.6851 88.9115 88.815C88.5978 88.9448 88.2524 88.979 87.9191 88.9133C87.5859 88.8476 87.2797 88.6849 87.0395 88.4458C86.7993 88.2068 86.6358 87.9021 86.5697 87.5705C86.5037 87.2389 86.5381 86.8953 86.6685 86.5831C86.799 86.271 87.0196 86.0044 87.3025 85.8172C87.5854 85.63 87.9178 85.5306 88.2576 85.5315C89.1818 85.5315 89.9683 86.275 89.9683 87.2387M113.525 68.2985C113.558 68.2764 113.597 68.2646 113.636 68.2646C113.676 68.2646 113.714 68.2764 113.747 68.2985L115.551 69.3355C115.583 69.3562 115.611 69.3842 115.63 69.4174C115.65 69.4505 115.661 69.4878 115.664 69.5262V71.6003C115.661 71.6818 115.623 71.7438 115.551 71.7862L113.747 72.8281C113.714 72.8501 113.676 72.8619 113.636 72.8619C113.597 72.8619 113.558 72.8501 113.525 72.8281L111.721 71.7862C111.687 71.769 111.659 71.7423 111.639 71.7093C111.62 71.6763 111.611 71.6384 111.613 71.6003V69.5262C111.613 69.4447 111.649 69.3811 111.721 69.3355L113.525 68.2985ZM62.9306 59.1267C62.753 59.0264 62.5523 58.9736 62.3481 58.9736C62.1439 58.9736 61.9431 59.0264 61.7655 59.1267L52.091 64.6787C51.9148 64.7822 51.7686 64.9295 51.6669 65.1061C51.5652 65.2828 51.5115 65.4828 51.5109 65.6863V76.8049C51.5109 77.2158 51.737 77.6023 52.1008 77.8077L61.7655 83.3645C61.9431 83.4649 62.1439 83.5176 62.3481 83.5176C62.5523 83.5176 62.753 83.4649 62.9306 83.3645L72.5954 77.8077C72.7718 77.7052 72.9184 77.559 73.021 77.3832C73.1235 77.2074 73.1784 77.0082 73.1804 76.8049V65.6863C73.1793 65.4823 73.1248 65.282 73.0222 65.1053C72.9196 64.9286 72.7725 64.7816 72.5954 64.6787L62.9306 59.1267Z" fill="#202020"/>
<circle cx="75" cy="75" r="74.5" stroke="#FABA0B"/>
</svg>
