<svg width="178" height="178" viewBox="0 0 178 178" fill="none" xmlns="http://www.w3.org/2000/svg">
<g filter="url(#filter0_d_6035_2713)">
<circle cx="82" cy="86" r="74" fill="white"/>
</g>
<g clip-path="url(#clip0_6035_2713)">
<path d="M81.4588 115.83C81.1339 115.83 80.8305 115.743 80.5487 115.591L77.6666 113.875C77.2331 113.636 77.4499 113.549 77.58 113.506C78.165 113.311 78.2734 113.267 78.8801 112.92C78.9452 112.876 79.032 112.898 79.0969 112.941L81.3073 114.266C81.3939 114.31 81.5023 114.31 81.5672 114.266L90.2138 109.25C90.3004 109.206 90.3439 109.119 90.3439 109.011V98.9996C90.3439 98.8908 90.3004 98.8042 90.2138 98.7606L81.5672 93.7659C81.4806 93.7223 81.3722 93.7223 81.3073 93.7659L72.6608 98.7606C72.5741 98.804 72.5306 98.9126 72.5306 98.9994V109.011C72.5306 109.098 72.5741 109.206 72.6608 109.25L75.0229 110.618C76.3014 111.269 77.1032 110.509 77.1032 109.749V99.8681C77.1032 99.7379 77.2116 99.6075 77.3633 99.6075H78.4684C78.5985 99.6075 78.7284 99.7161 78.7284 99.8681V109.749C78.7284 111.465 77.7966 112.464 76.1713 112.464C75.6729 112.464 75.2829 112.464 74.1776 111.921L71.9023 110.618C71.3389 110.292 70.9922 109.684 70.9922 109.032V99.0212C70.9922 98.3698 71.3389 97.7616 71.9023 97.4359L80.5487 92.4194C81.0906 92.1154 81.8274 92.1154 82.3691 92.4194L91.0155 97.4359C91.5789 97.7616 91.9258 98.3698 91.9258 99.0212V109.032C91.9258 109.684 91.5789 110.292 91.0155 110.618L82.3691 115.634C82.0873 115.765 81.7622 115.83 81.4588 115.83ZM84.1245 108.946C80.3323 108.946 79.5521 107.208 79.5521 105.732C79.5521 105.601 79.6605 105.471 79.8122 105.471H80.9391C81.069 105.471 81.1774 105.558 81.1774 105.688C81.3508 106.839 81.8492 107.404 84.1462 107.404C85.9665 107.404 86.7469 106.991 86.7469 106.014C86.7469 105.449 86.5299 105.037 83.6912 104.754C81.3291 104.515 79.8555 103.994 79.8555 102.105C79.8555 100.346 81.3293 99.3034 83.7996 99.3034C86.5732 99.3034 87.9386 100.259 88.1121 102.344C88.1121 102.409 88.0904 102.474 88.047 102.539C88.0035 102.583 87.9386 102.626 87.8736 102.626H86.7467C86.6383 102.626 86.5299 102.539 86.5084 102.431C86.2483 101.236 85.5765 100.845 83.7996 100.845C81.8059 100.845 81.5674 101.54 81.5674 102.061C81.5674 102.691 81.8492 102.887 84.5363 103.234C87.2018 103.582 88.4587 104.081 88.4587 105.949C88.437 107.86 86.8768 108.946 84.1245 108.946Z" fill="#539E43"/>
<path d="M54.6299 76.6752C54.6299 76.2844 54.4132 75.915 54.0665 75.7196L44.8782 70.4209C44.7263 70.3339 44.5531 70.2905 44.3798 70.2687H44.293C44.1198 70.2687 43.9463 70.3339 43.7947 70.4209L34.6064 75.7196C34.2595 75.915 34.043 76.2842 34.043 76.6752L34.0647 90.9211C34.0647 91.1165 34.1731 91.3119 34.3463 91.3989C34.5198 91.5075 34.7363 91.5075 34.8882 91.3989L40.3492 88.2717C40.6958 88.0763 40.9126 87.7071 40.9126 87.3163V80.6493C40.9126 80.2584 41.1292 79.8892 41.476 79.6938L43.7947 78.3473C43.9681 78.2387 44.1631 78.1951 44.3581 78.1951C44.5531 78.1951 44.7481 78.2387 44.9 78.3473L47.2186 79.6938C47.5655 79.8892 47.782 80.2583 47.782 80.6493V87.3163C47.782 87.7071 47.9988 88.0763 48.3455 88.2717L53.8064 91.3989C53.8908 91.4522 53.9884 91.4804 54.0881 91.4804C54.1878 91.4804 54.2855 91.4522 54.3698 91.3989C54.5433 91.3119 54.6517 91.1165 54.6517 90.9211L54.6299 76.6752ZM98.7942 57.0652C98.621 56.9783 98.4042 56.9783 98.2523 57.0652C98.0791 57.1739 97.9707 57.3475 97.9707 57.5429V71.6587C97.9707 71.7889 97.9058 71.9192 97.7757 72.0062C97.6457 72.0712 97.5157 72.0712 97.3857 72.0062L95.0887 70.6815C94.9202 70.5854 94.7298 70.5349 94.536 70.5349C94.3422 70.5349 94.1518 70.5854 93.9833 70.6815L84.7951 76.002C84.4484 76.1974 84.2317 76.5666 84.2317 76.9575V87.5767C84.2317 87.9675 84.4484 88.3369 84.7951 88.5324L93.9833 93.8529C94.1518 93.9489 94.3422 93.9994 94.536 93.9994C94.7298 93.9994 94.9202 93.9489 95.0887 93.8529L104.277 88.5324C104.624 88.3369 104.84 87.9677 104.84 87.5767V61.1045C104.84 60.6919 104.624 60.3228 104.277 60.1272L98.7942 57.0652ZM97.9492 84.0805C97.9492 84.1891 97.9058 84.2759 97.819 84.3193L94.6769 86.1434C94.633 86.1649 94.5848 86.1761 94.536 86.1761C94.4872 86.1761 94.439 86.1649 94.3951 86.1434L91.253 84.3193C91.1662 84.2759 91.1228 84.1673 91.1228 84.0805V80.4321C91.1228 80.3235 91.1662 80.2367 91.253 80.1932L94.3951 78.3689C94.439 78.3474 94.4872 78.3363 94.536 78.3363C94.5848 78.3363 94.633 78.3474 94.6769 78.3689L97.819 80.1932C97.9058 80.2365 97.9492 80.3453 97.9492 80.4321V84.0805ZM129.371 80.3453C129.718 80.1498 129.913 79.7806 129.913 79.3896V76.8054C129.913 76.4146 129.696 76.0454 129.371 75.85L120.248 70.5513C120.08 70.4552 119.889 70.4047 119.695 70.4047C119.502 70.4047 119.311 70.4552 119.143 70.5513L109.954 75.8716C109.608 76.067 109.391 76.4362 109.391 76.8271V87.4465C109.391 87.8373 109.608 88.2065 109.954 88.4019L119.078 93.6139C119.424 93.8093 119.836 93.8093 120.161 93.6139L125.687 90.5305C125.861 90.4435 125.969 90.248 125.969 90.0526C125.969 89.8572 125.861 89.6618 125.687 89.5748L116.456 84.2543C116.282 84.1457 116.174 83.9721 116.174 83.7766V80.4541C116.174 80.2586 116.282 80.0632 116.456 79.9762L119.338 78.3257C119.422 78.2725 119.52 78.2443 119.619 78.2443C119.719 78.2443 119.817 78.2725 119.901 78.3257L122.783 79.9762C122.957 80.0848 123.065 80.2584 123.065 80.4541V83.06C123.065 83.2554 123.173 83.4508 123.347 83.5376C123.431 83.5909 123.529 83.6191 123.629 83.6191C123.728 83.6191 123.826 83.5909 123.91 83.5376L129.371 80.3453Z" fill="#333333"/>
<path d="M119.555 79.8451C119.587 79.8238 119.625 79.8125 119.663 79.8125C119.702 79.8125 119.74 79.8238 119.772 79.8451L121.527 80.8657C121.592 80.9093 121.635 80.9744 121.635 81.0612V83.1027C121.635 83.1895 121.592 83.2547 121.527 83.2981L119.772 84.3187C119.74 84.34 119.702 84.3513 119.663 84.3513C119.625 84.3513 119.587 84.34 119.555 84.3187L117.8 83.2981C117.735 83.2547 117.691 83.1895 117.691 83.1027V81.0613C117.691 80.9744 117.735 80.9091 117.8 80.8659L119.555 79.8451Z" fill="#539E43"/>
<path d="M69.9928 70.5937C69.8244 70.4977 69.634 70.4473 69.4403 70.4473C69.2465 70.4473 69.0561 70.4977 68.8877 70.5937L59.7645 75.8705C59.4177 76.0659 59.2227 76.4351 59.2227 76.826V87.402C59.2227 87.7928 59.4394 88.162 59.7645 88.3574L68.8877 93.6346C69.0561 93.7306 69.2465 93.781 69.4403 93.781C69.634 93.781 69.8244 93.7306 69.9928 93.6346L79.1162 88.3574C79.4629 88.162 79.6581 87.7928 79.6581 87.402V76.8261C79.6581 76.4353 79.4412 76.0661 79.1162 75.8707L69.9928 70.5937Z" fill="url(#paint0_linear_6035_2713)"/>
<mask id="mask0_6035_2713" style="mask-type:luminance" maskUnits="userSpaceOnUse" x="59" y="70" width="21" height="24">
<path d="M69.9928 70.5937C69.8244 70.4977 69.634 70.4473 69.4403 70.4473C69.2465 70.4473 69.0561 70.4977 68.8877 70.5937L59.7645 75.8705C59.4177 76.0659 59.2227 76.4351 59.2227 76.826V87.402C59.2227 87.7928 59.4394 88.162 59.7645 88.3574L68.8877 93.6346C69.0561 93.7306 69.2465 93.781 69.4403 93.781C69.634 93.781 69.8244 93.7306 69.9928 93.6346L79.1162 88.3574C79.4629 88.162 79.6581 87.7928 79.6581 87.402V76.8261C79.6581 76.4353 79.4412 76.0661 79.1162 75.8707L69.9928 70.5937Z" fill="white"/>
</mask>
<g mask="url(#mask0_6035_2713)">
<path d="M79.1381 75.8699L69.9716 70.593C69.8815 70.5474 69.7871 70.511 69.6898 70.4844L59.418 88.1182C59.5031 88.2223 59.6059 88.3105 59.7215 88.3789L68.888 93.656C69.1481 93.808 69.4515 93.8514 69.7331 93.7644L79.3766 76.0873C79.3115 76.0005 79.2247 75.9349 79.1381 75.8699Z" fill="url(#paint1_linear_6035_2713)"/>
</g>
<mask id="mask1_6035_2713" style="mask-type:luminance" maskUnits="userSpaceOnUse" x="59" y="70" width="21" height="24">
<path d="M69.9928 70.5937C69.8244 70.4977 69.634 70.4473 69.4403 70.4473C69.2465 70.4473 69.0561 70.4977 68.8877 70.5937L59.7645 75.8705C59.4177 76.0659 59.2227 76.4351 59.2227 76.826V87.402C59.2227 87.7928 59.4394 88.162 59.7645 88.3574L68.8877 93.6346C69.0561 93.7306 69.2465 93.781 69.4403 93.781C69.634 93.781 69.8244 93.7306 69.9928 93.6346L79.1162 88.3574C79.4629 88.162 79.6581 87.7928 79.6581 87.402V76.8261C79.6581 76.4353 79.4412 76.0661 79.1162 75.8707L69.9928 70.5937Z" fill="white"/>
</mask>
<g mask="url(#mask1_6035_2713)">
<path fill-rule="evenodd" clip-rule="evenodd" d="M79.1608 88.3574C79.4209 88.2054 79.6159 87.9448 79.7027 87.6626L69.6472 70.4631C69.3872 70.4197 69.1054 70.4413 68.8672 70.5933L59.7656 75.8488L69.5822 93.7865C69.725 93.7633 69.8637 93.7194 69.9939 93.6563L79.1608 88.3574Z" fill="url(#paint2_linear_6035_2713)"/>
<path fill-rule="evenodd" clip-rule="evenodd" d="M79.1582 88.3573L70.0133 93.6344C69.8842 93.7003 69.745 93.7443 69.6016 93.7646L69.775 94.0904L79.9167 88.2054V88.075L79.6566 87.6406C79.6133 87.9446 79.4183 88.2053 79.1582 88.3573Z" fill="url(#paint3_linear_6035_2713)"/>
<path fill-rule="evenodd" clip-rule="evenodd" d="M79.1582 88.3573L70.0133 93.6344C69.8842 93.7003 69.745 93.7443 69.6016 93.7646L69.775 94.0904L79.9167 88.2054V88.075L79.6566 87.6406C79.6133 87.9446 79.4183 88.2053 79.1582 88.3573Z" fill="url(#paint4_linear_6035_2713)"/>
</g>
</g>
<defs>
<filter id="filter0_d_6035_2713" x="0" y="0" width="178" height="178" filterUnits="userSpaceOnUse" color-interpolation-filters="sRGB">
<feFlood flood-opacity="0" result="BackgroundImageFix"/>
<feColorMatrix in="SourceAlpha" type="matrix" values="0 0 0 0 0 0 0 0 0 0 0 0 0 0 0 0 0 0 127 0" result="hardAlpha"/>
<feOffset dx="7" dy="3"/>
<feGaussianBlur stdDeviation="7.5"/>
<feComposite in2="hardAlpha" operator="out"/>
<feColorMatrix type="matrix" values="0 0 0 0 0.2 0 0 0 0 0.2 0 0 0 0 0.2 0 0 0 0.25 0"/>
<feBlend mode="normal" in2="BackgroundImageFix" result="effect1_dropShadow_6035_2713"/>
<feBlend mode="normal" in="SourceGraphic" in2="effect1_dropShadow_6035_2713" result="shape"/>
</filter>
<linearGradient id="paint0_linear_6035_2713" x1="1452.67" y1="478.485" x2="449.673" y2="2051.17" gradientUnits="userSpaceOnUse">
<stop stop-color="#41873F"/>
<stop offset="0.3288" stop-color="#418B3D"/>
<stop offset="0.6352" stop-color="#419637"/>
<stop offset="0.9319" stop-color="#3FA92D"/>
<stop offset="1" stop-color="#3FAE2A"/>
</linearGradient>
<linearGradient id="paint1_linear_6035_2713" x1="923.167" y1="1357.27" x2="3430.01" y2="-1.82604" gradientUnits="userSpaceOnUse">
<stop offset="0.1376" stop-color="#41873F"/>
<stop offset="0.4032" stop-color="#54A044"/>
<stop offset="0.7136" stop-color="#66B848"/>
<stop offset="0.9081" stop-color="#6CC04A"/>
</linearGradient>
<linearGradient id="paint2_linear_6035_2713" x1="-27.7381" y1="1237.53" x2="2083.36" y2="1237.53" gradientUnits="userSpaceOnUse">
<stop offset="0.09192" stop-color="#6CC04A"/>
<stop offset="0.2864" stop-color="#66B848"/>
<stop offset="0.5968" stop-color="#54A044"/>
<stop offset="0.8624" stop-color="#41873F"/>
</linearGradient>
<linearGradient id="paint3_linear_6035_2713" x1="-1001.74" y1="411.904" x2="1109.34" y2="411.904" gradientUnits="userSpaceOnUse">
<stop offset="0.09192" stop-color="#6CC04A"/>
<stop offset="0.2864" stop-color="#66B848"/>
<stop offset="0.5968" stop-color="#54A044"/>
<stop offset="0.8624" stop-color="#41873F"/>
</linearGradient>
<linearGradient id="paint4_linear_6035_2713" x1="1416.89" y1="-1273.71" x2="879.881" y2="1534.25" gradientUnits="userSpaceOnUse">
<stop stop-color="#41873F"/>
<stop offset="0.3288" stop-color="#418B3D"/>
<stop offset="0.6352" stop-color="#419637"/>
<stop offset="0.9319" stop-color="#3FA92D"/>
<stop offset="1" stop-color="#3FAE2A"/>
</linearGradient>
<clipPath id="clip0_6035_2713">
<rect width="96" height="59" fill="white" transform="translate(34 57)"/>
</clipPath>
</defs>
</svg>
