<svg width="150" height="150" viewBox="0 0 150 150" fill="none" xmlns="http://www.w3.org/2000/svg">
<path d="M24.2109 94.8195V56.5267H33.5259V59.9583H28.5849V91.459H33.527V94.8907L24.2109 94.8195ZM55.8248 75.2936C55.8248 82.2777 51.5845 86.2549 45.8414 86.2549C40.0982 86.2549 36.2708 81.7742 36.2708 75.6558C36.2708 69.2528 40.2836 64.7441 46.154 64.7441C52.0244 64.7441 55.8248 69.4448 55.8248 75.2936ZM40.2836 75.6062C40.2836 79.8454 42.4108 83.207 46.0624 83.207C49.714 83.207 51.812 79.7753 51.812 75.4499C51.812 71.5223 49.8757 67.8135 46.0613 67.8135C42.2469 67.8135 40.248 71.4015 40.248 75.6914L40.2836 75.6062ZM59.0505 65.4675C60.8726 65.1549 62.7237 64.9996 64.5738 65.0061C66.653 64.8039 68.7428 65.2655 70.5434 66.3247C71.2191 66.7206 71.7762 67.2906 72.1566 67.9751C72.537 68.6597 72.7267 69.4338 72.7061 70.2167C72.6821 71.2341 72.3374 72.2179 71.7211 73.0278C71.1049 73.8376 70.2486 74.4321 69.2744 74.7265C71.7207 75.2224 73.4791 77.3787 73.4791 79.8745C73.4915 80.6947 73.3174 81.507 72.9698 82.25C72.6222 82.993 72.1103 83.6472 71.4727 84.1633C69.9978 85.4678 67.5451 86.0996 63.7512 86.0996C62.1918 86.1066 60.6337 86.014 59.0861 85.8225L59.0505 65.4675ZM62.8229 73.685H64.7581C67.3812 73.685 68.8561 72.4506 68.8561 70.6857C68.8561 68.9208 67.3812 67.8351 64.9641 67.8351C64.2397 67.8129 63.515 67.8653 62.8013 67.9914L62.8229 73.685ZM62.8229 83.2566C63.4892 83.3267 64.163 83.3558 64.8282 83.3407C67.268 83.3407 69.4232 82.4124 69.4232 79.9101C69.4232 77.4078 67.3316 76.4784 64.7085 76.4784H62.8218L62.8229 83.2566ZM80.9742 65.1905H84.766V78.7253C84.766 84.476 81.9877 86.3972 77.9037 86.3972C76.8127 86.3906 75.73 86.206 74.6985 85.8506L75.1599 82.7952C75.9178 83.0367 76.7124 83.1563 77.5134 83.1714C79.6762 83.1714 80.9451 82.1785 80.9451 78.5765L80.9742 65.1905ZM95.558 76.4633V79.0875H87.6661V76.4633H95.558ZM113.984 85.3827C112.279 86.0605 110.451 86.3769 108.617 86.312C102.01 86.312 97.9967 82.1785 97.9967 75.8467C97.6916 70.0755 102.123 65.1484 107.894 64.8433C108.298 64.8217 108.71 64.8218 109.113 64.8498C110.877 64.7761 112.635 65.0935 114.261 65.7791L113.417 68.799C112.126 68.2527 110.736 67.9775 109.333 67.9904C105.094 67.9904 102.045 70.6501 102.045 75.6623C102.045 80.2282 104.739 83.1779 109.305 83.1779C110.721 83.1998 112.127 82.9369 113.439 82.4049L113.984 85.3827ZM125.889 56.4199V94.812H116.573V91.3814H121.514V59.8516H116.573V56.4199H125.889Z" fill="#202020"/>
<circle cx="75" cy="75" r="74.5" stroke="#FABA0B"/>
</svg>
