<svg width="178" height="178" viewBox="0 0 178 178" fill="none" xmlns="http://www.w3.org/2000/svg">
<g filter="url(#filter0_d_6035_2749)">
<circle cx="82" cy="86" r="74" fill="#F1592A"/>
</g>
<path d="M31.2109 105.82V67.5267H40.5259V70.9583H35.5849V102.459H40.527V105.891L31.2109 105.82ZM62.8248 86.2936C62.8248 93.2777 58.5845 97.2549 52.8414 97.2549C47.0982 97.2549 43.2708 92.7742 43.2708 86.6558C43.2708 80.2528 47.2836 75.7441 53.154 75.7441C59.0244 75.7441 62.8248 80.4448 62.8248 86.2936ZM47.2836 86.6062C47.2836 90.8454 49.4108 94.207 53.0624 94.207C56.714 94.207 58.812 90.7753 58.812 86.4499C58.812 82.5223 56.8757 78.8135 53.0613 78.8135C49.2469 78.8135 47.248 82.4015 47.248 86.6914L47.2836 86.6062ZM66.0505 76.4675C67.8726 76.1549 69.7237 75.9996 71.5738 76.0061C73.653 75.8039 75.7428 76.2655 77.5434 77.3247C78.2191 77.7206 78.7762 78.2906 79.1566 78.9751C79.537 79.6597 79.7267 80.4338 79.7061 81.2167C79.6821 82.2341 79.3374 83.2179 78.7211 84.0278C78.1049 84.8376 77.2486 85.4321 76.2744 85.7265C78.7207 86.2224 80.4791 88.3787 80.4791 90.8745C80.4915 91.6947 80.3174 92.507 79.9698 93.25C79.6222 93.993 79.1103 94.6472 78.4727 95.1633C76.9978 96.4678 74.5451 97.0996 70.7512 97.0996C69.1918 97.1066 67.6337 97.014 66.0861 96.8225L66.0505 76.4675ZM69.8229 84.685H71.7581C74.3812 84.685 75.8561 83.4506 75.8561 81.6857C75.8561 79.9208 74.3812 78.8351 71.9641 78.8351C71.2397 78.8129 70.515 78.8653 69.8013 78.9914L69.8229 84.685ZM69.8229 94.2566C70.4892 94.3267 71.163 94.3558 71.8282 94.3407C74.268 94.3407 76.4232 93.4124 76.4232 90.9101C76.4232 88.4078 74.3316 87.4784 71.7085 87.4784H69.8218L69.8229 94.2566ZM87.9742 76.1905H91.766V89.7253C91.766 95.476 88.9877 97.3972 84.9037 97.3972C83.8127 97.3906 82.73 97.206 81.6985 96.8506L82.1599 93.7952C82.9178 94.0367 83.7124 94.1563 84.5134 94.1714C86.6762 94.1714 87.9451 93.1785 87.9451 89.5765L87.9742 76.1905ZM102.558 87.4633V90.0875H94.6661V87.4633H102.558ZM120.984 96.3827C119.279 97.0605 117.451 97.3769 115.617 97.312C109.01 97.312 104.997 93.1785 104.997 86.8467C104.692 81.0755 109.123 76.1484 114.894 75.8433C115.298 75.8217 115.71 75.8218 116.113 75.8498C117.877 75.7761 119.635 76.0935 121.261 76.7791L120.417 79.799C119.126 79.2527 117.736 78.9775 116.333 78.9904C112.094 78.9904 109.045 81.6501 109.045 86.6623C109.045 91.2282 111.739 94.1779 116.305 94.1779C117.721 94.1998 119.127 93.9369 120.439 93.4049L120.984 96.3827ZM132.889 67.4199V105.812H123.573V102.381H128.514V70.8516H123.573V67.4199H132.889Z" fill="white"/>
<defs>
<filter id="filter0_d_6035_2749" x="0" y="0" width="178" height="178" filterUnits="userSpaceOnUse" color-interpolation-filters="sRGB">
<feFlood flood-opacity="0" result="BackgroundImageFix"/>
<feColorMatrix in="SourceAlpha" type="matrix" values="0 0 0 0 0 0 0 0 0 0 0 0 0 0 0 0 0 0 127 0" result="hardAlpha"/>
<feOffset dx="7" dy="3"/>
<feGaussianBlur stdDeviation="7.5"/>
<feComposite in2="hardAlpha" operator="out"/>
<feColorMatrix type="matrix" values="0 0 0 0 0.188235 0 0 0 0 0.188235 0 0 0 0 0.188235 0 0 0 0.25 0"/>
<feBlend mode="normal" in2="BackgroundImageFix" result="effect1_dropShadow_6035_2749"/>
<feBlend mode="normal" in="SourceGraphic" in2="effect1_dropShadow_6035_2749" result="shape"/>
</filter>
</defs>
</svg>
