<svg width="150" height="150" viewBox="0 0 150 150" fill="none" xmlns="http://www.w3.org/2000/svg">
<path d="M75.5013 55.1439C99.3757 55.1439 117.641 65.1141 117.641 76.3831C117.641 87.6521 99.3757 97.7656 75.5013 97.7656C51.6269 97.7656 33.3611 87.6521 33.3611 76.3831C33.3611 65.1141 51.6269 55.1439 75.5013 55.1439ZM75.5013 52.6895C50.7665 52.6895 30.918 63.2374 30.918 76.2398C30.918 89.2421 50.7665 99.6467 75.5013 99.6467C100.236 99.6467 120.085 89.2421 120.085 76.2398C120.085 63.2374 100.236 52.6895 75.5013 52.6895ZM61.2614 74.5019C60.2583 80.1409 56.2279 79.5631 51.4843 79.5631L53.4994 69.593C58.8182 69.593 62.269 69.0107 61.2614 74.5019ZM44.4356 89.5377H49.6162L50.7665 83.1776C56.3751 83.1776 60.1111 83.6121 63.2766 80.5799C66.8744 77.1087 67.8775 71.1875 65.2917 68.2986C63.8517 66.7086 61.8365 65.8396 58.8182 65.8396H48.894L44.4356 89.5377ZM70.4678 59.6273H75.5013L74.351 65.9874C78.6667 65.9874 82.8353 65.8396 84.8504 67.573C86.8611 69.5975 85.858 71.9086 83.8428 83.4688H78.5196C80.5348 72.4864 80.9672 71.4742 80.3921 70.6097C79.817 69.7453 77.5165 69.7408 73.4861 69.7408L70.9003 83.4688H65.8624L70.4678 59.6273ZM101.244 74.5109C100.236 80.1454 96.2103 79.5676 91.4666 79.5676L93.4773 69.5975C98.8005 69.5975 102.251 69.0197 101.244 74.5109ZM84.418 89.5333H89.4514L90.6017 83.4643C96.6427 83.4643 99.9508 83.8988 103.116 80.8665C106.71 77.3953 107.717 71.4697 105.127 68.5808C103.691 66.9907 101.676 66.1263 98.6579 66.1263H88.7336L84.418 89.5333Z" fill="#202020"/>
<circle cx="75" cy="75" r="74.5" stroke="#FABA0B"/>
</svg>
