<svg width="178" height="178" viewBox="0 0 178 178" fill="none" xmlns="http://www.w3.org/2000/svg">
<g filter="url(#filter0_d_6035_2761)">
<circle cx="82" cy="86" r="74" fill="#F0F0F0"/>
</g>
<path d="M30 86.5003C30 101.752 53.5052 114.118 82.5 114.118C111.495 114.118 135 101.752 135 86.5003C135 71.2482 111.494 58.8828 82.5 58.8828C53.5061 58.8828 30 71.2482 30 86.5003Z" fill="url(#paint0_radial_6035_2761)"/>
<path d="M82.5 112.067C110.362 112.067 132.949 100.619 132.949 86.5003C132.949 72.3794 110.362 60.9336 82.5 60.9336C54.6381 60.9336 32.0508 72.3794 32.0508 86.5003C32.0508 100.619 54.6381 112.067 82.5 112.067Z" fill="#777BB3"/>
<path d="M58.5247 89.6689C60.8159 89.6689 62.5254 89.2464 63.6074 88.4138C64.6787 87.5886 65.4178 86.1604 65.8058 84.1687C66.1668 82.3066 66.029 81.0072 65.3957 80.305C64.7493 79.5881 63.3506 79.2247 61.2392 79.2247H57.5773L55.5486 89.6689H58.5247ZM46.549 102.534C46.465 102.534 46.382 102.515 46.3061 102.479C46.2302 102.443 46.1631 102.391 46.1098 102.326C46.0565 102.261 46.0182 102.185 45.9977 102.104C45.9772 102.022 45.975 101.937 45.9912 101.855L51.37 74.1789C51.3954 74.0496 51.4649 73.933 51.5666 73.8491C51.6683 73.7652 51.7959 73.7191 51.9278 73.7188H63.5221C67.1659 73.7188 69.8779 74.708 71.5833 76.6596C73.2961 78.6201 73.826 81.3632 73.1558 84.8094C72.8827 86.2129 72.4134 87.5164 71.7613 88.6845C71.0826 89.8862 70.2164 90.9717 69.1954 91.9002C67.9395 93.0748 66.5179 93.928 64.9732 94.4292C63.454 94.9247 61.5016 95.1757 59.1736 95.1757H54.4781L53.1377 102.073C53.1124 102.203 53.0428 102.32 52.9407 102.404C52.8387 102.488 52.7105 102.534 52.5783 102.534H46.549Z" fill="black"/>
<path d="M58.0472 79.7938H61.239C63.7877 79.7938 64.6728 80.3532 64.9739 80.6871C65.4718 81.24 65.567 82.4073 65.2454 84.0602C64.8853 85.9117 64.2175 87.225 63.2602 87.9616C62.2808 88.7163 60.6861 89.0986 58.5246 89.0986H56.2392L58.0472 79.7938ZM63.5219 73.1493H51.9284C51.6641 73.1493 51.4079 73.2412 51.2038 73.4092C50.9997 73.5773 50.8603 73.811 50.8095 74.0705L45.4308 101.747C45.399 101.912 45.404 102.082 45.4455 102.244C45.487 102.407 45.5638 102.559 45.6707 102.688C45.7775 102.818 45.9116 102.922 46.0634 102.994C46.2152 103.065 46.3809 103.103 46.5488 103.103H52.5781C52.8425 103.103 53.0986 103.011 53.3025 102.842C53.5065 102.674 53.6456 102.44 53.6962 102.181L54.9472 95.7448H59.1726C61.5614 95.7448 63.5728 95.4839 65.1502 94.9704C66.772 94.4438 68.2642 93.5504 69.5849 92.315C70.6485 91.3467 71.5509 90.2149 72.2583 88.9624C72.9399 87.7426 73.4305 86.3809 73.7143 84.9175C74.4198 81.2892 73.8464 78.3845 72.0113 76.2845C70.1935 74.2034 67.3372 73.1484 63.5219 73.1484V73.1493ZM54.857 90.2372H58.5246C60.9554 90.2377 62.7656 89.7797 63.955 88.8632C65.1445 87.9477 65.9479 86.4189 66.3651 84.2768C66.7633 82.2195 66.5814 80.768 65.8196 79.9226C65.0567 79.0771 63.5299 78.6544 61.239 78.6544H57.1079L54.857 90.2372ZM63.5227 74.2862C67.0107 74.2862 69.5545 75.2017 71.1541 77.0326C72.7537 78.8636 73.235 81.4191 72.5979 84.6993C72.3343 86.0511 71.8899 87.2865 71.2649 88.4054C70.6387 89.5254 69.8208 90.55 68.8113 91.4791C67.6082 92.6057 66.2705 93.4082 64.7983 93.8868C63.3267 94.3658 61.4517 94.6051 59.1734 94.6045H54.0088L52.579 101.963H46.5497L51.9293 74.2862H63.5227Z" fill="white"/>
<path d="M86.9782 95.1764C86.8941 95.1766 86.8111 95.158 86.735 95.1222C86.6589 95.0864 86.5918 95.0342 86.5383 94.9694C86.4848 94.9045 86.4463 94.8286 86.4257 94.7471C86.405 94.6656 86.4026 94.5806 86.4187 94.498L88.7976 82.2524C89.0249 81.0876 88.9691 80.2525 88.6418 79.8981C88.4408 79.6824 87.8387 79.3206 86.0578 79.3206H81.7462L78.7554 94.7162C78.7297 94.8459 78.6598 94.9626 78.5576 95.0464C78.4554 95.1302 78.3273 95.1759 78.1951 95.1756H72.215C72.131 95.1757 72.048 95.1572 71.972 95.1214C71.896 95.0857 71.8288 95.0336 71.7753 94.9688C71.7217 94.9041 71.6832 94.8283 71.6623 94.7469C71.6415 94.6655 71.6389 94.5805 71.6548 94.498L77.0344 66.8215C77.0598 66.6919 77.1296 66.5751 77.2316 66.4911C77.3336 66.4072 77.4617 66.3613 77.5938 66.3613H83.5739C83.6579 66.3613 83.7409 66.3798 83.8169 66.4155C83.8929 66.4513 83.9601 66.5034 84.0136 66.5681C84.0672 66.6329 84.1057 66.7087 84.1266 66.79C84.1474 66.8714 84.15 66.9564 84.1342 67.0389L82.8364 73.7195H87.4737C91.0067 73.7195 93.4021 74.3413 94.7974 75.6235C96.219 76.9302 96.6636 79.0196 96.1165 81.8357L93.6137 94.7162C93.5881 94.8458 93.5183 94.9623 93.4162 95.0461C93.3142 95.1299 93.1863 95.1757 93.0542 95.1756L86.9782 95.1764Z" fill="black"/>
<path d="M83.5736 65.791H77.5927C77.3282 65.7911 77.0719 65.8831 76.8678 66.0513C76.6637 66.2195 76.5244 66.4534 76.4738 66.713L71.095 94.3887C71.0631 94.5537 71.068 94.7236 71.1094 94.8864C71.1508 95.0492 71.2277 95.2008 71.3345 95.3305C71.4413 95.4601 71.5755 95.5645 71.7273 95.6363C71.8792 95.708 72.0451 95.7453 72.2131 95.7456H78.194C78.4585 95.7455 78.7147 95.6535 78.9188 95.4853C79.123 95.3171 79.2622 95.0831 79.3129 94.8235L82.2143 79.8897H86.055C87.8334 79.8897 88.2075 80.2695 88.2215 80.2868C88.3297 80.4016 88.4717 80.9389 88.237 82.1439L85.8581 94.3887C85.8262 94.5537 85.8312 94.7237 85.8726 94.8866C85.9141 95.0494 85.991 95.2011 86.0979 95.3308C86.2048 95.4604 86.3391 95.5648 86.4911 95.6365C86.643 95.7082 86.809 95.7455 86.977 95.7456H93.0539C93.3183 95.7453 93.5743 95.6532 93.7783 95.485C93.9822 95.3168 94.1214 95.083 94.172 94.8235L96.6748 81.9446C97.2613 78.9209 96.7593 76.6536 95.1818 75.2041C93.6757 73.8211 91.1541 73.1492 87.4725 73.1492H83.5268L84.6925 67.1486C84.7245 66.9836 84.7197 66.8135 84.6783 66.6505C84.6369 66.4876 84.56 66.3358 84.4531 66.2061C84.3461 66.0763 84.2118 65.9718 84.0598 65.9001C83.9077 65.8283 83.7417 65.7911 83.5736 65.791ZM83.5736 66.9312L82.1438 74.2878H87.4725C90.8254 74.2878 93.1379 74.873 94.4099 76.0433C95.683 77.2125 96.0653 79.1074 95.5567 81.728L93.0531 94.6061H86.977L89.3568 82.3605C89.6275 80.9676 89.5277 80.0177 89.0574 79.5107C88.587 79.0043 87.5868 78.7511 86.0567 78.7511H81.2751L78.194 94.6053H72.2122L77.5918 66.9288H83.5736V66.9312Z" fill="white"/>
<path d="M105.583 89.6689C107.874 89.6689 109.584 89.2464 110.667 88.4138C111.736 87.5886 112.476 86.1604 112.864 84.1687C113.225 82.3066 113.088 81.0072 112.454 80.305C111.808 79.5881 110.409 79.2247 108.298 79.2247H104.637L102.606 89.6689H105.583ZM93.6092 102.534C93.5251 102.534 93.4419 102.515 93.3658 102.48C93.2897 102.444 93.2224 102.391 93.1689 102.327C93.1154 102.262 93.077 102.186 93.0564 102.104C93.0358 102.022 93.0335 101.937 93.0498 101.855L98.4286 74.1789C98.454 74.0493 98.5238 73.9325 98.6258 73.8486C98.7279 73.7646 98.8559 73.7187 98.988 73.7188H110.581C114.225 73.7188 116.937 74.708 118.642 76.6596C120.356 78.6201 120.885 81.3632 120.214 84.8094C119.958 86.1667 119.488 87.4748 118.821 88.6845C118.142 89.8862 117.276 90.9717 116.255 91.9002C115 93.0748 113.576 93.928 112.033 94.4292C110.513 94.9247 108.561 95.1757 106.232 95.1757H101.538L100.198 102.073C100.173 102.203 100.103 102.32 100.001 102.404C99.8984 102.488 99.7701 102.534 99.6377 102.534H93.6092Z" fill="black"/>
<path d="M105.102 79.7938H108.294C110.842 79.7938 111.728 80.3532 112.028 80.6871C112.528 81.24 112.622 82.4073 112.301 84.0602C111.94 85.9117 111.272 87.225 110.315 87.9616C109.335 88.7163 107.74 89.0986 105.579 89.0986H103.294L105.102 79.7938ZM110.577 73.1493H98.9831C98.7189 73.1495 98.4629 73.2415 98.259 73.4095C98.0551 73.5775 97.9158 73.8111 97.865 74.0705L92.4854 101.747C92.4537 101.912 92.4587 102.082 92.5002 102.245C92.5417 102.407 92.6187 102.559 92.7256 102.688C92.8325 102.818 92.9667 102.922 93.1186 102.994C93.2705 103.066 93.4364 103.103 93.6043 103.103H99.6336C99.898 103.103 100.154 103.011 100.358 102.842C100.562 102.674 100.701 102.44 100.752 102.181L102.003 95.7448H106.227C108.615 95.7448 110.627 95.4839 112.204 94.9704C113.827 94.4438 115.319 93.5504 116.64 92.3142C117.704 91.346 118.606 90.2146 119.313 88.9624C119.995 87.7426 120.484 86.3809 120.769 84.9175C121.474 81.2892 120.902 78.3845 119.066 76.2845C117.248 74.2034 114.393 73.1484 110.576 73.1484L110.577 73.1493ZM101.912 90.2372H105.578C108.009 90.2377 109.82 89.7797 111.011 88.8632C112.2 87.9477 113.003 86.4189 113.419 84.2768C113.819 82.2195 113.637 80.768 112.873 79.9226C112.11 79.0771 110.583 78.6544 108.294 78.6544H104.163L101.912 90.2372ZM110.577 74.2862C114.065 74.2862 116.608 75.2017 118.208 77.0326C119.808 78.8636 120.289 81.4191 119.651 84.6993C119.388 86.0511 118.944 87.2865 118.319 88.4054C117.693 89.5254 116.875 90.55 115.864 91.4791C114.661 92.6057 113.324 93.4082 111.851 93.8868C110.38 94.3658 108.506 94.6051 106.227 94.6045H101.063L99.632 101.963H93.6027L98.9823 74.2862H110.577Z" fill="white"/>
<defs>
<filter id="filter0_d_6035_2761" x="0" y="0" width="178" height="178" filterUnits="userSpaceOnUse" color-interpolation-filters="sRGB">
<feFlood flood-opacity="0" result="BackgroundImageFix"/>
<feColorMatrix in="SourceAlpha" type="matrix" values="0 0 0 0 0 0 0 0 0 0 0 0 0 0 0 0 0 0 127 0" result="hardAlpha"/>
<feOffset dx="7" dy="3"/>
<feGaussianBlur stdDeviation="7.5"/>
<feComposite in2="hardAlpha" operator="out"/>
<feColorMatrix type="matrix" values="0 0 0 0 0.188235 0 0 0 0 0.188235 0 0 0 0 0.188235 0 0 0 0.25 0"/>
<feBlend mode="normal" in2="BackgroundImageFix" result="effect1_dropShadow_6035_2761"/>
<feBlend mode="normal" in="SourceGraphic" in2="effect1_dropShadow_6035_2761" result="shape"/>
</filter>
<radialGradient id="paint0_radial_6035_2761" cx="0" cy="0" r="1" gradientUnits="userSpaceOnUse" gradientTransform="translate(61.5213 68.592) scale(68.9402 68.9402)">
<stop stop-color="#AEB2D5"/>
<stop offset="0.3" stop-color="#AEB2D5"/>
<stop offset="0.75" stop-color="#484C89"/>
<stop offset="1" stop-color="#484C89"/>
</radialGradient>
</defs>
</svg>
