<svg width="148" height="148" viewBox="0 0 148 148" fill="none" xmlns="http://www.w3.org/2000/svg">
<circle cx="74" cy="74" r="74" fill="white"/>
<path d="M92.6302 96.5709C93.1209 92.4878 92.974 91.8884 96.0152 92.5503L96.7871 92.6178C99.1259 92.724 102.185 92.2415 103.983 91.4065C107.852 89.6109 110.146 86.614 106.331 87.4009C97.629 89.1965 97.0309 86.2497 97.0309 86.2497C106.22 72.6153 110.061 55.3072 106.745 51.0703C97.7015 39.5146 82.0471 44.979 81.7852 45.1203L81.7015 45.1359C79.9821 44.779 78.0577 44.5659 75.8958 44.5309C71.9577 44.4659 68.9696 45.5634 66.7027 47.2822C66.7027 47.2822 38.7759 35.7765 40.0752 61.7515C40.3515 67.2772 47.9952 103.563 57.1127 92.6028C60.4452 88.5953 63.6652 85.2065 63.6652 85.2065C65.264 86.2684 67.179 86.8109 69.1865 86.6159L69.3421 86.4834C69.2934 86.9809 69.3146 87.4678 69.404 88.044C67.0559 90.6684 67.7459 91.129 63.0502 92.0953C58.299 93.074 61.0902 94.8172 62.9121 95.2728C65.1215 95.8253 70.2321 96.6078 73.6859 91.774L73.5484 92.3253C74.4696 93.0628 74.4077 97.6234 74.5377 100.882C74.6684 104.14 74.8865 107.181 75.5509 108.974C76.2152 110.767 76.999 115.384 83.1702 114.062C88.3277 112.959 92.2709 111.368 92.6302 96.5709Z" fill="black"/>
<path d="M81.1605 117.285C78.4311 117.285 76.6536 116.229 75.5742 115.21C73.9448 113.672 73.2986 111.692 72.9123 110.508L72.7455 110.015C71.968 107.916 71.7042 104.894 71.548 101.003C71.5242 100.418 71.508 99.8165 71.4898 99.1784C71.4767 98.7115 71.4605 98.1259 71.4367 97.5134C70.4534 97.9822 69.4096 98.3121 68.3355 98.4934C66.4111 98.8221 64.3423 98.7159 62.1855 98.1765C60.6636 97.7959 59.0823 97.0071 58.1811 95.789C55.5542 98.0896 53.0486 97.7778 51.6836 97.3221C49.2755 96.519 47.1205 94.2621 45.0948 90.424C43.6517 87.6896 42.2561 84.1271 40.9461 79.8346C38.6648 72.3596 37.2155 64.4865 37.0867 61.9015C36.6817 53.8109 38.8598 48.0246 43.5592 44.7053C50.9723 39.469 62.2042 42.5484 66.2992 43.9465C69.0505 42.2884 72.2873 41.4815 75.9448 41.5396C77.9092 41.5715 79.7798 41.744 81.5173 42.054C83.3298 41.484 86.9098 40.6659 91.008 40.7171C98.5586 40.8071 104.815 43.7496 109.101 49.2265C112.16 53.134 110.647 61.3396 109.474 65.8834C107.823 72.2746 104.93 79.0721 101.376 84.9896C102.341 84.9965 103.739 84.8809 105.727 84.4703C109.648 83.6609 110.795 85.7634 111.106 86.7046C112.353 90.4809 106.933 93.3346 105.242 94.1196C103.076 95.1253 99.5442 95.7378 96.6517 95.6053L96.5255 95.5971L95.7655 95.5303L95.6905 96.164L95.618 96.7834C95.4236 104.283 94.3523 109.032 92.148 112.17C89.8373 115.46 86.6261 116.382 83.7973 116.988C82.8323 117.195 81.9555 117.285 81.1605 117.285ZM75.4167 89.9903C77.1786 91.4003 77.333 94.0534 77.4711 99.0115C77.4886 99.6303 77.5048 100.216 77.5267 100.763C77.593 102.419 77.7486 106.297 78.3561 107.936C78.4417 108.168 78.5186 108.403 78.5998 108.652C79.2767 110.725 79.6161 111.764 82.543 111.138C84.9998 110.612 86.263 110.139 87.2517 108.732C88.6886 106.685 89.4923 102.569 89.6398 96.4971L92.6292 96.5696L89.6605 96.2134L89.748 95.4721C90.0323 93.0284 90.2373 91.2634 91.8705 90.0959C93.1811 89.1596 94.6742 89.2503 95.8636 89.4646C94.5567 88.4771 94.1955 87.319 94.0992 86.844L93.8498 85.6159L94.5505 84.5765C98.5861 78.589 101.914 71.2303 103.681 64.3865C105.497 57.3546 104.944 53.6203 104.39 52.914C97.0592 43.5471 84.3473 47.4146 83.0198 47.8534L82.7955 47.9746L81.6705 48.184L81.0942 48.0646C79.5055 47.7346 77.7405 47.5521 75.8486 47.5215C72.8761 47.4715 70.478 48.174 68.5117 49.6659L67.1473 50.7003L65.5642 50.0484C62.1817 48.6653 52.2467 45.8846 47.0042 49.5978C44.0942 51.659 42.7686 55.6978 43.0636 61.6021C43.1611 63.5515 44.4855 70.9309 46.6705 78.0878C49.6898 87.9784 52.4336 91.264 53.5792 91.6459C53.7792 91.7134 54.298 91.3103 54.8142 90.6903C56.9668 88.1099 59.1957 85.5942 61.498 83.1465L63.2292 81.3246L65.3223 82.7153C66.1661 83.2759 67.0967 83.594 68.0523 83.654L73.0442 79.3965L72.3211 86.7765C72.3048 86.9421 72.2967 87.1678 72.3617 87.5865L72.5792 88.9853L71.6355 90.0403L71.5267 90.1628L74.2692 91.4284L75.4167 89.9903Z" fill="black"/>
<path d="M106.333 87.4003C97.6302 89.1959 97.0321 86.249 97.0321 86.249C106.221 72.614 110.063 55.3053 106.748 51.0696C97.7039 39.5146 82.0483 44.979 81.7871 45.1209L81.7027 45.1359C79.9833 44.779 78.0589 44.5665 75.8958 44.5315C71.9577 44.4671 68.9708 45.564 66.7039 47.2828C66.7039 47.2828 38.7764 35.7778 40.0752 61.7521C40.3514 67.2784 47.9952 103.564 57.1127 92.604C60.4452 88.5965 63.6646 85.2078 63.6646 85.2078C65.2639 86.2696 67.1783 86.8121 69.1852 86.6171L69.3414 86.4846C69.2927 86.9821 69.3152 87.469 69.4039 88.0453C67.0552 90.6696 67.7452 91.1303 63.0496 92.0965C58.2983 93.0753 61.0896 94.8184 62.9121 95.274C65.1208 95.8265 70.2321 96.609 73.6852 91.7753L73.5471 92.3265C74.4677 93.064 75.1139 97.1215 75.0058 100.8C74.8977 104.478 74.8246 107.003 75.5502 108.976C76.2752 110.948 76.9977 115.386 83.1702 114.063C88.3277 112.958 91.0002 110.094 91.3727 105.317C91.6364 101.92 92.2333 102.422 92.2714 99.3853L92.7508 97.9478C93.3033 93.3434 92.8383 91.8584 96.0164 92.549L96.7883 92.6165C99.1271 92.7228 102.188 92.2403 103.985 91.4053C107.853 89.6109 110.148 86.6134 106.333 87.4003Z" fill="#336791"/>
<path d="M81.4744 115.442C76.3294 115.442 74.6994 111.367 74.0326 109.701C73.0563 107.259 72.8457 97.7828 73.0632 90.0115C73.0664 89.8805 73.0956 89.7513 73.1489 89.6316C73.2023 89.5118 73.2788 89.4038 73.3741 89.3138C73.4693 89.2237 73.5815 89.1534 73.704 89.1069C73.8266 89.0604 73.9572 89.0386 74.0882 89.0428C74.2191 89.0463 74.348 89.0757 74.4676 89.1291C74.5871 89.1825 74.695 89.259 74.7849 89.3541C74.8749 89.4493 74.9452 89.5612 74.9919 89.6836C75.0386 89.8059 75.0607 89.9362 75.0569 90.0671C74.8063 99.0303 75.1619 107.153 75.8844 108.96C77.0119 111.778 78.7219 114.243 83.5563 113.208C88.1457 112.223 89.8644 110.483 90.6301 106.045C91.2176 102.64 92.3794 92.9509 92.5226 91.039C92.5321 90.9084 92.5674 90.7809 92.6263 90.6639C92.6853 90.5469 92.7667 90.4427 92.866 90.3572C92.9653 90.2717 93.0805 90.2067 93.2049 90.1658C93.3294 90.1249 93.4607 90.109 93.5913 90.119C93.8549 90.139 94.0999 90.2627 94.2724 90.4631C94.4448 90.6635 94.5308 90.9241 94.5113 91.1878C94.3619 93.1784 93.2057 102.848 92.5957 106.385C91.6919 111.627 89.3551 114.004 83.9744 115.158C83.0601 115.353 82.2294 115.441 81.4744 115.442ZM53.5769 95.5409C53.1272 95.5395 52.6807 95.4656 52.2544 95.3221C48.9126 94.2071 45.7294 88.7646 42.7932 79.144C40.5582 71.8209 39.1419 64.1771 39.0176 61.6928C38.6494 54.3278 40.5457 49.1171 44.6551 46.2065C52.7844 40.4465 66.4601 45.9315 67.0382 46.1678C67.2831 46.2678 67.4782 46.461 67.5807 46.7049C67.6831 46.9489 67.6845 47.2235 67.5844 47.4684C67.4844 47.7133 67.2912 47.9084 67.0473 48.0109C66.8033 48.1133 66.5287 48.1147 66.2838 48.0146C66.1519 47.9609 53.0382 42.7071 45.8038 47.8365C42.2901 50.3278 40.6769 54.9565 41.0088 61.5934C41.1132 63.6865 42.4363 71.1465 44.7001 78.5615C47.3213 87.1503 50.3044 92.5696 52.8851 93.4303C53.2901 93.5653 54.5226 93.9759 56.2844 91.8571C58.339 89.3895 60.4707 86.987 62.6763 84.6534C62.8609 84.4693 63.1101 84.3648 63.3708 84.3622C63.6314 84.3596 63.8827 84.4591 64.0709 84.6394C64.2591 84.8198 64.3692 85.0666 64.3777 85.3272C64.3862 85.5877 64.2924 85.8412 64.1163 86.0334C64.0863 86.0646 61.0869 89.2003 57.8182 93.1328C56.2701 94.9946 54.7863 95.5409 53.5769 95.5409ZM96.9701 87.1378C96.7893 87.1375 96.6119 87.0881 96.457 86.9949C96.3021 86.9017 96.1755 86.7681 96.0906 86.6085C96.0057 86.4488 95.9659 86.2691 95.9752 86.0886C95.9846 85.908 96.0429 85.7334 96.1438 85.5834C105.433 71.799 108.694 55.1434 105.901 51.5746C102.386 47.0834 97.4232 44.7378 91.1488 44.6021C86.5032 44.5021 82.8107 45.6884 82.2069 45.8953L82.0551 45.9571C81.4482 46.1478 80.9826 45.8153 80.8069 45.4265C80.7068 45.2038 80.6916 44.9521 80.7643 44.719C80.8369 44.4858 80.9924 44.2873 81.2013 44.1609C81.2301 44.144 81.3213 44.1053 81.4694 44.0509C82.4951 43.6753 86.2438 42.5503 90.8869 42.6034C97.8294 42.6771 103.564 45.354 107.471 50.3459C109.319 52.7078 109.323 58.149 107.483 65.2753C105.606 72.5409 102.076 80.349 97.7969 86.6984C97.6057 86.984 97.2907 87.1378 96.9701 87.1378ZM97.4451 93.519C95.8588 93.519 94.4369 93.2953 93.5857 92.7853C92.7107 92.2609 92.5438 91.5484 92.5219 91.1703C92.2832 86.9765 94.5969 86.2465 95.7769 85.9134C95.6126 85.6646 95.3788 85.3721 95.1369 85.0703C94.4488 84.2103 93.5063 83.0328 92.7801 81.2715C92.6663 80.9965 92.3101 80.3571 91.8976 79.6165C89.6607 75.6053 85.0063 67.2584 87.9963 62.984C89.3801 61.0059 92.1357 60.2271 96.1957 60.6615C95.0013 57.0228 89.3138 45.6403 75.8182 45.419C71.7594 45.3515 68.4307 46.5996 65.9294 49.1253C60.3294 54.7809 60.5319 65.014 60.5351 65.1165C60.5385 65.2474 60.5161 65.3777 60.4692 65.5C60.4223 65.6223 60.3518 65.7341 60.2617 65.8291C60.1715 65.9241 60.0636 66.0004 59.9439 66.0537C59.8243 66.107 59.6954 66.1362 59.5644 66.1396C59.4335 66.1431 59.3032 66.1207 59.181 66.0738C59.0587 66.0269 58.9469 65.9563 58.8519 65.8662C58.7569 65.7761 58.6805 65.6681 58.6272 65.5485C58.574 65.4289 58.5448 65.2999 58.5413 65.169C58.5288 64.7146 58.3201 53.9759 64.5126 47.7215C67.4107 44.7946 71.2257 43.3496 75.8513 43.4253C84.4851 43.5671 90.0426 47.9565 93.1838 51.6134C96.6082 55.599 98.2869 59.9953 98.4251 61.4628C98.5282 62.554 97.7451 62.7721 97.5869 62.8046L97.2269 62.8128C93.2426 62.1746 90.6863 62.6178 89.6294 64.1278C87.3551 67.3784 91.7582 75.274 93.6382 78.6459C94.1182 79.5059 94.4644 80.1278 94.6232 80.5115C95.2407 82.009 96.0463 83.0153 96.6932 83.824C97.2626 84.5353 97.7557 85.1521 97.9319 85.8759C98.0138 86.0196 99.1757 87.7384 106.07 86.3153C107.798 85.959 108.834 86.2634 109.151 87.2215C109.774 89.1059 106.278 91.304 104.343 92.2028C102.608 93.009 99.8401 93.519 97.4451 93.519ZM94.5101 91.0059C94.7288 91.2265 95.8232 91.6071 98.0894 91.5096C100.104 91.4234 102.229 90.9853 103.504 90.3934C105.135 89.6359 106.224 88.789 106.788 88.2109L106.475 88.2684C102.067 89.1784 98.9488 89.0571 97.2076 87.9078C97.0905 87.8306 96.9778 87.7469 96.8701 87.6571C96.6813 87.7315 96.5069 87.7803 96.3826 87.8153C95.3951 88.0921 94.3738 88.379 94.5101 91.0059ZM66.0338 96.5778C64.9388 96.5778 63.7863 96.4284 62.6094 96.134C61.3901 95.829 59.3344 94.9109 59.3657 93.4028C59.4013 91.7109 61.8619 91.2034 62.7882 91.0128C66.1344 90.3234 66.3526 90.0471 67.3982 88.719C67.7032 88.3321 68.0826 87.8503 68.6001 87.2728C69.3682 86.4128 70.2076 85.9771 71.0951 85.9771C71.7132 85.9771 72.2201 86.1865 72.5551 86.3259C73.6226 86.7684 74.5132 87.8384 74.8794 89.1178C75.2101 90.2721 75.0519 91.3834 74.4357 92.2465C72.4126 95.0796 69.5069 96.5778 66.0338 96.5778ZM61.5201 93.4884C61.8207 93.7209 62.4232 94.0315 63.0938 94.199C64.1132 94.454 65.1019 94.5834 66.0344 94.5834C68.8757 94.5834 71.1569 93.4071 72.8138 91.0871C73.1594 90.6034 73.0557 89.989 72.9632 89.6659C72.7694 88.989 72.2882 88.3734 71.7926 88.1678C71.5238 88.0565 71.3007 87.9715 71.0957 87.9715C70.9857 87.9715 70.6507 87.9715 70.0869 88.6021C69.6979 89.0396 69.3239 89.4903 68.9657 89.9534C67.6632 91.6071 67.0663 92.1684 63.1913 92.9665C62.2457 93.1603 61.7607 93.3578 61.5201 93.4884ZM69.1882 88.8884C68.9501 88.888 68.72 88.8025 68.5395 88.6473C68.359 88.4921 68.2399 88.2775 68.2038 88.0421C68.1788 87.8766 68.1621 87.71 68.1538 87.5428C65.6138 87.4953 63.1632 86.4053 61.3026 84.464C58.9501 82.0096 57.8794 78.609 58.3657 75.1346C58.8938 71.3615 58.6963 68.0309 58.5901 66.2415C58.5607 65.744 58.5394 65.3846 58.5407 65.1359C58.5426 64.8203 58.5488 63.9834 61.3463 62.5653C62.3413 62.0609 64.3363 61.1809 66.5157 60.9553C70.1263 60.5821 72.5063 62.1903 73.2188 65.484C75.1419 74.3765 73.3713 78.3096 72.0782 81.1821C71.8376 81.7171 71.6101 82.2221 71.4282 82.7115L71.2676 83.1428C70.5844 84.9746 69.9938 86.5571 70.1751 87.739C70.195 87.8685 70.1892 88.0005 70.158 88.1277C70.1268 88.2549 70.0709 88.3747 69.9934 88.4803C69.9159 88.5859 69.8184 88.6752 69.7064 88.7431C69.5944 88.8109 69.4701 88.8561 69.3407 88.8759L69.1882 88.8884ZM60.5413 65.4121L60.5801 66.124C60.6901 67.9828 60.8951 71.4415 60.3401 75.4115C59.9394 78.2771 60.8144 81.074 62.7419 83.084C64.2651 84.6728 66.2694 85.5496 68.3294 85.5496H68.3719C68.6026 84.5778 68.9857 83.5515 69.3982 82.4459L69.5576 82.0171C69.7632 81.4646 70.0038 80.9296 70.2588 80.3634C71.5032 77.5984 73.0526 74.1565 71.2682 65.9059C70.9151 64.2715 70.0582 63.3259 68.6501 63.014C65.7576 62.3753 61.4469 64.5509 60.5413 65.4121ZM66.5601 64.989C66.5101 65.3415 67.2057 66.2828 68.1132 66.4084C69.0188 66.5353 69.7938 65.799 69.8432 65.4465C69.8926 65.094 69.1976 64.7053 68.2901 64.579C67.3826 64.4528 66.6082 64.6365 66.5601 64.989ZM68.3213 66.7553L68.0669 66.7378C67.5044 66.6596 66.9357 66.3053 66.5463 65.789C66.4094 65.6078 66.1863 65.2565 66.2307 64.9428C66.2938 64.4828 66.8551 64.2071 67.7307 64.2071C67.9263 64.2071 68.1301 64.2215 68.3351 64.2503C68.8138 64.3165 69.2582 64.4546 69.5863 64.6378C70.1551 64.9553 70.1969 65.3096 70.1713 65.4928C70.1013 66.0009 69.2932 66.7553 68.3213 66.7553ZM66.8907 65.0478C66.9188 65.2653 67.4576 65.9828 68.1588 66.0796L68.3219 66.0909C68.9694 66.0909 69.4532 65.5815 69.5101 65.4146C69.4501 65.3009 69.0338 65.0184 68.2444 64.9084C68.0744 64.8844 67.903 64.872 67.7313 64.8715C67.2238 64.8715 66.9544 64.9859 66.8907 65.0478ZM94.1438 64.2696C94.1932 64.6221 93.4982 65.5634 92.5913 65.6896C91.6851 65.8159 90.9094 65.0803 90.8594 64.7278C90.8119 64.3753 91.5069 63.9859 92.4132 63.8603C93.3194 63.7334 94.0938 63.9178 94.1438 64.2696ZM92.3819 65.8696C91.5094 65.8696 90.7563 65.1909 90.6944 64.7503C90.6226 64.2215 91.4932 63.8196 92.3894 63.6953C92.5869 63.6678 92.7826 63.654 92.9707 63.654C93.7444 63.654 94.2569 63.8809 94.3082 64.2471C94.3413 64.484 94.1594 64.8496 93.8463 65.1796C93.6394 65.3965 93.2051 65.7721 92.6132 65.854L92.3819 65.8696ZM92.9713 63.9865C92.798 63.9865 92.6197 63.9992 92.4363 64.0246C91.5357 64.1503 90.9982 64.5115 91.0244 64.7053C91.0544 64.9184 91.6294 65.5378 92.3826 65.5378L92.5682 65.5246C93.0601 65.4565 93.4294 65.1353 93.6057 64.9503C93.8826 64.6596 93.9926 64.3859 93.9794 64.2928C93.9619 64.169 93.6294 63.9865 92.9713 63.9865ZM95.4494 84.5134C95.2688 84.5135 95.0915 84.4645 94.9365 84.3715C94.7816 84.2786 94.6548 84.1453 94.5698 83.9859C94.4848 83.8265 94.4447 83.6469 94.4539 83.4665C94.4631 83.286 94.5212 83.1115 94.6219 82.9615C96.7457 79.7896 96.3569 76.5553 95.9813 73.4271C95.8207 72.0946 95.6557 70.7165 95.6982 69.394C95.7419 68.0334 95.9151 66.9109 96.0819 65.8253C96.2801 64.539 96.4676 63.324 96.3901 61.8815C96.383 61.7508 96.4018 61.6199 96.4453 61.4964C96.4888 61.3729 96.5562 61.2592 96.6437 61.1618C96.7311 61.0643 96.8369 60.985 96.955 60.9285C97.0731 60.8719 97.2012 60.8392 97.3319 60.8321C97.4627 60.8251 97.5935 60.8438 97.717 60.8874C97.8405 60.9309 97.9543 60.9983 98.0517 61.0857C98.2485 61.2624 98.3671 61.51 98.3813 61.774C98.4701 63.4228 98.2582 64.7978 98.0532 66.1284C97.8951 67.1553 97.7313 68.2171 97.6919 69.4578C97.6538 70.629 97.8032 71.8728 97.9613 73.189C98.3613 76.5153 98.8144 80.2853 96.2794 84.0709C96.188 84.2071 96.0645 84.3186 95.9197 84.3958C95.775 84.473 95.6135 84.5134 95.4494 84.5134Z" fill="white"/>
</svg>
