<svg width="150" height="150" viewBox="0 0 150 150" fill="none" xmlns="http://www.w3.org/2000/svg">
<circle cx="75" cy="75" r="74.5" stroke="#FABA0B"/>
<path fill-rule="evenodd" clip-rule="evenodd" d="M113.888 88.3895C113.593 86.4746 111.984 85.2205 110.113 85.1358C109.436 85.105 108.748 85.1758 108.073 85.2618C107.257 85.3655 106.451 85.5492 105.638 85.6707C105.075 85.7547 104.505 85.7934 103.943 85.8511L103.929 85.7783C104.978 83.7977 106.071 81.8388 107.063 79.83C107.824 78.2892 108.475 76.6925 109.147 75.109C110.26 72.4853 111.15 69.7802 111.886 67.0312C112.591 64.399 113.195 61.7379 113.385 59.0072C113.461 57.9165 113.513 56.8213 113.507 55.7293C113.502 54.8584 113.408 53.9862 113.321 53.118C113.223 52.1232 112.922 51.1801 112.506 50.2725C111.957 49.0768 111.107 48.0957 110.212 47.1639C109.495 46.4177 108.707 45.7378 107.925 45.0586C106.811 44.0893 105.558 43.3156 104.257 42.6285C102.783 41.8453 101.221 41.2395 99.6041 40.8238C98.6243 40.5738 97.6222 40.3881 96.63 40.1899C96.273 40.1177 95.9153 39.9688 95.5583 39.9688H88.8377C88.5949 39.9688 88.354 40.0941 88.1092 40.1217C86.5001 40.3008 84.91 40.604 83.3659 41.0824C82.7884 41.2616 82.2607 41.1487 81.7121 41.0982C81.2915 41.0594 80.878 40.9466 80.4574 40.9256C78.8548 40.8455 77.2503 40.728 75.6484 40.7451C74.1134 40.7608 72.5942 41.0135 71.1084 41.4355C69.8648 41.7885 68.6482 42.2197 67.5338 42.8733C67.0568 43.1529 66.6788 43.1004 66.1853 42.958C64.5269 42.4796 62.8568 42.03 61.1722 41.6527C60.1222 41.4178 59.0426 41.3009 57.9703 41.1887C56.9414 41.0816 55.9084 41.0173 54.8741 40.9958C53.8648 40.9741 52.8483 40.9748 51.8436 41.064C50.2433 41.2034 48.6659 41.5368 47.1461 42.0569C45.463 42.6315 43.8903 43.4893 42.4959 44.5933C41.0738 45.7188 39.9333 47.093 39.0158 48.6621C38.0492 50.3178 37.3864 52.0903 36.9743 53.9521C36.7511 54.9608 36.61 55.9977 36.4571 57.0221C36.4092 57.341 36.9375 57.6599 36.2812 57.9776V62.4361C36.9375 62.7327 36.4177 63.0287 36.4558 63.326C36.547 64.0407 36.6277 64.7612 36.7485 65.4706C36.9395 66.5935 37.1659 67.713 37.3969 68.8287C37.7176 70.3879 38.0558 71.9436 38.4114 73.4953C38.6713 74.624 38.9673 75.7462 39.277 76.8625C39.7502 78.5674 40.2161 80.2756 40.751 81.9615C41.2477 83.528 41.8167 85.0722 42.3811 86.6163C43.1627 88.7524 44.0985 90.8196 45.2207 92.8008C46.1913 94.5162 47.3003 96.1227 48.7881 97.4444C49.7685 98.3153 50.8598 98.9847 52.1303 99.3193C53.1285 99.5818 54.1431 99.6133 55.1648 99.404C56.3288 99.1666 57.4162 98.6457 58.3306 97.8874C58.4376 97.7995 58.555 97.7325 58.6817 97.894C59.164 98.5049 59.8098 98.9125 60.4851 99.2649C62.3075 100.215 64.2933 100.5 66.3106 100.616C66.7988 100.644 67.2923 100.574 67.7845 100.56C68.7433 100.534 69.6752 100.347 70.592 100.082C71.0723 99.9428 71.5416 99.7663 72.0305 99.6015C72.0561 100.122 72.0889 100.623 72.104 101.125L72.1722 103.859C72.1847 104.275 72.2011 104.692 72.2398 105.106C72.3389 106.174 72.436 107.242 72.5633 108.307C72.6519 109.04 72.7438 109.78 72.9164 110.496C73.2618 111.941 73.7358 113.353 74.3326 114.714C74.9032 116.036 75.7806 117.202 76.892 118.117C78.3488 119.322 80.0564 119.836 81.9005 119.931C82.663 119.971 83.4473 119.933 84.198 119.797C85.3912 119.585 86.5715 119.306 87.7332 118.96C90.0898 118.249 92.1268 117.02 93.6487 115.035C94.5149 113.904 95.2263 112.68 95.683 111.329C96.0597 110.212 96.4147 109.085 96.6969 107.942C96.9201 107.042 97.0303 106.114 97.1662 105.194C97.2561 104.586 97.3099 103.972 97.3663 103.359C97.4582 102.363 97.552 101.368 97.6183 100.371C97.6643 99.6763 97.6623 98.9788 97.6898 98.2831C97.6984 98.0712 97.7325 97.8605 97.7522 97.6492C97.7706 97.4536 97.869 97.386 98.0685 97.3893C98.7713 97.3998 99.4755 97.4182 100.176 97.3867C100.962 97.3513 101.755 97.3178 102.528 97.1878C103.629 97.0034 104.722 96.7698 105.802 96.4876C107.077 96.1543 108.247 95.5571 109.372 94.8765C110.684 94.0844 111.879 93.1552 112.849 91.9582C113.692 90.9141 114.091 89.7072 113.888 88.3895ZM111.649 89.0339C111.606 89.6344 111.331 90.1489 110.932 90.5886C109.049 92.6643 106.687 93.9237 103.985 94.5438C102.959 94.7788 101.9 94.9008 100.849 94.9979C99.9514 95.0771 99.0496 95.0983 98.1492 95.0616C97.489 95.0367 96.8341 94.8857 96.1595 94.7886C96.0919 95.4055 96.0276 96.0479 95.9495 96.6891L95.6351 99.1468C95.54 99.9257 95.4658 100.707 95.368 101.486C95.2722 102.241 95.1528 102.994 95.0524 103.749C94.9585 104.453 94.8896 105.159 94.7853 105.861C94.6245 106.938 94.4709 108.017 94.2609 109.084C94.0089 110.361 93.6224 111.597 92.9917 112.748C92.2226 114.153 91.1319 115.224 89.744 116.016C88.3133 116.834 86.7495 117.259 85.164 117.615C84.0418 117.867 82.8855 117.908 81.7489 117.806C79.7775 117.627 78.0949 116.784 76.8231 115.256C75.609 113.797 74.7874 112.125 74.4934 110.232C74.3561 109.331 74.2486 108.426 74.1712 107.518C74.0841 106.509 74.0187 105.498 73.9749 104.486C73.9168 103.202 73.8737 101.918 73.8457 100.633C73.8109 99.0542 73.7997 97.4753 73.7774 95.8963L73.7735 95.836C72.9702 96.3177 72.1808 96.8453 71.3434 97.2797C70.3647 97.7858 69.2935 98.0879 68.1947 98.1676C67.3298 98.2332 66.4537 98.293 65.5927 98.2241C64.1811 98.1105 62.7708 97.8894 61.5068 97.1944C60.9943 96.9122 60.4595 96.569 60.1064 96.1182C59.2598 95.038 59.6654 93.673 60.9418 93.0161C61.8238 92.5613 62.7865 92.3716 63.7427 92.1505C64.575 91.962 65.3985 91.7366 66.2108 91.4752C67.0128 91.2127 67.5187 90.5623 68.0182 89.9245L68.8096 88.9066C68.4795 88.8718 68.1684 88.8364 67.8574 88.8075C66.913 88.7183 66.012 88.4584 65.1503 88.0765C64.4127 87.7503 64.4016 87.7149 63.8608 88.3016C62.9578 89.282 62.0798 90.2854 61.1951 91.2822C60.5441 92.0153 59.8971 92.7529 59.2493 93.4879C58.6075 94.215 58.0064 94.9835 57.3154 95.6601C56.289 96.6648 55.052 97.2692 53.5761 97.201C52.6291 97.1577 51.7622 96.8256 50.9826 96.2829C49.3734 95.162 48.2893 93.5942 47.3023 91.9477C46.0377 89.8378 45.0671 87.5902 44.2363 85.2808C43.6614 83.6848 43.0839 82.0875 42.5819 80.4686C42.0366 78.7092 41.5582 76.9274 41.0876 75.1464C40.7361 73.8008 40.4118 72.4482 40.1151 71.0894C39.7689 69.5464 39.4486 67.9976 39.1543 66.4438C38.9588 65.3945 38.8452 64.3301 38.6871 63.2735C38.4738 61.8494 38.4344 60.4123 38.5118 58.9823C38.5808 57.6941 38.7658 56.4091 38.9496 55.1294C39.2042 53.3589 39.7876 51.6881 40.6269 50.1104C41.1408 49.1438 41.7787 48.2651 42.5163 47.4487C43.7271 46.1086 45.1925 45.14 46.8226 44.4129C47.9618 43.9049 49.1654 43.5991 50.3919 43.3603C52.2124 43.0059 54.0492 43.0197 55.8867 43.0577C56.69 43.0741 57.4899 43.2205 58.2925 43.2999C60.0204 43.4718 61.7142 43.8354 63.3863 44.2843C64.605 44.6111 65.7987 45.0343 67.0075 45.4018C67.1289 45.4386 67.3068 45.4353 67.4059 45.3703C69.0439 44.3013 70.8341 43.5958 72.7379 43.1923C73.4604 43.0393 74.2059 42.9724 74.9449 42.9252C75.8433 42.8681 76.7489 42.8156 77.6453 42.8674C78.7229 42.9291 79.7952 43.0879 80.8662 43.2349C81.386 43.3058 81.8932 43.4863 82.4143 43.5355C82.6637 43.5591 82.9282 43.3767 83.192 43.3156C84.5366 43.0052 85.8754 42.6594 87.2318 42.4139C88.2418 42.2315 89.2734 42.1455 90.3005 42.0865C91.4456 42.0208 92.5993 41.9729 93.7438 42.0281C95.193 42.1 96.6328 42.3027 98.0455 42.6338C99.8023 43.0426 101.488 43.6365 103.089 44.4608C104.286 45.0763 105.424 45.7903 106.449 46.6684C107.12 47.2446 107.807 47.8136 108.414 48.4554C109.162 49.2468 109.925 50.0389 110.394 51.0528C110.747 51.8173 110.999 52.6088 111.069 53.4462C111.155 54.487 111.26 55.5317 111.251 56.5738C111.241 57.5707 111.106 58.5669 111.009 59.5611C110.79 61.8278 110.297 64.0452 109.699 66.2332C109.198 68.0405 108.631 69.8289 108 71.5948C107.423 73.2229 106.757 74.8215 106.085 76.4136C105.589 77.5929 105.051 78.7537 104.472 79.8937C103.371 82.0501 102.227 84.1842 100.903 86.2153C100.674 86.5664 100.458 86.9261 100.235 87.2844C100.812 87.6742 101.467 87.8113 102.125 87.8822C102.752 87.9505 103.391 87.9912 104.017 87.9446C105.02 87.8704 106.018 87.7273 107.014 87.5876C108.001 87.4497 108.969 87.1689 109.982 87.243C110.994 87.3165 111.718 88.0857 111.649 89.0339ZM97.2029 86.8335C96.7731 86.2783 96.3347 85.7297 95.914 85.168C95.2538 84.286 94.7794 83.3009 94.3029 82.3113C93.8514 81.3735 93.2976 80.4856 92.8218 79.5583C91.9916 77.9407 91.1464 76.3283 90.3818 74.6791C89.4204 72.6073 88.6625 70.4621 88.4236 68.1672C88.3225 67.1959 88.2969 66.226 88.4932 65.2639C88.8075 63.7276 89.6101 62.526 90.9593 61.7018C92.2108 60.9373 93.6053 60.6905 95.034 60.6131C95.9206 60.5652 96.8111 60.6045 97.7312 60.6045L97.7003 60.449C97.1281 59.2527 96.5932 58.036 95.9672 56.8678C95.0839 55.2193 93.9538 53.7329 92.6951 52.3548C91.7626 51.3343 90.7526 50.3874 89.6462 49.5507C88.5581 48.7271 87.4117 47.9914 86.1884 47.3896C84.7296 46.6723 83.2103 46.1178 81.6163 45.7641C80.0846 45.4242 78.5431 45.2161 76.972 45.1991C75.632 45.1846 74.3004 45.245 72.9952 45.5475C71.0251 46.0036 69.223 46.8147 67.6552 48.1286C66.7872 48.8553 66.012 49.6863 65.3472 50.6026C64.5623 51.6808 63.9291 52.845 63.3877 54.0657C62.6448 55.7404 62.1349 57.4834 61.7864 59.275C61.6118 60.1681 61.4753 61.0692 61.3362 61.9695C61.2877 62.2845 61.2837 62.6068 61.2555 62.9677C61.4977 62.8417 61.6722 62.7446 61.8507 62.6579L62.4315 62.3974C64.3957 61.499 66.4307 60.9208 68.618 60.9871C69.5472 61.0153 70.4364 61.1991 71.2627 61.606C72.8475 62.3876 73.7748 63.7165 74.1777 65.3984C74.456 66.5593 74.6463 67.7432 74.8313 68.9238C74.9764 69.8458 75.1247 70.7777 75.1418 71.7076C75.166 73.0667 75.0971 74.4284 75.023 75.7869C74.9592 76.942 74.7202 78.0807 74.3142 79.1639C73.5792 81.1281 72.7602 83.0601 71.995 85.0131C71.7424 85.6582 71.5481 86.3263 71.3092 87.0357C71.6781 87.0357 71.9773 87.033 72.2766 87.037C72.3934 87.0389 72.5128 87.0422 72.6257 87.0691C73.5051 87.2765 74.2676 87.6748 74.893 88.3514C75.7271 89.2518 76.1648 90.3025 76.1872 91.5185C76.1996 92.1925 76.1287 92.8684 76.132 93.5424C76.1458 96.6832 76.1694 99.824 76.1957 102.964C76.2003 103.477 76.2259 103.991 76.2626 104.504C76.3394 105.577 76.4168 106.65 76.5218 107.721C76.5953 108.48 76.6977 109.238 76.8178 109.992C76.9878 111.06 77.4741 112.011 78.026 112.92C78.5011 113.702 79.1186 114.366 79.9324 114.824C81.3151 115.602 82.8041 115.667 84.305 115.38C85.3189 115.187 86.3144 114.876 87.2988 114.555C88.2671 114.245 89.1511 113.716 89.8824 113.01C90.5722 112.341 91.0617 111.526 91.3918 110.627C92.0323 108.882 92.2318 107.044 92.4969 105.221C92.596 104.538 92.682 103.854 92.7726 103.17C92.8756 102.392 92.9799 101.614 93.0797 100.837C93.1532 100.257 93.2201 99.6763 93.291 99.0969C93.3921 98.2647 93.499 97.4333 93.5955 96.6005C93.6697 95.9567 93.7327 95.3103 93.7983 94.6652C93.8829 93.841 93.9742 93.0167 94.047 92.1912C94.1034 91.5644 94.0805 90.9266 94.1914 90.3117C94.3955 89.1842 94.9283 88.2248 95.9278 87.6046C96.3458 87.3454 96.8177 87.1748 97.2817 86.9556L97.2029 86.8335ZM59.4049 82.2057C58.9061 81.0336 58.6059 79.7868 58.5163 78.5162C58.4323 77.3186 58.5747 76.1255 58.6974 74.9331C58.8169 73.7781 58.916 72.6178 58.9507 71.4576C59.0085 69.5505 58.8799 67.6461 58.7887 65.7403C58.7335 64.6057 58.8654 63.4572 58.9665 62.32C59.0577 61.2956 59.1712 60.2685 59.3648 59.2592C59.6897 57.5654 60.1208 55.8959 60.7338 54.2776C61.3159 52.7433 61.9846 51.249 62.9289 49.9037C63.576 48.981 64.3103 48.1187 65.0158 47.217L64.8065 47.1429C62.5109 46.4138 60.1779 45.8442 57.7787 45.5954C56.644 45.478 55.5054 45.4091 54.3675 45.3415C54.0184 45.3205 53.664 45.3677 53.3136 45.4012C52.446 45.4839 51.5679 45.5167 50.7142 45.6794C49.2612 45.9557 47.8673 46.4203 46.5765 47.177C45.4176 47.8562 44.4443 48.7343 43.6293 49.7876C42.7289 50.9504 42.1232 52.2656 41.6881 53.668C41.1743 55.3224 40.9295 57.0247 40.8632 58.7428C40.8054 60.2488 40.7766 61.7635 41.0364 63.2637C41.23 64.3806 41.3593 65.5093 41.5726 66.6217C41.8633 68.1383 42.175 69.6516 42.5353 71.1524C43.0505 73.301 43.565 75.4528 44.1753 77.5752C44.7593 79.6089 45.4182 81.6242 46.1322 83.6153C46.7163 85.2402 47.3916 86.8348 48.1029 88.4085C48.5662 89.4336 49.1273 90.4199 49.7153 91.38C50.3408 92.3992 51.0521 93.3665 52.0175 94.1061C53.2355 95.0399 54.1785 95.185 55.4162 94.1606C55.9464 93.7215 56.3947 93.1795 56.856 92.663C57.589 91.8427 58.2965 91.0001 59.0262 90.1771C59.9555 89.1284 60.8965 88.0909 61.8304 87.0475C62.0279 86.827 62.2176 86.5999 62.4098 86.3768L62.0922 86.0979C60.939 84.9985 60.0242 83.6736 59.4049 82.2057ZM94.6376 50.9885C95.4008 51.8765 96.1253 52.7969 96.8092 53.7474C98.1217 55.5908 99.1703 57.5812 99.9428 59.7107C100.285 60.6492 100.558 61.5968 100.436 62.6238C100.351 63.3431 100.358 64.0728 100.295 64.796C100.241 65.3978 100.146 65.9963 100.068 66.5961C99.9513 67.5004 99.782 68.4021 99.7314 69.3103C99.6835 70.1746 99.7334 71.0481 99.7879 71.9143C99.843 72.7944 99.9618 73.6705 100.043 74.5492C100.134 75.5454 100.256 76.5416 100.285 77.5397C100.308 78.3594 100.235 79.1843 100.163 80.0026C100.078 80.9883 99.8279 81.9425 99.4552 82.858C99.1933 83.5024 98.8803 84.1272 98.5843 84.7723L98.7031 84.8982L98.8836 85.038L99.0653 84.7125C100.6 82.2962 101.964 79.776 103.149 77.1702C103.906 75.488 104.625 73.7887 105.306 72.0738C106.371 69.4068 107.215 66.665 107.867 63.8687C108.16 62.6133 108.383 61.3389 108.582 60.0644C108.737 59.0683 108.866 58.0602 108.895 57.0549C108.926 55.9885 108.867 54.9135 108.769 53.8498C108.695 53.0465 108.497 52.238 107.994 51.585C107.184 50.5337 106.311 49.5283 105.237 48.733C104.332 48.0629 103.431 47.3758 102.461 46.8121C100.922 45.9196 99.2563 45.3251 97.5159 44.9202C95.8176 44.5244 94.0969 44.3538 92.365 44.3177C91.3439 44.2961 90.3182 44.4057 89.299 44.5015C88.3757 44.5881 87.4583 44.7357 86.5283 44.8578C87.5258 45.4189 88.5096 45.9177 89.4375 46.5057C91.3885 47.7414 93.1368 49.2284 94.6376 50.9885ZM69.29 85.5873C69.9206 83.5707 70.7797 81.6452 71.6118 79.708C72.2864 78.1369 72.6552 76.4818 72.7779 74.7822C72.839 73.9441 72.8219 73.0956 72.7806 72.2549C72.7392 71.3197 72.6533 70.387 72.5233 69.46C72.3488 68.2781 72.1499 67.0955 71.8703 65.9353C71.5672 64.6798 70.8026 63.8057 69.4928 63.4835C68.6948 63.2873 67.902 63.2952 67.0955 63.4225C65.1254 63.7329 63.322 64.4587 61.642 65.5218C61.3041 65.7358 61.1183 65.9083 61.1768 66.3933C61.3001 67.4203 61.327 68.4638 61.3224 69.5007C61.3159 70.968 61.2535 72.4354 61.1977 73.9021C61.1794 74.3799 61.1105 74.855 61.0593 75.3308C60.9805 76.0592 60.8289 76.787 60.8335 77.5141C60.8381 78.2636 60.9149 79.0307 61.0967 79.7565C61.6742 82.058 62.8974 83.9414 64.9023 85.2703C66.1354 86.0874 67.4997 86.4995 68.9973 86.5776C69.099 86.2337 69.1896 85.9089 69.29 85.5873ZM66.9367 65.8427C66.6728 65.2888 66.8238 64.8301 67.4354 64.6175C67.5844 64.565 67.7379 64.5092 67.8928 64.4941C68.1054 64.4731 68.322 64.4889 68.5373 64.4889C69.3129 64.4928 70.0591 64.6011 70.6996 65.0946C71.1104 65.4109 71.2207 65.8309 70.9549 66.2621C70.5775 66.8737 70.002 67.1808 69.2952 67.2399C68.1816 67.3324 67.4 66.8133 66.9367 65.8427ZM97.8067 65.6406C97.8959 64.903 97.9674 64.1634 98.0587 63.4257C98.0954 63.1291 97.9392 63.0491 97.6905 63.0418C96.9082 63.0202 96.126 62.9926 95.3438 62.9782C94.4618 62.9624 93.6034 63.1042 92.787 63.4395C91.8814 63.8123 91.1917 64.4095 90.9101 65.3952C90.7035 66.1219 90.6382 66.8816 90.7178 67.633C90.8266 68.795 91.0899 69.9373 91.5007 71.0297C92.0481 72.4873 92.621 73.9441 93.3054 75.3406C94.2327 77.2313 95.2821 79.0616 96.2671 80.9233C96.5302 81.4201 96.7514 81.9386 97.0257 82.5187C97.5785 81.3653 97.8806 80.1079 97.9123 78.8293C97.9392 77.7727 97.8546 76.7115 97.7929 75.6543C97.7542 75.0072 97.6629 74.3641 97.5999 73.7184C97.512 72.8187 97.3788 71.9196 97.3584 71.0179C97.3381 70.1011 97.4031 69.1791 97.4818 68.2636C97.556 67.3856 97.701 66.5147 97.8067 65.6406ZM96.042 64.9305C95.7513 65.7331 95.1298 66.1859 94.3239 66.3192C93.5725 66.4425 92.9143 66.1649 92.4248 65.5658C92.0763 65.1392 92.2095 64.6339 92.7319 64.3458C93.3317 64.0138 93.9912 63.9298 94.7689 63.8792C94.9802 63.9179 95.2985 63.9501 95.601 64.0367C96.04 64.1607 96.2021 64.4908 96.042 64.9305ZM72.7963 89.6449C72.3665 89.2938 71.7982 89.2735 71.3893 89.6587C70.882 90.1378 70.4358 90.6857 69.9895 91.2258C69.4744 91.8499 68.9914 92.4989 68.3266 92.9826C67.3593 93.6854 66.2318 93.9768 65.0985 94.2524C64.1975 94.4716 63.2925 94.6751 62.3888 94.8857L62.3777 95.0025C62.6461 95.1266 62.906 95.2814 63.1855 95.37C64.5637 95.8064 65.9654 96.0237 67.4216 95.9003C68.4729 95.811 69.4744 95.582 70.4233 95.1318C71.7293 94.513 72.734 93.5325 73.5884 92.392C73.7315 92.2017 73.7964 91.9201 73.8135 91.6747C73.8719 90.8078 73.4316 90.1633 72.7963 89.6449ZM106.758 89.9901C105.649 90.1089 104.538 90.2349 103.426 90.2985C102.889 90.3294 102.345 90.227 101.803 90.183C100.894 90.1095 100.006 89.9074 99.2379 89.4218C98.793 89.1416 98.4235 89.1101 97.951 89.2689C97.2764 89.4959 96.7258 89.8411 96.5631 90.5722C96.4522 91.0663 96.4121 91.5782 96.3675 92.0842C96.359 92.1734 96.4705 92.3375 96.5558 92.3598C97.0762 92.497 97.5993 92.6591 98.1315 92.707C98.7851 92.766 99.4506 92.747 100.109 92.7142C100.82 92.6787 101.535 92.6328 102.235 92.5147C103.885 92.2378 105.482 91.7862 106.9 90.8504C107.412 90.5125 107.918 90.1673 108.426 89.8254L108.384 89.7532C107.842 89.8339 107.303 89.9323 106.758 89.9901Z" fill="#202020"/>
</svg>
