<svg width="178" height="178" viewBox="0 0 178 178" fill="none" xmlns="http://www.w3.org/2000/svg">
<g filter="url(#filter0_d_6035_2777)">
<circle cx="82" cy="86" r="74" fill="#F0F0F0"/>
</g>
<path d="M100.63 108.571C101.121 104.488 100.974 103.888 104.015 104.55L104.787 104.618C107.126 104.724 110.185 104.242 111.983 103.407C115.852 101.611 118.146 98.614 114.331 99.4009C105.629 101.197 105.031 98.2497 105.031 98.2497C114.22 84.6153 118.061 67.3072 114.745 63.0703C105.701 51.5146 90.0471 56.979 89.7852 57.1203L89.7015 57.1359C87.9821 56.779 86.0577 56.5659 83.8958 56.5309C79.9577 56.4659 76.9696 57.5634 74.7027 59.2822C74.7027 59.2822 46.7759 47.7765 48.0752 73.7515C48.3515 79.2772 55.9952 115.563 65.1127 104.603C68.4452 100.595 71.6652 97.2065 71.6652 97.2065C73.264 98.2684 75.179 98.8109 77.1865 98.6159L77.3421 98.4834C77.2934 98.9809 77.3146 99.4678 77.404 100.044C75.0559 102.668 75.7458 103.129 71.0502 104.095C66.299 105.074 69.0902 106.817 70.9121 107.273C73.1215 107.825 78.2321 108.608 81.6859 103.774L81.5484 104.325C82.4696 105.063 82.4077 109.623 82.5377 112.882C82.6684 116.14 82.8865 119.181 83.5509 120.974C84.2152 122.767 84.999 127.384 91.1702 126.062C96.3277 124.959 100.271 123.368 100.63 108.571Z" fill="black"/>
<path d="M89.1605 129.285C86.4311 129.285 84.6536 128.229 83.5742 127.21C81.9448 125.672 81.2986 123.692 80.9123 122.508L80.7455 122.015C79.968 119.916 79.7042 116.894 79.548 113.003C79.5242 112.418 79.508 111.817 79.4898 111.178C79.4767 110.712 79.4605 110.126 79.4367 109.513C78.4534 109.982 77.4096 110.312 76.3355 110.493C74.4111 110.822 72.3423 110.716 70.1855 110.177C68.6636 109.796 67.0823 109.007 66.1811 107.789C63.5542 110.09 61.0486 109.778 59.6836 109.322C57.2755 108.519 55.1205 106.262 53.0948 102.424C51.6517 99.6896 50.2561 96.1271 48.9461 91.8346C46.6648 84.3596 45.2155 76.4865 45.0867 73.9015C44.6817 65.8109 46.8598 60.0246 51.5592 56.7053C58.9723 51.469 70.2042 54.5484 74.2992 55.9465C77.0505 54.2884 80.2873 53.4815 83.9448 53.5396C85.9092 53.5715 87.7798 53.744 89.5173 54.054C91.3298 53.484 94.9098 52.6659 99.008 52.7171C106.559 52.8071 112.815 55.7496 117.101 61.2265C120.16 65.134 118.647 73.3396 117.474 77.8834C115.823 84.2746 112.93 91.0721 109.376 96.9896C110.341 96.9965 111.739 96.8809 113.727 96.4703C117.648 95.6609 118.795 97.7634 119.106 98.7046C120.353 102.481 114.933 105.335 113.242 106.12C111.076 107.125 107.544 107.738 104.652 107.605L104.525 107.597L103.765 107.53L103.69 108.164L103.618 108.783C103.424 116.283 102.352 121.032 100.148 124.17C97.8373 127.46 94.6261 128.382 91.7973 128.988C90.8323 129.195 89.9555 129.285 89.1605 129.285ZM83.4167 101.99C85.1786 103.4 85.333 106.053 85.4711 111.012C85.4886 111.63 85.5048 112.216 85.5267 112.763C85.593 114.419 85.7486 118.297 86.3561 119.936C86.4417 120.168 86.5186 120.403 86.5998 120.652C87.2767 122.725 87.6161 123.764 90.543 123.138C92.9998 122.612 94.263 122.139 95.2517 120.732C96.6886 118.685 97.4923 114.569 97.6398 108.497L100.629 108.57L97.6605 108.213L97.748 107.472C98.0323 105.028 98.2373 103.263 99.8705 102.096C101.181 101.16 102.674 101.25 103.864 101.465C102.557 100.477 102.195 99.319 102.099 98.844L101.85 97.6159L102.55 96.5765C106.586 90.589 109.914 83.2303 111.681 76.3865C113.497 69.3546 112.944 65.6203 112.39 64.914C105.059 55.5471 92.3473 59.4146 91.0198 59.8534L90.7955 59.9746L89.6705 60.184L89.0942 60.0646C87.5055 59.7346 85.7405 59.5521 83.8486 59.5215C80.8761 59.4715 78.478 60.174 76.5117 61.6659L75.1473 62.7003L73.5642 62.0484C70.1817 60.6653 60.2467 57.8846 55.0042 61.5978C52.0942 63.659 50.7686 67.6978 51.0636 73.6021C51.1611 75.5515 52.4855 82.9309 54.6705 90.0878C57.6898 99.9784 60.4336 103.264 61.5792 103.646C61.7792 103.713 62.298 103.31 62.8142 102.69C64.9668 100.11 67.1957 97.5942 69.498 95.1465L71.2292 93.3246L73.3223 94.7153C74.1661 95.2759 75.0967 95.594 76.0523 95.654L81.0442 91.3965L80.3211 98.7765C80.3048 98.9421 80.2967 99.1678 80.3617 99.5865L80.5792 100.985L79.6355 102.04L79.5267 102.163L82.2692 103.428L83.4167 101.99Z" fill="black"/>
<path d="M114.333 99.4003C105.63 101.196 105.032 98.249 105.032 98.249C114.221 84.614 118.063 67.3053 114.748 63.0696C105.704 51.5146 90.0483 56.979 89.7871 57.1209L89.7027 57.1359C87.9833 56.779 86.0589 56.5665 83.8958 56.5315C79.9577 56.4671 76.9708 57.564 74.7039 59.2828C74.7039 59.2828 46.7764 47.7778 48.0752 73.7521C48.3514 79.2784 55.9952 115.564 65.1127 104.604C68.4452 100.597 71.6646 97.2078 71.6646 97.2078C73.2639 98.2696 75.1783 98.8121 77.1852 98.6171L77.3414 98.4846C77.2927 98.9821 77.3152 99.469 77.4039 100.045C75.0552 102.67 75.7452 103.13 71.0496 104.097C66.2983 105.075 69.0896 106.818 70.9121 107.274C73.1208 107.827 78.2321 108.609 81.6852 103.775L81.5471 104.327C82.4677 105.064 83.1139 109.122 83.0058 112.8C82.8977 116.478 82.8246 119.003 83.5502 120.976C84.2752 122.948 84.9977 127.386 91.1702 126.063C96.3277 124.958 99.0002 122.094 99.3727 117.317C99.6364 113.92 100.233 114.422 100.271 111.385L100.751 109.948C101.303 105.343 100.838 103.858 104.016 104.549L104.788 104.617C107.127 104.723 110.188 104.24 111.985 103.405C115.853 101.611 118.148 98.6134 114.333 99.4003Z" fill="#336791"/>
<path d="M89.4744 127.442C84.3294 127.442 82.6994 123.367 82.0326 121.701C81.0563 119.259 80.8457 109.783 81.0632 102.012C81.0664 101.88 81.0956 101.751 81.1489 101.632C81.2023 101.512 81.2788 101.404 81.3741 101.314C81.4693 101.224 81.5815 101.153 81.704 101.107C81.8266 101.06 81.9572 101.039 82.0882 101.043C82.2191 101.046 82.348 101.076 82.4676 101.129C82.5871 101.183 82.695 101.259 82.7849 101.354C82.8749 101.449 82.9452 101.561 82.9919 101.684C83.0386 101.806 83.0607 101.936 83.0569 102.067C82.8063 111.03 83.1619 119.153 83.8844 120.96C85.0119 123.778 86.7219 126.243 91.5563 125.208C96.1457 124.223 97.8644 122.483 98.6301 118.045C99.2176 114.64 100.379 104.951 100.523 103.039C100.532 102.908 100.567 102.781 100.626 102.664C100.685 102.547 100.767 102.443 100.866 102.357C100.965 102.272 101.08 102.207 101.205 102.166C101.329 102.125 101.461 102.109 101.591 102.119C101.855 102.139 102.1 102.263 102.272 102.463C102.445 102.663 102.531 102.924 102.511 103.188C102.362 105.178 101.206 114.848 100.596 118.385C99.6919 123.627 97.3551 126.004 91.9744 127.158C91.0601 127.353 90.2294 127.441 89.4744 127.442ZM61.5769 107.541C61.1272 107.539 60.6807 107.466 60.2544 107.322C56.9126 106.207 53.7294 100.765 50.7932 91.144C48.5582 83.8209 47.1419 76.1771 47.0176 73.6928C46.6494 66.3278 48.5457 61.1171 52.6551 58.2065C60.7844 52.4465 74.4601 57.9315 75.0382 58.1678C75.2831 58.2678 75.4782 58.461 75.5807 58.7049C75.6831 58.9489 75.6845 59.2235 75.5844 59.4684C75.4844 59.7133 75.2912 59.9084 75.0473 60.0109C74.8034 60.1133 74.5287 60.1147 74.2838 60.0146C74.1519 59.9609 61.0382 54.7071 53.8038 59.8365C50.2901 62.3278 48.6769 66.9565 49.0088 73.5934C49.1132 75.6865 50.4363 83.1465 52.7001 90.5615C55.3213 99.1503 58.3044 104.57 60.8851 105.43C61.2901 105.565 62.5226 105.976 64.2844 103.857C66.339 101.389 68.4707 98.987 70.6763 96.6534C70.8609 96.4693 71.1101 96.3648 71.3708 96.3622C71.6314 96.3596 71.8827 96.4591 72.0709 96.6395C72.2591 96.8198 72.3692 97.0667 72.3777 97.3272C72.3862 97.5877 72.2924 97.8412 72.1163 98.0334C72.0863 98.0646 69.0869 101.2 65.8182 105.133C64.2701 106.995 62.7863 107.541 61.5769 107.541ZM104.97 99.1378C104.789 99.1375 104.612 99.0881 104.457 98.9949C104.302 98.9017 104.175 98.7681 104.091 98.6085C104.006 98.4488 103.966 98.2691 103.975 98.0886C103.985 97.908 104.043 97.7334 104.144 97.5834C113.433 83.799 116.694 67.1434 113.901 63.5746C110.386 59.0834 105.423 56.7378 99.1488 56.6021C94.5032 56.5021 90.8107 57.6884 90.2069 57.8953L90.0551 57.9571C89.4482 58.1478 88.9826 57.8153 88.8069 57.4265C88.7068 57.2038 88.6916 56.9521 88.7643 56.719C88.8369 56.4858 88.9924 56.2873 89.2013 56.1609C89.2301 56.144 89.3213 56.1053 89.4694 56.0509C90.4951 55.6753 94.2438 54.5503 98.8869 54.6034C105.829 54.6771 111.564 57.354 115.471 62.3459C117.319 64.7078 117.323 70.149 115.483 77.2753C113.606 84.5409 110.076 92.349 105.797 98.6984C105.606 98.984 105.291 99.1378 104.97 99.1378ZM105.445 105.519C103.859 105.519 102.437 105.295 101.586 104.785C100.711 104.261 100.544 103.548 100.522 103.17C100.283 98.9765 102.597 98.2465 103.777 97.9134C103.613 97.6646 103.379 97.3721 103.137 97.0703C102.449 96.2103 101.506 95.0328 100.78 93.2715C100.666 92.9965 100.31 92.3571 99.8976 91.6165C97.6607 87.6053 93.0063 79.2584 95.9963 74.984C97.3801 73.0059 100.136 72.2271 104.196 72.6615C103.001 69.0228 97.3138 57.6403 83.8182 57.419C79.7594 57.3515 76.4307 58.5996 73.9294 61.1253C68.3294 66.7809 68.5319 77.014 68.5351 77.1165C68.5385 77.2474 68.5161 77.3777 68.4692 77.5C68.4223 77.6223 68.3518 77.7341 68.2617 77.8291C68.1715 77.9241 68.0636 78.0004 67.9439 78.0537C67.8243 78.107 67.6954 78.1362 67.5644 78.1396C67.4335 78.1431 67.3032 78.1207 67.181 78.0738C67.0587 78.0269 66.9469 77.9563 66.8519 77.8662C66.7569 77.7761 66.6805 77.6681 66.6272 77.5485C66.574 77.4289 66.5448 77.2999 66.5413 77.169C66.5288 76.7146 66.3201 65.9759 72.5126 59.7215C75.4107 56.7946 79.2257 55.3496 83.8513 55.4253C92.4851 55.5671 98.0426 59.9565 101.184 63.6134C104.608 67.599 106.287 71.9953 106.425 73.4628C106.528 74.554 105.745 74.7721 105.587 74.8046L105.227 74.8128C101.243 74.1746 98.6863 74.6178 97.6294 76.1278C95.3551 79.3784 99.7582 87.274 101.638 90.6459C102.118 91.5059 102.464 92.1278 102.623 92.5115C103.241 94.009 104.046 95.0153 104.693 95.824C105.263 96.5353 105.756 97.1521 105.932 97.8759C106.014 98.0196 107.176 99.7384 114.07 98.3153C115.798 97.959 116.834 98.2634 117.151 99.2215C117.774 101.106 114.278 103.304 112.343 104.203C110.608 105.009 107.84 105.519 105.445 105.519ZM102.51 103.006C102.729 103.227 103.823 103.607 106.089 103.51C108.104 103.423 110.229 102.985 111.504 102.393C113.135 101.636 114.224 100.789 114.788 100.211L114.475 100.268C110.067 101.178 106.949 101.057 105.208 99.9078C105.09 99.8306 104.978 99.7469 104.87 99.6571C104.681 99.7315 104.507 99.7803 104.383 99.8153C103.395 100.092 102.374 100.379 102.51 103.006ZM74.0338 108.578C72.9388 108.578 71.7863 108.428 70.6094 108.134C69.3901 107.829 67.3344 106.911 67.3657 105.403C67.4013 103.711 69.8619 103.203 70.7882 103.013C74.1344 102.323 74.3526 102.047 75.3982 100.719C75.7032 100.332 76.0826 99.8503 76.6001 99.2728C77.3682 98.4128 78.2076 97.9771 79.0951 97.9771C79.7132 97.9771 80.2201 98.1865 80.5551 98.3259C81.6226 98.7684 82.5132 99.8384 82.8794 101.118C83.2101 102.272 83.0519 103.383 82.4357 104.247C80.4126 107.08 77.5069 108.578 74.0338 108.578ZM69.5201 105.488C69.8207 105.721 70.4232 106.032 71.0938 106.199C72.1132 106.454 73.1019 106.583 74.0344 106.583C76.8757 106.583 79.1569 105.407 80.8138 103.087C81.1594 102.603 81.0557 101.989 80.9632 101.666C80.7694 100.989 80.2882 100.373 79.7926 100.168C79.5238 100.057 79.3007 99.9715 79.0957 99.9715C78.9857 99.9715 78.6507 99.9715 78.0869 100.602C77.6979 101.04 77.3239 101.49 76.9657 101.953C75.6632 103.607 75.0663 104.168 71.1913 104.967C70.2457 105.16 69.7607 105.358 69.5201 105.488ZM77.1882 100.888C76.9501 100.888 76.72 100.802 76.5395 100.647C76.359 100.492 76.2399 100.277 76.2038 100.042C76.1788 99.8766 76.1621 99.71 76.1538 99.5428C73.6138 99.4953 71.1632 98.4053 69.3026 96.464C66.9501 94.0096 65.8794 90.609 66.3657 87.1346C66.8938 83.3615 66.6963 80.0309 66.5901 78.2415C66.5607 77.744 66.5394 77.3846 66.5407 77.1359C66.5426 76.8203 66.5488 75.9834 69.3463 74.5653C70.3413 74.0609 72.3363 73.1809 74.5157 72.9553C78.1263 72.5821 80.5063 74.1903 81.2188 77.484C83.1419 86.3765 81.3713 90.3096 80.0782 93.1821C79.8376 93.7171 79.6101 94.2221 79.4282 94.7115L79.2676 95.1428C78.5844 96.9746 77.9938 98.5571 78.1751 99.739C78.195 99.8685 78.1892 100.001 78.158 100.128C78.1268 100.255 78.0709 100.375 77.9934 100.48C77.9159 100.586 77.8184 100.675 77.7064 100.743C77.5944 100.811 77.4701 100.856 77.3407 100.876L77.1882 100.888ZM68.5413 77.4121L68.5801 78.124C68.6901 79.9828 68.8951 83.4415 68.3401 87.4115C67.9394 90.2771 68.8144 93.074 70.7419 95.084C72.2651 96.6728 74.2694 97.5496 76.3294 97.5496H76.3719C76.6026 96.5778 76.9857 95.5515 77.3982 94.4459L77.5576 94.0171C77.7632 93.4646 78.0038 92.9296 78.2588 92.3634C79.5032 89.5984 81.0526 86.1565 79.2682 77.9059C78.9151 76.2715 78.0582 75.3259 76.6501 75.014C73.7576 74.3753 69.4469 76.5509 68.5413 77.4121ZM74.5601 76.989C74.5101 77.3415 75.2057 78.2828 76.1132 78.4084C77.0188 78.5353 77.7938 77.799 77.8432 77.4465C77.8926 77.094 77.1976 76.7053 76.2901 76.579C75.3826 76.4528 74.6082 76.6365 74.5601 76.989ZM76.3213 78.7553L76.0669 78.7378C75.5044 78.6596 74.9357 78.3053 74.5463 77.789C74.4094 77.6078 74.1863 77.2565 74.2307 76.9428C74.2938 76.4828 74.8551 76.2071 75.7307 76.2071C75.9263 76.2071 76.1301 76.2215 76.3351 76.2503C76.8138 76.3165 77.2582 76.4546 77.5863 76.6378C78.1551 76.9553 78.1969 77.3096 78.1713 77.4928C78.1013 78.0009 77.2932 78.7553 76.3213 78.7553ZM74.8907 77.0478C74.9188 77.2653 75.4576 77.9828 76.1588 78.0796L76.3219 78.0909C76.9694 78.0909 77.4532 77.5815 77.5101 77.4146C77.4501 77.3009 77.0338 77.0184 76.2444 76.9084C76.0744 76.8844 75.903 76.872 75.7313 76.8715C75.2238 76.8715 74.9544 76.9859 74.8907 77.0478ZM102.144 76.2696C102.193 76.6221 101.498 77.5634 100.591 77.6896C99.6851 77.8159 98.9094 77.0803 98.8594 76.7278C98.8119 76.3753 99.5069 75.9859 100.413 75.8603C101.319 75.7334 102.094 75.9178 102.144 76.2696ZM100.382 77.8696C99.5094 77.8696 98.7563 77.1909 98.6944 76.7503C98.6226 76.2215 99.4932 75.8196 100.389 75.6953C100.587 75.6678 100.783 75.654 100.971 75.654C101.744 75.654 102.257 75.8809 102.308 76.2471C102.341 76.484 102.159 76.8496 101.846 77.1796C101.639 77.3965 101.205 77.7721 100.613 77.854L100.382 77.8696ZM100.971 75.9865C100.798 75.9865 100.62 75.9992 100.436 76.0246C99.5357 76.1503 98.9982 76.5115 99.0244 76.7053C99.0544 76.9184 99.6294 77.5378 100.383 77.5378L100.568 77.5246C101.06 77.4565 101.429 77.1353 101.606 76.9503C101.883 76.6596 101.993 76.3859 101.979 76.2928C101.962 76.169 101.629 75.9865 100.971 75.9865ZM103.449 96.5134C103.269 96.5135 103.091 96.4645 102.937 96.3715C102.782 96.2786 102.655 96.1453 102.57 95.9859C102.485 95.8265 102.445 95.6469 102.454 95.4665C102.463 95.286 102.521 95.1115 102.622 94.9615C104.746 91.7896 104.357 88.5553 103.981 85.4271C103.821 84.0946 103.656 82.7165 103.698 81.394C103.742 80.0334 103.915 78.9109 104.082 77.8253C104.28 76.539 104.468 75.324 104.39 73.8815C104.383 73.7508 104.402 73.6199 104.445 73.4964C104.489 73.3729 104.556 73.2592 104.644 73.1618C104.731 73.0643 104.837 72.985 104.955 72.9285C105.073 72.8719 105.201 72.8392 105.332 72.8321C105.463 72.8251 105.594 72.8438 105.717 72.8874C105.841 72.9309 105.954 72.9983 106.052 73.0857C106.248 73.2624 106.367 73.51 106.381 73.774C106.47 75.4228 106.258 76.7978 106.053 78.1284C105.895 79.1553 105.731 80.2171 105.692 81.4578C105.654 82.629 105.803 83.8728 105.961 85.189C106.361 88.5153 106.814 92.2853 104.279 96.0709C104.188 96.2071 104.064 96.3186 103.92 96.3958C103.775 96.473 103.613 96.5134 103.449 96.5134Z" fill="white"/>
<defs>
<filter id="filter0_d_6035_2777" x="0" y="0" width="178" height="178" filterUnits="userSpaceOnUse" color-interpolation-filters="sRGB">
<feFlood flood-opacity="0" result="BackgroundImageFix"/>
<feColorMatrix in="SourceAlpha" type="matrix" values="0 0 0 0 0 0 0 0 0 0 0 0 0 0 0 0 0 0 127 0" result="hardAlpha"/>
<feOffset dx="7" dy="3"/>
<feGaussianBlur stdDeviation="7.5"/>
<feComposite in2="hardAlpha" operator="out"/>
<feColorMatrix type="matrix" values="0 0 0 0 0.188235 0 0 0 0 0.188235 0 0 0 0 0.188235 0 0 0 0.25 0"/>
<feBlend mode="normal" in2="BackgroundImageFix" result="effect1_dropShadow_6035_2777"/>
<feBlend mode="normal" in="SourceGraphic" in2="effect1_dropShadow_6035_2777" result="shape"/>
</filter>
</defs>
</svg>
