<svg width="178" height="178" viewBox="0 0 178 178" fill="none" xmlns="http://www.w3.org/2000/svg">
<g filter="url(#filter0_d_6035_1916)">
<g clip-path="url(#clip0_6035_1916)">
<path d="M121.313 12H42.6875C23.5301 12 8 27.5301 8 46.6875V125.313C8 144.47 23.5301 160 42.6875 160H121.313C140.47 160 156 144.47 156 125.313V46.6875C156 27.5301 140.47 12 121.313 12Z" fill="#F4F2ED"/>
<path d="M81.9454 94.6681C86.5689 94.6681 90.3166 90.92 90.3166 86.2969C90.3166 81.6739 86.5689 77.9258 81.9454 77.9258C77.3219 77.9258 73.5742 81.6739 73.5742 86.2969C73.5742 90.92 77.3223 94.6681 81.9454 94.6681Z" fill="#00D8FF"/>
<path d="M81.9424 69.2773C93.1817 69.2773 103.623 70.89 111.495 73.6007C120.981 76.866 126.813 81.8157 126.813 86.2979C126.813 90.9685 120.632 96.227 110.446 99.6017C102.745 102.153 92.6114 103.485 81.9424 103.485C71.0037 103.485 60.6452 102.235 52.8573 99.5735C43.0045 96.2059 37.0703 90.8797 37.0703 86.2979C37.0703 81.852 42.6388 76.9404 51.9909 73.6801C59.8927 70.925 70.5913 69.2773 81.9406 69.2773H81.9424Z" stroke="#00D8FF" stroke-width="4.56"/>
<path d="M67.1285 77.8354C72.7437 68.0992 79.3564 59.86 85.6375 54.3947C93.2045 47.8089 100.406 45.2297 104.289 47.4684C108.335 49.8017 109.802 57.7833 107.637 68.2931C106.002 76.2384 102.092 85.682 96.7615 94.9246C91.2966 104.4 85.0393 112.749 78.844 118.164C71.0045 125.017 63.4253 127.497 59.4565 125.208C55.6052 122.989 54.1325 115.71 55.9803 105.98C57.5414 97.7582 61.4591 87.6671 67.1268 77.8354H67.1285Z" stroke="#00D8FF" stroke-width="4.56"/>
<path d="M67.1426 94.9502C61.5117 85.2248 57.6779 75.3792 56.0778 67.2081C54.1514 57.3629 55.5133 49.8358 59.3924 47.5904C63.4348 45.2499 71.0822 47.9647 79.1061 55.0893C85.1727 60.4756 91.4022 68.578 96.7477 77.8116C102.228 87.2786 106.336 96.8698 107.934 104.941C109.956 115.156 108.319 122.96 104.354 125.255C100.507 127.483 93.4658 125.125 85.9584 118.664C79.6154 113.206 72.8291 104.772 67.1426 94.9502Z" stroke="#00D8FF" stroke-width="4.56"/>
</g>
</g>
<defs>
<filter id="filter0_d_6035_1916" x="0" y="0" width="178" height="178" filterUnits="userSpaceOnUse" color-interpolation-filters="sRGB">
<feFlood flood-opacity="0" result="BackgroundImageFix"/>
<feColorMatrix in="SourceAlpha" type="matrix" values="0 0 0 0 0 0 0 0 0 0 0 0 0 0 0 0 0 0 127 0" result="hardAlpha"/>
<feOffset dx="7" dy="3"/>
<feGaussianBlur stdDeviation="7.5"/>
<feComposite in2="hardAlpha" operator="out"/>
<feColorMatrix type="matrix" values="0 0 0 0 0.188235 0 0 0 0 0.188235 0 0 0 0 0.188235 0 0 0 0.25 0"/>
<feBlend mode="normal" in2="BackgroundImageFix" result="effect1_dropShadow_6035_1916"/>
<feBlend mode="normal" in="SourceGraphic" in2="effect1_dropShadow_6035_1916" result="shape"/>
</filter>
<clipPath id="clip0_6035_1916">
<rect x="8" y="12" width="148" height="148" rx="74" fill="white"/>
</clipPath>
</defs>
</svg>
