<svg width="148" height="148" viewBox="0 0 148 148" fill="none" xmlns="http://www.w3.org/2000/svg">
<g clip-path="url(#clip0_8271_893)">
<path d="M113.313 0H34.6875C15.5301 0 0 15.5301 0 34.6875V113.313C0 132.47 15.5301 148 34.6875 148H113.313C132.47 148 148 132.47 148 113.313V34.6875C148 15.5301 132.47 0 113.313 0Z" fill="#F4F2ED"/>
<path d="M73.9454 82.6681C78.5689 82.6681 82.3166 78.92 82.3166 74.2969C82.3166 69.6739 78.5689 65.9258 73.9454 65.9258C69.3219 65.9258 65.5742 69.6739 65.5742 74.2969C65.5742 78.92 69.3223 82.6681 73.9454 82.6681Z" fill="#00D8FF"/>
<path d="M73.9424 57.2773C85.1817 57.2773 95.6228 58.89 103.495 61.6007C112.981 64.866 118.813 69.8157 118.813 74.2979C118.813 78.9685 112.632 84.227 102.446 87.6017C94.7451 90.1531 84.6114 91.4849 73.9424 91.4849C63.0037 91.4849 52.6452 90.2348 44.8573 87.5735C35.0045 84.2059 29.0703 78.8797 29.0703 74.2979C29.0703 69.852 34.6388 64.9404 43.9909 61.6801C51.8927 58.925 62.5913 57.2773 73.9406 57.2773H73.9424Z" stroke="#00D8FF" stroke-width="4.56"/>
<path d="M59.1285 65.8354C64.7437 56.0992 71.3564 47.86 77.6375 42.3947C85.2045 35.8089 92.4064 33.2297 96.2886 35.4684C100.335 37.8017 101.802 45.7833 99.6374 56.2931C98.0018 64.2384 94.0917 73.682 88.7615 82.9246C83.2966 92.4005 77.0393 100.749 70.844 106.164C63.0045 113.017 55.4253 115.497 51.4565 113.208C47.6052 110.989 46.1325 103.71 47.9803 93.9799C49.5414 85.7582 53.4591 75.6671 59.1268 65.8354H59.1285Z" stroke="#00D8FF" stroke-width="4.56"/>
<path d="M59.1426 82.9502C53.5117 73.2248 49.6779 63.3792 48.0778 55.2081C46.1514 45.3629 47.5133 37.8358 51.3924 35.5904C55.4348 33.2499 63.0822 35.9647 71.1061 43.0893C77.1727 48.4756 83.4022 56.578 88.7477 65.8116C94.2282 75.2786 98.3357 84.8698 99.9336 92.9412C101.956 103.156 100.319 110.96 96.3538 113.255C92.5065 115.483 85.4658 113.125 77.9584 106.664C71.6154 101.206 64.8291 92.7725 59.1426 82.9502Z" stroke="#00D8FF" stroke-width="4.56"/>
</g>
<defs>
<clipPath id="clip0_8271_893">
<rect width="148" height="148" rx="74" fill="white"/>
</clipPath>
</defs>
</svg>
