<svg width="178" height="178" viewBox="0 0 178 178" fill="none" xmlns="http://www.w3.org/2000/svg">
<g filter="url(#filter0_d_6035_2785)">
<circle cx="82" cy="86" r="74" fill="#F0F0F0"/>
</g>
<path fill-rule="evenodd" clip-rule="evenodd" d="M29.0391 81.046C29.0391 81.5348 29.2153 81.8574 29.3141 82.171C29.9579 84.2103 31.3417 85.9604 32.9835 87.5569C35.3219 89.8319 38.1857 91.6634 41.1193 93.3857C43.6638 94.8792 46.2602 96.3394 48.8149 97.8218C49.2535 98.0763 49.6682 98.369 50.1442 98.6812C49.7346 98.862 49.394 99.0212 49.0397 99.1679C45.6684 100.564 42.4248 102.129 39.4349 104.025C37.633 105.168 35.8907 106.383 34.6602 107.971C32.6803 110.524 31.9795 113.244 33.4553 116.148C33.8862 116.996 34.5436 117.729 35.4709 118.271C35.7715 118.446 36.1087 118.62 36.4604 118.688C37.3614 118.861 38.2794 118.975 39.1914 119.112L41.7742 119.11C44.6303 118.902 47.2301 118.103 49.5796 116.779C53.2515 114.71 55.7253 111.936 56.7889 108.375C57.5621 105.787 57.5937 103.197 56.6825 100.62C56.5949 100.382 56.4943 100.147 56.381 99.9154C56.2703 99.6838 56.14 99.4585 55.9868 99.17L61.8421 96.4207L61.9298 96.4819C61.8234 96.7663 61.7101 97.05 61.6139 97.3371C60.9182 99.4119 60.4558 101.523 60.6218 103.676C60.7989 105.971 61.5832 108.119 63.2284 110.036C64.5586 111.586 67.7281 111.644 69.1417 110.088C69.6433 109.535 70.1295 108.957 70.4948 108.34C71.4494 106.731 72.3333 105.093 73.2454 103.466L73.4046 103.168C73.339 103.938 73.2624 104.615 73.2275 105.292C73.173 106.35 73.2488 107.401 73.6916 108.407C74.0705 109.268 74.7152 109.911 75.9227 110.025C76.7487 110.102 77.407 109.793 78.0141 109.402C78.9545 108.794 79.7341 108.038 80.3057 107.177C81.9245 104.75 83.5867 102.337 85.054 99.8486C86.6413 97.1571 88.0293 94.3869 89.5034 91.6495L89.7469 91.1642C90.0952 92.2815 90.3379 93.3759 90.785 94.412C91.3045 95.6142 91.9474 96.7878 92.6474 97.9288C92.9786 98.4677 92.9403 98.8175 92.4813 99.2694C90.5602 101.161 88.6723 103.075 86.7827 104.987C86.3645 105.409 85.9481 105.839 85.5998 106.3C85.3885 106.591 85.2496 106.913 85.1911 107.248C85.1325 107.557 85.2224 107.872 85.4419 108.127C85.6615 108.382 85.9937 108.559 86.3688 108.619C87.126 108.751 87.9022 108.797 88.6748 108.753C91.3121 108.594 93.7067 107.838 95.8237 106.558C98.5666 104.899 99.4471 102.635 98.7829 99.9515C98.6032 99.2235 98.2856 98.5157 97.9764 97.8141C97.8376 97.4978 97.8283 97.2759 98.0812 96.9811C100.274 94.4245 102.147 91.7121 103.89 88.9371C103.959 88.8279 104.029 88.7187 104.15 88.6019C104.715 91.0008 105.565 93.3127 107.087 95.4104C106.311 96.0216 105.542 96.5758 104.846 97.1863C103.314 98.531 101.986 99.9911 101.292 101.772C100.994 102.539 100.765 103.32 100.898 104.139C101.104 105.412 102.382 106.24 103.915 105.95C107.197 105.33 110.03 104.067 112.1 101.83C113.494 100.324 113.62 98.6443 113.037 96.8845C112.877 96.4061 112.687 95.9354 112.483 95.3868C113.293 95.1817 114.082 94.9355 114.899 94.7833C119.139 93.9934 123.333 94.1311 127.418 95.3812C129.804 96.1113 131.731 97.333 132.873 99.2548C134.269 101.604 133.498 103.833 130.785 105.319C130.533 105.457 130.243 105.566 130.034 105.739C129.966 105.803 129.916 105.877 129.886 105.957C129.856 106.037 129.847 106.122 129.859 106.205C129.877 106.291 130.154 106.398 130.313 106.396C131.204 106.391 131.927 106.009 132.621 105.617C134.36 104.634 135.629 103.313 135.902 101.572L135.956 101.442L135.891 100.308C135.864 100.243 135.91 100.178 135.904 100.129C135.535 97.5944 133.877 95.6288 131.465 94.0879C128.672 92.3045 125.374 91.5702 121.886 91.4541C119.057 91.3547 116.232 91.7097 113.57 92.4992C112.806 92.7251 112.049 92.9928 111.281 93.2452C111.178 93.0929 111.068 92.9469 110.976 92.7961C110.188 91.4777 109.232 90.2178 109.021 88.7062C108.871 87.6327 108.687 86.5605 109 85.4987C109.301 84.4773 109.692 83.4733 110.061 82.4658C110.251 81.9471 110.117 81.6565 109.511 81.4228C109.299 81.3381 109.074 81.2777 108.842 81.2434C107.351 81.0668 105.882 81.1676 104.438 81.5104C103.927 81.6321 103.556 81.8657 103.443 82.3274C103.378 82.5923 103.246 82.8461 103.154 83.1076C102.777 84.1943 102.509 85.302 101.9 86.3373C100.372 88.9343 98.6279 91.4332 96.843 93.9141C96.6497 94.1818 96.4462 94.4446 96.2026 94.7693C95.5759 93.6986 94.9074 92.7376 94.7047 91.6112C94.4757 90.3374 94.2951 89.0657 94.6835 87.8016C94.9721 86.8588 95.3494 85.9333 95.6968 85.003C95.8612 84.5608 95.7854 84.3285 95.2949 84.0956C95.0471 83.9781 94.7669 83.8738 94.4876 83.8397C92.9595 83.6496 91.3982 83.7539 89.9283 84.1443C89.4659 84.2667 89.2232 84.5107 89.0819 84.9001C88.6663 86.0487 88.3121 87.2252 87.7287 88.3175C85.3665 92.7397 82.9361 97.139 80.5083 101.538C80.0017 102.456 79.4081 103.343 78.8367 104.237C78.692 104.463 78.4808 104.663 78.3002 104.876C78.1555 104.736 78.0993 104.64 78.1001 104.544C78.1044 103.979 78.0218 103.397 78.1538 102.85C78.559 101.197 79.0071 99.5517 79.4975 97.9142C79.8978 96.5612 80.3636 95.2206 80.8072 93.8766C80.9563 93.4267 80.9588 93.006 80.5628 92.6278C79.8978 91.9944 78.508 91.8553 77.6837 92.3434L77.3192 92.5117L77.3899 92.0319C77.5636 91.0035 77.5986 89.9786 77.2528 88.9656C76.8219 87.7029 75.7183 86.9763 74.114 87.0166C73.3663 87.0354 72.5812 87.1397 71.8888 87.3622C68.9773 88.2939 66.7386 89.9439 64.8328 91.929C64.656 92.1132 64.4371 92.2677 64.1882 92.3837C61.7246 93.499 59.2533 94.6004 56.783 95.7059L54.0333 96.9359C53.2958 96.3616 52.6256 95.7657 51.8652 95.2602C49.543 93.7139 47.1833 92.2057 44.8449 90.6767C42.7722 89.3216 40.7642 87.9101 39.228 86.1155C38.0852 84.7805 37.3486 83.3196 37.2779 81.669C37.1885 79.5656 37.9192 77.6438 39.2306 75.8548C40.9081 73.5658 43.1963 71.7288 45.7118 70.0649C48.3729 68.3058 51.2512 66.8122 54.2342 65.4487C58.4077 63.5415 62.7005 61.8533 67.3032 60.7387C72.0225 59.5956 76.8109 58.9413 81.7499 59.3974C83.6915 59.5768 85.5768 59.9398 87.3081 60.715C88.634 61.3081 89.7214 62.0848 90.2272 63.2988C90.7262 64.4934 90.7109 65.7039 90.3652 66.9172C89.6626 69.3745 88.0149 71.3999 85.9413 73.2098C82.5402 76.1767 78.3914 78.1966 73.7205 79.5309C71.0349 80.2989 68.2407 80.7856 65.405 80.9792C63.0811 81.1384 60.8057 80.9702 58.6053 80.3103C57.1483 79.873 55.8795 79.2041 54.8593 78.2334C54.6771 78.0596 54.4437 77.8712 54.104 78.0339C53.771 78.1938 53.7122 78.4525 53.8238 78.7146C54.0103 79.1499 54.1823 79.6032 54.4727 79.9926C55.2025 80.9695 56.2669 81.678 57.4387 82.2857C59.6893 83.4545 62.2049 83.8474 64.8132 83.9385C68.7713 84.0782 72.6331 83.5957 76.4404 82.7286C81.876 81.491 86.6021 79.3049 90.3924 75.8562C93.5483 72.9845 95.8024 69.7437 96.2852 65.8304C96.5211 63.9204 96.2699 62.0493 95.1748 60.3069C93.9869 58.4191 92.0981 57.0153 89.8398 56.0481C86.551 54.6401 83.0017 53.8203 79.3383 53.8203H75.6681C71.2314 53.8203 66.9421 54.8584 62.7729 56.0968C59.617 57.0347 56.5224 58.1417 53.5181 59.3668C46.9755 62.0361 40.8826 65.2547 35.878 69.6804C33.3846 71.8852 31.2736 74.3181 30.0592 77.1828C29.6934 78.0383 29.3776 78.9075 29.1131 79.7875M52.8198 104.828C52.5362 107.928 50.8152 110.442 48.0025 112.478C46.4203 113.622 44.6056 114.437 42.492 114.723C41.7256 114.827 40.9414 114.852 40.1979 114.593C39.1377 114.223 38.9002 113.454 38.8797 112.636C38.8482 111.332 39.4077 110.152 40.1749 109.03C41.1764 107.567 42.6445 106.452 44.2122 105.41C46.6817 103.769 49.3607 102.38 52.1045 101.068L52.3114 100.999C52.7355 102.278 52.9373 103.541 52.8198 104.828ZM74.2434 91.3533C74.0433 92.3434 73.7929 93.3342 73.4387 94.2938C72.2141 97.6153 70.6413 100.834 68.9407 104.009C68.6265 104.597 68.1692 105.133 67.7715 105.69C67.7038 105.775 67.6228 105.854 67.5305 105.922C67.0383 106.319 66.5717 106.298 66.323 105.779C66.0335 105.175 65.8555 104.529 65.7022 103.89C65.5992 103.461 65.6239 103.011 65.5915 102.571C65.6247 99.4467 66.7922 96.6071 68.773 93.9635C69.5896 92.8732 70.4786 91.8344 71.8369 91.1447C72.2596 90.9304 72.7167 90.7652 73.1951 90.6538C73.919 90.4876 74.3635 90.7609 74.2434 91.3533ZM88.8596 106.558L94.1129 101.55C94.3318 103.41 90.4597 107.123 88.8596 106.558ZM105.638 103.188C105.267 103.362 104.862 103.487 104.482 103.648C104.133 103.795 104.018 103.646 104.008 103.402C104.003 103.232 104.03 103.063 104.087 102.9C104.797 100.858 106.102 99.1137 108.044 97.6952L108.181 97.6382C109.105 99.7485 108.037 102.066 105.638 103.188Z" fill="#CB6699"/>
<defs>
<filter id="filter0_d_6035_2785" x="0" y="0" width="178" height="178" filterUnits="userSpaceOnUse" color-interpolation-filters="sRGB">
<feFlood flood-opacity="0" result="BackgroundImageFix"/>
<feColorMatrix in="SourceAlpha" type="matrix" values="0 0 0 0 0 0 0 0 0 0 0 0 0 0 0 0 0 0 127 0" result="hardAlpha"/>
<feOffset dx="7" dy="3"/>
<feGaussianBlur stdDeviation="7.5"/>
<feComposite in2="hardAlpha" operator="out"/>
<feColorMatrix type="matrix" values="0 0 0 0 0.188235 0 0 0 0 0.188235 0 0 0 0 0.188235 0 0 0 0.25 0"/>
<feBlend mode="normal" in2="BackgroundImageFix" result="effect1_dropShadow_6035_2785"/>
<feBlend mode="normal" in="SourceGraphic" in2="effect1_dropShadow_6035_2785" result="shape"/>
</filter>
</defs>
</svg>
