<svg width="150" height="150" viewBox="0 0 150 150" fill="none" xmlns="http://www.w3.org/2000/svg">
<circle cx="75" cy="75" r="74.5" stroke="#FABA0B"/>
<path fill-rule="evenodd" clip-rule="evenodd" d="M21 74.5251C21 75.109 21.1715 75.4944 21.2676 75.8691C21.8938 78.3054 23.2398 80.3961 24.8368 82.3033C27.1114 85.0212 29.8971 87.2091 32.7507 89.2667C35.2257 91.0509 37.7513 92.7953 40.2363 94.5662C40.6629 94.8702 41.0663 95.22 41.5293 95.5929C41.1309 95.8089 40.7995 95.9991 40.455 96.1744C37.1756 97.8423 34.0205 99.7121 31.1122 101.977C29.3595 103.343 27.6647 104.794 26.4678 106.69C24.5419 109.741 23.8602 112.99 25.2957 116.46C25.7148 117.473 26.3543 118.349 27.2564 118.996C27.5488 119.205 27.8768 119.413 28.2189 119.494C29.0953 119.701 29.9882 119.836 30.8753 120L33.3877 119.998C36.1659 119.75 38.6948 118.796 40.9801 117.214C44.5519 114.742 46.9582 111.428 47.9928 107.174C48.7449 104.082 48.7755 100.987 47.8892 97.9096C47.8041 97.6246 47.7062 97.3436 47.596 97.0673C47.4883 96.7907 47.3616 96.5216 47.2125 96.1769L52.9081 92.8925L52.9934 92.9656C52.8898 93.3053 52.7797 93.6442 52.6861 93.9873C52.0093 96.4659 51.5595 98.9878 51.7211 101.56C51.8934 104.301 52.6562 106.867 54.2566 109.157C55.5504 111.01 58.6335 111.079 60.0085 109.22C60.4964 108.559 60.9694 107.869 61.3247 107.132C62.2533 105.209 63.1131 103.252 64.0002 101.309L64.1551 100.953C64.0913 101.873 64.0168 102.682 63.9828 103.491C63.9298 104.754 64.0035 106.01 64.4342 107.212C64.8029 108.24 65.4299 109.009 66.6045 109.144C67.408 109.236 68.0482 108.868 68.6388 108.4C69.5535 107.675 70.3119 106.771 70.8679 105.743C72.4425 102.843 74.0594 99.9605 75.4866 96.9876C77.0306 93.7721 78.3808 90.4628 79.8147 87.1925L80.0516 86.6127C80.3904 87.9476 80.6264 89.255 81.0613 90.4927C81.5666 91.9289 82.192 93.331 82.8729 94.6941C83.1951 95.3379 83.1578 95.7557 82.7113 96.2956C80.8426 98.555 79.0062 100.842 77.1681 103.126C76.7614 103.63 76.3564 104.144 76.0176 104.694C75.812 105.042 75.6769 105.427 75.62 105.827C75.563 106.196 75.6504 106.572 75.864 106.877C76.0776 107.183 76.4007 107.393 76.7656 107.465C77.5021 107.623 78.2572 107.677 79.0087 107.625C81.574 107.436 83.9033 106.533 85.9625 105.003C88.6306 103.021 89.4871 100.316 88.841 97.1105C88.6662 96.2408 88.3572 95.3952 88.0565 94.5571C87.9215 94.1791 87.9124 93.9142 88.1584 93.562C90.2914 90.5077 92.1137 87.2673 93.8084 83.9521C93.8755 83.8217 93.9443 83.6913 94.0619 83.5518C94.6111 86.4175 95.4378 89.1794 96.9188 91.6855C96.1634 92.4157 95.4154 93.0777 94.7387 93.807C93.2485 95.4135 91.9563 97.1579 91.282 99.2852C90.9921 100.202 90.7693 101.134 90.8985 102.114C91.099 103.634 92.3415 104.623 93.8333 104.277C97.0257 103.536 99.7815 102.027 101.795 99.3549C103.15 97.5557 103.274 95.5489 102.706 93.4465C102.551 92.875 102.366 92.3127 102.167 91.6573C102.955 91.4122 103.723 91.1182 104.517 90.9363C108.641 89.9927 112.721 90.1571 116.695 91.6506C119.015 92.5228 120.89 93.9823 122.001 96.2782C123.359 99.085 122.609 101.748 119.97 103.522C119.724 103.688 119.443 103.818 119.239 104.025C119.174 104.101 119.125 104.189 119.096 104.285C119.066 104.381 119.057 104.482 119.069 104.581C119.087 104.684 119.356 104.812 119.511 104.81C120.378 104.803 121.081 104.347 121.756 103.879C123.448 102.705 124.682 101.126 124.948 99.0468L125 98.8906L124.936 97.5366C124.911 97.4586 124.955 97.3813 124.949 97.3223C124.59 94.2946 122.977 91.9464 120.631 90.1056C117.914 87.975 114.706 87.0978 111.314 86.9591C108.562 86.8403 105.814 87.2645 103.225 88.2076C102.482 88.4775 101.745 88.7973 100.998 89.0989C100.898 88.917 100.79 88.7425 100.702 88.5623C99.9348 86.9874 99.0054 85.4822 98.8 83.6764C98.6542 82.3938 98.4753 81.113 98.7792 79.8446C99.0716 78.6243 99.4527 77.4249 99.8113 76.2213C99.9961 75.6016 99.866 75.2544 99.2762 74.9753C99.0701 74.874 98.851 74.8019 98.6252 74.761C97.1756 74.55 95.7459 74.6704 94.3419 75.0799C93.8449 75.2253 93.4837 75.5044 93.3736 76.056C93.3106 76.3724 93.1822 76.6756 93.0928 76.9879C92.7258 78.2863 92.4657 79.6095 91.8726 80.8463C90.3866 83.9488 88.6902 86.9342 86.954 89.898C86.766 90.2178 86.568 90.5317 86.3311 90.9197C85.7215 89.6405 85.0712 88.4925 84.8741 87.1468C84.6513 85.6251 84.4757 84.1058 84.8534 82.5957C85.1342 81.4693 85.5011 80.3637 85.8391 79.2523C85.999 78.724 85.9252 78.4466 85.4481 78.1683C85.2071 78.0279 84.9346 77.9033 84.6629 77.8626C83.1765 77.6355 81.6578 77.7601 80.228 78.2264C79.7782 78.3726 79.5421 78.6642 79.4046 79.1294C79.0004 80.5016 78.6558 81.9071 78.0884 83.212C75.7906 88.495 73.4266 93.7505 71.065 99.0052C70.5722 100.103 69.9948 101.162 69.439 102.23C69.2982 102.501 69.0928 102.739 68.9172 102.993C68.7764 102.826 68.7217 102.712 68.7225 102.597C68.7267 101.922 68.6463 101.226 68.7747 100.574C69.1689 98.5989 69.6047 96.6329 70.0818 94.6767C70.4711 93.0603 70.9242 91.4588 71.3558 89.8531C71.5007 89.3157 71.5032 88.8131 71.118 88.3613C70.4711 87.6045 69.1193 87.4384 68.3175 88.0215L67.9629 88.2225L68.0317 87.6494C68.2007 86.4208 68.2346 85.1965 67.8983 83.9862C67.4792 82.4777 66.4057 81.6097 64.8451 81.6579C64.1178 81.6803 63.3541 81.8049 62.6807 82.0707C59.8486 83.1838 57.6709 85.1549 55.8171 87.5264C55.6452 87.7465 55.4322 87.931 55.1901 88.0697C52.7937 89.4021 50.3899 90.7178 47.987 92.0386L45.3123 93.508C44.5949 92.8219 43.9431 92.11 43.2034 91.5061C40.9445 89.6587 38.6492 87.857 36.3746 86.0304C34.3585 84.4115 32.4053 82.7253 30.911 80.5814C29.7993 78.9865 29.0828 77.2413 29.0141 75.2693C28.9271 72.7566 29.6378 70.4607 30.9134 68.3234C32.5452 65.5889 34.771 63.3943 37.2179 61.4066C39.8064 59.305 42.6061 57.5208 45.5078 55.8918C49.5674 53.6134 53.743 51.5965 58.2201 50.265C62.8107 48.8994 67.4684 48.1178 72.2727 48.6627C74.1613 48.877 75.9952 49.3106 77.6792 50.2368C78.9689 50.9453 80.0267 51.8731 80.5187 53.3235C81.0041 54.7505 80.9892 56.1967 80.6529 57.6462C79.9696 60.5817 78.3667 63.0014 76.3498 65.1636C73.0414 68.708 69.0058 71.121 64.4624 72.7151C61.85 73.6326 59.1321 74.214 56.3738 74.4453C54.1133 74.6355 51.9 74.4345 49.7596 73.6462C48.3423 73.1237 47.1081 72.3247 46.1158 71.1651C45.9385 70.9574 45.7115 70.7323 45.381 70.9267C45.0572 71.1177 45 71.4267 45.1085 71.7399C45.2899 72.2599 45.4572 72.8015 45.7397 73.2666C46.4496 74.4337 47.485 75.2801 48.6248 76.0061C50.814 77.4024 53.2609 77.8718 55.7981 77.9806C59.6482 78.1475 63.4046 77.5711 67.1081 76.5352C72.3953 75.0567 76.9925 72.4451 80.6794 68.3251C83.7492 64.8945 85.9418 61.0228 86.4115 56.3479C86.6409 54.0661 86.3966 51.8308 85.3313 49.7492C84.1758 47.4939 82.3386 45.8169 80.1418 44.6614C76.9428 42.9793 73.4904 42 69.9269 42H66.3568C62.0412 42 57.8689 43.2402 53.8134 44.7196C50.7436 45.8401 47.7335 47.1625 44.8111 48.6261C38.4471 51.815 32.5204 55.6601 27.6523 60.9472C25.227 63.5812 23.1735 66.4877 21.9923 69.9099C21.6364 70.9319 21.3293 71.9703 21.0721 73.0216M44.1319 102.936C43.8561 106.64 42.182 109.643 39.4461 112.075C37.907 113.442 36.1419 114.416 34.0859 114.758C33.3404 114.882 32.5776 114.911 31.8544 114.602C30.8232 114.16 30.592 113.242 30.5722 112.264C30.5415 110.706 31.0857 109.297 31.8321 107.956C32.8062 106.209 34.2342 104.876 35.7592 103.632C38.1613 101.671 40.7672 100.011 43.4361 98.4446L43.6374 98.3615C44.0499 99.8899 44.2462 101.399 44.1319 102.936ZM64.971 86.8387C64.7764 88.0215 64.5328 89.2052 64.1882 90.3515C62.9971 94.3195 61.4672 98.1646 59.813 101.958C59.5074 102.66 59.0625 103.301 58.6757 103.966C58.6098 104.068 58.531 104.161 58.4413 104.243C57.9625 104.718 57.5086 104.693 57.2667 104.072C56.9851 103.351 56.812 102.58 56.6629 101.816C56.5626 101.304 56.5867 100.765 56.5552 100.24C56.5875 96.5075 57.7231 93.1151 59.6498 89.9569C60.4442 88.6545 61.309 87.4135 62.6301 86.5895C63.0413 86.3335 63.486 86.1361 63.9513 86.003C64.6554 85.8045 65.0878 86.1309 64.971 86.8387ZM79.1884 105.003L84.2984 99.0202C84.5113 101.242 80.7449 105.678 79.1884 105.003ZM95.509 100.977C95.1479 101.185 94.7544 101.334 94.3841 101.526C94.0453 101.702 93.9335 101.525 93.9236 101.232C93.9188 101.03 93.9448 100.828 94.0006 100.633C94.6906 98.1929 95.9604 96.1096 97.8499 94.4151L97.9824 94.3469C98.8811 96.868 97.8424 99.6365 95.509 100.977Z" fill="#202020"/>
</svg>
