<svg width="180" height="180" viewBox="0 0 180 180" fill="none" xmlns="http://www.w3.org/2000/svg">
<g filter="url(#filter0_d_6035_1826)">
<circle cx="83" cy="87" r="74" fill="#FABA0B"/>
<g clip-path="url(#clip0_6035_1826)">
<path d="M41.7234 13.7793H123.27C127.238 13.7793 131.091 14.4119 134.829 15.7346C140.235 17.6899 145.123 21.1403 148.804 25.626C152.542 30.1116 155.015 35.6324 155.877 41.3832C156.222 43.511 156.28 45.6389 156.28 47.7667V127.301C156.28 129.831 156.165 132.419 155.647 134.892C154.497 140.585 151.794 145.933 147.884 150.246C144.031 154.559 138.97 157.78 133.507 159.505C130.171 160.54 126.721 161 123.213 161C121.66 161 41.4934 161 40.2857 160.943C34.4199 160.655 28.6116 158.758 23.7234 155.48C18.9502 152.259 15.0396 147.773 12.5093 142.598C10.3239 138.17 9.23129 133.224 9.23129 128.278V46.5015C9.11627 41.6133 10.1514 36.7826 12.2792 32.412C14.7521 27.2362 18.6051 22.6931 23.3783 19.4726C28.2665 16.1371 34.0173 14.1819 39.8832 13.8943C40.4583 13.7793 41.0908 13.7793 41.7234 13.7793Z" fill="url(#paint0_linear_6035_1826)"/>
<path d="M133.218 134.202C132.7 133.396 132.125 132.591 131.493 131.844C130.055 130.119 128.387 128.623 126.547 127.358C124.246 125.805 121.544 124.828 118.783 124.713C116.828 124.598 114.873 124.943 113.032 125.633C111.192 126.265 109.409 127.186 107.684 128.106C105.671 129.141 103.659 130.176 101.531 131.039C99.0004 132.074 96.355 132.879 93.6521 133.454C90.2591 134.087 86.8086 134.317 83.4156 134.259C77.2623 134.144 71.1089 133.224 65.243 131.499C60.0673 129.946 55.1216 127.818 50.4634 125.115C46.3803 122.757 42.5848 120.055 39.0193 117.007C36.0864 114.476 33.3835 111.773 30.8531 108.898C29.1279 106.885 27.4601 104.757 25.9074 102.572C25.2748 101.709 24.6997 100.789 24.1822 99.8692L9 83.4793V46.3865C9 28.3864 23.5496 13.7793 41.5497 13.7793H70.5913L92.0994 35.6324C140.636 68.6422 124.937 105.045 124.937 105.045C124.937 105.045 138.739 120.572 133.218 134.202Z" fill="url(#paint1_linear_6035_1826)"/>
<path d="M92.2159 35.6328C140.753 68.6425 125.053 105.045 125.053 105.045C125.053 105.045 138.855 120.63 133.277 134.259C133.277 134.259 127.583 124.713 118.037 124.713C108.836 124.713 103.43 134.259 84.9123 134.259C43.6789 134.259 24.1836 99.812 24.1836 99.812C61.3339 124.253 86.6951 106.943 86.6951 106.943C69.9602 97.2241 34.3626 50.7575 34.3626 50.7575C65.3595 77.1538 78.7589 84.1122 78.7589 84.1122C70.7653 77.4988 48.3371 45.1792 48.3371 45.1792C66.2796 63.3518 101.935 88.7129 101.935 88.7129C112.056 60.6489 92.2159 35.6328 92.2159 35.6328Z" fill="white"/>
</g>
</g>
<defs>
<filter id="filter0_d_6035_1826" x="0.5" y="0.5" width="179" height="179" filterUnits="userSpaceOnUse" color-interpolation-filters="sRGB">
<feFlood flood-opacity="0" result="BackgroundImageFix"/>
<feColorMatrix in="SourceAlpha" type="matrix" values="0 0 0 0 0 0 0 0 0 0 0 0 0 0 0 0 0 0 127 0" result="hardAlpha"/>
<feOffset dx="7" dy="3"/>
<feGaussianBlur stdDeviation="7.75"/>
<feComposite in2="hardAlpha" operator="out"/>
<feColorMatrix type="matrix" values="0 0 0 0 0.188235 0 0 0 0 0.188235 0 0 0 0 0.188235 0 0 0 0.25 0"/>
<feBlend mode="normal" in2="BackgroundImageFix" result="effect1_dropShadow_6035_1826"/>
<feBlend mode="normal" in="SourceGraphic" in2="effect1_dropShadow_6035_1826" result="shape"/>
</filter>
<linearGradient id="paint0_linear_6035_1826" x1="96.5811" y1="8.52592" x2="68.7661" y2="166.272" gradientUnits="userSpaceOnUse">
<stop stop-color="#FAAE42"/>
<stop offset="1" stop-color="#EF3E31"/>
</linearGradient>
<linearGradient id="paint1_linear_6035_1826" x1="84.1126" y1="16.1578" x2="63.7553" y2="131.61" gradientUnits="userSpaceOnUse">
<stop stop-color="#E39F3A"/>
<stop offset="1" stop-color="#D33929"/>
</linearGradient>
<clipPath id="clip0_6035_1826">
<rect x="9" y="13.7793" width="147.221" height="147.221" rx="73.6105" fill="white"/>
</clipPath>
</defs>
</svg>
