<svg width="148" height="148" viewBox="0 0 148 148" fill="none" xmlns="http://www.w3.org/2000/svg">
<circle cx="74" cy="74" r="74" fill="#FABA0B"/>
<g clip-path="url(#clip0_8271_773)">
<path d="M32.4881 1H114.003C117.97 1 121.821 1.63164 125.558 2.95234C130.961 4.90469 135.848 8.35 139.527 12.8289C143.263 17.3078 145.735 22.8203 146.598 28.5625C146.943 30.6871 147 32.8117 147 34.9363V114.351C147 116.877 146.885 119.461 146.368 121.93C145.218 127.615 142.516 132.955 138.607 137.262C134.756 141.569 129.697 144.784 124.236 146.507C120.901 147.541 117.452 148 113.946 148C112.394 148 32.2582 148 31.051 147.943C25.1874 147.655 19.3814 145.761 14.4951 142.487C9.72374 139.272 5.8147 134.793 3.28532 129.625C1.10086 125.204 0.00863008 120.265 0.00863008 115.327V33.673C-0.106342 28.7922 0.928404 23.9687 3.05538 19.6047C5.52727 14.4367 9.37883 9.90039 14.1502 6.68477C19.0365 3.3543 24.785 1.40195 30.6486 1.11484C31.2235 1 31.8558 1 32.4881 1Z" fill="url(#paint0_linear_8271_773)"/>
<path d="M124.218 121.202C123.7 120.396 123.125 119.591 122.493 118.844C121.055 117.119 119.387 115.623 117.547 114.358C115.246 112.805 112.544 111.828 109.783 111.713C107.828 111.598 105.873 111.943 104.032 112.633C102.192 113.265 100.409 114.186 98.6841 115.106C96.6713 116.141 94.6585 117.176 92.5307 118.039C90.0004 119.074 87.355 119.879 84.6521 120.454C81.2591 121.087 77.8086 121.317 74.4156 121.259C68.2623 121.144 62.1089 120.224 56.243 118.499C51.0673 116.946 46.1216 114.818 41.4634 112.115C37.3803 109.757 33.5848 107.055 30.0193 104.007C27.0864 101.476 24.3835 98.7734 21.8531 95.898C20.1279 93.8852 18.4601 91.7574 16.9074 89.5721C16.2748 88.7094 15.6997 87.7893 15.1822 86.8692L0 70.4793V33.3865C0 15.3864 14.5496 0.779297 32.5497 0.779297H61.5913L83.0994 22.6324C131.636 55.6422 115.937 92.0449 115.937 92.0449C115.937 92.0449 129.739 107.572 124.218 121.202Z" fill="url(#paint1_linear_8271_773)"/>
<path d="M83.2159 22.6328C131.753 55.6425 116.053 92.0452 116.053 92.0452C116.053 92.0452 129.855 107.63 124.277 121.259C124.277 121.259 118.583 111.713 109.037 111.713C99.8358 111.713 94.43 121.259 75.9123 121.259C34.6789 121.259 15.1836 86.812 15.1836 86.812C52.3339 111.253 77.6951 93.943 77.6951 93.943C60.9602 84.2241 25.3626 37.7575 25.3626 37.7575C56.3595 64.1538 69.7589 71.1122 69.7589 71.1122C61.7653 64.4988 39.3371 32.1792 39.3371 32.1792C57.2796 50.3518 92.9348 75.7129 92.9348 75.7129C103.056 47.6489 83.2159 22.6328 83.2159 22.6328Z" fill="white"/>
</g>
<defs>
<linearGradient id="paint0_linear_8271_773" x1="87.3245" y1="-4.24549" x2="59.5803" y2="153.274" gradientUnits="userSpaceOnUse">
<stop stop-color="#FAAE42"/>
<stop offset="1" stop-color="#EF3E31"/>
</linearGradient>
<linearGradient id="paint1_linear_8271_773" x1="75.1126" y1="3.15784" x2="54.7553" y2="118.61" gradientUnits="userSpaceOnUse">
<stop stop-color="#E39F3A"/>
<stop offset="1" stop-color="#D33929"/>
</linearGradient>
<clipPath id="clip0_8271_773">
<rect y="0.779297" width="147.221" height="147.221" rx="73.6105" fill="white"/>
</clipPath>
</defs>
</svg>
