<svg width="150" height="150" viewBox="0 0 150 150" fill="none" xmlns="http://www.w3.org/2000/svg">
<circle cx="75" cy="75" r="74.5" stroke="#FABA0B"/>
<path d="M86.8439 31C131.679 60.4531 117.177 92.9335 117.177 92.9335C117.177 92.9335 129.926 106.839 124.773 119C124.773 119 119.514 110.482 110.696 110.482C102.196 110.482 97.2028 119 80.0974 119C42.0085 119 24 88.2641 24 88.2641C58.3171 110.072 81.7442 94.6268 81.7442 94.6268C66.2855 85.9551 33.4027 44.495 33.4027 44.495C62.0357 68.0472 74.4133 74.256 74.4133 74.256C67.0292 68.3551 46.3115 39.5178 46.3115 39.5178C62.8857 55.7324 95.8217 78.3609 95.8217 78.3609C105.171 53.3207 86.8439 31 86.8439 31Z" fill="#303030"/>
</svg>
