<svg width="150" height="150" viewBox="0 0 150 150" fill="none" xmlns="http://www.w3.org/2000/svg">
<circle cx="75" cy="75" r="74.5" stroke="#FABA0B"/>
<g clip-path="url(#clip0_6035_2798)">
<path d="M75.0052 42.752C60.6723 42.752 51.7175 49.9155 48.1315 64.2484C53.5046 57.084 59.777 54.3975 66.9414 56.1888C71.0321 57.2083 73.9554 60.1745 77.1929 63.4615C82.4618 68.8085 88.5604 74.9987 101.879 74.9987C116.211 74.9987 125.167 67.8343 128.753 53.4981C123.378 60.6661 117.108 63.354 109.942 61.5619C105.852 60.5415 102.932 57.5761 99.6903 54.2892C94.4248 48.9421 88.3278 42.752 75.0052 42.752ZM48.1315 74.9987C33.7994 74.9987 24.8438 82.1631 21.2578 96.4993C26.632 89.3313 32.902 86.6434 40.0677 88.4355C44.1584 89.4559 47.0817 92.4212 50.3192 95.7082C55.5881 101.055 61.6867 107.245 75.0052 107.245C89.3372 107.245 98.2929 100.082 101.879 85.749C96.5041 92.9136 90.2339 95.6002 83.0681 93.8086C78.9783 92.7891 76.0583 89.8229 72.8167 86.5359C67.5511 81.1889 61.4541 74.9987 48.1315 74.9987Z" fill="#202020"/>
</g>
<defs>
<clipPath id="clip0_6035_2798">
<rect width="107.495" height="107.495" fill="white" transform="translate(21.2539 21.252)"/>
</clipPath>
</defs>
</svg>
