<svg width="178" height="178" viewBox="0 0 178 178" fill="none" xmlns="http://www.w3.org/2000/svg">
<g filter="url(#filter0_d_6035_2794)">
<circle cx="82" cy="86" r="74" fill="#F0F0F0"/>
</g>
<g clip-path="url(#clip0_6035_2794)">
<path d="M82.0052 53.752C67.6723 53.752 58.7175 60.9155 55.1315 75.2484C60.5046 68.084 66.777 65.3975 73.9414 67.1888C78.0321 68.2083 80.9554 71.1745 84.1929 74.4615C89.4618 79.8085 95.5604 85.9987 108.879 85.9987C123.211 85.9987 132.167 78.8343 135.753 64.4981C130.378 71.6661 124.108 74.354 116.942 72.5619C112.852 71.5415 109.932 68.5761 106.69 65.2892C101.425 59.9421 95.3278 53.752 82.0052 53.752ZM55.1315 85.9987C40.7994 85.9987 31.8438 93.1631 28.2578 107.499C33.632 100.331 39.902 97.6434 47.0677 99.4355C51.1584 100.456 54.0817 103.421 57.3192 106.708C62.5881 112.055 68.6867 118.245 82.0052 118.245C96.3372 118.245 105.293 111.082 108.879 96.749C103.504 103.914 97.2339 106.6 90.0681 104.809C85.9783 103.789 83.0583 100.823 79.8167 97.5359C74.5511 92.1889 68.4541 85.9987 55.1315 85.9987Z" fill="#38BDF8"/>
</g>
<defs>
<filter id="filter0_d_6035_2794" x="0" y="0" width="178" height="178" filterUnits="userSpaceOnUse" color-interpolation-filters="sRGB">
<feFlood flood-opacity="0" result="BackgroundImageFix"/>
<feColorMatrix in="SourceAlpha" type="matrix" values="0 0 0 0 0 0 0 0 0 0 0 0 0 0 0 0 0 0 127 0" result="hardAlpha"/>
<feOffset dx="7" dy="3"/>
<feGaussianBlur stdDeviation="7.5"/>
<feComposite in2="hardAlpha" operator="out"/>
<feColorMatrix type="matrix" values="0 0 0 0 0.188235 0 0 0 0 0.188235 0 0 0 0 0.188235 0 0 0 0.25 0"/>
<feBlend mode="normal" in2="BackgroundImageFix" result="effect1_dropShadow_6035_2794"/>
<feBlend mode="normal" in="SourceGraphic" in2="effect1_dropShadow_6035_2794" result="shape"/>
</filter>
<clipPath id="clip0_6035_2794">
<rect width="107.495" height="107.495" fill="white" transform="translate(28.2539 32.252)"/>
</clipPath>
</defs>
</svg>
