<svg width="150" height="150" viewBox="0 0 150 150" fill="none" xmlns="http://www.w3.org/2000/svg">
<circle cx="75" cy="75" r="74.5" stroke="#FABA0B"/>
<g clip-path="url(#clip0_6035_2808)">
<path d="M80.4059 92.1967V103.633C82.2659 104.586 84.4656 105.301 87.0052 105.778C89.5448 106.254 92.2214 106.492 95.0351 106.492C97.7773 106.492 100.382 106.23 102.85 105.706C105.318 105.182 107.482 104.318 109.342 103.115C111.202 101.912 112.674 100.339 113.759 98.3973C114.844 96.4559 115.387 94.0555 115.387 91.1963C115.387 89.1232 115.077 87.3065 114.457 85.746C113.843 84.1962 112.932 82.7818 111.774 81.5826C110.606 80.3675 109.205 79.2774 107.572 78.3123C105.938 77.3473 104.096 76.4361 102.045 75.5787C100.543 74.959 99.1958 74.3573 98.0035 73.7738C96.8113 73.1902 95.798 72.5945 94.9635 71.9867C94.1287 71.3794 93.4849 70.7361 93.0319 70.0568C92.5789 69.3774 92.3524 68.6091 92.3524 67.7517C92.3524 66.9655 92.555 66.2568 92.9603 65.6255C93.3658 64.9939 93.9381 64.4519 94.6774 63.9994C95.4166 63.547 96.3227 63.1955 97.3957 62.9448C98.4687 62.6947 99.6609 62.5697 100.972 62.5697C101.926 62.5697 102.934 62.6412 103.995 62.7842C105.056 62.9269 106.123 63.1473 107.196 63.4454C108.266 63.7425 109.312 64.1188 110.326 64.5713C111.308 65.0068 112.248 65.5331 113.133 66.1435V55.4577C111.393 54.7906 109.491 54.2962 107.428 53.9746C105.366 53.653 102.999 53.4922 100.329 53.4922C97.6103 53.4922 95.0351 53.7841 92.6029 54.3679C90.1707 54.9515 88.0306 55.8627 86.1825 57.1016C84.3347 58.341 82.8741 59.9195 81.8009 61.8372C80.7279 63.7551 80.1914 66.0484 80.1914 68.7169C80.1914 72.1238 81.1751 75.0305 83.1424 77.437C85.1098 79.8435 88.0963 81.8806 92.1019 83.5482C93.5807 84.1505 95.0475 84.7821 96.5013 85.4425C97.8606 86.0619 99.035 86.7051 100.025 87.372C101.014 88.0389 101.795 88.7656 102.367 89.5521C102.94 90.3385 103.226 91.2321 103.226 92.2327C103.23 92.9529 103.045 93.6617 102.689 94.2877C102.332 94.919 101.789 95.4669 101.062 95.9315C100.334 96.3961 99.4283 96.7594 98.3435 97.0213C97.2587 97.2833 95.9889 97.4144 94.5341 97.4147C92.0544 97.4147 89.5985 96.9798 87.1663 96.11C84.7341 95.2402 82.4806 93.9357 80.4059 92.1967ZM61.3441 63.7369H76.0508V54.3203H35.0586V63.7369H49.6936V105.664H61.3441V63.7369Z" fill="#202020"/>
</g>
<defs>
<clipPath id="clip0_6035_2808">
<rect width="106" height="106" fill="white" transform="translate(22 22)"/>
</clipPath>
</defs>
</svg>
