<svg width="178" height="178" viewBox="0 0 178 178" fill="none" xmlns="http://www.w3.org/2000/svg">
<g filter="url(#filter0_d_6035_2803)">
<circle cx="82" cy="86" r="74" fill="#3178C6"/>
</g>
<g clip-path="url(#clip0_6035_2803)">
<path d="M87.4059 98.5893V110.026C89.2659 110.979 91.4656 111.694 94.0052 112.17C96.5448 112.647 99.2214 112.885 102.035 112.885C104.777 112.885 107.382 112.623 109.85 112.098C112.318 111.574 114.482 110.711 116.342 109.508C118.202 108.304 119.674 106.732 120.759 104.79C121.844 102.848 122.387 100.448 122.387 97.5889C122.387 95.5158 122.077 93.699 121.457 92.1386C120.843 90.5888 119.932 89.1743 118.774 87.9752C117.606 86.76 116.205 85.67 114.572 84.7049C112.938 83.7399 111.096 82.8287 109.045 81.9713C107.543 81.3516 106.196 80.7499 105.004 80.1664C103.811 79.5828 102.798 78.9871 101.963 78.3793C101.129 77.772 100.485 77.1287 100.032 76.4493C99.5789 75.77 99.3524 75.0016 99.3524 74.1443C99.3524 73.3581 99.555 72.6493 99.9603 72.018C100.366 71.3865 100.938 70.8445 101.677 70.392C102.417 69.9396 103.323 69.588 104.396 69.3374C105.469 69.0873 106.661 68.9623 107.972 68.9623C108.926 68.9623 109.934 69.0338 110.995 69.1767C112.056 69.3195 113.123 69.5399 114.196 69.838C115.266 70.1351 116.312 70.5114 117.326 70.9638C118.308 71.3994 119.248 71.9257 120.133 72.536V61.8503C118.393 61.1831 116.491 60.6887 114.428 60.3671C112.366 60.0456 109.999 59.8848 107.329 59.8848C104.61 59.8848 102.035 60.1767 99.6029 60.7605C97.1707 61.3441 95.0306 62.2553 93.1825 63.4941C91.3347 64.7336 89.8741 66.3121 88.8009 68.2298C87.7279 70.1477 87.1914 72.4409 87.1914 75.1094C87.1914 78.5163 88.1751 81.4231 90.1424 83.8296C92.1098 86.2361 95.0963 88.2732 99.1019 89.9407C100.581 90.5431 102.048 91.1746 103.501 91.8351C104.861 92.4545 106.035 93.0977 107.025 93.7646C108.014 94.4315 108.795 95.1582 109.367 95.9446C109.94 96.7311 110.226 97.6246 110.226 98.6253C110.23 99.3455 110.045 100.054 109.689 100.68C109.332 101.312 108.789 101.86 108.062 102.324C107.334 102.789 106.428 103.152 105.343 103.414C104.259 103.676 102.989 103.807 101.534 103.807C99.0544 103.807 96.5985 103.372 94.1663 102.503C91.7341 101.633 89.4806 100.328 87.4059 98.5893ZM68.3441 70.1295H83.0508V60.7129H42.0586V70.1295H56.6936V112.057H68.3441V70.1295Z" fill="white"/>
</g>
<defs>
<filter id="filter0_d_6035_2803" x="0" y="0" width="178" height="178" filterUnits="userSpaceOnUse" color-interpolation-filters="sRGB">
<feFlood flood-opacity="0" result="BackgroundImageFix"/>
<feColorMatrix in="SourceAlpha" type="matrix" values="0 0 0 0 0 0 0 0 0 0 0 0 0 0 0 0 0 0 127 0" result="hardAlpha"/>
<feOffset dx="7" dy="3"/>
<feGaussianBlur stdDeviation="7.5"/>
<feComposite in2="hardAlpha" operator="out"/>
<feColorMatrix type="matrix" values="0 0 0 0 0.188235 0 0 0 0 0.188235 0 0 0 0 0.188235 0 0 0 0.25 0"/>
<feBlend mode="normal" in2="BackgroundImageFix" result="effect1_dropShadow_6035_2803"/>
<feBlend mode="normal" in="SourceGraphic" in2="effect1_dropShadow_6035_2803" result="shape"/>
</filter>
<clipPath id="clip0_6035_2803">
<rect width="106" height="106" fill="white" transform="translate(29 33)"/>
</clipPath>
</defs>
</svg>
