<svg width="178" height="178" viewBox="0 0 178 178" fill="none" xmlns="http://www.w3.org/2000/svg">
<g filter="url(#filter0_d_6035_2823)">
<circle cx="82" cy="86" r="74" fill="#F0F0F0"/>
</g>
<g clip-path="url(#clip0_6035_2823)">
<path d="M81.993 139.747L125.413 114.674L108.77 105.049L91.7557 114.878C91.6108 114.958 91.4478 114.999 91.2824 114.998C91.1169 114.997 90.9546 114.953 90.811 114.871C90.6678 114.787 90.5487 114.667 90.4651 114.524C90.3816 114.381 90.3364 114.218 90.3339 114.052V90.7089C90.3339 90.0211 90.69 89.3988 91.2854 89.0562L111.503 77.3804C111.647 77.2984 111.81 77.2558 111.976 77.2572C112.142 77.2585 112.304 77.3036 112.447 77.3879C112.742 77.5517 112.927 77.8616 112.931 78.1992V97.8489L129.584 107.468V57.3242L81.9922 84.795L81.993 139.747Z" fill="black"/>
<path d="M72.257 114.89L55.2342 105.049L38.5792 114.674L81.9936 139.747V84.7958L34.418 57.3242V107.465L51.0671 97.8497V78.2017C51.0746 77.865 51.256 77.5551 51.5474 77.3905C51.691 77.306 51.8543 77.2609 52.0209 77.2595C52.1875 77.2582 52.3515 77.3008 52.4964 77.3829L72.7239 89.057C73.0133 89.2255 73.2535 89.4669 73.4204 89.7572C73.5874 90.0475 73.6753 90.3765 73.6754 90.7114V114.058C73.6731 114.224 73.6283 114.387 73.5453 114.531C73.4622 114.675 73.3436 114.796 73.2009 114.881C73.0581 114.965 72.8959 115.01 72.7303 115.012C72.5647 115.013 72.4015 114.972 72.257 114.891" fill="#4D4D4D"/>
<path d="M86.1666 32.252V51.4834L103.182 61.3066C103.474 61.4771 103.648 61.7903 103.648 62.133C103.648 62.4714 103.47 62.7813 103.182 62.9518L82.9569 74.6351C82.6663 74.8 82.3378 74.8867 82.0037 74.8867C81.6696 74.8867 81.3411 74.8 81.0505 74.6351L60.8314 62.9518C60.6878 62.8689 60.5687 62.7495 60.4861 62.6057C60.4035 62.4619 60.3604 62.2988 60.3612 62.133C60.3599 61.966 60.4028 61.8017 60.4853 61.6566C60.5679 61.5116 60.6873 61.3908 60.8314 61.3066L77.8433 51.4834V32.252L34.418 57.3243L81.9945 84.795L129.582 57.3251L86.1666 32.252Z" fill="#808080"/>
</g>
<defs>
<filter id="filter0_d_6035_2823" x="0" y="0" width="178" height="178" filterUnits="userSpaceOnUse" color-interpolation-filters="sRGB">
<feFlood flood-opacity="0" result="BackgroundImageFix"/>
<feColorMatrix in="SourceAlpha" type="matrix" values="0 0 0 0 0 0 0 0 0 0 0 0 0 0 0 0 0 0 127 0" result="hardAlpha"/>
<feOffset dx="7" dy="3"/>
<feGaussianBlur stdDeviation="7.5"/>
<feComposite in2="hardAlpha" operator="out"/>
<feColorMatrix type="matrix" values="0 0 0 0 0.188235 0 0 0 0 0.188235 0 0 0 0 0.188235 0 0 0 0.25 0"/>
<feBlend mode="normal" in2="BackgroundImageFix" result="effect1_dropShadow_6035_2823"/>
<feBlend mode="normal" in="SourceGraphic" in2="effect1_dropShadow_6035_2823" result="shape"/>
</filter>
<clipPath id="clip0_6035_2823">
<rect width="107.495" height="107.495" fill="white" transform="translate(28.2539 32.252)"/>
</clipPath>
</defs>
</svg>
