<svg width="150" height="150" viewBox="0 0 150 150" fill="none" xmlns="http://www.w3.org/2000/svg">
<circle cx="75" cy="75" r="74.5" stroke="#FABA0B"/>
<g clip-path="url(#clip0_6035_2829)">
<path d="M74.993 128.747L118.413 103.674L101.77 94.0494L84.7557 103.878C84.6108 103.958 84.4478 103.999 84.2824 103.998C84.1169 103.997 83.9546 103.953 83.811 103.871C83.6678 103.787 83.5487 103.667 83.4651 103.524C83.3816 103.381 83.3364 103.218 83.3339 103.052V79.7089C83.3339 79.0211 83.69 78.3988 84.2854 78.0562L104.503 66.3804C104.647 66.2984 104.81 66.2558 104.976 66.2572C105.142 66.2585 105.304 66.3036 105.447 66.3879C105.742 66.5517 105.927 66.8616 105.931 67.1992V86.8489L122.584 96.468V46.3242L74.9922 73.795L74.993 128.747Z" fill="#202020"/>
<path d="M65.257 103.89L48.2342 94.0494L31.5792 103.674L74.9936 128.747V73.7958L27.418 46.3242V96.4655L44.0671 86.8497V67.2017C44.0746 66.865 44.256 66.5551 44.5474 66.3905C44.691 66.306 44.8543 66.2609 45.0209 66.2595C45.1875 66.2582 45.3515 66.3008 45.4964 66.3829L65.7239 78.057C66.0133 78.2255 66.2535 78.4669 66.4204 78.7572C66.5874 79.0475 66.6753 79.3765 66.6754 79.7114V103.058C66.6731 103.224 66.6283 103.387 66.5453 103.531C66.4622 103.675 66.3436 103.796 66.2009 103.881C66.0581 103.965 65.8959 104.01 65.7303 104.012C65.5647 104.013 65.4015 103.972 65.257 103.891" fill="#202020"/>
<path d="M79.1666 21.252V40.4834L96.1819 50.3066C96.4741 50.4771 96.6479 50.7903 96.6479 51.133C96.6479 51.4714 96.4699 51.7813 96.1819 51.9518L75.9569 63.6351C75.6663 63.8 75.3378 63.8867 75.0037 63.8867C74.6696 63.8867 74.3411 63.8 74.0505 63.6351L53.8314 51.9518C53.6878 51.8689 53.5687 51.7495 53.4861 51.6057C53.4035 51.4619 53.3604 51.2988 53.3612 51.133C53.3599 50.966 53.4028 50.8017 53.4853 50.6566C53.5679 50.5116 53.6873 50.3908 53.8314 50.3066L70.8433 40.4834V21.252L27.418 46.3243L74.9945 73.795L122.582 46.3251L79.1666 21.252Z" fill="#202020"/>
</g>
<defs>
<clipPath id="clip0_6035_2829">
<rect width="107.495" height="107.495" fill="white" transform="translate(21.2539 21.252)"/>
</clipPath>
</defs>
</svg>
