<svg width="178" height="178" viewBox="0 0 178 178" fill="none" xmlns="http://www.w3.org/2000/svg">
<g filter="url(#filter0_d_6035_2814)">
<circle cx="82" cy="86" r="74" fill="#F0F0F0"/>
</g>
<path d="M71.6718 92.7178L68.9844 87.5111L66.2131 92.7178H63.2738L67.4728 86.0834L63.6937 79.449H66.7169L69.1524 84.4878L71.8397 79.449H74.6111L70.664 85.9994L74.6111 92.7178H71.6718ZM81.2455 92.7178V91.2902C80.4897 92.4659 79.4819 92.9698 78.1383 92.9698C77.1305 92.9698 76.2907 92.7178 75.7028 92.13C75.115 91.5421 74.7791 90.7863 74.7791 89.8625C74.7791 87.847 75.9548 86.6713 78.2222 86.4193L81.2455 85.9994C81.2455 84.5718 80.5737 83.8159 79.23 83.8159C77.9703 83.8159 76.7946 84.2358 75.7868 84.9917V82.8921C76.2067 82.6402 76.7106 82.4722 77.4664 82.2203C78.2222 82.0523 78.8941 81.9684 79.4819 81.9684C82.1693 81.9684 83.513 83.312 83.513 86.0834V92.7178H81.2455ZM79.062 87.931C78.3902 88.0149 77.8863 88.1829 77.5504 88.4348C77.2985 88.6868 77.1305 89.1067 77.1305 89.6106C77.1305 90.0305 77.2985 90.3664 77.6344 90.7023C77.9703 90.9543 78.3902 91.1222 78.8941 91.1222C79.5659 91.1222 80.1538 90.8703 80.6577 90.3664C81.0776 89.8625 81.3295 89.2746 81.3295 88.5188V87.595L79.062 87.931ZM98.7134 92.7178V86.7552C98.7134 85.7475 98.5455 85.0756 98.2935 84.5718C97.9576 84.0679 97.4537 83.8159 96.6979 83.8159C96.11 83.8159 95.5222 84.0679 95.1023 84.6557C94.6824 85.2436 94.4304 85.9154 94.4304 86.7552V92.6339H92.079V86.5033C92.079 84.7397 91.4071 83.8159 89.9795 83.8159C89.3076 83.8159 88.8038 84.0679 88.3839 84.6557C87.964 85.1596 87.796 85.9154 87.796 86.7552V92.6339H85.4445V82.2203H87.796V83.8159C88.5518 82.5562 89.6436 81.9684 91.1552 81.9684C91.827 81.9684 92.4989 82.1363 93.0028 82.5562C93.5066 82.8921 93.9265 83.396 94.1785 84.0679C95.0183 82.7242 96.194 81.9684 97.7057 81.9684C99.9731 81.9684 101.149 83.396 101.149 86.2514V92.7178H98.7134ZM108.959 92.7178V91.2902C108.203 92.4659 107.195 92.9698 105.852 92.9698C104.844 92.9698 104.004 92.7178 103.416 92.13C102.828 91.5421 102.493 90.7863 102.493 89.8625C102.493 87.847 103.668 86.6713 105.936 86.4193L108.959 85.9994C108.959 84.5718 108.287 83.8159 106.943 83.8159C105.684 83.8159 104.508 84.2358 103.5 84.9917V82.8921C103.92 82.6402 104.424 82.4722 105.18 82.2203C105.936 82.0523 106.608 81.9684 107.195 81.9684C109.883 81.9684 111.226 83.312 111.226 86.0834V92.7178H108.959ZM106.692 87.931C106.02 88.0149 105.516 88.1829 105.18 88.4348C104.928 88.6868 104.76 89.1067 104.76 89.6106C104.76 90.0305 104.928 90.3664 105.264 90.7023C105.6 90.9543 106.02 91.1222 106.524 91.1222C107.195 91.1222 107.783 90.8703 108.287 90.3664C108.707 89.8625 108.959 89.2746 108.959 88.5188V87.595L106.692 87.931ZM119.205 84.4878C118.785 84.2358 118.365 84.1518 117.861 84.1518C117.189 84.1518 116.601 84.4878 116.181 85.0756C115.761 85.6635 115.509 86.4193 115.509 87.3431V92.7178H113.158V82.2203H115.509V84.2358C116.013 82.7242 116.937 81.9684 118.197 81.9684C118.617 81.9684 118.953 82.0523 119.121 82.1363L119.205 84.4878ZM121.556 79.8689C121.136 79.8689 120.8 79.7009 120.548 79.449C120.296 79.197 120.128 78.8611 120.128 78.4412C120.128 78.0213 120.296 77.6854 120.548 77.4334C120.8 77.1815 121.136 77.0135 121.556 77.0135C121.976 77.0135 122.312 77.1815 122.564 77.4334C122.816 77.6854 122.984 78.0213 122.984 78.4412C122.984 78.8611 122.816 79.113 122.564 79.449C122.312 79.7009 121.976 79.8689 121.556 79.8689ZM120.38 92.7178V82.2203H122.732V92.7178H120.38ZM131.718 92.7178V86.8392C131.718 84.9077 131.046 83.8999 129.618 83.8999C128.946 83.8999 128.358 84.1518 127.855 84.7397C127.351 85.2436 127.183 85.9154 127.183 86.7552V92.7178H124.831V82.2203H127.183V83.8999C127.939 82.6402 129.114 81.9684 130.626 81.9684C132.977 81.9684 134.153 83.396 134.153 86.2514V92.7178H131.718ZM37.5758 74.1582C36.82 74.1582 36.1481 74.5781 35.8122 75.166L30.1855 84.9917C29.8496 85.5795 29.8496 86.4193 30.1855 87.0912L35.8122 96.8329C36.1481 97.4207 36.904 97.8406 37.5758 97.8406H48.8292C49.585 97.8406 50.2568 97.4207 50.5927 96.8329L56.2194 87.0072C56.5553 86.4193 56.5553 85.5795 56.2194 84.9077L50.5927 75.082C50.2568 74.4941 49.501 74.0742 48.8292 74.0742H37.5758V74.1582ZM37.7438 79.8689H39.7593C39.8433 79.8689 39.9272 79.9528 40.0112 80.0368L43.2865 85.9154L46.5617 80.0368C46.6457 79.9528 46.7296 79.8689 46.8136 79.8689H48.7452C48.9131 79.8689 49.0811 80.1208 48.9971 80.2048L45.7219 85.9994L48.9131 91.7941C48.9971 91.962 48.8292 92.214 48.6612 92.214H46.7296C46.6457 92.214 46.5617 92.13 46.4777 92.046L43.2025 86.1674L39.9272 92.046C39.9272 92.13 39.8433 92.214 39.6753 92.214H37.7438C37.5758 92.214 37.4078 91.962 37.4918 91.7941L40.6831 85.9994L37.4918 80.2048C37.4918 80.1208 37.5758 79.8689 37.7438 79.8689Z" fill="#3498DB"/>
<defs>
<filter id="filter0_d_6035_2814" x="0" y="0" width="178" height="178" filterUnits="userSpaceOnUse" color-interpolation-filters="sRGB">
<feFlood flood-opacity="0" result="BackgroundImageFix"/>
<feColorMatrix in="SourceAlpha" type="matrix" values="0 0 0 0 0 0 0 0 0 0 0 0 0 0 0 0 0 0 127 0" result="hardAlpha"/>
<feOffset dx="7" dy="3"/>
<feGaussianBlur stdDeviation="7.5"/>
<feComposite in2="hardAlpha" operator="out"/>
<feColorMatrix type="matrix" values="0 0 0 0 0.188235 0 0 0 0 0.188235 0 0 0 0 0.188235 0 0 0 0.25 0"/>
<feBlend mode="normal" in2="BackgroundImageFix" result="effect1_dropShadow_6035_2814"/>
<feBlend mode="normal" in="SourceGraphic" in2="effect1_dropShadow_6035_2814" result="shape"/>
</filter>
</defs>
</svg>
