<svg width="148" height="148" viewBox="0 0 148 148" fill="none" xmlns="http://www.w3.org/2000/svg">
<circle cx="74" cy="74" r="74" fill="white"/>
<path d="M63.6718 80.7178L60.9844 75.5111L58.2131 80.7178H55.2738L59.4728 74.0834L55.6937 67.449H58.7169L61.1524 72.4878L63.8397 67.449H66.6111L62.664 73.9994L66.6111 80.7178H63.6718ZM73.2455 80.7178V79.2902C72.4897 80.4659 71.4819 80.9698 70.1383 80.9698C69.1305 80.9698 68.2907 80.7178 67.7028 80.13C67.115 79.5421 66.7791 78.7863 66.7791 77.8625C66.7791 75.847 67.9548 74.6713 70.2222 74.4193L73.2455 73.9994C73.2455 72.5718 72.5737 71.8159 71.23 71.8159C69.9703 71.8159 68.7946 72.2358 67.7868 72.9917V70.8921C68.2067 70.6402 68.7106 70.4722 69.4664 70.2203C70.2222 70.0523 70.8941 69.9684 71.4819 69.9684C74.1693 69.9684 75.513 71.312 75.513 74.0834V80.7178H73.2455ZM71.062 75.931C70.3902 76.0149 69.8863 76.1829 69.5504 76.4348C69.2985 76.6868 69.1305 77.1067 69.1305 77.6106C69.1305 78.0305 69.2985 78.3664 69.6344 78.7023C69.9703 78.9542 70.3902 79.1222 70.8941 79.1222C71.5659 79.1222 72.1538 78.8703 72.6577 78.3664C73.0776 77.8625 73.3295 77.2746 73.3295 76.5188V75.595L71.062 75.931ZM90.7134 80.7178V74.7552C90.7134 73.7475 90.5455 73.0756 90.2935 72.5718C89.9576 72.0679 89.4537 71.8159 88.6979 71.8159C88.11 71.8159 87.5222 72.0679 87.1023 72.6557C86.6824 73.2436 86.4304 73.9154 86.4304 74.7552V80.6339H84.079V74.5033C84.079 72.7397 83.4071 71.8159 81.9795 71.8159C81.3076 71.8159 80.8038 72.0679 80.3839 72.6557C79.9639 73.1596 79.796 73.9154 79.796 74.7552V80.6339H77.4445V70.2203H79.796V71.8159C80.5518 70.5562 81.6436 69.9684 83.1552 69.9684C83.827 69.9684 84.4989 70.1363 85.0028 70.5562C85.5066 70.8921 85.9265 71.396 86.1785 72.0679C87.0183 70.7242 88.194 69.9684 89.7057 69.9684C91.9731 69.9684 93.1489 71.396 93.1489 74.2514V80.7178H90.7134ZM100.959 80.7178V79.2902C100.203 80.4659 99.1954 80.9698 97.8517 80.9698C96.844 80.9698 96.0042 80.7178 95.4163 80.13C94.8285 79.5421 94.4925 78.7863 94.4925 77.8625C94.4925 75.847 95.6683 74.6713 97.9357 74.4193L100.959 73.9994C100.959 72.5718 100.287 71.8159 98.9435 71.8159C97.6838 71.8159 96.5081 72.2358 95.5003 72.9917V70.8921C95.9202 70.6402 96.4241 70.4722 97.1799 70.2203C97.9357 70.0523 98.6076 69.9684 99.1954 69.9684C101.883 69.9684 103.226 71.312 103.226 74.0834V80.7178H100.959ZM98.6915 75.931C98.0197 76.0149 97.5158 76.1829 97.1799 76.4348C96.928 76.6868 96.76 77.1067 96.76 77.6106C96.76 78.0305 96.928 78.3664 97.2639 78.7023C97.5998 78.9542 98.0197 79.1222 98.5236 79.1222C99.1954 79.1222 99.7833 78.8703 100.287 78.3664C100.707 77.8625 100.959 77.2746 100.959 76.5188V75.595L98.6915 75.931ZM111.205 72.4878C110.785 72.2358 110.365 72.1518 109.861 72.1518C109.189 72.1518 108.601 72.4878 108.181 73.0756C107.761 73.6635 107.509 74.4193 107.509 75.3431V80.7178H105.158V70.2203H107.509V72.2358C108.013 70.7242 108.937 69.9684 110.197 69.9684C110.617 69.9684 110.953 70.0523 111.121 70.1363L111.205 72.4878ZM113.556 67.8689C113.136 67.8689 112.8 67.7009 112.548 67.449C112.296 67.197 112.128 66.8611 112.128 66.4412C112.128 66.0213 112.296 65.6854 112.548 65.4334C112.8 65.1815 113.136 65.0135 113.556 65.0135C113.976 65.0135 114.312 65.1815 114.564 65.4334C114.816 65.6854 114.984 66.0213 114.984 66.4412C114.984 66.8611 114.816 67.113 114.564 67.449C114.312 67.7009 113.976 67.8689 113.556 67.8689ZM112.38 80.7178V70.2203H114.732V80.7178H112.38ZM123.718 80.7178V74.8392C123.718 72.9077 123.046 71.8999 121.618 71.8999C120.946 71.8999 120.358 72.1519 119.855 72.7397C119.351 73.2436 119.183 73.9154 119.183 74.7552V80.7178H116.831V70.2203H119.183V71.8999C119.939 70.6402 121.114 69.9684 122.626 69.9684C124.977 69.9684 126.153 71.396 126.153 74.2514V80.7178H123.718ZM29.5758 62.1582C28.82 62.1582 28.1481 62.5781 27.8122 63.166L22.1855 72.9917C21.8496 73.5795 21.8496 74.4193 22.1855 75.0912L27.8122 84.8329C28.1481 85.4207 28.904 85.8406 29.5758 85.8406H40.8292C41.585 85.8406 42.2568 85.4207 42.5927 84.8329L48.2194 75.0072C48.5553 74.4193 48.5553 73.5795 48.2194 72.9077L42.5927 63.082C42.2568 62.4941 41.501 62.0742 40.8292 62.0742H29.5758V62.1582ZM29.7438 67.8689H31.7593C31.8433 67.8689 31.9272 67.9528 32.0112 68.0368L35.2865 73.9154L38.5617 68.0368C38.6457 67.9528 38.7296 67.8689 38.8136 67.8689H40.7452C40.9131 67.8689 41.0811 68.1208 40.9971 68.2048L37.7219 73.9994L40.9131 79.7941C40.9971 79.962 40.8292 80.214 40.6612 80.214H38.7296C38.6457 80.214 38.5617 80.13 38.4777 80.046L35.2025 74.1674L31.9272 80.046C31.9272 80.13 31.8433 80.214 31.6753 80.214H29.7438C29.5758 80.214 29.4078 79.962 29.4918 79.7941L32.6831 73.9994L29.4918 68.2048C29.4918 68.1208 29.5758 67.8689 29.7438 67.8689Z" fill="#3498DB"/>
</svg>
