<svg width="150" height="150" viewBox="0 0 150 150" fill="none" xmlns="http://www.w3.org/2000/svg">
<circle cx="75" cy="75" r="74.5" stroke="#FABA0B"/>
<path d="M64.6718 81.7178L61.9844 76.5111L59.2131 81.7178H56.2738L60.4728 75.0834L56.6937 68.449H59.7169L62.1524 73.4878L64.8397 68.449H67.6111L63.664 74.9994L67.6111 81.7178H64.6718ZM74.2455 81.7178V80.2902C73.4897 81.4659 72.4819 81.9698 71.1383 81.9698C70.1305 81.9698 69.2907 81.7178 68.7028 81.13C68.115 80.5421 67.7791 79.7863 67.7791 78.8625C67.7791 76.847 68.9548 75.6713 71.2222 75.4193L74.2455 74.9994C74.2455 73.5718 73.5737 72.8159 72.23 72.8159C70.9703 72.8159 69.7946 73.2358 68.7868 73.9917V71.8921C69.2067 71.6402 69.7106 71.4722 70.4664 71.2203C71.2222 71.0523 71.8941 70.9684 72.4819 70.9684C75.1693 70.9684 76.513 72.312 76.513 75.0834V81.7178H74.2455ZM72.062 76.931C71.3902 77.0149 70.8863 77.1829 70.5504 77.4348C70.2985 77.6868 70.1305 78.1067 70.1305 78.6106C70.1305 79.0305 70.2985 79.3664 70.6344 79.7023C70.9703 79.9543 71.3902 80.1222 71.8941 80.1222C72.5659 80.1222 73.1538 79.8703 73.6577 79.3664C74.0776 78.8625 74.3295 78.2746 74.3295 77.5188V76.595L72.062 76.931ZM91.7134 81.7178V75.7552C91.7134 74.7475 91.5455 74.0756 91.2935 73.5718C90.9576 73.0679 90.4537 72.8159 89.6979 72.8159C89.11 72.8159 88.5222 73.0679 88.1023 73.6557C87.6824 74.2436 87.4304 74.9154 87.4304 75.7552V81.6339H85.079V75.5033C85.079 73.7397 84.4071 72.8159 82.9795 72.8159C82.3076 72.8159 81.8038 73.0679 81.3839 73.6557C80.964 74.1596 80.796 74.9154 80.796 75.7552V81.6339H78.4445V71.2203H80.796V72.8159C81.5518 71.5562 82.6436 70.9684 84.1552 70.9684C84.827 70.9684 85.4989 71.1363 86.0028 71.5562C86.5066 71.8921 86.9265 72.396 87.1785 73.0679C88.0183 71.7242 89.194 70.9684 90.7057 70.9684C92.9731 70.9684 94.1489 72.396 94.1489 75.2514V81.7178H91.7134ZM101.959 81.7178V80.2902C101.203 81.4659 100.195 81.9698 98.8517 81.9698C97.844 81.9698 97.0042 81.7178 96.4163 81.13C95.8285 80.5421 95.4925 79.7863 95.4925 78.8625C95.4925 76.847 96.6683 75.6713 98.9357 75.4193L101.959 74.9994C101.959 73.5718 101.287 72.8159 99.9435 72.8159C98.6838 72.8159 97.5081 73.2358 96.5003 73.9917V71.8921C96.9202 71.6402 97.4241 71.4722 98.1799 71.2203C98.9357 71.0523 99.6076 70.9684 100.195 70.9684C102.883 70.9684 104.226 72.312 104.226 75.0834V81.7178H101.959ZM99.6916 76.931C99.0197 77.0149 98.5158 77.1829 98.1799 77.4348C97.928 77.6868 97.76 78.1067 97.76 78.6106C97.76 79.0305 97.928 79.3664 98.2639 79.7023C98.5998 79.9543 99.0197 80.1222 99.5236 80.1222C100.195 80.1222 100.783 79.8703 101.287 79.3664C101.707 78.8625 101.959 78.2746 101.959 77.5188V76.595L99.6916 76.931ZM112.205 73.4878C111.785 73.2358 111.365 73.1518 110.861 73.1518C110.189 73.1518 109.601 73.4878 109.181 74.0756C108.761 74.6635 108.509 75.4193 108.509 76.3431V81.7178H106.158V71.2203H108.509V73.2358C109.013 71.7242 109.937 70.9684 111.197 70.9684C111.617 70.9684 111.953 71.0523 112.121 71.1363L112.205 73.4878ZM114.556 68.8689C114.136 68.8689 113.8 68.7009 113.548 68.449C113.296 68.197 113.128 67.8611 113.128 67.4412C113.128 67.0213 113.296 66.6854 113.548 66.4334C113.8 66.1815 114.136 66.0135 114.556 66.0135C114.976 66.0135 115.312 66.1815 115.564 66.4334C115.816 66.6854 115.984 67.0213 115.984 67.4412C115.984 67.8611 115.816 68.113 115.564 68.449C115.312 68.7009 114.976 68.8689 114.556 68.8689ZM113.38 81.7178V71.2203H115.732V81.7178H113.38ZM124.718 81.7178V75.8392C124.718 73.9077 124.046 72.8999 122.618 72.8999C121.946 72.8999 121.358 73.1518 120.855 73.7397C120.351 74.2436 120.183 74.9154 120.183 75.7552V81.7178H117.831V71.2203H120.183V72.8999C120.939 71.6402 122.114 70.9684 123.626 70.9684C125.977 70.9684 127.153 72.396 127.153 75.2514V81.7178H124.718ZM30.5758 63.1582C29.82 63.1582 29.1481 63.5781 28.8122 64.166L23.1855 73.9917C22.8496 74.5795 22.8496 75.4193 23.1855 76.0912L28.8122 85.8329C29.1481 86.4207 29.904 86.8406 30.5758 86.8406H41.8292C42.585 86.8406 43.2568 86.4207 43.5927 85.8329L49.2194 76.0072C49.5553 75.4193 49.5553 74.5795 49.2194 73.9077L43.5927 64.082C43.2568 63.4941 42.501 63.0742 41.8292 63.0742H30.5758V63.1582ZM30.7438 68.8689H32.7593C32.8433 68.8689 32.9272 68.9528 33.0112 69.0368L36.2865 74.9154L39.5617 69.0368C39.6457 68.9528 39.7296 68.8689 39.8136 68.8689H41.7452C41.9131 68.8689 42.0811 69.1208 41.9971 69.2048L38.7219 74.9994L41.9131 80.7941C41.9971 80.962 41.8292 81.214 41.6612 81.214H39.7296C39.6457 81.214 39.5617 81.13 39.4777 81.046L36.2025 75.1674L32.9272 81.046C32.9272 81.13 32.8433 81.214 32.6753 81.214H30.7438C30.5758 81.214 30.4078 80.962 30.4918 80.7941L33.6831 74.9994L30.4918 69.2048C30.4918 69.1208 30.5758 68.8689 30.7438 68.8689Z" fill="#202020"/>
</svg>
