<svg width="472" height="333" viewBox="0 0 472 333" fill="none" xmlns="http://www.w3.org/2000/svg">
<path d="M331.942 75.2459C325.055 102.322 341.501 129.947 368.605 136.828C395.709 143.708 423.363 127.278 430.251 100.203C437.139 73.1267 420.691 45.5012 393.588 38.6207C366.484 31.7403 338.83 48.1703 331.942 75.2459ZM344.468 76.7139C350.556 56.5057 371.889 45.0535 392.118 51.1343C412.347 57.2153 423.811 78.5267 417.724 98.7347C411.637 118.943 390.304 130.395 370.074 124.314C349.845 118.233 338.381 96.9221 344.468 76.7139Z" fill="#F7CC7F"/>
<path d="M296.799 75.3245C297.038 76.5343 298.134 76.9568 300.839 78.0289C305.679 79.9465 310.521 81.8649 315.288 83.9496C316.039 84.2777 316.789 85.4458 316.882 86.297C317.433 91.3582 317.678 96.4537 318.281 101.507C318.468 103.074 318.315 103.906 316.906 104.791C311.274 108.326 305.742 112.018 300.233 115.613C301.611 121.513 308.548 134.775 312.256 138.483C318.097 136.028 324.104 133.61 330.006 130.96C331.843 130.135 332.781 130.294 334.312 131.756C337.864 135.147 341.737 138.225 345.649 141.208C347.233 142.416 348.077 143.362 347.563 145.538C346.233 151.179 345.245 156.899 344.009 162.563C343.677 164.086 343.967 165.037 345.472 165.503C352.551 167.692 359.632 169.871 366.711 172.058C368.452 172.596 368.72 171.166 369.155 170.142C371.354 164.961 373.582 159.789 375.606 154.539C376.365 152.567 377.384 151.919 379.528 151.852C385.201 151.674 390.863 151.127 396.965 150.696C400.574 156.17 404.559 162.214 408.655 168.426C416.877 165.706 424.283 161.633 431.296 156.247C428.519 149.58 425.74 142.912 423.292 137.034C427.492 131.719 431.492 126.882 435.197 121.829C436.269 120.367 437.11 120.126 438.719 120.479C444.305 121.705 449.928 122.757 455.523 123.944C456.732 124.2 457.62 124.247 458.239 122.927C461.369 116.257 463.895 109.414 464.915 102.059C465.142 100.42 464.553 99.7725 463.201 99.2147C457.758 96.9692 452.359 94.6196 446.908 92.3967C445.587 91.8582 445.035 91.2986 444.915 89.6894C444.499 84.1076 443.841 78.5369 443.043 72.9954C442.839 71.5797 443.289 71.0292 444.286 70.3732C449.843 66.717 455.373 63.0199 461.054 59.2425C458.171 51.1579 454.495 43.6536 449.229 36.7535C442.421 39.5836 435.658 42.3955 429.186 45.0864C423.732 40.5677 418.452 36.1923 412.802 31.5108C413.803 26.5208 414.998 20.7802 416.096 15.0213C416.997 10.2948 417.675 10.9163 412.922 8.92338C412.469 8.73327 412.084 8.37877 411.668 8.10049C407.416 6.82243 403.164 5.54455 398.913 4.26649C397.919 4.15403 396.877 4.19509 395.941 3.89896C393.507 3.12855 392.137 3.68119 391.167 6.28532C389.146 11.7114 386.784 17.0139 384.435 22.3107C384.127 23.0045 383.117 23.728 382.354 23.8244C377.379 24.4532 372.336 24.6528 367.414 25.5387C365.005 25.9723 363.992 25.3147 362.803 23.4388C359.433 18.1186 355.843 12.9371 351.987 7.17497C344.361 11.175 336.922 15.077 329.399 19.0231C329.99 20.5207 330.316 21.388 330.673 22.243C332.87 27.5154 335.02 32.8086 337.312 38.0399C337.962 39.5254 337.631 40.3604 336.613 41.5691C333.115 45.7219 329.884 50.0989 326.414 54.2759C325.875 54.9237 324.545 55.3789 323.702 55.2323C319.081 54.4305 314.506 53.3736 309.901 52.4797C306.175 51.7564 304.789 51.501 303.609 52.7162L296.799 75.3245ZM330.201 74.804C333.656 61.2231 342.198 49.7992 354.253 42.6365C366.309 35.4738 380.435 33.4296 394.03 36.8809C407.625 40.332 419.061 48.8654 426.231 60.9088C433.401 72.9522 435.447 87.0641 431.992 100.645C428.538 114.226 419.996 125.649 407.94 132.812C395.884 139.975 381.758 142.019 368.163 138.568C354.568 135.117 343.132 126.583 335.962 114.54C328.792 102.497 326.746 88.3848 330.201 74.804Z" fill="#F7CC7F"/>
<path d="M10.2621 145.435C11.0438 146.044 11.9317 145.725 14.1388 144.955C18.0867 143.578 22.0363 142.2 26.0285 140.962C26.6569 140.767 27.7272 141.083 28.2315 141.551C31.2296 144.335 34.06 147.3 37.0853 150.052C38.023 150.905 38.3684 151.491 37.9783 152.768C36.419 157.872 35.0025 163.02 33.5493 168.095C37.4907 170.955 48.6819 175.365 52.8851 175.669C55.1403 171.111 57.5148 166.488 59.7042 161.779C60.3857 160.314 61.039 159.917 62.7379 160.001C66.6794 160.195 70.6506 160.031 74.5958 159.787C76.1934 159.689 77.204 159.82 78.0374 161.412C80.1975 165.535 82.608 169.528 84.8385 173.616C85.4378 174.715 86.1151 175.141 87.2735 174.633C92.7237 172.245 98.1707 169.849 103.62 167.459C104.96 166.872 104.371 165.863 104.096 165.013C102.704 160.712 101.336 156.401 99.8017 152.15C99.2257 150.554 99.5026 149.625 100.769 148.459C104.121 145.371 107.271 142.066 110.749 138.6C115.821 140.029 121.422 141.606 127.178 143.227C130.74 137.257 133.094 130.895 134.518 123.941C129.323 121.352 124.126 118.761 119.547 116.478C119.3 111.045 119.183 106.007 118.774 100.994C118.656 99.5424 119.04 98.955 120.203 98.3241C124.24 96.135 128.208 93.8204 132.23 91.6034C133.099 91.1242 133.662 90.6866 133.344 89.5598C131.735 83.8658 129.667 78.3839 126.416 73.3825C125.691 72.2676 124.993 72.1839 123.878 72.5553C119.392 74.0497 114.877 75.4585 110.397 76.9712C109.312 77.3377 108.682 77.2883 107.762 76.374C104.572 73.2029 101.242 70.1656 97.8405 67.2201C96.9716 66.4678 96.9553 65.8969 97.2156 64.9748C98.6658 59.8365 100.078 54.6875 101.54 49.4101C95.5353 46.0147 89.3539 43.3886 82.5247 41.9644C79.8806 47.2578 77.2532 52.5171 74.7393 57.5499C69.0498 57.6699 63.5411 57.7861 57.6465 57.9105C55.6284 54.3548 53.3332 50.2414 50.9694 46.1678C49.0293 42.8245 49.7681 42.8458 45.8331 44.1319C45.4577 44.2547 45.0376 44.2413 44.6383 44.2911C41.3843 45.7478 38.1301 47.2044 34.876 48.661C34.2133 49.1145 33.602 49.687 32.878 49.9985C30.9945 50.8088 30.4532 51.8641 31.2348 53.9547C32.8631 58.3108 34.2192 62.7712 35.58 67.2212C35.7582 67.8042 35.5254 68.7742 35.113 69.2333C32.4229 72.2276 29.4656 74.9974 26.9428 78.1204C25.7084 79.6486 24.7469 79.7814 23.0384 79.2664C18.1917 77.8059 13.2854 76.5448 7.912 75.0706C5.38612 81.5043 2.92224 87.7805 0.430664 94.1272C1.57764 94.7263 2.23198 95.0817 2.8983 95.4137C7.00732 97.4611 11.0983 99.5463 15.2427 101.52C16.4195 102.08 16.6575 102.761 16.6754 104.03C16.7367 108.388 17.0783 112.743 17.1691 117.102C17.1832 117.778 16.615 118.753 16.0255 119.107C12.798 121.046 9.46388 122.807 6.19699 124.683C3.55389 126.2 2.57774 126.773 2.50072 128.13L10.2621 145.435ZM30.2706 127.577C25.2217 117.517 24.3969 106.094 27.9483 95.4132C31.4996 84.7326 39.0019 76.0729 49.0732 71.0292C59.1444 65.9855 70.5791 65.1615 81.2707 68.7092C91.9625 72.2569 100.631 79.7516 105.68 89.8124C110.729 99.8732 111.554 111.296 108.002 121.977C104.451 132.657 96.9485 141.317 86.8771 146.361C76.8059 151.404 65.3712 152.228 54.6798 148.681C43.9882 145.133 35.3195 137.638 30.2706 127.577Z" fill="#50BFA5"/>
<path d="M59.0998 30.048L60.704 27.106L59.1945 24.1142C59.0226 23.7734 59.3152 23.383 59.6898 23.4535L62.9783 24.0729L65.3519 21.7101C65.6223 21.441 66.0833 21.5993 66.1321 21.9781L66.5602 25.3028L69.5367 26.8343C69.8759 27.0087 69.868 27.4969 69.5235 27.6604L66.4996 29.0958L65.9655 32.4051C65.9048 32.7821 65.4389 32.9255 65.1772 32.6479L62.8802 30.2103L59.5734 30.724C59.1971 30.7828 58.9171 30.3831 59.0998 30.048Z" fill="#F7CC7F"/>
<path d="M234.157 43.9903L235.527 41.7678L234.427 41.3223C234.186 41.2248 234.071 40.9506 234.168 40.7104C234.266 40.4699 234.54 40.3539 234.781 40.4515L236.049 40.9654L237.274 38.9694L236.099 38.4936C235.859 38.3961 235.743 38.1221 235.84 37.8817C235.938 37.6412 236.212 37.5254 236.453 37.6228L237.796 38.1671L239.219 35.8814C239.339 35.6874 239.583 35.6081 239.795 35.694L240 35.7772C240.269 35.8862 240.376 36.2106 240.224 36.458L238.902 38.6146L240.849 39.4036L242.271 37.118C242.392 36.9238 242.635 36.8448 242.848 36.9306L243.071 37.0213C243.341 37.1304 243.447 37.4547 243.296 37.7021L241.973 39.8587L243.073 40.3045C243.314 40.4019 243.43 40.6759 243.332 40.9164C243.234 41.1568 242.96 41.2728 242.719 41.1752L241.451 40.6613L240.245 42.6648L241.42 43.1408C241.661 43.2383 241.777 43.5123 241.679 43.7527C241.581 43.9932 241.307 44.1092 241.066 44.0115L239.723 43.4673L238.27 45.8244C238.15 46.0198 237.906 46.0998 237.693 46.0136L237.453 45.9165C237.183 45.8072 237.077 45.4822 237.229 45.2348L238.599 43.0123L236.651 42.2233L235.198 44.5804C235.078 44.7757 234.834 44.8557 234.621 44.7695L234.382 44.6722C234.112 44.5627 234.005 44.2377 234.157 43.9903ZM239.121 42.2096L240.345 40.2138L238.398 39.4246L237.173 41.4204L239.121 42.2096Z" fill="#07345A"/>
<path d="M225.368 82.6818L223.513 92.5281C223.668 93.0279 224.15 93.1569 225.34 93.4877C227.469 94.079 229.598 94.6708 231.704 95.336C232.035 95.4406 232.405 95.8999 232.482 96.2549C232.943 98.3657 233.276 100.505 233.758 102.61C233.907 103.263 233.881 103.621 233.326 104.058C231.109 105.803 228.941 107.61 226.778 109.374C227.626 111.802 231.151 117.086 232.883 118.484C235.237 117.185 237.662 115.895 240.033 114.511C240.771 114.08 241.174 114.105 241.886 114.653C243.538 115.924 245.311 117.049 247.096 118.132C247.819 118.57 248.217 118.931 248.099 119.873C247.792 122.313 247.633 124.771 247.366 127.216C247.295 127.874 247.46 128.262 248.116 128.391C251.202 128.996 254.288 129.597 257.374 130.202C258.133 130.35 258.181 129.735 258.318 129.283C259.013 126.998 259.72 124.716 260.337 122.409C260.569 121.543 260.969 121.224 261.871 121.099C264.257 120.769 266.621 120.283 269.177 119.827C270.946 121.974 272.9 124.345 274.909 126.783C278.256 125.265 281.197 123.213 283.914 120.625C282.441 117.937 280.968 115.248 279.67 112.878C281.203 110.446 282.673 108.225 284.008 105.927C284.395 105.261 284.739 105.122 285.434 105.199C287.846 105.464 290.266 105.655 292.681 105.904C293.202 105.958 293.579 105.938 293.781 105.353C294.801 102.398 295.558 99.3967 295.657 96.2475C295.679 95.5454 295.401 95.2989 294.805 95.1243C292.408 94.4216 290.024 93.6731 287.623 92.9802C287.042 92.8124 286.783 92.6011 286.66 91.9274C286.233 89.5908 285.704 87.2698 285.118 84.9675C284.968 84.3793 285.133 84.1268 285.524 83.8051C287.704 82.0124 289.871 80.2035 292.098 78.3541C290.517 75.0724 288.627 72.0712 286.094 69.3964C283.349 70.8969 280.622 72.3875 278.013 73.8143C275.508 72.1528 273.082 70.5442 270.487 68.8229C270.685 66.6723 270.93 64.1962 271.134 61.7168C271.301 59.6817 271.615 59.9136 269.52 59.2865C269.32 59.2267 269.142 59.0945 268.953 58.9958C267.102 58.6477 265.25 58.2996 263.399 57.9517C262.974 57.9489 262.536 58.0131 262.128 57.9303C261.066 57.7147 260.513 58.0095 260.221 59.1519C259.613 61.5324 258.855 63.8761 258.103 66.217C258.004 66.5236 257.61 66.8744 257.293 66.9494C255.222 67.4385 253.103 67.7496 251.066 68.3449C250.069 68.6362 249.612 68.4041 249.026 67.6662C247.364 65.5729 245.615 63.5479 243.729 61.2898C240.691 63.3208 237.728 65.302 234.731 67.3055C235.048 67.9108 235.225 68.2621 235.414 68.6069C236.579 70.7329 237.725 72.8697 238.927 74.974C239.269 75.5716 239.166 75.9388 238.791 76.4946C237.502 78.4042 236.337 80.3965 235.06 82.3152C234.863 82.6127 234.322 82.8646 233.959 82.8407C231.974 82.71 229.995 82.4701 228.012 82.3C226.408 82.1613 225.811 82.116 225.368 82.6818ZM243.691 90.9699C245.348 82.169 253.834 76.377 262.644 78.033C271.454 79.6889 277.252 88.1659 275.595 96.9666C273.937 105.768 265.451 111.56 256.641 109.904C247.831 108.248 242.033 99.7709 243.691 90.9699Z" fill="#F47458"/>
<path d="M160.925 28.7073L166.761 29.4108L164.27 24.8848L160.925 28.7073Z" fill="#355389"/>
<path d="M182.36 78.9534C182.177 80.923 183.872 82.7237 185.753 83.0523C187.7 83.3927 189.436 82.1248 190.106 80.3323C191.428 76.7963 187.555 74.0072 185.454 76.1469C183.494 78.1441 184.114 81.1117 186.23 81.1128C187.029 81.1131 188.314 80.4443 187.804 79.4771C187.69 79.2605 187.368 79.2762 187.25 79.4771C186.993 79.9141 187.014 79.9298 186.892 80.0275C186.702 80.1804 186.437 80.2315 186.199 80.2276C184.044 80.1908 185.477 75.2644 188.017 76.4576C189.412 77.1127 189.824 78.6978 189.34 80.081C188.874 81.413 187.623 82.4449 186.177 82.3522C184.449 82.2416 183 80.6545 182.888 78.9536C182.865 78.6105 182.391 78.6159 182.36 78.9534Z" fill="#F47458"/>
<path d="M288.96 5.98977L290.705 6.73822C290.705 6.73822 293.618 6.08866 293.944 5.54209C294.269 4.99534 294.459 3.61393 294.866 3.61304C295.273 3.61232 296.044 3.81367 296.154 4.78132C296.234 5.48354 295.052 7.38385 295.195 7.6109C295.284 7.75281 296.275 8.21138 297.004 8.53464C297.484 8.74723 297.805 9.20866 297.839 9.73291L297.84 9.73452C297.863 10.0888 297.635 10.411 297.294 10.5071L296.763 10.6565L296.885 11.1977C296.976 11.6007 296.726 12.0016 296.324 12.0955L295.915 12.1912L296.016 12.5234C296.147 12.9513 295.879 13.3982 295.44 13.4821L295.084 13.5503L295.091 13.6437C295.12 14.0321 294.848 14.3784 294.464 14.4414L294.111 14.4994L289.464 12.5052C289.028 12.3183 288.636 12.0445 288.31 11.7L286.792 10.7279C286.628 10.6233 286.566 10.415 286.645 10.2379L288.449 6.19058C288.536 5.99476 288.763 5.90551 288.96 5.98977Z" fill="#50BFA5"/>
<path d="M239.915 89.0448H208.381C205.154 89.0448 202.537 91.6584 202.537 94.8825V105.204C202.537 108.428 205.154 111.042 208.381 111.042H239.915C243.142 111.042 245.759 108.428 245.759 105.204V94.8825C245.759 91.6584 243.143 89.0448 239.915 89.0448Z" fill="#5184CE"/>
<path d="M198.14 305.875L164.741 321.254V324.66H283.687V321.254L249.986 305.875H198.14Z" fill="#466EB6"/>
<path d="M250.007 239.959H198.14V305.903H250.007V239.959Z" fill="#466EB6"/>
<path d="M381.021 260.646V111.944C381.021 104.878 375.288 99.1505 368.215 99.1505H79.5959C72.5232 99.1505 66.7896 104.878 66.7896 111.944V260.646H381.021Z" fill="#466EB6"/>
<path opacity="0.3" d="M283.687 321.254H164.741V324.66H283.687V321.254Z" fill="#184655"/>
<path opacity="0.3" d="M249.986 298.137H198.14V305.875H249.986V298.137Z" fill="#184655"/>
<path d="M66.7896 260.646V284.475C66.7896 289.432 70.0693 293.45 74.1149 293.45H373.696C377.742 293.45 381.021 289.432 381.021 284.475V260.646H66.7896Z" fill="#5184CE"/>
<path d="M227.318 94.8867C227.318 96.4962 226.012 97.801 224.401 97.801C222.789 97.801 221.483 96.4964 221.483 94.8867C221.483 93.2771 222.79 91.9723 224.401 91.9723C226.012 91.9725 227.318 93.2771 227.318 94.8867Z" fill="#184655"/>
<path d="M373.665 254.189V112.341C373.665 108.622 370.539 105.608 366.683 105.608H81.1273C77.2709 105.608 74.145 108.622 74.145 112.341V254.189H373.665Z" fill="#CCE6FF"/>
<path d="M267.325 117.059H87.2983V242.547H267.325V117.059Z" fill="#E9FFFF"/>
<path d="M267.325 117.059H87.2983V131.751H267.325V117.059Z" fill="#5184CE"/>
<path opacity="0.6" d="M343.68 148.454H331.392V243.471H343.68V148.454Z" fill="#9BC1F9"/>
<path opacity="0.6" d="M326.518 177.437H314.23V243.471H326.518V177.437Z" fill="#9BC1F9"/>
<path opacity="0.6" d="M361.088 169.041H348.8V243.471H361.088V169.041Z" fill="#9BC1F9"/>
<path opacity="0.6" d="M309.357 166.114H297.069V243.471H309.357V166.114Z" fill="#9BC1F9"/>
<path opacity="0.6" d="M292.196 189.05H279.908V243.471H292.196V189.05Z" fill="#9BC1F9"/>
<path opacity="0.3" d="M343.68 170.353H331.392V243.471H343.68V170.353Z" fill="#9BC1F9"/>
<path opacity="0.3" d="M326.519 192.656H314.23V243.471H326.519V192.656Z" fill="#9BC1F9"/>
<path opacity="0.3" d="M361.088 186.195H348.8V243.471H361.088V186.195Z" fill="#9BC1F9"/>
<path opacity="0.3" d="M309.358 183.942H297.069V243.471H309.358V183.942Z" fill="#9BC1F9"/>
<path opacity="0.3" d="M292.196 201.592H279.908V243.471H292.196V201.592Z" fill="#9BC1F9"/>
<path opacity="0.6" d="M259.674 137.802H93.5098V159.107H259.674V137.802Z" fill="#9BC1F9"/>
<path opacity="0.6" d="M259.674 165.158H152.725V170.618H259.674V165.158Z" fill="#9BC1F9"/>
<path d="M146.123 165.158H93.5098V228.176H146.123V165.158Z" fill="#5184CE"/>
<path opacity="0.6" d="M259.674 176.669H152.725V182.13H259.674V176.669Z" fill="#9BC1F9"/>
<path opacity="0.6" d="M259.674 211.203H152.725V216.664H259.674V211.203Z" fill="#9BC1F9"/>
<path opacity="0.6" d="M259.674 222.715H152.725V228.176H259.674V222.715Z" fill="#9BC1F9"/>
<path d="M18.4005 187.756L118.291 187.576C119.791 187.573 121.009 188.786 121.012 190.284L121.249 321.774C121.252 323.272 120.038 324.489 118.537 324.492L18.6473 324.672C17.147 324.675 15.9289 323.462 15.9261 321.963L15.689 190.474C15.6865 188.976 16.9003 187.759 18.4005 187.756Z" fill="#F7CC7F"/>
<path d="M115.532 191.402L21.1733 191.571L21.4049 320.091L115.763 319.922L115.532 191.402Z" fill="white"/>
<path d="M88.7986 185.814C88.7975 185.236 88.3276 184.768 87.749 184.769L48.1298 184.84C47.5512 184.841 47.0829 185.311 47.084 185.889L47.0915 190.002L88.8061 189.927L88.7986 185.814Z" fill="#13375B"/>
<path d="M67.9305 179.803C64.4796 179.809 61.6873 182.609 61.6934 186.056C61.6996 189.503 64.5021 192.293 67.953 192.287C71.404 192.28 74.1963 189.481 74.1902 186.034C74.1839 182.586 71.3815 179.797 67.9305 179.803ZM67.9489 190.048C65.7359 190.052 63.9385 188.263 63.9346 186.052C63.9305 183.841 65.7214 182.046 67.9345 182.042C70.1476 182.038 71.9449 183.827 71.9488 186.038C71.9529 188.249 70.1621 190.044 67.9489 190.048Z" fill="#13375B"/>
<path d="M88.1567 184.851C88.533 185.01 88.7975 185.381 88.7984 185.815L88.8059 189.928L47.0913 190.003C47.0963 192.853 49.4133 195.159 52.2662 195.154L83.6496 195.098C86.5025 195.093 88.8111 192.778 88.8059 189.928L88.7984 185.815C88.7977 185.381 88.533 185.01 88.1567 184.851Z" fill="#355389"/>
<path d="M104.711 229.314L91.2976 229.338L91.2734 215.939L104.687 215.915L104.711 229.314ZM91.8449 228.79L104.162 228.767L104.14 216.463L91.8227 216.485L91.8449 228.79Z" fill="#184655"/>
<path d="M104.752 251.61L91.3383 251.635L91.314 238.235L104.728 238.211L104.752 251.61ZM91.8854 251.086L104.202 251.064L104.18 238.759L91.8631 238.781L91.8854 251.086Z" fill="#184655"/>
<path d="M104.792 273.907L91.3781 273.931L91.354 260.531L104.768 260.507L104.792 273.907ZM91.9253 273.382L104.243 273.36L104.22 261.056L91.9031 261.078L91.9253 273.382Z" fill="#184655"/>
<path d="M104.832 296.203L91.4187 296.227L91.3945 282.827L104.808 282.803L104.832 296.203ZM91.9658 295.678L104.283 295.656L104.261 283.352L91.9436 283.374L91.9658 295.678Z" fill="#184655"/>
<path d="M85.6541 216.223L28.2476 216.326L28.251 218.255L85.6575 218.152L85.6541 216.223Z" fill="#9BC1F9"/>
<path d="M85.6643 221.685L28.2578 221.788L28.2613 223.717L85.6678 223.614L85.6643 221.685Z" fill="#9BC1F9"/>
<path d="M85.6741 227.147L28.2676 227.25L28.2711 229.178L85.6776 229.075L85.6741 227.147Z" fill="#9BC1F9"/>
<path d="M85.6965 239.281L28.29 239.384L28.2935 241.313L85.7 241.209L85.6965 239.281Z" fill="#9BC1F9"/>
<path d="M85.7063 244.742L28.2998 244.846L28.3033 246.774L85.7098 246.671L85.7063 244.742Z" fill="#9BC1F9"/>
<path d="M85.7161 250.204L28.3096 250.307L28.313 252.236L85.7195 252.133L85.7161 250.204Z" fill="#9BC1F9"/>
<path d="M85.7361 261.128L28.3296 261.231L28.3331 263.159L85.7396 263.056L85.7361 261.128Z" fill="#9BC1F9"/>
<path d="M85.7459 266.589L28.3394 266.693L28.3428 268.621L85.7493 268.518L85.7459 266.589Z" fill="#9BC1F9"/>
<path d="M85.7556 272.051L28.3491 272.154L28.3526 274.083L85.7591 273.98L85.7556 272.051Z" fill="#9BC1F9"/>
<path d="M85.7752 282.974L28.3687 283.078L28.3721 285.006L85.7786 284.903L85.7752 282.974Z" fill="#9BC1F9"/>
<path d="M85.7854 288.436L28.3789 288.539L28.3824 290.468L85.7889 290.364L85.7854 288.436Z" fill="#9BC1F9"/>
<path d="M85.7952 293.898L28.3887 294.001L28.3921 295.93L85.7987 295.826L85.7952 293.898Z" fill="#9BC1F9"/>
<path d="M94.6402 308.003L28.4131 308.122L28.4166 310.051L94.6437 309.931L94.6402 308.003Z" fill="#9BC1F9"/>
<path d="M107.709 312.653L28.4214 312.795L28.4249 314.724L107.712 314.581L107.709 312.653Z" fill="#9BC1F9"/>
<path d="M97.9381 227.124L93.7725 219.984L95.263 219.117L97.681 223.26L101.628 213.801L103.221 214.464L97.9381 227.124Z" fill="#F47458"/>
<path d="M97.9791 249.712L93.8135 242.573L95.3041 241.705L97.722 245.849L101.669 236.39L103.262 237.053L97.9791 249.712Z" fill="#F47458"/>
<path d="M98.0587 293.875L93.8931 286.736L95.3836 285.868L97.8016 290.012L101.749 280.552L103.341 281.215L98.0587 293.875Z" fill="#F47458"/>
<path d="M102.699 263.839L101.498 262.628L98.0706 266.021L94.6309 262.64L93.4341 263.855L96.8584 267.221L93.4461 270.599L94.6474 271.81L98.0749 268.417L101.515 271.797L102.711 270.582L99.2871 267.217L102.699 263.839Z" fill="#F47458"/>
<path opacity="0.3" d="M30.8916 276.977C27.5529 276.983 24.3171 277.647 21.3306 278.904L21.3363 282.046C24.2245 280.63 27.4689 279.831 30.8968 279.825C42.9555 279.804 52.7837 289.586 52.8055 301.633C52.8194 309.351 48.8042 316.154 42.7457 320.052L47.4541 320.044C47.7921 319.74 48.1239 319.427 48.4475 319.102C53.1082 314.43 55.6684 308.224 55.6564 301.628C55.6446 295.031 53.0619 288.835 48.3845 284.179C43.707 279.523 37.4945 276.965 30.8916 276.977Z" fill="#9BC1F9"/>
<path opacity="0.3" d="M30.9039 283.672C27.3924 283.679 24.1147 284.694 21.3442 286.442L21.3475 288.152C24.049 286.234 27.3475 285.103 30.9065 285.096C40.0559 285.08 47.5128 292.502 47.5294 301.642C47.5458 310.782 40.1158 318.231 30.9664 318.248C27.4075 318.254 24.1049 317.135 21.3964 315.227L21.3996 316.937C24.1764 318.674 27.4576 319.678 30.9691 319.672C40.9045 319.654 48.9728 311.565 48.9549 301.639C48.9367 291.714 40.8391 283.654 30.9039 283.672Z" fill="#9BC1F9"/>
<path d="M48.3119 210.007V203.587H45.7505V203.025H51.6807V203.587H49.119V210.007H48.3119Z" fill="#184655"/>
<path d="M58.2247 209.446V210.007H53.084V203.025H58.0432V203.587H53.8852V206.032H56.8953V206.594H53.8852V209.445H58.2247V209.446Z" fill="#184655"/>
<path d="M59.0439 208.336L59.7399 208.105C59.9738 208.602 60.2731 208.97 60.6376 209.207C61.0021 209.445 61.4496 209.564 61.9797 209.564C62.5256 209.564 62.9654 209.44 63.2986 209.191C63.632 208.942 63.7987 208.615 63.7987 208.209C63.7987 207.885 63.6896 207.618 63.4712 207.409C63.2527 207.199 62.8825 207.008 62.36 206.835C62.0753 206.744 61.6981 206.634 61.2284 206.504C60.7586 206.375 60.4573 206.279 60.3248 206.217C59.9075 206.021 59.6113 205.814 59.4358 205.593C59.2603 205.373 59.1726 205.101 59.1726 204.777C59.1726 204.198 59.3927 203.742 59.8336 203.41C60.274 203.078 60.8803 202.912 61.6524 202.912C62.3385 202.912 62.9048 203.048 63.3513 203.32C63.7977 203.593 64.1379 204.01 64.372 204.574L63.6935 204.748C63.4789 204.314 63.203 203.993 62.866 203.785C62.5287 203.578 62.1125 203.474 61.6174 203.474C61.1378 203.474 60.749 203.585 60.4506 203.809C60.1523 204.032 60.0031 204.324 60.0031 204.682C60.0031 204.953 60.0996 205.181 60.2926 205.367C60.4856 205.553 60.7847 205.704 61.1903 205.82C61.3461 205.867 61.5723 205.932 61.8686 206.014C62.7186 206.247 63.2664 206.431 63.512 206.566C63.9058 206.774 64.1913 207.001 64.3688 207.248C64.546 207.495 64.6348 207.787 64.6348 208.124C64.6348 208.735 64.3959 209.221 63.9185 209.583C63.4408 209.945 62.7945 210.126 61.9796 210.126C61.2466 210.126 60.6432 209.981 60.1697 209.691C59.696 209.402 59.3205 208.95 59.0439 208.336Z" fill="#184655"/>
<path d="M67.9511 210.007V203.587H65.3896V203.025H71.3198V203.587H68.7582V210.007H67.9511Z" fill="#184655"/>
<path d="M72.8521 210.007V203.025H73.6533V210.007H72.8521Z" fill="#184655"/>
<path d="M76.8755 203.53V210.007H76.0977V203.025H77.4019L81.5484 208.917V203.025H82.3262V210.007H81.4725L76.8755 203.53Z" fill="#184655"/>
<path d="M89.6661 209.224C89.3776 209.532 89.0365 209.763 88.6426 209.916C88.2486 210.068 87.7907 210.145 87.2682 210.145C86.1959 210.145 85.3793 209.835 84.8177 209.217C84.2563 208.598 83.9756 207.702 83.9756 206.528C83.9756 205.367 84.2622 204.471 84.8352 203.84C85.4085 203.209 86.2193 202.893 87.2682 202.893C88.0441 202.893 88.6639 203.06 89.1279 203.393C89.592 203.727 89.9351 204.253 90.1573 204.97L89.4029 205.098C89.2159 204.534 88.9477 204.119 88.5989 203.851C88.2499 203.584 87.8025 203.45 87.2568 203.45C86.4768 203.45 85.8745 203.711 85.4495 204.231C85.0246 204.752 84.8122 205.491 84.8122 206.448C84.8122 207.48 85.0277 208.259 85.4585 208.785C85.8893 209.31 86.5297 209.573 87.3797 209.573C88.019 209.573 88.5338 209.425 88.9237 209.127C89.3136 208.83 89.5085 208.437 89.5085 207.949V207.203H87.3563V206.679H90.3741V210.007H89.6663L89.6661 209.224Z" fill="#184655"/>
<path d="M191.213 37.0887L189.393 44.1828L194.966 41.0559L211.612 34.9237L199.345 34.584C199.345 34.584 192.983 35.3456 192.613 35.6082C192.242 35.871 191.213 37.0887 191.213 37.0887Z" fill="#50BFA5"/>
<path d="M186.361 32.0939L211.612 34.9236L191.213 37.0887L186.361 32.0939Z" fill="#96D9C9"/>
<path d="M198.455 45.3096L192.479 39.2153L211.612 34.9236L198.455 45.3096Z" fill="#96D9C9"/>
<path d="M152.948 58.7988C153.093 58.2342 153.272 57.6678 153.481 57.1153C153.673 56.6068 153.895 56.0979 154.14 55.6031L154.676 55.868C154.44 56.3453 154.226 56.836 154.041 57.3263C153.84 57.8584 153.667 58.4037 153.528 58.9475C153.487 59.1072 153.448 59.2675 153.412 59.4283L152.828 59.298C152.866 59.1283 152.906 58.9603 152.948 58.7988ZM156.243 52.3019C157.023 51.3144 157.927 50.3598 158.928 49.4646L159.327 49.9102C158.351 50.7825 157.471 51.7118 156.712 52.6723L156.243 52.3019ZM175.225 53.3684C175.193 53.3426 175.161 53.3161 175.13 53.2895L175.519 52.8354C175.546 52.8586 175.574 52.8817 175.597 52.9008C175.597 52.9008 175.613 52.9109 175.655 52.9267C175.967 53.0446 176.818 53.1459 177.329 52.9186C177.759 52.7278 178.126 52.4001 178.421 51.9447L178.923 52.2692C178.57 52.816 178.102 53.2292 177.572 53.4647C176.864 53.7797 175.836 53.6339 175.443 53.4859C175.351 53.4507 175.279 53.4122 175.225 53.3684ZM162.021 47.0867C163.084 46.382 164.221 45.7283 165.4 45.1437L165.666 45.6792C164.509 46.2525 163.394 46.8935 162.352 47.5845L162.021 47.0867ZM173.406 48.4545C173.473 47.8849 173.616 47.3073 173.831 46.7375C173.947 46.4312 174.086 46.1219 174.243 45.8179L174.775 46.0931C174.628 46.3764 174.499 46.6642 174.391 46.9487C174.193 47.4728 174.062 48.0029 174.001 48.5241C173.957 48.8942 173.952 49.2719 173.985 49.6467L173.389 49.699C173.352 49.2835 173.358 48.8647 173.406 48.4545ZM176.622 45.7727L176.551 45.7279L176.868 45.2208L176.945 45.2695C178.1 46.0091 178.993 47.1152 179.397 48.3042L178.831 48.4961C178.47 47.4331 177.665 46.4405 176.622 45.7727ZM169.187 44.0689C169.87 43.9465 171.112 43.7478 171.747 43.7932C172.241 43.8283 172.691 43.8771 173.123 43.9422L173.034 44.5332C172.617 44.4706 172.182 44.4236 171.705 44.3894C171.288 44.3595 170.409 44.4572 169.292 44.6571L169.187 44.0689ZM176.675 42.7116C177.642 41.8204 178.737 41.0766 179.93 40.5007L180.191 41.0391C179.05 41.5892 178.004 42.3 177.08 43.1511L176.675 42.7116Z" fill="#9BC1F9"/>
<path d="M183.78 39.9257C184.426 39.8286 185.071 39.7851 185.699 39.7963L185.709 39.1987C185.049 39.1869 184.37 39.2326 183.691 39.3345L183.78 39.9257Z" fill="#9BC1F9"/>
<path d="M139.262 48.8192C139.622 48.834 140.609 49.1643 142.053 51.8896C143.896 55.3702 146.591 65.884 146.591 65.884L138.548 68.8762L137.515 66.6817L135.813 49.7869C135.813 49.7869 139.162 48.8151 139.262 48.8192Z" fill="#A34B3D"/>
<path d="M128.63 47.3036C130.93 47.3066 136.62 47.9769 139.262 48.82C139.262 48.82 141.202 65.4792 137.515 78.1381C136.689 80.9717 138.197 89.8848 138.197 89.8848L114.366 89.5706C114.366 89.5706 117.189 68.0228 116.125 64.5424C115.062 61.062 115.036 48.9321 115.036 48.9321C115.036 48.9321 115.2 48.9065 120.391 48.0103C122.812 47.5922 126.174 47.3006 128.63 47.3036Z" fill="#B75742"/>
<path d="M125.853 120.805C125.853 120.805 126.381 126.884 127.35 128.567C128.319 130.251 127.299 133.113 127.248 133.505C127.197 133.898 125.207 134.459 122.044 134.123C118.881 133.786 118.931 133.056 119.187 131.878C119.442 130.7 121.125 129.185 121.227 128.062C121.329 126.94 120.258 122.9 120.258 122.9L125.853 120.805Z" fill="#F7A491"/>
<path d="M135.509 84.8675C135.509 84.8675 151.96 83.955 155.633 86.1775C159.307 88.4 153.023 99.308 153.023 99.308C153.023 99.308 141.576 98.7809 119.154 100.074C113.845 100.38 113.387 86.2437 114.38 85.0739C115.373 83.9041 135.509 84.8675 135.509 84.8675Z" fill="#E0973F"/>
<path d="M121.649 134.594C118.392 134.248 118.795 132.649 119.057 131.436C119.222 130.676 120.156 129.78 120.713 128.933C121.004 129.165 121.478 129.574 122.892 129.991C124.361 130.425 126.375 129.567 127.658 129.03C128.115 130.73 128.136 132.898 128.093 133.227C128.041 133.631 124.906 134.941 121.649 134.594Z" fill="#DD513A"/>
<path d="M123.447 96.6245C124.104 101.593 127.358 126.327 127.358 126.327L119.807 127.262C119.807 127.262 110.522 94.9784 110.998 90.0405C111.474 85.1025 114.95 84.6871 114.95 84.6871C114.95 84.6871 121.707 83.4723 123.447 96.6245Z" fill="#F7CC7F"/>
<path d="M114.777 50.7837C117.006 49.9487 118.096 70.0048 118.396 78.2599C122.342 78.6392 129.22 78.2627 130.932 78.1342C131.738 78.0739 133.595 77.3943 134.396 77.2895C135.217 77.1821 135.961 77.1262 136.364 77.1964C136.512 77.2223 140.625 78.9025 140.977 79.2709C141.413 79.7279 142.593 80.8804 142.394 81.379C142.195 81.8774 140.125 79.9901 140.125 79.9901L139.114 79.4232C140.373 80.652 142.774 82.2702 142.428 82.8596C142.091 83.4344 139.925 81.792 138.38 80.6727C139.705 81.8677 141.35 84.006 140.971 84.3394C140.63 84.6391 138.759 82.1635 136.759 81.4504C136.018 81.1862 135.279 81.9179 134.696 82.0062C134.268 82.0712 133.606 82.2094 133.186 82.0903L131.02 81.4768C130.282 81.5434 130.264 81.9795 129.519 82.1378C128.654 82.3216 127.235 82.5153 126.134 82.7841C119.791 84.3321 117.676 85.0511 115.734 85.0498C109.852 85.0465 109.511 52.7572 114.777 50.7837Z" fill="#F7A491"/>
<path d="M110.548 69.613C110.131 61.1571 110.192 50.7348 114.937 48.9566C116.809 48.2549 120.11 52.4738 119.516 69.7847C116.983 69.9935 113.264 70.1617 110.548 69.613Z" fill="#A34B3D"/>
<path d="M148.722 126.7C148.722 126.7 147.632 128.624 148.49 130.237C149.348 131.85 153.85 134.223 154.319 135.098C154.788 135.972 154.604 136.591 154.604 136.591L141.236 133.317L142.26 129.291L143.51 126.51L148.722 126.7Z" fill="#F7A491"/>
<path d="M149.179 131.097C149.179 131.097 145.422 131.748 143.931 130.561C142.441 129.373 142.541 129.155 141.991 129.359C141.638 129.49 141.1 131.094 140.761 132.222C140.58 132.823 140.942 133.452 141.551 133.602L155.472 137.039C156.529 137.242 157.229 136.583 156.517 135.735C156.03 135.154 155.418 134.704 155.081 134.4C154.044 133.467 149.179 131.097 149.179 131.097Z" fill="#DD513A"/>
<path d="M147.412 88.7628C148.476 86.5273 150.894 83.6165 155.15 85.3695C159.209 87.0416 160.298 91.1508 159.017 95.3588C157.737 99.5667 149.306 124.303 149.012 127.704L142.281 127.749C142.281 127.749 143.505 108.162 143.805 103.428C144.093 98.8724 145.572 92.632 147.412 88.7628Z" fill="#F7CC7F"/>
<path d="M158.34 65.9796H135.839C135.243 65.9796 134.707 66.3402 134.481 66.8923L127.553 83.8298H115.149C114.802 83.8298 114.521 84.1115 114.521 84.4588C114.521 84.8064 114.802 85.0879 115.149 85.0879H150.454C151.424 85.0879 152.304 84.5168 152.702 83.6292L159.678 68.0524C160.114 67.0795 159.404 65.9796 158.34 65.9796Z" fill="#184655"/>
<path d="M146.225 75.8425C146.073 76.6033 145.411 77.112 144.746 76.9788C144.082 76.8455 143.666 76.1208 143.818 75.36C143.97 74.5993 144.632 74.0905 145.297 74.2237C145.961 74.357 146.377 75.0817 146.225 75.8425Z" fill="white"/>
<path d="M133.977 26.9567C133.299 26.7286 132.632 26.471 131.987 26.1604C131.258 25.8093 130.314 25.3982 129.717 25.3061C128.461 25.1126 126.304 25.2417 125.113 26.5326C123.629 28.1409 120.991 26.8232 121.523 35.2466C122.124 44.7812 127.431 43.7348 127.56 43.5733C127.689 43.4119 132.293 37.4736 132.293 37.4736C132.293 37.4736 133.903 40.9915 133.903 40.8624C133.903 40.7378 142.123 29.697 133.977 26.9567Z" fill="#0E2E35"/>
<path d="M129.949 44.2776L130.407 47.6844C130.407 47.6844 131.433 52.5928 130.113 53.539C128.793 54.4853 124.498 47.5447 124.498 47.5447L124.952 38.9119L129.949 44.2776Z" fill="#F7A491"/>
<path d="M124.805 41.7096C125.896 44.6541 128.493 46.4641 130.337 47.1661L129.949 44.2776L124.952 38.9117L124.805 41.7096Z" fill="#F47458"/>
<path d="M129.677 29.5175C132.475 29.0663 134.984 31.3139 134.915 34.1117C134.884 35.328 134.784 36.8464 134.531 38.4814C133.923 42.4143 131.237 45.8774 129.461 45.5682C127.685 45.2591 123.216 41.8665 124.003 36.2698C124.489 32.8144 126.741 29.9911 129.677 29.5175Z" fill="#F7A491"/>
<path d="M125.236 36.9378C125.086 37.8026 124.392 38.4041 123.687 38.2812C122.981 38.1584 122.531 37.3576 122.681 36.4928C122.831 35.6279 123.524 35.0264 124.229 35.1494C124.935 35.2724 125.386 36.0729 125.236 36.9378Z" fill="#F7A491"/>
<path d="M124.229 35.1495C124.229 35.1495 126.377 35.6825 127.174 34.3027C127.97 32.9229 130.82 29.9457 134.442 31.1801C138.065 32.4146 131.255 28.1786 130.965 28.1786C130.675 28.1786 127.198 28.1543 127.198 28.1543C127.198 28.1543 124.517 30.357 124.421 30.599C124.324 30.8411 123.551 33.4795 123.551 33.4795L124.229 35.1495Z" fill="#0E2E35"/>
<path d="M128.158 40.9059L132.065 41.6522C132.065 41.6522 131.692 43.1225 129.965 42.8442C127.858 42.5045 128.158 40.9059 128.158 40.9059Z" fill="white"/>
<path d="M173.612 309.652C173.612 309.652 172.898 314.636 171.667 316.244C171.254 316.783 170.5 317.466 170.005 318.441C169.234 319.96 169.66 322.221 170.228 323.466C170.52 324.105 170.208 324.103 170.872 324.309C172.84 324.919 174.934 323.891 175.772 321.998C176.24 320.94 176.65 319.53 176.733 317.752C176.943 313.227 178.344 310.926 178.344 310.926L173.612 309.652Z" fill="#F7A491"/>
<path d="M195.136 311.931C195.136 311.931 195.577 317.55 195.219 319.377C195.027 320.355 193.959 322.368 194.449 323.288C194.939 324.208 195.499 324.438 195.499 324.438L208.204 324.644C208.896 324.655 208.439 324.207 207.881 323.795C206.967 323.12 206.231 322.674 203.313 321.256C203.123 321.164 202.43 320.721 202.18 320.568C201.547 320.179 200.91 319.568 200.363 318.955C199.45 317.935 199.371 312.986 199.371 312.986L195.136 311.931Z" fill="#F7A491"/>
<path d="M205.066 237.237C205.066 237.237 206.666 246.361 205.616 252.342C204.565 258.324 199.523 313.766 199.523 313.766L193.92 314.084C193.92 314.084 192.746 290.924 192.956 287.703C193.166 284.483 194.829 279.093 194.829 279.093L194.271 260.394L201.342 235.829L205.066 237.237Z" fill="#E25A44"/>
<path d="M188.599 235.318C188.599 235.318 184.187 241.99 183.136 247.511C182.086 253.033 183.907 270.001 181.886 277.236C180.792 281.152 176.647 287.201 176.016 292.262C175.386 297.323 172.914 310.581 172.914 310.581L178.514 311.696L191.53 278.587L201.74 248.661L204.355 233.248L188.599 235.318Z" fill="#F47458"/>
<path d="M176.153 321.002C173.101 321.561 171.07 319.768 170.013 318.425C169.237 319.946 168.859 322.216 169.43 323.466C169.932 324.566 171.401 324.535 172.557 324.578C173.78 324.623 174.726 323.941 175.333 322.871C175.616 322.372 175.908 321.75 176.153 321.002Z" fill="#F7CC7F"/>
<path d="M202.178 320.567C198.818 321.433 196.334 320.845 194.945 320.282C194.587 321.302 194.112 322.582 194.364 323.32C194.672 324.224 195.111 324.428 195.499 324.438C198.568 324.519 206.742 324.629 209.082 324.66C209.409 324.664 209.589 324.281 209.379 324.029C208.799 323.332 202.429 320.721 202.178 320.567Z" fill="#F7CC7F"/>
<path d="M225.176 221.478C225.41 220.98 222.942 220.304 222.862 219.768C222.783 219.232 226.092 219.534 226.258 219.088C226.563 218.266 222.654 218.535 222.771 218.148C222.887 217.761 226.905 217.285 226.551 216.563C226.197 215.842 222.437 217.49 222.377 217.02C222.317 216.549 226.012 215.801 226.052 214.786C226.074 214.244 219.9 216.864 219.253 216.501C218.606 216.138 220.275 213.751 219.775 213.319C219.275 212.888 217.108 217.879 216.717 218.025C216.327 218.17 207.854 220.729 204.973 221.153C204.73 220.179 202.564 214.817 202.355 213.898C200.664 214.854 198.509 213.703 196.777 214.555C197.649 217.625 199.606 227.737 200.387 228.192C202.768 229.579 215.295 222.968 217.366 221.799C219.438 220.627 220.497 221.186 221.847 220.889C223.197 220.591 224.942 221.975 225.176 221.478Z" fill="#F38B80"/>
<path d="M202.886 191.69C203.516 188.829 204.133 185.949 202.472 182.806C201.128 180.262 198.804 178.798 196.115 178.48C188.494 177.576 190.123 184.683 179.472 186.222C176.162 186.7 173.088 187.159 170.324 188.804C165.335 191.773 163.452 196.535 166.761 204.294C174.863 223.294 194.251 206.784 197.208 203.423C200.142 200.089 202.48 193.532 202.886 191.69Z" fill="#0E2E35"/>
<path d="M190.892 200.722C190.892 200.722 187.044 201.158 184.742 203.659C182.441 206.16 188.463 226.264 188.881 229.448C189.3 232.631 184.879 241.441 184.879 241.441C184.879 241.441 199.905 244.425 203.811 241.848C203.811 241.848 204.154 217.244 203.736 214.971C203.318 212.697 199.83 203.45 198.993 202.54C198.156 201.631 190.892 200.722 190.892 200.722Z" fill="#F7CC7F"/>
<path d="M192.829 192.971C192.829 192.971 192.799 193.142 192.745 193.433C192.486 194.827 191.487 199.453 190.812 200.725C189.997 202.262 193.604 207.163 197.076 206.565C198.109 206.387 196.202 202.062 196.294 201.603C196.469 200.726 196.707 199.53 196.951 198.303C197.088 197.611 197.227 196.909 197.358 196.249C197.729 194.375 198.032 192.842 198.032 192.842L192.829 192.971Z" fill="#F7A491"/>
<path opacity="0.5" d="M192.745 193.433C192.799 193.142 192.829 192.971 192.829 192.971L198.032 192.842C198.032 192.842 197.729 194.375 197.357 196.249C197.227 196.905 197.089 197.603 196.953 198.291C196.149 198.173 195.31 197.784 194.468 197.05C193.551 196.249 192.95 195.287 192.587 194.259C192.651 193.932 192.705 193.649 192.745 193.433Z" fill="#F47458"/>
<path d="M195.959 180.619C195.959 180.619 193.837 180.912 192.3 182.895C190.762 184.877 189.106 191.006 192.924 194.339C196.743 197.671 200.516 193.899 201.075 189.899C201.635 185.9 201.521 180.474 195.959 180.619Z" fill="#F7A491"/>
<path d="M202.189 188.912C201.948 189.876 201.315 190.528 200.776 190.367C200.237 190.206 199.995 189.294 200.236 188.33C200.477 187.366 201.109 186.714 201.648 186.875C202.188 187.036 202.429 187.948 202.189 188.912Z" fill="#F7A491"/>
<path d="M198.315 180.636C198.315 180.636 193.329 186.355 190.985 186.624C188.641 186.893 188.333 189.991 188.333 189.991C188.333 189.991 189.171 182.854 191.492 181.478C193.812 180.101 198.315 180.636 198.315 180.636Z" fill="#0E2E35"/>
<path d="M191.751 188.013C191.942 189.048 191.559 189.997 190.895 190.133C190.232 190.269 189.539 189.54 189.349 188.505C189.158 187.47 189.541 186.521 190.205 186.385C190.868 186.249 191.561 186.978 191.751 188.013Z" fill="#F7A491"/>
<path d="M191.68 217.037L207.793 219.392C208.277 219.463 208.612 219.912 208.541 220.396L205.397 241.87C205.326 242.354 204.876 242.689 204.391 242.618L188.279 240.263C187.794 240.193 187.459 239.743 187.53 239.259L190.675 217.785C190.746 217.301 191.196 216.966 191.68 217.037Z" fill="#184655"/>
<path d="M203.698 218.082C203.712 217.984 203.645 217.893 203.546 217.878L196.825 216.896C196.727 216.882 196.636 216.95 196.622 217.048L196.52 217.745L203.596 218.78L203.698 218.082Z" fill="#13375B"/>
<path d="M200.31 216.538C199.725 216.453 199.181 216.858 199.095 217.442C199.01 218.027 199.415 218.571 200 218.656C200.586 218.742 201.13 218.337 201.215 217.752C201.301 217.168 200.896 216.624 200.31 216.538ZM200.056 218.277C199.681 218.222 199.421 217.873 199.476 217.498C199.53 217.123 199.879 216.864 200.255 216.918C200.63 216.973 200.89 217.322 200.835 217.697C200.78 218.072 200.431 218.331 200.056 218.277Z" fill="#13375B"/>
<path d="M203.698 218.082L203.596 218.78L196.52 217.745C196.449 218.229 196.784 218.678 197.268 218.749L202.592 219.527C203.075 219.597 203.525 219.263 203.596 218.779L203.698 218.082Z" fill="#355389"/>
<path d="M198.688 191.881L195.062 191.861C195.062 191.861 195.138 193.238 196.732 193.292C198.676 193.359 198.688 191.881 198.688 191.881Z" fill="white"/>
<path d="M180.376 222.528L186.214 223.124C186.214 223.124 186.119 228.074 186.219 228.643C186.219 228.643 196.203 231.408 200.375 232.158C200.375 232.158 202.275 231.082 203.043 230.74C203.812 230.398 205.878 230.025 206.335 229.965C206.792 229.905 206.636 230.406 206.243 230.58C205.851 230.755 204.836 231.233 204.548 231.818C204.548 231.818 205.372 231.908 205.808 231.714C206.244 231.52 206.845 231.109 206.854 230.896C206.864 230.683 206.963 230.169 207.106 230.197C207.143 230.204 207.191 230.372 207.24 230.549C207.287 230.716 207.336 230.888 207.377 231.057C207.45 231.361 207.534 231.804 207.567 232.004C207.642 232.458 207.363 233.712 207.324 234.157C207.253 234.97 207.021 235.331 206.591 235.539C205.898 235.78 205.165 235.933 204.082 236.045C202.096 236.25 200.271 235.679 199.474 235.59C198.678 235.501 185.965 234.241 185.965 234.241C185.965 234.241 180.912 233.515 180.576 232.646C180.241 231.777 180.376 222.528 180.376 222.528Z" fill="#F7A491"/>
<path d="M185.448 202.932C185.448 202.932 183.605 203.805 181.985 207.575C180.446 211.157 179.994 229.036 179.994 229.036L186.101 228.019L189.204 219.683C191.416 214.694 190.845 208.885 187.622 204.479C186.763 203.304 185.971 202.594 185.448 202.932Z" fill="#F7CC7F"/>
<path opacity="0.6" d="M307.666 117.046H281.745V142.94H307.666V117.046Z" fill="#9BC1F9"/>
<path opacity="0.6" d="M362.819 117.046H312.252V120.565H362.819V117.046Z" fill="#9BC1F9"/>
<path opacity="0.6" d="M346.378 124.505H312.252V128.023H346.378V124.505Z" fill="#9BC1F9"/>
<path opacity="0.6" d="M357.674 131.964H312.252V135.482H357.674V131.964Z" fill="#9BC1F9"/>
<path d="M380.22 203.008C379.16 202.147 370.966 205.739 371.07 206.989C371.174 208.24 365.352 220.361 365.352 220.361L355.292 212.347L355.288 212.35C355.199 212.06 354.245 208.943 354.199 208.386C354.15 207.801 352.45 206.778 351.66 206.928C350.871 207.079 352.336 208.069 352.432 208.25C352.694 208.744 351.682 208.93 351.682 208.93C351.682 208.93 348.809 208.01 348.747 207.073C348.685 206.135 346.721 208.711 346.951 209.07C347.177 209.42 351.871 213.198 352.548 214.019C352.548 214.019 365.56 228.879 366.487 229.268C367.3 229.609 370.199 224.488 372.937 221.088C375.676 217.688 383.531 205.697 380.22 203.008Z" fill="#F7A491"/>
<path d="M406.477 312.278C406.477 312.278 408.265 314.021 408.305 314.661C408.346 315.3 408.464 322.153 407.734 322.793C407.004 323.433 404.859 323.886 405.549 324.606C406.07 325.15 410.078 325.033 412.735 324.887C413.51 324.845 414.483 318.664 414.79 317.755C415.236 316.436 416.321 313.464 415.915 312.545C415.718 312.096 414.772 311.176 413.44 310.316C412.039 309.412 410.698 307.399 410.698 307.399L406.477 312.278Z" fill="#F48C7F"/>
<path d="M387.953 316.337C387.953 316.337 389.553 320.853 389.555 320.864C389.674 321.58 390.143 323.347 390.143 323.998C390.143 326.441 379.112 321.924 381.584 320.841C381.808 320.743 382.51 319.96 382.584 319.128C382.697 317.847 381.655 316.24 381.655 316.24L387.953 316.337Z" fill="#F7A491"/>
<path d="M370.648 232.245C370.648 232.245 369.844 240.341 369.844 240.462C369.844 253.557 367.246 279.138 367.74 281.6C368.946 287.605 381.921 318.24 381.921 318.24L388.934 317.403L381.407 280.383L383.158 265.961L387.917 236.779L370.648 232.245Z" fill="#50BFA5"/>
<path d="M394.186 239.406L395.516 247.079L399.116 278.658L412.828 309.521C412.828 309.521 410.899 314.012 408.054 314.643L386.231 282.955L372.675 242.409L373.151 233.401L394.186 239.406Z" fill="#96D9C9"/>
<path d="M367.852 212.97L377.576 213.962C377.576 213.962 378.023 205.998 378.023 202.199C378.023 197.59 377.63 191.653 377.072 191.781C375.509 192.139 373.403 193.002 372.149 194.723C367.81 200.678 367.852 212.97 367.852 212.97Z" fill="#B75742"/>
<path d="M372.629 201.386C372.425 202.791 368.687 240.994 368.687 240.994C386.394 249.537 396.164 242.516 396.164 242.516C396.164 242.516 395.585 215.689 396.279 212.038C396.739 209.622 397.312 193.568 395.744 193.119C393.733 192.542 391.428 191.929 388.914 191.669C386.769 191.446 378.435 191.317 376.944 191.818C376.944 191.818 373.486 195.476 372.629 201.386Z" fill="#F47458"/>
<path d="M413.353 310.273C413.353 310.273 409.232 321.865 407.619 322.424C407.191 322.573 405.135 322.95 404.747 323.858C404.63 324.131 404.747 325.045 404.747 325.045H413.337C413.337 325.045 414.424 319.937 414.853 317.693C414.853 317.693 417.127 312.21 416.874 311.712C416.622 311.214 413.353 310.273 413.353 310.273Z" fill="#F47458"/>
<path d="M390.77 324.804L389.507 320.818C389.507 320.818 386.854 321.939 385.527 321.752C384.201 321.565 381.611 320.818 381.611 320.818C376.317 322.558 371.979 323.403 372.768 324.804H390.77Z" fill="#F47458"/>
<path d="M366.487 229.268C366.447 229.251 366.303 229.138 366.22 229.07C366.535 225.327 366.478 221.7 365.302 220.474C365.33 220.415 365.587 219.869 365.856 219.303C367.219 220.356 367.866 223.154 367.612 227.695C367.594 228.007 367.504 228.245 367.432 228.635C367.037 229.068 366.679 229.348 366.487 229.268Z" fill="#F7A491"/>
<path d="M386.547 184.284L387.689 191.799C387.689 191.799 383.521 200.747 381.032 199.971C378.944 199.32 380.229 191.402 380.229 191.402C380.229 191.402 381.367 187.151 381.026 185.023C380.684 182.895 386.547 184.284 386.547 184.284Z" fill="#F7A491"/>
<path d="M381.025 185.023C380.684 182.895 386.547 184.284 386.547 184.284L386.642 184.907C386.47 185.324 386.26 185.681 386.006 185.954C384.696 187.362 382.649 188.208 380.879 188.272C381.056 187.125 381.165 185.895 381.025 185.023Z" fill="#F47458"/>
<path d="M387.509 173.652C387.675 173.592 388.837 182.211 386.631 184.583C384.425 186.954 380.127 187.731 378.585 185.863C376.88 183.797 376.965 174.533 380.395 172.093C383.825 169.654 387.509 173.652 387.509 173.652Z" fill="#F7A491"/>
<path d="M381.701 167.483C384.352 168.023 386.07 169.642 386.701 170.332C387.904 170.473 389.541 171.138 391.23 173.933C393.308 177.369 391.774 181.176 389.355 183.044C386.937 184.912 386.971 187.069 386.971 187.069L386.588 185.953C386.306 185.108 386.191 184.211 386.285 183.324C386.342 182.792 386.456 182.217 386.676 181.744C387.258 180.497 385.427 179.668 384.914 178.63C384.518 177.831 384.499 176.003 383.876 174.682L383.132 173.674C383.132 173.674 381.416 172.339 379.737 172.716C378.058 173.092 378.3 166.79 381.701 167.483Z" fill="#0E2E35"/>
<path d="M385.026 180.164C385.008 181.216 385.487 182.076 386.095 182.087C386.702 182.097 387.209 181.253 387.227 180.201C387.244 179.15 386.766 178.289 386.158 178.279C385.55 178.268 385.044 179.112 385.026 180.164Z" fill="#F7A491"/>
<path d="M381.444 182.594L378.118 182.422C378.118 182.422 378.129 183.687 379.59 183.805C381.37 183.949 381.444 182.594 381.444 182.594Z" fill="white"/>
<path d="M354.232 202.244C355.013 201.444 355.742 200.62 356.42 199.779L370.934 213.938C371.826 214.808 371.519 216.567 370.248 217.867C368.977 219.167 367.224 219.516 366.332 218.646L351.817 204.486C352.644 203.79 353.451 203.043 354.232 202.244Z" fill="#0E2E35"/>
<path opacity="0.6" d="M353.961 201.962C368.093 187.519 367.75 164.3 353.194 150.103C338.639 135.905 315.383 136.104 301.251 150.547C287.118 164.991 287.462 188.209 302.017 202.407C316.573 216.605 339.829 216.406 353.961 201.962Z" fill="#C5DDF9"/>
<path d="M353.995 201.582C347.973 207.978 339.736 212.156 330.687 212.978L290.979 172.658C290.986 172.582 290.992 172.506 291 172.43C291.989 163.224 296.275 155.176 302.549 149.344L353.995 201.582Z" fill="white"/>
<path d="M327.285 139.535L364.006 176.822C363.988 177.95 363.921 179.087 363.799 180.231C363.239 185.441 361.621 190.28 359.187 194.557L309.595 144.201C314.875 141.234 320.926 139.556 327.285 139.535Z" fill="white"/>
<path d="M298.683 205.837C315.137 221.89 341.422 221.66 357.392 205.324C373.362 188.989 372.969 162.733 356.515 146.681C340.061 130.628 313.776 130.858 297.806 147.193C281.836 163.529 282.229 189.784 298.683 205.837ZM302.022 202.422C287.467 188.223 287.12 164.998 301.246 150.549C315.372 136.099 338.623 135.896 353.177 150.096C367.731 164.295 368.079 187.519 353.952 201.969C339.826 216.418 316.576 216.621 302.022 202.422Z" fill="#184655"/>
<path opacity="0.5" d="M300.438 204.042C315.893 219.121 340.583 218.905 355.584 203.561C370.585 188.216 370.216 163.554 354.76 148.476C339.305 133.397 314.615 133.613 299.614 148.957C284.614 164.301 284.982 188.964 300.438 204.042ZM302.021 202.422C287.467 188.223 287.12 164.998 301.246 150.549C315.372 136.099 338.623 135.896 353.177 150.095C367.731 164.295 368.078 187.519 353.952 201.969C339.826 216.418 316.576 216.621 302.021 202.422Z" fill="#50BFA5"/>
<path d="M416.012 264.381L418.268 262.044C420.522 259.708 420.454 255.989 418.116 253.738L376.212 213.153C373.874 210.901 370.151 210.969 367.897 213.305L365.642 215.642C363.388 217.978 363.456 221.697 365.794 223.948L407.698 264.533C410.036 266.785 413.758 266.717 416.012 264.381Z" fill="#184655"/>
<path d="M413.701 241.399C413.712 241.317 413.714 241.235 413.706 241.153C413.444 238.507 411.246 216.291 410.875 215.347C410.541 214.494 400.679 200.403 400.679 200.403L395.832 207L405.316 219.639C405.529 220.442 408.951 235.439 408.951 235.439C408.951 235.439 409.652 238.173 409.967 239.81C409.823 240.205 409.682 240.578 409.558 240.883C409.244 241.537 408.873 242.073 408.536 242.524C408.112 243.092 407.411 244.332 407.325 244.664C407.224 245.049 407.043 245.851 406.941 246.335C406.838 246.819 406.698 247.382 406.674 247.645C406.66 247.805 406.495 248.124 406.368 248.349C406.179 248.684 406.502 249.08 406.867 248.959C407.212 248.844 407.48 248.399 407.645 248.121C408.112 247.337 408.361 245.907 408.477 245.982C408.593 246.058 409.002 248.486 409.067 248.76C409.132 249.035 409.622 251.854 409.899 252.37C410.176 252.885 410.542 252.798 410.639 252.476C410.723 252.198 410.334 248.254 410.334 248.254C410.334 248.254 410.285 247.751 410.506 247.908C410.726 248.065 411.087 251.646 411.24 252.17C411.394 252.694 411.743 252.971 412.04 252.55C412.401 252.038 411.781 248.24 411.781 248.24C411.781 248.24 411.711 247.763 411.915 247.807C412.12 247.852 412.375 250.903 412.534 251.167C412.693 251.431 413.094 251.526 413.285 251.086C413.511 250.568 412.927 247.182 412.927 247.182C412.927 247.182 412.956 246.912 413.083 247.002C413.21 247.091 413.615 249.677 413.878 249.917C414.099 250.118 414.284 249.923 414.284 249.923C414.767 249.593 414.026 247.133 414.033 245.91C414.041 244.687 413.473 243.312 413.642 241.856C413.653 241.764 413.682 241.54 413.701 241.399Z" fill="#F8A492"/>
<path d="M408.384 209.327L399.96 214.978C399.96 214.978 395.211 207.919 392.663 205.407C389.47 202.259 393.826 192.616 395.883 193.161C400.484 194.382 408.384 209.327 408.384 209.327Z" fill="#F47458"/>
<path d="M425.721 324.115H6.52686V326.614H425.721V324.115Z" fill="#0E2E35"/>
</svg>
