<svg width="100" height="107" viewBox="0 0 100 107" fill="none" xmlns="http://www.w3.org/2000/svg">
<path d="M57.9982 61.567H42.1315C39.5093 61.567 37.376 59.4876 37.376 56.9317C37.376 54.3758 39.5093 52.2964 42.1315 52.2964H57.9982C60.6204 52.2964 62.7538 54.3758 62.7538 56.9317C62.7538 59.4876 60.6204 61.567 57.9982 61.567ZM42.1315 54.4624C40.7315 54.4624 39.5982 55.5671 39.5982 56.9317C39.5982 58.2963 40.7315 59.401 42.1315 59.401H57.9982C59.3982 59.401 60.5315 58.2963 60.5315 56.9317C60.5315 55.5671 59.3982 54.4624 57.9982 54.4624H42.1315Z" fill="#202020"/>
<path d="M57.532 76.6651C56.9098 76.6651 56.4209 76.1886 56.4209 75.5821V61.5679H43.6876V75.5821C43.6876 76.1886 43.1987 76.6651 42.5764 76.6651C41.9542 76.6651 41.4653 76.1886 41.4653 75.5821V60.4849C41.4653 59.8784 41.9542 59.4019 42.5764 59.4019H57.532C58.1542 59.4019 58.6431 59.8784 58.6431 60.4849V75.5821C58.6431 76.167 58.1542 76.6651 57.532 76.6651Z" fill="#202020"/>
<path d="M56.6231 54.4633C56.0009 54.4633 55.512 53.9868 55.512 53.3803C55.512 48.0085 58.2009 45.6692 59.8009 44.2613C60.1787 43.9364 60.6898 43.4815 60.7787 43.2649C60.7787 43.2433 60.7565 43.2216 60.7342 43.1999L50.0454 25.4818L39.3565 43.1999C39.3342 43.2433 39.3342 43.2649 39.312 43.2649C39.4009 43.4599 39.912 43.9147 40.2898 44.2613C41.8898 45.6476 44.5787 47.9869 44.5787 53.3803C44.5787 53.9868 44.0898 54.4633 43.4676 54.4633C42.8454 54.4633 42.3565 53.9868 42.3565 53.3803C42.3565 48.9616 40.312 47.1854 38.8009 45.8858C37.7342 44.9544 36.4009 43.8064 37.4231 42.1169L49.112 22.7959C49.312 22.471 49.6676 22.2544 50.0676 22.2544C50.4676 22.2544 50.8231 22.4493 51.0231 22.7959L62.6676 42.0953C63.6898 43.7848 62.3565 44.9328 61.2898 45.8642C59.8009 47.1638 57.7342 48.9616 57.7342 53.3586C57.7342 53.9651 57.2454 54.4633 56.6231 54.4633Z" fill="#202020"/>
<path d="M50.0667 37.8498C49.4445 37.8498 48.9556 37.3733 48.9556 36.7668V23.3374C48.9556 22.7309 49.4445 22.2544 50.0667 22.2544C50.6889 22.2544 51.1778 22.7309 51.1778 23.3374V36.7452C51.1778 37.3517 50.6667 37.8498 50.0667 37.8498Z" fill="#202020"/>
<path d="M50.0651 44.9535C47.4429 44.9535 45.3096 42.8741 45.3096 40.3182C45.3096 37.7623 47.4429 35.6829 50.0651 35.6829C52.6874 35.6829 54.8207 37.7623 54.8207 40.3182C54.8207 42.8741 52.6874 44.9535 50.0651 44.9535ZM50.0651 37.8489C48.6651 37.8489 47.5318 38.9536 47.5318 40.3182C47.5318 41.6828 48.6651 42.7875 50.0651 42.7875C51.4651 42.7875 52.5985 41.6828 52.5985 40.3182C52.5985 38.9536 51.4651 37.8489 50.0651 37.8489Z" fill="#202020"/>
<path d="M81.2009 40.2319C80.6676 40.2319 80.2009 39.842 80.112 39.3222C78.0231 26.4776 67.3342 16.2973 54.112 14.5861C53.512 14.4994 53.0676 13.9579 53.1564 13.3731C53.2453 12.7883 53.8009 12.3551 54.4009 12.4417C61.4009 13.3515 67.7787 16.3839 72.8676 21.2142C77.9342 26.0444 81.2009 32.1743 82.2898 38.9756C82.3787 39.5605 81.9787 40.1236 81.3565 40.2103C81.312 40.2319 81.2676 40.2319 81.2009 40.2319ZM18.912 40.2319C18.8453 40.2319 18.8009 40.2319 18.7342 40.2103C18.1342 40.1236 17.712 39.5605 17.8009 38.9756C18.912 32.1959 22.1564 26.0444 27.2231 21.2142C32.2898 16.3839 38.6898 13.3515 45.6898 12.4417C46.2898 12.3551 46.8676 12.7883 46.9342 13.3731C47.0231 13.9579 46.5787 14.5211 45.9787 14.5861C32.7787 16.2973 22.0898 26.4776 20.0231 39.3222C19.9342 39.842 19.4453 40.2319 18.912 40.2319Z" fill="#202020"/>
<path d="M20.6229 48.4193H16.4229C14.6451 48.4193 13.2007 47.0114 13.2007 45.2786V41.2064C13.2007 39.4736 14.6451 38.0657 16.4229 38.0657H20.6229C22.4007 38.0657 23.8451 39.4736 23.8451 41.2064V45.3002C23.8451 47.0114 22.4007 48.4193 20.6229 48.4193ZM16.4229 40.2317C15.8674 40.2317 15.4229 40.6649 15.4229 41.2064V45.3002C15.4229 45.8417 15.8674 46.2749 16.4229 46.2749H20.6229C21.1785 46.2749 21.6229 45.8417 21.6229 45.3002V41.2064C21.6229 40.6649 21.1785 40.2317 20.6229 40.2317H16.4229Z" fill="#202020"/>
<path d="M83.6874 48.4193H79.4874C77.7096 48.4193 76.2651 47.0114 76.2651 45.2786V41.2064C76.2651 39.4736 77.7096 38.0657 79.4874 38.0657H83.6874C85.4651 38.0657 86.9096 39.4736 86.9096 41.2064V45.3002C86.9096 47.0114 85.4651 48.4193 83.6874 48.4193ZM79.4874 40.2317C78.9318 40.2317 78.4874 40.6649 78.4874 41.2064V45.3002C78.4874 45.8417 78.9318 46.2749 79.4874 46.2749H83.6874C84.2429 46.2749 84.6874 45.8417 84.6874 45.3002V41.2064C84.6874 40.6649 84.2429 40.2317 83.6874 40.2317H79.4874Z" fill="#202020"/>
<path d="M52.1551 18.42H47.9551C46.1774 18.42 44.7329 17.0121 44.7329 15.2793V11.2072C44.7329 9.47433 46.1774 8.06641 47.9551 8.06641H52.1551C53.9329 8.06641 55.3774 9.47433 55.3774 11.2072V15.301C55.3774 17.0121 53.9329 18.42 52.1551 18.42ZM47.9551 10.2324C47.3996 10.2324 46.9551 10.6656 46.9551 11.2072V15.301C46.9551 15.8425 47.3996 16.2757 47.9551 16.2757H52.1551C52.7107 16.2757 53.1551 15.8425 53.1551 15.301V11.2072C53.1551 10.6656 52.7107 10.2324 52.1551 10.2324H47.9551Z" fill="#202020"/>
<path d="M16.4222 18.701H12.2222C10.4444 18.701 9 17.2931 9 15.5602V11.4664C9 9.73361 10.4444 8.32568 12.2222 8.32568H16.4222C18.2 8.32568 19.6444 9.73361 19.6444 11.4664V15.5602C19.6444 17.2931 18.2 18.701 16.4222 18.701ZM12.2222 10.4917C11.6667 10.4917 11.2222 10.9249 11.2222 11.4664V15.5602C11.2222 16.1017 11.6667 16.535 12.2222 16.535H16.4222C16.9778 16.535 17.4222 16.1017 17.4222 15.5602V11.4664C17.4222 10.9249 16.9778 10.4917 16.4222 10.4917H12.2222Z" fill="#202020"/>
<path d="M87.888 18.701H83.688C81.9103 18.701 80.4658 17.2931 80.4658 15.5602V11.4664C80.4658 9.73361 81.9103 8.32568 83.688 8.32568H87.888C89.6658 8.32568 91.1103 9.73361 91.1103 11.4664V15.5602C91.1103 17.2931 89.6658 18.701 87.888 18.701ZM83.688 10.4917C83.1325 10.4917 82.688 10.9249 82.688 11.4664V15.5602C82.688 16.1017 83.1325 16.535 83.688 16.535H87.888C88.4436 16.535 88.888 16.1017 88.888 15.5602V11.4664C88.888 10.9249 88.4436 10.4917 87.888 10.4917H83.688Z" fill="#202020"/>
<path d="M25.9549 15.6686C22.1771 15.6686 18.5326 14.8888 18.2882 14.8239C17.6882 14.6939 17.3104 14.1091 17.4438 13.5242C17.5771 12.9394 18.1771 12.5712 18.7771 12.7012C21.2215 13.221 28.1993 14.239 31.1993 12.5495C35.4882 10.1236 45.0438 12.1813 46.1104 12.4412C46.7104 12.5712 47.0882 13.156 46.9326 13.7409C46.7771 14.3257 46.1993 14.6939 45.5993 14.5423C42.9104 13.9358 35.2882 12.7445 32.2882 14.434C30.6438 15.387 28.266 15.6686 25.9549 15.6686Z" fill="#202020"/>
<path d="M74.1545 15.669C71.8434 15.669 69.4656 15.3657 67.8212 14.4344C64.8212 12.7448 57.1989 13.9362 54.5101 14.5427C53.9101 14.6726 53.3101 14.3044 53.1767 13.7412C53.0434 13.1564 53.4212 12.5716 53.9989 12.4416C55.0656 12.2033 64.6212 10.1456 68.9101 12.5499C71.9101 14.2394 78.8878 13.243 81.3323 12.7015C81.9323 12.5716 82.5323 12.9398 82.6656 13.5246C82.7989 14.1094 82.4212 14.6943 81.8212 14.8242C81.5767 14.8892 77.9323 15.669 74.1545 15.669Z" fill="#202020"/>
<path d="M29.5551 66.3103H10.7996C10.1774 66.3103 9.68848 65.8338 9.68848 65.2273C9.68848 64.6208 10.1774 64.1443 10.7996 64.1443H29.5551C30.1774 64.1443 30.6663 64.6208 30.6663 65.2273C30.6663 65.8338 30.1551 66.3103 29.5551 66.3103Z" fill="#202020"/>
<path d="M29.5551 71.4878H10.7996C10.1774 71.4878 9.68848 71.0113 9.68848 70.4048C9.68848 69.7983 10.1774 69.3218 10.7996 69.3218H29.5551C30.1774 69.3218 30.6663 69.7983 30.6663 70.4048C30.6663 71.0113 30.1551 71.4878 29.5551 71.4878Z" fill="#202020"/>
<path d="M20.1774 76.6651H10.7996C10.1774 76.6651 9.68848 76.1885 9.68848 75.582C9.68848 74.9756 10.1774 74.499 10.7996 74.499H20.1774C20.7996 74.499 21.2885 74.9756 21.2885 75.582C21.2885 76.1885 20.7996 76.6651 20.1774 76.6651Z" fill="#202020"/>
<path d="M89.3107 66.3103H70.5774C69.9552 66.3103 69.4663 65.8338 69.4663 65.2273C69.4663 64.6208 69.9552 64.1443 70.5774 64.1443H89.3107C89.933 64.1443 90.4219 64.6208 90.4219 65.2273C90.4219 65.8338 89.933 66.3103 89.3107 66.3103Z" fill="#202020"/>
<path d="M89.3107 71.4878H70.5774C69.9552 71.4878 69.4663 71.0113 69.4663 70.4048C69.4663 69.7983 69.9552 69.3218 70.5774 69.3218H89.3107C89.933 69.3218 90.4219 69.7983 90.4219 70.4048C90.4219 71.0113 89.933 71.4878 89.3107 71.4878Z" fill="#202020"/>
<path d="M89.3116 76.6651H79.9339C79.3116 76.6651 78.8228 76.1885 78.8228 75.582C78.8228 74.9756 79.3116 74.499 79.9339 74.499H89.3116C89.9339 74.499 90.4227 74.9756 90.4227 75.582C90.4227 76.1885 89.9339 76.6651 89.3116 76.6651Z" fill="#202020"/>
<path d="M91.1551 87.6689H8.95508C4.53286 87.6689 0.955078 84.1599 0.955078 79.8711V31.6769C0.955078 27.3665 4.55508 23.8792 8.95508 23.8792H25.2884C25.9106 23.8792 26.3995 24.3557 26.3995 24.9622C26.3995 25.5687 25.9106 26.0452 25.2884 26.0452H8.95508C5.75508 26.0452 3.1773 28.5794 3.1773 31.6769V79.8711C3.1773 82.9902 5.7773 85.5028 8.95508 85.5028H91.1551C94.3551 85.5028 96.9328 82.9686 96.9328 79.8711V31.6769C96.9328 28.5578 94.3328 26.0452 91.1551 26.0452H74.8217C74.1995 26.0452 73.7106 25.5687 73.7106 24.9622C73.7106 24.3557 74.1995 23.8792 74.8217 23.8792H91.1551C95.5773 23.8792 99.1551 27.3881 99.1551 31.6769V79.8711C99.1773 84.1599 95.5773 87.6689 91.1551 87.6689Z" fill="#202020"/>
<path d="M58.7996 100.665H41.3329C40.9329 100.665 40.5774 100.47 40.3774 100.145C40.1774 99.8199 40.1552 99.4083 40.3552 99.0834C42.5107 95.0979 42.5107 91.2857 40.3552 87.0619C40.1774 86.7154 40.1996 86.3255 40.3996 86.0006C40.5996 85.6757 40.9552 85.4807 41.3552 85.4807H58.8218C59.1996 85.4807 59.5552 85.6757 59.7774 86.0006C59.9774 86.3255 59.9996 86.7154 59.8218 87.0619C57.6663 91.264 57.6663 95.0762 59.8218 99.0834C59.9996 99.4083 59.9996 99.8199 59.7996 100.145C59.5552 100.47 59.1774 100.665 58.7996 100.665ZM43.0663 98.4986H57.0663C55.5774 94.9246 55.5996 91.3723 57.0885 87.6684H43.0441C44.5329 91.3723 44.5329 94.9246 43.0663 98.4986Z" fill="#202020"/>
<path d="M64.0894 100.665H36.0227C35.4005 100.665 34.9116 100.188 34.9116 99.5818C34.9116 98.9753 35.4005 98.4988 36.0227 98.4988H64.0672C64.6894 98.4988 65.1783 98.9753 65.1783 99.5818C65.1783 100.188 64.6894 100.665 64.0894 100.665Z" fill="#202020"/>
</svg>
