<svg width="100" height="107" viewBox="0 0 100 107" fill="none" xmlns="http://www.w3.org/2000/svg">
<path fill-rule="evenodd" clip-rule="evenodd" d="M78.6622 85.9899C78.6622 86.4773 78.8147 86.9537 79.1005 87.359C79.3864 87.7642 79.7926 88.0801 80.2679 88.2666C80.7432 88.4531 81.2662 88.5019 81.7708 88.4068C82.2753 88.3118 82.7388 88.0771 83.1026 87.7324C83.4664 87.3878 83.7141 86.9487 83.8145 86.4706C83.9148 85.9926 83.8633 85.4971 83.6665 85.0468C83.4696 84.5965 83.1362 84.2116 82.7084 83.9408C82.2807 83.67 81.7778 83.5255 81.2633 83.5255C80.5737 83.5263 79.9126 83.7862 79.425 84.2482C78.9373 84.7102 78.663 85.3365 78.6622 85.9899ZM57.5678 18.5491C57.3733 18.5541 57.1797 18.5221 56.9985 18.4551C56.8172 18.388 56.652 18.2872 56.5126 18.1586C56.3731 18.03 56.2623 17.8763 56.1866 17.7064C56.1109 17.5366 56.0719 17.3541 56.0719 17.1698C56.0719 16.9854 56.1109 16.8029 56.1866 16.6331C56.2623 16.4632 56.3731 16.3095 56.5126 16.1809C56.652 16.0523 56.8172 15.9515 56.9985 15.8845C57.1797 15.8174 57.3733 15.7854 57.5678 15.7904C59.8052 15.7913 62.0183 16.2308 64.0677 17.0811C66.1172 17.9315 67.9588 19.1744 69.4768 20.7317C70.9948 22.2889 72.1562 24.1269 72.8882 26.13C73.6201 28.1331 73.9068 30.258 73.73 32.3711C73.7151 32.5515 73.6628 32.7274 73.5761 32.8886C73.4894 33.0499 73.3701 33.1934 73.2249 33.311C73.0797 33.4285 72.9114 33.5179 72.7298 33.5738C72.5481 33.6298 72.3566 33.6513 72.1662 33.6372C71.9758 33.623 71.7902 33.5735 71.6199 33.4914C71.4497 33.4093 71.2983 33.2962 71.1742 33.1586C71.0501 33.021 70.9558 32.8617 70.8967 32.6896C70.8376 32.5175 70.8149 32.336 70.8299 32.1556C70.9764 30.4213 70.7423 28.6771 70.1422 27.0327C69.5422 25.3884 68.5892 23.8796 67.3434 22.6014C66.0975 21.3232 64.5858 20.3032 62.9033 19.6058C61.2209 18.9084 59.4043 18.5486 57.5678 18.5491ZM34.717 58.5634C35.1551 55.9778 36.6427 53.657 38.8622 52.0963C41.0817 50.5357 43.8572 49.8588 46.5962 50.2103C46.7962 47.2172 48.0857 44.3824 50.2451 42.1893C52.4044 39.9962 55.2998 38.5805 58.4376 38.1837C61.5754 37.7869 64.7613 38.4334 67.4522 40.0132C70.1431 41.5929 72.1723 44.0079 73.194 46.8466C74.8141 46.7325 76.4402 46.9745 77.9454 47.5535C79.4506 48.1326 80.7944 49.0331 81.872 50.185C83.9442 49.9609 86.0401 50.3225 87.8959 51.2243C89.7517 52.1262 91.2844 53.528 92.3011 55.2533C94.6347 53.267 96.1761 50.5805 96.6664 47.6449C97.1567 44.7094 96.5662 41.7033 94.994 39.1314C93.4218 36.5595 90.9636 34.5782 88.0319 33.5202C85.1003 32.4623 81.8738 32.3919 78.8939 33.321C78.664 33.4117 78.4133 33.4448 78.166 33.4172C77.9188 33.3896 77.6831 33.3022 77.4817 33.1634C77.2804 33.0247 77.12 32.8392 77.0162 32.6248C76.9123 32.4104 76.8683 32.1743 76.8885 31.9391C77.2635 27.4565 75.8385 23.005 72.8985 19.4748C69.9586 15.9447 65.7203 13.5961 61.0314 12.8988C56.3425 12.2015 51.5486 13.2069 47.6084 15.7139C43.6681 18.2209 40.8721 22.0448 39.7794 26.4207C39.6936 26.7693 39.4677 27.0725 39.1496 27.2657C38.8316 27.459 38.4465 27.5271 38.0763 27.4556C35.5327 26.9644 32.8942 27.1692 30.469 28.0461C28.0438 28.923 25.9321 30.4357 24.3807 32.4075C24.2168 32.6159 23.9938 32.7759 23.7377 32.869C23.4816 32.9622 23.2028 32.9845 22.9339 32.9336C21.0599 32.5688 19.126 32.5807 17.2572 32.9687C15.3884 33.3567 13.6264 34.1121 12.0852 35.1859C10.544 36.2597 9.25793 37.6282 8.31017 39.2026C7.36241 40.7771 6.77409 42.5225 6.58326 44.3259C6.39244 46.1294 6.60337 47.9507 7.2024 49.6721C7.80143 51.3934 8.77523 52.9765 10.0608 54.3188C11.3463 55.6611 12.915 56.7327 14.6653 57.4644C16.4156 58.1961 18.3085 58.5716 20.2216 58.5664L34.717 58.5634ZM45.1515 67.3747C44.0454 67.3745 42.9526 67.1472 41.9482 66.7084C40.9437 66.2696 40.0516 65.6297 39.3333 64.833C38.6149 64.0362 38.0874 63.1013 37.787 62.0928C37.4865 61.0844 37.4204 60.0262 37.5931 58.9911C37.7658 57.9561 38.1732 56.9688 38.7873 56.0973C39.4014 55.2257 40.2076 54.4906 41.1503 53.9426C42.0931 53.3946 43.15 53.0467 44.2483 52.9228C45.3466 52.7989 46.4602 52.902 47.5124 53.225C47.7422 53.3147 47.9924 53.3471 48.2392 53.319C48.486 53.291 48.721 53.2033 48.9218 53.0646C49.1226 52.9258 49.2824 52.7405 49.386 52.5265C49.4896 52.3124 49.5335 52.0768 49.5134 51.8421C49.2969 49.2783 50.1104 46.7316 51.791 44.7117C53.4716 42.6918 55.8954 41.3477 58.5773 40.9485C61.2591 40.5493 64.0012 41.1244 66.2547 42.5587C68.5082 43.9929 70.1068 46.1806 70.7306 48.6837C70.8166 49.0333 71.0434 49.3372 71.3626 49.5305C71.6818 49.7238 72.0681 49.7914 72.439 49.7187C73.8635 49.4448 75.3408 49.5602 76.6986 50.0516C78.0564 50.5429 79.2389 51.3898 80.108 52.4936C80.2721 52.7017 80.4952 52.8614 80.7512 52.9543C81.0073 53.0473 81.2859 53.0695 81.5548 53.0186C82.6033 52.8179 83.6845 52.8276 84.7287 53.047C85.773 53.2664 86.7572 53.6906 87.6178 54.2923C88.4785 54.894 89.1965 55.6599 89.7256 56.5406C90.2548 57.4213 90.5833 58.3972 90.69 59.4055C90.7968 60.4139 90.6793 61.4322 90.3453 62.3949C90.0113 63.3576 89.4681 64.2433 88.7507 64.9949C88.0333 65.7466 87.1576 66.3475 86.1801 66.7589C85.2026 67.1704 84.145 67.3833 83.0754 67.3838L45.1515 67.3747ZM62.7167 90.2377C62.9584 90.0078 63.1227 89.7153 63.189 89.3969C63.2553 89.0786 63.2206 88.7489 63.0892 88.4492C62.9578 88.1496 62.7357 87.8936 62.4509 87.7135C62.166 87.5334 61.8312 87.4372 61.4888 87.4372C61.1463 87.4372 60.8115 87.5334 60.5267 87.7135C60.2419 87.8936 60.0197 88.1496 59.8884 88.4492C59.757 88.7489 59.7222 89.0786 59.7885 89.3969C59.8548 89.7153 60.0192 90.0078 60.2608 90.2377C60.422 90.3906 60.6134 90.512 60.8241 90.5948C61.0348 90.6776 61.2607 90.7202 61.4888 90.7202C61.7169 90.7202 61.9428 90.6776 62.1535 90.5948C62.3642 90.512 62.5556 90.3906 62.7167 90.2377ZM52.9218 97.7238C53.1635 97.4939 53.3278 97.2014 53.3941 96.8831C53.4604 96.5648 53.4257 96.235 53.2943 95.9353C53.1629 95.6357 52.9408 95.3797 52.656 95.1996C52.3711 95.0195 52.0363 94.9233 51.6939 94.9233C51.3514 94.9233 51.0166 95.0195 50.7318 95.1996C50.447 95.3797 50.2248 95.6357 50.0935 95.9353C49.9621 96.235 49.9273 96.5648 49.9936 96.8831C50.0599 97.2014 50.2243 97.4939 50.4659 97.7238C50.6271 97.8768 50.8185 97.9981 51.0292 98.0809C51.2399 98.1637 51.4658 98.2063 51.6939 98.2063C51.922 98.2063 52.1479 98.1637 52.3586 98.0809C52.5693 97.9981 52.7607 97.8768 52.9218 97.7238ZM40.1681 89.0753C40.1681 89.4001 40.2697 89.7175 40.4602 89.9875C40.6506 90.2575 40.9212 90.468 41.2379 90.5922C41.5546 90.7165 41.903 90.749 42.2392 90.6857C42.5754 90.6223 42.8842 90.466 43.1266 90.2363C43.3689 90.0067 43.534 89.7141 43.6009 89.3957C43.6677 89.0772 43.6334 88.747 43.5022 88.447C43.3711 88.147 43.1489 87.8906 42.8639 87.7102C42.5789 87.5298 42.2439 87.4335 41.9011 87.4335C41.4417 87.434 41.0012 87.6071 40.6763 87.9149C40.3514 88.2227 40.1687 88.6401 40.1681 89.0753ZM19.5254 85.9899C19.5252 86.4775 19.6777 86.9542 19.9635 87.3598C20.2493 87.7654 20.6556 88.0815 21.1311 88.2683C21.6066 88.455 22.1298 88.504 22.6347 88.409C23.1395 88.314 23.6033 88.0792 23.9673 87.7345C24.3314 87.3897 24.5793 86.9505 24.6798 86.4722C24.7803 85.9939 24.7288 85.4982 24.5319 85.0476C24.335 84.5971 24.0014 84.212 23.5735 83.9411C23.1455 83.6701 22.6424 83.5255 22.1277 83.5255C21.438 83.5263 20.7767 83.7862 20.2889 84.2481C19.8011 84.7101 19.5266 85.3364 19.5254 85.9899ZM27.4464 84.61H30.6497V61.3221H20.2184C17.9409 61.3229 15.6876 60.8788 13.5993 60.0176C11.5109 59.1565 9.63241 57.8967 8.08094 56.317C6.52948 54.7373 5.33839 52.8715 4.58204 50.8362C3.82569 48.8008 3.52031 46.6397 3.68497 44.4875C3.84963 42.3354 4.48079 40.2385 5.53905 38.3278C6.59731 36.4171 8.05996 34.7336 9.83567 33.3823C11.6114 32.0311 13.662 31.0412 15.8596 30.4743C18.0572 29.9075 20.3545 29.7759 22.6082 30.0878C24.3763 28.079 26.6464 26.5207 29.2121 25.5546C31.7778 24.5885 34.5576 24.2453 37.2989 24.5562C38.8015 19.8496 42.0314 15.8073 46.405 13.1597C50.7787 10.5122 56.0076 9.43399 61.147 10.12C66.2865 10.8059 70.9975 13.2108 74.4288 16.9001C77.8601 20.5894 79.7855 25.3198 79.857 30.2366C83.5147 29.5296 87.3172 30.0134 90.6483 31.6097C93.9795 33.206 96.6441 35.8212 98.2104 39.0315C99.7767 42.2418 100.153 45.8591 99.278 49.2973C98.4032 52.7355 96.3285 55.7931 93.3903 57.9746C93.73 59.4358 93.7192 60.9506 93.3588 62.4074C92.9983 63.8641 92.2973 65.2256 91.3075 66.3915C90.3177 67.5574 89.0643 68.498 87.6397 69.1439C86.2151 69.7897 84.6557 70.1245 83.0764 70.1234V70.1294H72.7402V84.6059H75.9436C76.2961 83.3858 77.1039 82.3284 78.2171 81.6299C79.3303 80.9314 80.6732 80.6393 81.9965 80.8078C83.3198 80.9763 84.5336 81.594 85.4126 82.5461C86.2916 83.4983 86.7761 84.7203 86.7761 85.9853C86.7761 87.2503 86.2916 88.4723 85.4126 89.4245C84.5336 90.3767 83.3198 90.9943 81.9965 91.1628C80.6732 91.3313 79.3303 91.0392 78.2171 90.3407C77.1039 89.6422 76.2961 88.5848 75.9436 87.3647H71.2837C70.8976 87.3647 70.5273 87.2194 70.2542 86.9609C69.9811 86.7023 69.8275 86.3516 69.8272 85.9858V70.1335H62.9463V84.8953C63.995 85.2233 64.8861 85.8944 65.4598 86.7884C66.0334 87.6824 66.2522 88.7408 66.0769 89.7738C65.9016 90.8068 65.3436 91.7468 64.503 92.4254C63.6624 93.104 62.5942 93.4766 61.4898 93.4766C60.3855 93.4766 59.3173 93.104 58.4767 92.4254C57.6361 91.7468 57.0781 90.8068 56.9028 89.7738C56.7275 88.7408 56.9463 87.6824 57.52 86.7884C58.0936 85.8944 58.9847 85.2233 60.0334 84.8953V70.1335H53.1514V92.3844C54.2002 92.7123 55.0914 93.3834 55.6652 94.2774C56.239 95.1714 56.4579 96.2298 56.2826 97.2629C56.1073 98.2959 55.5494 99.236 54.7088 99.9146C53.8681 100.593 52.7999 100.966 51.6955 100.966C50.5911 100.966 49.5228 100.593 48.6822 99.9146C47.8416 99.236 47.2836 98.2959 47.1084 97.2629C46.9331 96.2298 47.152 95.1714 47.7258 94.2774C48.2996 93.3834 49.1908 92.7123 50.2395 92.3844V70.1335H45.1504C44.5496 70.1335 43.9499 70.0855 43.3576 69.9898V84.8953C44.4064 85.2232 45.2975 85.8943 45.8713 86.7883C46.4451 87.6823 46.664 88.7407 46.4888 89.7737C46.3135 90.8068 45.7555 91.7469 44.9149 92.4255C44.0743 93.1041 43.006 93.4768 41.9017 93.4768C40.7973 93.4768 39.729 93.1041 38.8884 92.4255C38.0478 91.7469 37.4898 90.8068 37.3145 89.7737C37.1393 88.7407 37.3582 87.6823 37.932 86.7883C38.5058 85.8943 39.397 85.2232 40.4457 84.8953V69.0884C38.8782 68.349 37.5292 67.2522 36.5198 65.8966C35.5103 64.5411 34.8721 62.9692 34.6625 61.3221H33.5638V85.9899C33.5635 86.3556 33.4099 86.7064 33.1368 86.9649C32.8637 87.2235 32.4934 87.3687 32.1073 87.3687H27.4464C27.0938 88.5885 26.2861 89.6457 25.1731 90.344C24.0602 91.0424 22.7175 91.3344 21.3945 91.1659C20.0715 90.9974 18.858 90.3798 17.9792 89.4278C17.1004 88.4758 16.616 87.2541 16.616 85.9893C16.616 84.7246 17.1004 83.5029 17.9792 82.5509C18.858 81.5989 20.0715 80.9813 21.3945 80.8128C22.7175 80.6443 24.0602 80.9363 25.1731 81.6347C26.2861 82.333 27.0938 83.3902 27.4464 84.61ZM76.4187 64.7688H77.9862C78.3725 64.7688 78.743 64.6234 79.0161 64.3646C79.2893 64.1058 79.4427 63.7549 79.4427 63.3889C79.4427 63.0229 79.2893 62.672 79.0161 62.4132C78.743 62.1544 78.3725 62.009 77.9862 62.009H76.4187C76.0324 62.009 75.662 62.1544 75.3888 62.4132C75.1157 62.672 74.9622 63.0229 74.9622 63.3889C74.9622 63.7549 75.1157 64.1058 75.3888 64.3646C75.662 64.6234 76.0324 64.7688 76.4187 64.7688ZM53.2571 64.7688H72.6643C73.0506 64.7688 73.4211 64.6234 73.6942 64.3646C73.9674 64.1058 74.1208 63.7549 74.1208 63.3889C74.1208 63.0229 73.9674 62.672 73.6942 62.4132C73.4211 62.1544 73.0506 62.009 72.6643 62.009H53.2571C52.8709 62.009 52.5004 62.1544 52.2273 62.4132C51.9541 62.672 51.8007 63.0229 51.8007 63.3889C51.8007 63.7549 51.9541 64.1058 52.2273 64.3646C52.5004 64.6234 52.8709 64.7688 53.2571 64.7688Z" fill="#202020"/>
</svg>
