<svg width="100" height="107" viewBox="0 0 100 107" fill="none" xmlns="http://www.w3.org/2000/svg">
<g clip-path="url(#clip0_8065_783)">
<mask id="path-1-inside-1_8065_783" fill="white">
<path d="M90.1914 39.1078L84.4514 37.4845C83.5504 33.7613 81.972 30.21 79.7847 26.9853L82.6181 22.0205C82.9025 21.5105 83.0202 20.9337 82.9565 20.3617C82.8928 19.7898 82.6505 19.2479 82.2597 18.8035C81.4164 17.8697 80.6281 17.0697 79.8514 16.346C79.0747 15.6223 78.2097 14.8814 77.1847 14.0721C76.7074 13.7125 76.1276 13.4913 75.5172 13.436C74.9067 13.3807 74.2922 13.4936 73.7497 13.7609L68.4564 16.3958C65.0031 14.3533 61.2002 12.8793 57.2131 12.038L55.4681 6.68563C55.2881 6.13415 54.9368 5.64496 54.4588 5.28006C53.9808 4.91517 53.3976 4.69098 52.7831 4.6359C50.402 4.44135 48.0074 4.44135 45.6264 4.6359C45.0128 4.69133 44.4306 4.91533 43.9533 5.2796C43.476 5.64387 43.125 6.13207 42.9447 6.68252L41.2064 12.0426C37.2193 12.884 33.4163 14.358 29.9631 16.4005L24.6464 13.7546C24.1002 13.489 23.4825 13.3791 22.87 13.4386C22.2576 13.4981 21.6773 13.7243 21.2014 14.0893C20.2014 14.8768 19.3447 15.6129 18.5697 16.3382C17.7947 17.0635 17.0014 17.8712 16.1347 18.8284C15.7498 19.2742 15.5131 19.8156 15.4538 20.3856C15.3946 20.9557 15.5154 21.5294 15.8014 22.036L18.623 26.9853C16.4358 30.21 14.8573 33.7613 13.9564 37.4845L8.22471 39.1078C7.63414 39.2759 7.11029 39.6039 6.71953 40.0502C6.32877 40.4966 6.08869 41.0412 6.02971 41.6151C5.92471 42.7186 5.87305 43.8407 5.87305 44.9551C5.87305 46.0694 5.92471 47.1931 6.02971 48.2981C6.08907 48.8711 6.32894 49.4148 6.71903 49.8605C7.10912 50.3062 7.63192 50.6339 8.22138 50.8023L13.9614 52.4256C14.8623 56.1489 16.4408 59.7001 18.628 62.9248L15.7947 67.8896C15.5102 68.3996 15.3926 68.9765 15.4563 69.5484C15.52 70.1204 15.7623 70.6622 16.153 71.1066C16.9964 72.0405 17.7847 72.8404 18.5614 73.5641C19.338 74.2878 20.203 75.0287 21.228 75.838C21.7057 76.1971 22.2854 76.4179 22.8957 76.4732C23.5061 76.5285 24.1204 76.4159 24.663 76.1493L25.8797 75.5454V91.646C25.8797 93.2971 26.5821 94.8805 27.8323 96.048C29.0826 97.2155 30.7783 97.8714 32.5464 97.8714H65.8731C67.6412 97.8714 69.3369 97.2155 70.5871 96.048C71.8373 94.8805 72.5397 93.2971 72.5397 91.646V75.5438L73.7731 76.157C74.3193 76.4225 74.9369 76.5323 75.5494 76.4728C76.1618 76.4133 76.742 76.1872 77.2181 75.8224C78.2181 75.0349 79.0747 74.2987 79.8497 73.5735C80.6247 72.8482 81.4181 72.0405 82.2847 71.0833C82.6697 70.6375 82.9064 70.0961 82.9656 69.5261C83.0248 68.956 82.904 68.3823 82.6181 67.8756L79.7897 62.9311C81.977 59.7064 83.5554 56.1551 84.4564 52.4318L90.1931 50.8023C90.7836 50.6343 91.3075 50.3063 91.6982 49.8599C92.089 49.4135 92.3291 48.8689 92.3881 48.295C92.4931 47.1931 92.5447 46.0694 92.5447 44.9551C92.5447 43.8407 92.4931 42.7186 92.3881 41.612C92.3283 41.0385 92.0877 40.4944 91.6967 40.0486C91.3057 39.6028 90.7818 39.2754 90.1914 39.1078ZM69.2064 91.646C69.2064 92.4715 68.8552 93.2633 68.2301 93.847C67.605 94.4308 66.7571 94.7587 65.8731 94.7587H32.5397C31.6557 94.7587 30.8078 94.4308 30.1827 93.847C29.5576 93.2633 29.2064 92.4715 29.2064 91.646V66.7442C29.2064 65.9186 29.5576 65.1269 30.1827 64.5431C30.8078 63.9594 31.6557 63.6314 32.5397 63.6314H65.8731C66.7571 63.6314 67.605 63.9594 68.2301 64.5431C68.8552 65.1269 69.2064 65.9186 69.2064 66.7442V91.646ZM65.473 60.5187H32.9397C29.6112 57.4963 27.3239 53.6153 26.3704 49.3723C25.4169 45.1293 25.8406 40.7171 27.5872 36.7001C29.3339 32.6832 32.3241 29.2441 36.1753 26.8229C40.0265 24.4016 44.5637 23.1083 49.2064 23.1083C53.8491 23.1083 58.3863 24.4016 62.2375 26.8229C66.0887 29.2441 69.0789 32.6832 70.8255 36.7001C72.5722 40.7171 72.9958 45.1293 72.0423 49.3723C71.0889 53.6153 68.8016 57.4963 65.473 60.5187ZM89.0781 47.8639L82.5397 49.7222C82.2504 49.8045 81.9905 49.9588 81.7879 50.1686C81.5853 50.3783 81.4477 50.6356 81.3897 50.9128C80.5562 54.8735 78.884 58.6388 76.4714 61.9879C76.3041 62.2221 76.2081 62.4944 76.1934 62.7756C76.1787 63.0568 76.246 63.3364 76.388 63.5847L79.6047 69.2281C78.8647 70.0359 78.1747 70.7378 77.4947 71.3728C76.8147 72.0078 76.0514 72.6614 75.2014 73.34L72.5397 72.0187V66.7442C72.5358 65.6578 72.2267 64.5915 71.6432 63.6517C71.0597 62.7119 70.2224 61.9316 69.2147 61.3887C72.6067 57.7937 74.8159 53.3613 75.5776 48.6231C76.3393 43.8849 75.6209 39.0421 73.5088 34.6756C71.3967 30.3091 67.9804 26.6043 63.6698 24.0056C59.3592 21.407 54.3372 20.0247 49.2064 20.0247C44.0755 20.0247 39.0536 21.407 34.743 24.0056C30.4324 26.6043 27.0161 30.3091 24.904 34.6756C22.7918 39.0421 22.0735 43.8849 22.8352 48.6231C23.5968 53.3613 25.8061 57.7937 29.1981 61.3887C28.1904 61.9316 27.353 62.7119 26.7695 63.6517C26.1861 64.5915 25.8769 65.6578 25.873 66.7442V72.0187L23.2064 73.34C22.3414 72.649 21.5897 72.0047 20.9097 71.3697C20.2297 70.7347 19.5297 70.0219 18.803 69.2281L22.0197 63.5847C22.1618 63.3364 22.2291 63.0568 22.2144 62.7756C22.1997 62.4944 22.1036 62.2221 21.9364 61.9879C19.5238 58.6388 17.8516 54.8735 17.018 50.9128C16.9601 50.6356 16.8225 50.3783 16.6199 50.1686C16.4173 49.9588 16.1574 49.8045 15.868 49.7222L9.33471 47.8639C9.24971 46.9021 9.20638 45.9247 9.20638 44.9551C9.20638 43.9854 9.24971 43.0065 9.33471 42.0462L15.873 40.1895C16.1626 40.107 16.4226 39.9525 16.6252 39.7424C16.8279 39.5324 16.9654 39.2748 17.023 38.9973C17.8566 35.0367 19.5287 31.2714 21.9414 27.9222C22.1086 27.688 22.2047 27.4158 22.2194 27.1346C22.2341 26.8534 22.1668 26.5737 22.0247 26.3254L18.8097 20.6758C19.5497 19.868 20.2397 19.1661 20.9197 18.5311C21.5997 17.8961 22.363 17.2518 23.2064 16.5701L29.2497 19.5739C29.5156 19.7066 29.8151 19.7694 30.1162 19.7557C30.4174 19.742 30.7089 19.6522 30.9597 19.4961C34.5462 17.2431 38.5784 15.6816 42.8197 14.9032C43.1183 14.8503 43.3957 14.7221 43.6219 14.5325C43.8481 14.343 44.0145 14.0993 44.1031 13.8278L46.0914 7.72061C48.1646 7.56346 50.2481 7.56346 52.3214 7.72061L54.3097 13.8278C54.398 14.0982 54.5635 14.341 54.7884 14.5302C55.0134 14.7194 55.2892 14.8478 55.5864 14.9017C59.8277 15.6801 63.8599 17.2415 67.4464 19.4945C67.6972 19.6507 67.9887 19.7404 68.2899 19.7541C68.591 19.7678 68.8905 19.705 69.1564 19.5723L75.2064 16.5701C76.0714 17.2611 76.8231 17.9055 77.5031 18.5405C78.1831 19.1755 78.8831 19.8883 79.6097 20.682L76.3931 26.3254C76.251 26.5737 76.1837 26.8534 76.1984 27.1346C76.2131 27.4158 76.3091 27.688 76.4764 27.9222C78.889 31.2714 80.5612 35.0367 81.3947 38.9973C81.4524 39.2748 81.5899 39.5324 81.7925 39.7424C81.9951 39.9525 82.2552 40.107 82.5447 40.1895L89.0847 42.0462C89.1697 43.008 89.2131 43.9854 89.2131 44.9551C89.2131 45.9247 89.1631 46.9036 89.0781 47.8639Z"/>
</mask>
<path d="M90.1914 39.1078L84.4514 37.4845C83.5504 33.7613 81.972 30.21 79.7847 26.9853L82.6181 22.0205C82.9025 21.5105 83.0202 20.9337 82.9565 20.3617C82.8928 19.7898 82.6505 19.2479 82.2597 18.8035C81.4164 17.8697 80.6281 17.0697 79.8514 16.346C79.0747 15.6223 78.2097 14.8814 77.1847 14.0721C76.7074 13.7125 76.1276 13.4913 75.5172 13.436C74.9067 13.3807 74.2922 13.4936 73.7497 13.7609L68.4564 16.3958C65.0031 14.3533 61.2002 12.8793 57.2131 12.038L55.4681 6.68563C55.2881 6.13415 54.9368 5.64496 54.4588 5.28006C53.9808 4.91517 53.3976 4.69098 52.7831 4.6359C50.402 4.44135 48.0074 4.44135 45.6264 4.6359C45.0128 4.69133 44.4306 4.91533 43.9533 5.2796C43.476 5.64387 43.125 6.13207 42.9447 6.68252L41.2064 12.0426C37.2193 12.884 33.4163 14.358 29.9631 16.4005L24.6464 13.7546C24.1002 13.489 23.4825 13.3791 22.87 13.4386C22.2576 13.4981 21.6773 13.7243 21.2014 14.0893C20.2014 14.8768 19.3447 15.6129 18.5697 16.3382C17.7947 17.0635 17.0014 17.8712 16.1347 18.8284C15.7498 19.2742 15.5131 19.8156 15.4538 20.3856C15.3946 20.9557 15.5154 21.5294 15.8014 22.036L18.623 26.9853C16.4358 30.21 14.8573 33.7613 13.9564 37.4845L8.22471 39.1078C7.63414 39.2759 7.11029 39.6039 6.71953 40.0502C6.32877 40.4966 6.08869 41.0412 6.02971 41.6151C5.92471 42.7186 5.87305 43.8407 5.87305 44.9551C5.87305 46.0694 5.92471 47.1931 6.02971 48.2981C6.08907 48.8711 6.32894 49.4148 6.71903 49.8605C7.10912 50.3062 7.63192 50.6339 8.22138 50.8023L13.9614 52.4256C14.8623 56.1489 16.4408 59.7001 18.628 62.9248L15.7947 67.8896C15.5102 68.3996 15.3926 68.9765 15.4563 69.5484C15.52 70.1204 15.7623 70.6622 16.153 71.1066C16.9964 72.0405 17.7847 72.8404 18.5614 73.5641C19.338 74.2878 20.203 75.0287 21.228 75.838C21.7057 76.1971 22.2854 76.4179 22.8957 76.4732C23.5061 76.5285 24.1204 76.4159 24.663 76.1493L25.8797 75.5454V91.646C25.8797 93.2971 26.5821 94.8805 27.8323 96.048C29.0826 97.2155 30.7783 97.8714 32.5464 97.8714H65.8731C67.6412 97.8714 69.3369 97.2155 70.5871 96.048C71.8373 94.8805 72.5397 93.2971 72.5397 91.646V75.5438L73.7731 76.157C74.3193 76.4225 74.9369 76.5323 75.5494 76.4728C76.1618 76.4133 76.742 76.1872 77.2181 75.8224C78.2181 75.0349 79.0747 74.2987 79.8497 73.5735C80.6247 72.8482 81.4181 72.0405 82.2847 71.0833C82.6697 70.6375 82.9064 70.0961 82.9656 69.5261C83.0248 68.956 82.904 68.3823 82.6181 67.8756L79.7897 62.9311C81.977 59.7064 83.5554 56.1551 84.4564 52.4318L90.1931 50.8023C90.7836 50.6343 91.3075 50.3063 91.6982 49.8599C92.089 49.4135 92.3291 48.8689 92.3881 48.295C92.4931 47.1931 92.5447 46.0694 92.5447 44.9551C92.5447 43.8407 92.4931 42.7186 92.3881 41.612C92.3283 41.0385 92.0877 40.4944 91.6967 40.0486C91.3057 39.6028 90.7818 39.2754 90.1914 39.1078ZM69.2064 91.646C69.2064 92.4715 68.8552 93.2633 68.2301 93.847C67.605 94.4308 66.7571 94.7587 65.8731 94.7587H32.5397C31.6557 94.7587 30.8078 94.4308 30.1827 93.847C29.5576 93.2633 29.2064 92.4715 29.2064 91.646V66.7442C29.2064 65.9186 29.5576 65.1269 30.1827 64.5431C30.8078 63.9594 31.6557 63.6314 32.5397 63.6314H65.8731C66.7571 63.6314 67.605 63.9594 68.2301 64.5431C68.8552 65.1269 69.2064 65.9186 69.2064 66.7442V91.646ZM65.473 60.5187H32.9397C29.6112 57.4963 27.3239 53.6153 26.3704 49.3723C25.4169 45.1293 25.8406 40.7171 27.5872 36.7001C29.3339 32.6832 32.3241 29.2441 36.1753 26.8229C40.0265 24.4016 44.5637 23.1083 49.2064 23.1083C53.8491 23.1083 58.3863 24.4016 62.2375 26.8229C66.0887 29.2441 69.0789 32.6832 70.8255 36.7001C72.5722 40.7171 72.9958 45.1293 72.0423 49.3723C71.0889 53.6153 68.8016 57.4963 65.473 60.5187ZM89.0781 47.8639L82.5397 49.7222C82.2504 49.8045 81.9905 49.9588 81.7879 50.1686C81.5853 50.3783 81.4477 50.6356 81.3897 50.9128C80.5562 54.8735 78.884 58.6388 76.4714 61.9879C76.3041 62.2221 76.2081 62.4944 76.1934 62.7756C76.1787 63.0568 76.246 63.3364 76.388 63.5847L79.6047 69.2281C78.8647 70.0359 78.1747 70.7378 77.4947 71.3728C76.8147 72.0078 76.0514 72.6614 75.2014 73.34L72.5397 72.0187V66.7442C72.5358 65.6578 72.2267 64.5915 71.6432 63.6517C71.0597 62.7119 70.2224 61.9316 69.2147 61.3887C72.6067 57.7937 74.8159 53.3613 75.5776 48.6231C76.3393 43.8849 75.6209 39.0421 73.5088 34.6756C71.3967 30.3091 67.9804 26.6043 63.6698 24.0056C59.3592 21.407 54.3372 20.0247 49.2064 20.0247C44.0755 20.0247 39.0536 21.407 34.743 24.0056C30.4324 26.6043 27.0161 30.3091 24.904 34.6756C22.7918 39.0421 22.0735 43.8849 22.8352 48.6231C23.5968 53.3613 25.8061 57.7937 29.1981 61.3887C28.1904 61.9316 27.353 62.7119 26.7695 63.6517C26.1861 64.5915 25.8769 65.6578 25.873 66.7442V72.0187L23.2064 73.34C22.3414 72.649 21.5897 72.0047 20.9097 71.3697C20.2297 70.7347 19.5297 70.0219 18.803 69.2281L22.0197 63.5847C22.1618 63.3364 22.2291 63.0568 22.2144 62.7756C22.1997 62.4944 22.1036 62.2221 21.9364 61.9879C19.5238 58.6388 17.8516 54.8735 17.018 50.9128C16.9601 50.6356 16.8225 50.3783 16.6199 50.1686C16.4173 49.9588 16.1574 49.8045 15.868 49.7222L9.33471 47.8639C9.24971 46.9021 9.20638 45.9247 9.20638 44.9551C9.20638 43.9854 9.24971 43.0065 9.33471 42.0462L15.873 40.1895C16.1626 40.107 16.4226 39.9525 16.6252 39.7424C16.8279 39.5324 16.9654 39.2748 17.023 38.9973C17.8566 35.0367 19.5287 31.2714 21.9414 27.9222C22.1086 27.688 22.2047 27.4158 22.2194 27.1346C22.2341 26.8534 22.1668 26.5737 22.0247 26.3254L18.8097 20.6758C19.5497 19.868 20.2397 19.1661 20.9197 18.5311C21.5997 17.8961 22.363 17.2518 23.2064 16.5701L29.2497 19.5739C29.5156 19.7066 29.8151 19.7694 30.1162 19.7557C30.4174 19.742 30.7089 19.6522 30.9597 19.4961C34.5462 17.2431 38.5784 15.6816 42.8197 14.9032C43.1183 14.8503 43.3957 14.7221 43.6219 14.5325C43.8481 14.343 44.0145 14.0993 44.1031 13.8278L46.0914 7.72061C48.1646 7.56346 50.2481 7.56346 52.3214 7.72061L54.3097 13.8278C54.398 14.0982 54.5635 14.341 54.7884 14.5302C55.0134 14.7194 55.2892 14.8478 55.5864 14.9017C59.8277 15.6801 63.8599 17.2415 67.4464 19.4945C67.6972 19.6507 67.9887 19.7404 68.2899 19.7541C68.591 19.7678 68.8905 19.705 69.1564 19.5723L75.2064 16.5701C76.0714 17.2611 76.8231 17.9055 77.5031 18.5405C78.1831 19.1755 78.8831 19.8883 79.6097 20.682L76.3931 26.3254C76.251 26.5737 76.1837 26.8534 76.1984 27.1346C76.2131 27.4158 76.3091 27.688 76.4764 27.9222C78.889 31.2714 80.5612 35.0367 81.3947 38.9973C81.4524 39.2748 81.5899 39.5324 81.7925 39.7424C81.9951 39.9525 82.2552 40.107 82.5447 40.1895L89.0847 42.0462C89.1697 43.008 89.2131 43.9854 89.2131 44.9551C89.2131 45.9247 89.1631 46.9036 89.0781 47.8639Z" fill="#202020" stroke="#202020" stroke-width="2" mask="url(#path-1-inside-1_8065_783)"/>
<path d="M41.7528 72.2764L41.7538 72.2775C41.9569 72.4873 42.0563 72.7564 42.0419 73.0246C42.0274 73.2927 41.8994 73.553 41.6729 73.7448C41.6726 73.745 41.6724 73.7452 41.6721 73.7454L35.5522 78.8691L35.0891 79.2568L35.5565 79.6394L41.6657 84.64C41.885 84.8317 42.0081 85.0885 42.0211 85.3526C42.0342 85.6183 41.9356 85.8845 41.7353 86.0928C41.5339 86.3023 41.2454 86.4356 40.9294 86.4538C40.6144 86.4719 40.3094 86.3734 40.0794 86.1877L33.9608 81.0651L33.9608 81.0651L33.9562 81.0614C33.6664 80.8244 33.4366 80.5345 33.2801 80.2123C33.1237 79.8903 33.0435 79.5425 33.0435 79.1918C33.0435 78.8411 33.1237 78.4932 33.2801 78.1712C33.4366 77.8491 33.6664 77.5591 33.9562 77.3222L33.9563 77.3222L33.9608 77.3184L40.0808 72.1949L40.081 72.1947C40.3101 72.0026 40.6181 71.8989 40.9376 71.915C41.257 71.931 41.5493 72.0648 41.7528 72.2764Z" fill="#202020" stroke="#202020"/>
<path d="M58.3261 72.1897L58.3261 72.1897L58.332 72.1947L64.452 77.3245L64.452 77.3245L64.4568 77.3284C64.7466 77.5653 64.9764 77.8553 65.1329 78.1775C65.2894 78.4995 65.3696 78.8473 65.3696 79.198C65.3696 79.5487 65.2894 79.8966 65.1329 80.2186C64.9764 80.5407 64.7467 80.8307 64.4568 81.0676L64.4568 81.0676L64.4523 81.0714L58.3323 86.1949L58.3322 86.1949L58.3261 86.2001C58.2137 86.2974 58.0797 86.3744 57.9315 86.425L58.093 86.8982L57.9315 86.425C57.7831 86.4756 57.6246 86.4985 57.4655 86.4916C57.3063 86.4848 57.1512 86.4485 57.0092 86.3856C56.8673 86.3228 56.7425 86.2353 56.641 86.1297C56.5395 86.0242 56.4634 85.9028 56.4152 85.7735C56.367 85.6444 56.3472 85.5086 56.3561 85.3737C56.365 85.2388 56.4026 85.1055 56.468 84.9816C56.5335 84.8576 56.626 84.7446 56.7419 84.6505L56.7419 84.6505L56.7475 84.6458L62.8692 79.5207L63.3323 79.1329L62.8649 78.7504L56.7432 73.7404L56.7432 73.7404L56.7419 73.7394C56.626 73.6452 56.5335 73.5322 56.468 73.4082C56.4026 73.2843 56.365 73.151 56.3561 73.0161C56.3472 72.8812 56.367 72.7454 56.4152 72.6163C56.4634 72.487 56.5395 72.3656 56.641 72.2601C56.7425 72.1545 56.8673 72.067 57.0092 72.0042C57.1512 71.9413 57.3063 71.905 57.4655 71.8982C57.6246 71.8913 57.7831 71.9142 57.9315 71.9648C58.0797 72.0154 58.2137 72.0924 58.3261 72.1897Z" fill="#202020" stroke="#202020"/>
<path d="M49.7394 72.722L49.7393 72.7221L46.4061 85.1726L49.7394 72.722ZM49.7394 72.722C49.8098 72.4588 49.9922 72.2219 50.2597 72.0718C50.528 71.9214 50.8536 71.8749 51.1626 71.9467C51.471 72.019 51.7261 72.2002 51.8795 72.439C52.0319 72.6763 52.0749 72.9551 52.0049 73.217L48.6717 85.6677L48.6716 85.668M49.7394 72.722L48.6716 85.668M48.6716 85.668C48.6124 85.8895 48.4738 86.0932 48.2695 86.2425C48.0649 86.3919 47.8082 86.4762 47.5401 86.4767C47.4419 86.4763 47.3444 86.465 47.2495 86.443C46.941 86.3709 46.6856 86.1897 46.532 85.9509C46.3794 85.7137 46.3362 85.435 46.406 85.173L48.6716 85.668Z" fill="#202020" stroke="#202020"/>
</g>
<defs>
<clipPath id="clip0_8065_783">
<rect width="100" height="107" fill="white"/>
</clipPath>
</defs>
</svg>
