<svg width="100" height="107" viewBox="0 0 100 107" fill="none" xmlns="http://www.w3.org/2000/svg">
<g clip-path="url(#clip0_8065_405)">
<path d="M57.0562 24.2723L57.7413 24.045V23.3232V18.5709C57.7413 16.2713 55.958 14.3186 53.6515 14.3186H41.2919H40.2919V15.3186C40.2919 18.4076 37.9251 20.8233 35.1121 20.8233C32.2991 20.8233 29.9323 18.4076 29.9323 15.3186V14.3186H28.9323H16.5728C14.2665 14.3186 12.4829 16.2712 12.4829 18.5709V90.1224C12.4829 92.4221 14.2665 94.3747 16.5728 94.3747H53.6515C55.958 94.3747 57.7413 92.4221 57.7413 90.1224V85.3699V84.6481L57.0562 84.4208C44.9562 80.4062 36.1121 68.4637 36.1121 54.3467C36.1121 40.2296 44.9562 28.287 57.0562 24.2723Z" stroke="#202020" stroke-width="2"/>
<path d="M59.8313 86.2144V90.1224C59.8313 93.7098 57.0598 96.6271 53.6515 96.6271H16.5729C13.1647 96.6271 10.3931 93.7098 10.3931 90.1224V18.571C10.3931 14.9836 13.1647 12.0663 16.5729 12.0663H53.6515C57.0598 12.0663 59.8313 14.9836 59.8313 18.571V22.479C60.8441 22.2616 61.8753 22.0981 62.9212 21.9883V18.571C62.9212 13.1906 58.7631 8.81396 53.6515 8.81396H16.5729C11.4613 8.81396 7.30322 13.1906 7.30322 18.571V90.1224C7.30322 95.5028 11.4613 99.8794 16.5729 99.8794H53.6515C58.7631 99.8794 62.9212 95.5028 62.9212 90.1224V86.7051C61.8753 86.5953 60.8441 86.4318 59.8313 86.2144Z" fill="#202020"/>
<path d="M65.4661 53.7621V53.1361L64.9031 52.8626L47.9087 44.6059L46.4717 43.9077V45.5054V64.6873V65.3132L47.0347 65.5868L64.0291 73.8437L65.4661 74.5418V72.9442V53.7621Z" stroke="#202020" stroke-width="2"/>
<path d="M65.5745 51.8291L66.0115 52.0414L66.4484 51.8291L82.8446 43.8632L84.6959 42.9638L82.8446 42.0643L66.4477 34.0976L66.0107 33.8853L65.5737 34.0976L49.1768 42.0641L47.3254 42.9636L49.1768 43.863L65.5745 51.8291Z" stroke="#202020" stroke-width="2"/>
<path d="M66.0111 23.5757C49.7527 23.5757 36.7021 37.4256 36.7021 54.3467C36.7021 71.2676 49.7527 85.1178 66.0111 85.1178C82.2696 85.1178 95.3201 71.2676 95.3201 54.3467C95.3201 37.4256 82.2696 23.5757 66.0111 23.5757ZM86.0861 65.858C86.086 65.8581 86.0859 65.8582 86.0858 65.8582L66.0153 75.6085C66.0138 75.6092 66.0124 75.6098 66.0111 75.6103C66.0099 75.6098 66.0084 75.6092 66.0069 75.6085L45.9365 65.8575C45.9329 65.8557 45.9205 65.8486 45.907 65.8263C45.8934 65.8039 45.8819 65.7709 45.8819 65.7291V42.9627C45.8819 42.921 45.8934 42.888 45.907 42.8655C45.9203 42.8437 45.9325 42.8364 45.9363 42.8345C45.9364 42.8344 45.9365 42.8344 45.9365 42.8344L66.0065 33.0836C66.0084 33.0827 66.01 33.0822 66.0111 33.0818C66.0123 33.0822 66.0139 33.0827 66.0158 33.0836L86.0858 42.8336C86.0858 42.8337 86.0859 42.8337 86.086 42.8337C86.0892 42.8354 86.1015 42.8426 86.115 42.8648C86.1289 42.8876 86.1404 42.921 86.1404 42.9627V65.7291C86.1404 65.7709 86.1289 65.8042 86.115 65.827C86.1018 65.8489 86.0897 65.8562 86.0861 65.858Z" stroke="#202020" stroke-width="3"/>
<path d="M67.1192 52.8635L66.5562 53.137V53.7629V72.9443V74.5419L67.9932 73.8437L84.9875 65.5868L85.5505 65.3133V64.6874V45.5068V43.9093L84.1136 44.6074L67.1192 52.8635Z" stroke="#202020" stroke-width="2"/>
</g>
<defs>
<clipPath id="clip0_8065_405">
<rect width="100" height="107" fill="white"/>
</clipPath>
</defs>
</svg>
