<svg width="100" height="107" viewBox="0 0 100 107" fill="none" xmlns="http://www.w3.org/2000/svg">
<g clip-path="url(#clip0_8065_380)">
<path fill-rule="evenodd" clip-rule="evenodd" d="M62.873 100.818H19.6763C15.4528 100.818 12.0186 97.4402 12.0186 93.288L12.0192 13.5405C12.0192 9.38835 15.4523 6.01056 19.6756 6.01056L62.8731 6.0105C67.0949 6.0105 70.5299 9.38847 70.5299 13.5405L70.5301 27.7712C70.5301 28.3707 70.0356 28.8568 69.4264 28.8568C68.8177 28.8567 68.3224 28.3709 68.3224 27.7715L68.3227 13.5405C68.3227 10.5855 65.8775 8.1816 62.8729 8.1816H19.6764C16.6713 8.1816 14.2261 10.5856 14.2261 13.5405L14.2268 93.2879C14.2268 96.2425 16.6713 98.647 19.6757 98.647L62.8731 98.6468C65.8782 98.6468 68.3225 96.2428 68.3225 93.288L68.3228 79.0572C68.3228 78.4577 68.8171 77.9718 69.4264 77.9718C70.0362 77.9717 70.53 78.4577 70.53 79.0573L70.5302 93.2879C70.5302 97.44 67.0941 100.818 62.873 100.818Z" fill="#202020"/>
<path fill-rule="evenodd" clip-rule="evenodd" d="M69.4263 17.5854H13.1229C12.5133 17.5854 12.0186 17.0998 12.0186 16.5003C12.0192 15.9007 12.5129 15.4148 13.1223 15.4148H69.4263C70.0361 15.4148 70.5299 15.9008 70.5299 16.5003C70.5301 17.0995 70.0356 17.5857 69.4263 17.5854Z" fill="#202020"/>
<path fill-rule="evenodd" clip-rule="evenodd" d="M69.4263 91.414H13.1229C12.5133 91.414 12.0186 90.9282 12.0186 90.3287C12.0192 89.7289 12.5129 89.2432 13.1223 89.2432L69.4263 89.2429C70.0361 89.2429 70.5299 89.7292 70.5299 90.3287C70.5301 90.9281 70.0356 91.4142 69.4263 91.414Z" fill="#202020"/>
<path fill-rule="evenodd" clip-rule="evenodd" d="M66.7605 77.9709H72.0913V73.4935C72.0913 72.9699 72.4706 72.5206 72.9956 72.4262C75.7267 71.9335 78.2748 70.8945 80.5684 69.338C81.0073 69.0403 81.5995 69.0936 81.9769 69.4642L85.1964 72.6314L88.9654 68.9246L85.7466 65.7575C85.3688 65.3869 85.315 64.8048 85.6177 64.3735C87.2012 62.1171 88.2564 59.6107 88.7584 56.9243C88.8541 56.4087 89.3102 56.0347 89.843 56.0347L94.3945 56.0344V50.792H89.8433C89.3104 50.792 88.8542 50.4179 88.7584 49.9025C88.2567 47.2165 87.2005 44.7101 85.6177 42.4531C85.3154 42.0216 85.3685 41.4396 85.7461 41.0692L88.9654 37.9021L85.1964 34.1948L81.9774 37.3624C81.5997 37.7329 81.0072 37.7859 80.5685 37.4887C78.2748 35.9325 75.7262 34.8938 72.9956 34.4007C72.4706 34.3059 72.0913 33.857 72.0913 33.333V28.8558H66.7605V33.3328C66.7605 33.8569 66.379 34.3061 65.8558 34.4007C63.1261 34.8933 60.5767 35.9326 58.2811 37.489C57.8444 37.7864 57.252 37.7333 56.8745 37.363L53.6537 34.1953L49.8846 37.9021L53.1062 41.0693C53.4829 41.4399 53.5366 42.0223 53.2337 42.4535C51.6514 44.7092 50.5951 47.2157 50.093 49.9027C49.9975 50.4179 49.5413 50.7922 49.0067 50.7922L44.4555 50.792V56.0344H49.0084C49.5414 56.0344 49.9973 56.409 50.093 56.9244C50.5951 59.6094 51.651 62.1155 53.2337 64.3735C53.5372 64.8046 53.4828 65.3868 53.1053 65.7571L49.8846 68.9246L53.6537 72.6314L56.8751 69.4639C57.252 69.0938 57.8442 69.0409 58.2811 69.3384C60.577 70.8946 63.1233 71.9339 65.8559 72.4269C66.3812 72.5213 66.7604 72.9706 66.7604 73.4945L66.7605 77.9709ZM73.195 80.1416H65.6568C65.0471 80.1416 64.5527 79.6561 64.5527 79.0566L64.553 74.3794C62.1524 73.8434 59.8867 72.92 57.7981 71.6254L54.4357 74.934C54.2288 75.138 53.9466 75.2523 53.6535 75.2523C53.3622 75.252 53.0805 75.1381 52.8734 74.9344L47.5451 69.6921C47.114 69.2681 47.1134 68.5812 47.5444 68.1572L50.9081 64.8475C49.5913 62.793 48.6521 60.566 48.1079 58.2057L43.3517 58.2054C42.743 58.2054 42.248 57.7197 42.248 57.1202V49.7069C42.248 49.1069 42.7425 48.6214 43.3517 48.6214L48.1083 48.6214C48.6523 46.2595 49.5909 44.032 50.9075 41.9786L47.5426 38.6697C47.3356 38.4661 47.2207 38.1902 47.2207 37.9022C47.2209 37.6139 47.3356 37.3381 47.5426 37.1346L52.8741 31.8924C53.3052 31.4684 54.0041 31.4687 54.4352 31.8925L57.8005 35.2019C59.8889 33.9069 62.1518 32.9839 64.5527 32.4478L64.5531 27.7703C64.5531 27.1707 65.0471 26.6851 65.6566 26.6851L73.195 26.6848C73.8047 26.6848 74.2986 27.1711 74.2986 27.7706L74.2988 32.4474C76.7003 32.9838 78.9646 33.9074 81.0513 35.2013L84.4169 31.8923C84.6239 31.6888 84.9049 31.5746 85.196 31.5746C85.4891 31.5746 85.771 31.6888 85.9779 31.8925L91.3074 37.1342C91.7387 37.5583 91.7381 38.2459 91.307 38.6698L87.9445 41.978C89.2604 44.0325 90.1975 46.2602 90.7436 48.6212L95.4982 48.6209C96.107 48.6209 96.6014 49.1073 96.6014 49.7067L96.6019 57.1199C96.6019 57.7195 96.107 58.2056 95.4977 58.2056L90.7436 58.2054C90.1977 60.5669 89.2585 62.7945 87.9421 64.8482L91.3074 68.1571C91.5145 68.3606 91.6307 68.6368 91.6307 68.9248C91.6308 69.2125 91.5138 69.4887 91.307 69.6924L85.9785 74.934C85.5473 75.358 84.8474 75.3582 84.4162 74.9344L81.0513 71.6249C78.963 72.9194 76.6977 73.8432 74.2986 74.3792L74.2988 79.0564C74.2988 79.6561 73.8042 80.1419 73.195 80.1416Z" fill="#202020"/>
<path fill-rule="evenodd" clip-rule="evenodd" d="M69.4255 40.4083C62.1349 40.4083 56.2016 46.2428 56.2016 53.4143C56.2023 60.5856 62.1343 66.4203 69.4255 66.4203C76.7172 66.4203 82.6492 60.5858 82.6492 53.4143C82.6497 46.2426 76.7166 40.4083 69.4255 40.4083ZM69.4255 68.5914C60.9157 68.5914 53.9941 61.783 53.9941 53.4144C53.9948 45.0456 60.9154 38.2375 69.4255 38.2375C77.9339 38.2373 84.8566 45.0458 84.8566 53.4144C84.8572 61.7827 77.9334 68.5914 69.4255 68.5914Z" fill="#202020"/>
<path fill-rule="evenodd" clip-rule="evenodd" d="M71.351 54.2076C70.957 54.2076 70.5767 53.9996 70.3775 53.6342L66.5298 46.5627C66.2428 46.0339 66.4454 45.3765 66.982 45.0935C67.5207 44.811 68.1891 45.0101 68.4766 45.5385L72.3245 52.6094C72.6126 53.1382 72.4088 53.7961 71.8701 54.0789C71.7063 54.166 71.5273 54.2077 71.351 54.2076Z" fill="#202020"/>
<path fill-rule="evenodd" clip-rule="evenodd" d="M64.7693 54.208C64.534 54.208 64.2937 54.1332 64.0906 53.9785L59.3679 50.3531C59.0997 50.1474 58.9438 49.8317 58.9438 49.4973C58.9445 49.1629 59.099 48.8471 59.3672 48.6416L64.0934 45.0162C64.5718 44.6473 65.2653 44.7315 65.6408 45.2042C66.0171 45.6769 65.9302 46.3591 65.4492 46.7279L61.8418 49.497L65.4497 52.2667C65.9308 52.6357 66.0165 53.3178 65.6408 53.7905C65.423 54.0647 65.0987 54.2082 64.7693 54.208Z" fill="#202020"/>
<path fill-rule="evenodd" clip-rule="evenodd" d="M74.0832 54.2079C73.7555 54.2079 73.4298 54.0648 73.2131 53.7905C72.8381 53.3174 72.9238 52.6357 73.4048 52.2669L77.0133 49.4969L73.4054 46.7276C72.9243 46.3591 72.8375 45.6769 73.2131 45.2042C73.5892 44.7312 74.2824 44.6475 74.7615 45.0163L79.4855 48.6412C79.7537 48.8469 79.9103 49.163 79.9103 49.4973C79.9106 49.8315 79.7531 50.1473 79.4849 50.3531L74.7618 53.9781C74.5609 54.1329 74.3207 54.2082 74.0832 54.2079Z" fill="#202020"/>
<path fill-rule="evenodd" clip-rule="evenodd" d="M76.0118 58.1254H62.8436C62.234 58.1254 61.7393 57.6397 61.7393 57.0402C61.7399 56.4407 62.2336 55.9547 62.843 55.9547L76.0118 55.9543C76.6214 55.9543 77.1149 56.4407 77.1149 57.0402C77.1155 57.6394 76.6212 58.1254 76.0118 58.1254Z" fill="#202020"/>
<path fill-rule="evenodd" clip-rule="evenodd" d="M76.0118 62.0426H62.8436C62.234 62.0426 61.7393 61.557 61.7393 60.9575C61.7399 60.358 62.2336 59.872 62.843 59.872L76.0118 59.8716C76.6214 59.8716 77.1149 60.358 77.1149 60.9575C77.1155 61.5567 76.6212 62.0426 76.0118 62.0426Z" fill="#202020"/>
<path fill-rule="evenodd" clip-rule="evenodd" d="M58.4419 28.1537H24.1072C23.4984 28.1537 23.0034 27.6677 23.0034 27.0682C23.0034 26.4686 23.4977 25.9829 24.1072 25.9829L58.4419 25.9827C59.0532 25.9827 59.5454 26.4688 59.5454 27.0682C59.5457 27.6674 59.053 28.1538 58.4419 28.1537Z" fill="#202020"/>
<path fill-rule="evenodd" clip-rule="evenodd" d="M42.9345 38.6916H24.1072C23.4984 38.6916 23.0034 38.2058 23.0034 37.6062C23.0034 37.0064 23.4977 36.5208 24.1072 36.5208L42.9345 36.5205C43.5433 36.5205 44.0377 37.0067 44.0377 37.6062C44.0383 38.2056 43.5433 38.6918 42.9345 38.6916Z" fill="#202020"/>
<path fill-rule="evenodd" clip-rule="evenodd" d="M36.4879 49.2294H24.1072C23.4984 49.2294 23.0034 48.7435 23.0034 48.144C23.0034 47.5443 23.4977 47.0585 24.1072 47.0585L36.4879 47.0583C37.0976 47.0583 37.5915 47.5444 37.5915 48.144C37.5916 48.7434 37.0971 49.2296 36.4879 49.2294Z" fill="#202020"/>
<path fill-rule="evenodd" clip-rule="evenodd" d="M37.6727 59.769H24.1072C23.4984 59.769 23.0034 59.2832 23.0034 58.6836C23.0034 58.0839 23.4977 57.5981 24.1072 57.5981L37.6727 57.5979C38.2815 57.5979 38.7758 58.0842 38.7758 58.6836C38.7764 59.283 38.2821 59.769 37.6727 59.769Z" fill="#202020"/>
<path fill-rule="evenodd" clip-rule="evenodd" d="M41.7504 70.3085H24.1072C23.4984 70.3085 23.0034 69.8225 23.0034 69.223C23.0034 68.6234 23.4977 68.1375 24.1072 68.1375H41.7504C42.3592 68.1375 42.8534 68.6235 42.8534 69.223C42.8534 69.8222 42.3589 70.3085 41.7504 70.3085Z" fill="#202020"/>
<path fill-rule="evenodd" clip-rule="evenodd" d="M58.4419 80.8463H24.1072C23.4984 80.8463 23.0034 80.3604 23.0034 79.761C23.0034 79.1612 23.4977 78.6754 24.1072 78.6754L58.4419 78.6753C59.0532 78.6753 59.5454 79.1614 59.5454 79.761C59.5457 80.3604 59.053 80.8465 58.4419 80.8463Z" fill="#202020"/>
</g>
<defs>
<clipPath id="clip0_8065_380">
<rect width="100" height="107" fill="white"/>
</clipPath>
</defs>
</svg>
