<svg width="100" height="107" viewBox="0 0 100 107" fill="none" xmlns="http://www.w3.org/2000/svg">
<path fill-rule="evenodd" clip-rule="evenodd" d="M81.7022 67.4773H52.1068C51.393 67.4809 50.8177 68.0621 50.8141 68.7833V89.0587C50.8141 89.7763 51.393 90.3612 52.1068 90.3612H69.4395C69.6881 90.3612 69.9295 90.4545 70.1142 90.6267L77.5396 96.2705L77.2662 91.4376L77.2698 91.434C77.2556 91.1649 77.3479 90.8994 77.5254 90.6984C77.703 90.4975 77.9516 90.3791 78.2215 90.3648H81.7051H81.7015C82.4153 90.3612 82.9906 89.7799 82.9942 89.0587V68.7833C82.9906 68.0658 82.416 67.4809 81.7022 67.4773ZM28.2613 66.8028C32.1676 66.8028 35.5269 69.5907 36.2904 73.462C37.0503 77.3334 35.0013 81.2084 31.3934 82.7152C27.7854 84.2257 23.6235 82.952 21.4498 79.669C19.28 76.3896 19.7061 72.0159 22.4689 69.2245C24.003 67.671 26.088 66.7992 28.2613 66.8028ZM32.6221 70.6706C30.5411 68.5644 27.2777 68.238 24.8309 69.892C22.3807 71.5425 21.4289 74.7142 22.5547 77.4626C23.6804 80.211 26.5746 81.7753 29.4617 81.1941C32.3487 80.6128 34.4297 78.0546 34.4297 75.0765C34.4332 73.4225 33.7833 71.8367 32.6221 70.6706ZM29.8096 62.0344L29.4261 59.7094H27.1001L26.7059 62.0631C26.6384 62.4829 26.3153 62.8166 25.9033 62.8955C24.2947 63.2113 22.7677 63.85 21.4111 64.7792C21.0418 65.0268 20.5553 65.0089 20.2109 64.7254L18.3252 63.38L16.6811 65.0412L18.0518 66.9895C18.2933 67.3339 18.3004 67.7968 18.066 68.1483C17.1463 69.5225 16.5106 71.069 16.2016 72.6943C16.12 73.1212 15.7755 73.4513 15.3494 73.5123L13.0518 73.907V76.25L15.3814 76.6482C15.7968 76.72 16.1271 77.0429 16.2052 77.4627C16.5142 79.088 17.1499 80.6344 18.0696 82.0051C18.3146 82.3782 18.2933 82.8662 18.0163 83.2142L16.6847 85.105L18.3289 86.7663L20.2571 85.3813V85.3849C20.6016 85.1374 21.0597 85.1302 21.4077 85.3706C22.7642 86.2963 24.2948 86.9385 25.9034 87.2507C26.3295 87.3332 26.6562 87.6812 26.7131 88.1118L27.1037 90.4332H29.4261L29.8203 88.0795H29.8239C29.8913 87.6597 30.2109 87.326 30.6264 87.2471C32.2351 86.9349 33.7656 86.2926 35.1221 85.367C35.4915 85.1158 35.978 85.1373 36.3224 85.4172L38.201 86.7626L39.8345 85.105L38.4673 83.1567C38.2223 82.8123 38.2152 82.3458 38.4531 81.9942C39.3729 80.6236 40.0049 79.0772 40.3175 77.4519C40.3992 77.0213 40.7401 76.6948 41.1698 76.6338L43.4673 76.2391L43.4638 73.8998L41.1378 73.5015C40.7223 73.4333 40.392 73.1068 40.3139 72.6906C40.0014 71.0653 39.3693 69.5225 38.4495 68.1519C38.2045 67.7787 38.2258 67.2908 38.5028 66.9427L39.8344 65.0447L38.1902 63.3835L36.262 64.7612C35.9211 65.0088 35.463 65.016 35.115 64.7756C33.7584 63.8499 32.2279 63.2113 30.6228 62.8955C30.1967 62.813 29.87 62.4649 29.8131 62.0344L29.8096 62.0344ZM31.3259 58.8913C31.2087 58.188 30.6086 57.675 29.9055 57.6714H26.6171C25.9104 57.6714 25.3103 58.1881 25.1931 58.8913L24.8345 61.0513C24.2698 61.1912 23.7158 61.367 23.1761 61.5751V54.3131H44.5825C46.461 54.3095 47.9845 52.7703 47.988 50.8687V29.7428C47.9844 27.8411 46.461 26.3019 44.5825 26.2983H23.1688V16.3958C23.1724 15.3158 24.0388 14.4439 25.1077 14.4403H70.225C71.2939 14.4439 72.1604 15.3158 72.1639 16.3958V20.6906C71.5957 21.3472 71.2477 22.1724 71.1767 23.0443C69.8414 25.4985 68.2613 27.8091 66.4644 29.9439C64.6426 32.1111 62.6078 34.0808 60.3884 35.8245L54.6959 39.1434L54.6391 39.1721V39.1757C51.7236 40.88 50.708 44.6366 52.3557 47.6039C52.3664 47.6254 52.377 47.6469 52.3877 47.6684L54.3372 51.0734C55.7009 53.445 58.4388 54.6398 61.0844 54.0119L66.3472 63.2219C66.3579 63.2398 66.365 63.2614 66.3756 63.2793V63.2757C67.0894 64.5244 68.6555 64.9729 69.9125 64.2911C69.9374 64.2804 69.9623 64.266 69.9836 64.2517C71.2442 63.5126 71.6739 61.8836 70.9459 60.6099L65.779 51.5719L68.4957 49.986C69.6995 49.4944 70.9211 49.0603 72.1604 48.6835V65.4391H52.1068C50.2779 65.4427 48.7971 66.9389 48.7936 68.7831V83.1781H40.9456L40.4981 82.543L40.5017 82.5395C41.2439 81.298 41.7943 79.949 42.1423 78.5424L44.2801 78.1765C44.9762 78.058 45.484 77.4481 45.4875 76.7377V73.4116C45.4839 72.7012 44.9761 72.0913 44.2801 71.9729L42.1423 71.6069C41.7943 70.1968 41.2439 68.8478 40.5017 67.6063L41.7588 65.8195L41.7552 65.8159C42.1707 65.2382 42.1032 64.4417 41.6025 63.9394L39.2765 61.5893C39.2446 61.557 39.2126 61.5283 39.1806 61.5031C38.6799 61.0762 37.9555 61.0475 37.4193 61.435L35.6473 62.7051C35.0294 62.3319 34.3902 62.0054 33.7261 61.7256C33.062 61.4493 32.3837 61.2233 31.6877 61.051L31.3259 58.8913ZM42.0259 85.216H48.7979V89.0587H48.7944C48.7979 90.9029 50.2788 92.3991 52.1076 92.4027H69.1103L72.1643 94.7241V95.2623H25.1079C24.039 95.2587 23.1726 94.3832 23.169 93.3032V88.5743C23.7124 88.7824 24.2663 88.9583 24.8309 89.0982L25.1932 91.2582C25.3103 91.9614 25.9105 92.4781 26.6172 92.4781H29.9055C30.6122 92.4781 31.2123 91.9614 31.3295 91.2582L31.6917 89.0982C32.3842 88.926 33.066 88.6999 33.7266 88.4201C34.3906 88.1438 35.0334 87.8173 35.6477 87.4406L37.4162 88.7107C37.9879 89.1269 38.7763 89.0587 39.2699 88.5564L41.5959 86.2063C41.8409 85.9623 41.9865 85.6394 42.015 85.2949C42.015 85.2698 42.015 85.2447 42.0185 85.216L42.0259 85.216ZM21.1523 87.6092C21.0564 87.5554 20.9605 87.498 20.8718 87.4442L19.0998 88.7143V88.7107C18.528 89.1269 17.7397 89.0623 17.2425 88.5564L14.9165 86.2063C14.4193 85.704 14.3554 84.911 14.7638 84.3334L16.0209 82.5466C15.648 81.9223 15.3249 81.2729 15.0514 80.6019C14.7744 79.9345 14.5507 79.2456 14.3803 78.546L12.2424 78.18C11.5464 78.058 11.0351 77.448 11.0351 76.7376V73.4116C11.0351 72.7012 11.5464 72.0912 12.2424 71.9728L14.3803 71.6068C14.5507 70.9072 14.7744 70.2183 15.0514 69.5509C15.3249 68.8764 15.648 68.227 16.0209 67.6062L14.7638 65.8194V65.8159C14.3519 65.2382 14.4158 64.4417 14.9165 63.9393L17.2425 61.5892C17.7397 61.0833 18.528 61.0187 19.0998 61.4349L20.8718 62.705C20.9676 62.6476 21.0564 62.5938 21.1523 62.54V54.3128H13.7376C11.859 54.3092 10.3356 52.77 10.332 50.8684V29.7425C10.3356 27.8408 11.859 26.3016 13.7376 26.298H21.1523V16.3955C21.1559 14.1889 22.9243 12.402 25.1083 12.3984H70.2256C72.4095 12.3984 74.1816 14.1888 74.1851 16.3955V19.8578C75.57 19.865 77.2391 20.7333 78.9685 22.2689V22.2725C81.543 24.6944 83.7235 27.5109 85.4387 30.6181C85.4564 30.6504 85.4742 30.6827 85.4884 30.715C87.2853 33.754 88.6027 37.0584 89.3911 40.51C90.0126 43.6567 89.6077 46.0606 88.0346 46.9792V46.9756C87.0225 47.4815 85.8364 47.4671 84.8386 46.9433C82.0651 46.8859 79.2916 47.1083 76.5644 47.6142C75.7654 47.7614 74.9735 47.9336 74.1816 48.1273V65.4359H81.7028H81.6993C83.5281 65.4395 85.0089 66.9356 85.0089 68.7798V89.0589C85.0089 90.9031 83.5281 92.3993 81.6993 92.4028H79.3413L79.6751 98.3409C79.7 98.7356 79.494 99.1087 79.1495 99.2953C78.8015 99.4819 78.3825 99.4496 78.07 99.2128L74.1851 96.2563V96.2814C74.1815 96.8447 73.7305 97.3004 73.173 97.304H25.1084C22.9245 97.3004 21.156 95.51 21.1524 93.3034L21.1523 87.6092ZM56.4505 86.1274C56.177 86.1346 55.9107 86.0305 55.7154 85.8403C55.5201 85.6466 55.41 85.3811 55.41 85.1084C55.41 84.8321 55.5201 84.5666 55.7154 84.3729C55.9107 84.1827 56.177 84.0787 56.4505 84.0858H77.3632C77.9101 84.1038 78.3433 84.5558 78.3433 85.1084C78.3433 85.6574 77.9101 86.1094 77.3632 86.1274L56.4505 86.1274ZM56.4505 73.7522V73.7486C56.177 73.7594 55.9107 73.6553 55.7154 73.4616C55.5201 73.2714 55.41 73.0059 55.41 72.7296C55.41 72.4533 55.5201 72.1914 55.7154 71.9977C55.9107 71.8075 56.177 71.7034 56.4505 71.7106H66.9087C67.452 71.7286 67.8852 72.1806 67.8852 72.7296C67.8852 73.2822 67.452 73.7343 66.9087 73.7486L56.4505 73.7522ZM56.4505 79.9414V79.9378C56.177 79.945 55.9107 79.8446 55.7154 79.6508C55.5201 79.4571 55.41 79.1951 55.41 78.9189C55.41 78.6426 55.5201 78.3771 55.7154 78.1869C55.9107 77.9932 56.177 77.8891 56.4505 77.8999H77.3632C77.9101 77.9142 78.3433 78.3663 78.3433 78.9189C78.3433 79.4678 77.9101 79.9199 77.3632 79.9379L56.4505 79.9414ZM35.1368 47.3588V47.9939L14.9341 47.9903C14.3766 47.9903 13.9256 48.446 13.9256 49.0093C13.9256 49.5726 14.3766 50.0283 14.9341 50.0283H35.1368V50.6634C35.1262 50.9397 35.2292 51.2052 35.4209 51.4061C35.6091 51.6034 35.8719 51.7147 36.1454 51.7147C36.4188 51.7147 36.678 51.6034 36.8698 51.4061C37.0616 51.2052 37.161 50.9397 37.1539 50.6634V50.0283H43.3826C43.9401 50.0283 44.3912 49.5727 44.3912 49.0093C44.3912 48.446 43.9402 47.9903 43.3826 47.9903H37.1539V47.3552C37.1361 46.8027 36.6887 46.365 36.1453 46.365C35.5985 46.365 35.151 46.8027 35.1368 47.3552L35.1368 47.3588ZM44.5796 28.3354L13.7378 28.3318C12.9743 28.3318 12.3528 28.9597 12.3493 29.7347V50.8679C12.3529 51.6429 12.9743 52.2708 13.7378 52.2708H44.5796C45.3431 52.2708 45.9645 51.6429 45.968 50.8679V29.742C45.9645 28.967 45.343 28.339 44.5796 28.3354ZM35.5348 40.4451L35.5917 40.4164V40.4093C35.9894 40.1832 36.3196 39.8495 36.5469 39.4512C36.9979 38.6619 37.0121 37.6895 36.586 36.8858C36.5753 36.8607 36.5611 36.8392 36.5469 36.8141C36.3197 36.4158 35.9894 36.0857 35.5917 35.856L25.3853 29.9072L25.332 29.8749H25.3356C24.114 29.1681 22.5586 29.5591 21.8129 30.7647C21.7987 30.7862 21.7845 30.8113 21.7702 30.8329C21.5394 31.2347 21.4187 31.6904 21.4222 32.1532V44.1224C21.4222 44.5853 21.543 45.041 21.7738 45.4392C22.1147 46.0492 22.6864 46.4941 23.3541 46.6735C24.0252 46.8565 24.739 46.7561 25.3356 46.4009L35.5383 40.4484L35.5348 40.4451ZM24.3276 44.6395L34.5303 38.687C34.5481 38.6762 34.5658 38.6655 34.5836 38.6583C34.6759 38.6045 34.7505 38.5291 34.8037 38.4394C34.8535 38.3461 34.8783 38.2421 34.8748 38.1381C34.8783 38.0412 34.857 37.9479 34.8215 37.8618L34.8037 37.8331V37.8367C34.7505 37.7434 34.6724 37.6716 34.58 37.6178L24.3809 31.6653C24.3632 31.6546 24.3419 31.6474 24.3241 31.6366C24.143 31.5254 23.9157 31.5254 23.7346 31.6366C23.6529 31.6797 23.5819 31.7443 23.5287 31.8196L23.5109 31.8519V31.8555C23.4612 31.9452 23.4363 32.0493 23.4399 32.1533V44.1225C23.4363 44.2266 23.4612 44.3306 23.5109 44.4203C23.5926 44.5602 23.7204 44.6607 23.8731 44.7002C24.0258 44.7397 24.1892 44.7181 24.3241 44.6356L24.3276 44.6395ZM78.8194 33.5989L79.5864 33.154L79.6184 33.1324H79.6148C79.7924 33.0463 79.9913 33.0248 80.1795 33.0786C80.3819 33.1324 80.5559 33.2652 80.6589 33.4482L80.6766 33.4805H80.6802C80.8648 33.8608 80.7299 34.32 80.3677 34.5353C80.3499 34.546 80.3322 34.5568 80.318 34.5676L79.6113 34.9802C79.3698 35.1094 79.1958 35.3318 79.1212 35.5973C79.0467 35.8593 79.0786 36.1427 79.2171 36.3795C79.3521 36.6163 79.5758 36.7921 79.8386 36.8567C80.1013 36.9249 80.3783 36.8818 80.6127 36.7383L81.3229 36.3257L81.3797 36.2934V36.297C82.6901 35.5291 83.1624 33.8464 82.4416 32.4973C82.4309 32.4722 82.4167 32.4507 82.4025 32.4256L82.4061 32.4292C81.6461 31.1016 79.9806 30.628 78.6454 31.3563C78.6206 31.3671 78.5993 31.3815 78.5744 31.3958L77.8074 31.8407L77.8109 31.8371C77.3315 32.1206 77.1646 32.7413 77.4451 33.2292C77.7221 33.7136 78.34 33.8787 78.8194 33.5989ZM81.8414 44.9545L81.813 44.9294C79.2455 42.5147 77.0686 39.7089 75.3605 36.6161C75.3286 36.5694 75.3002 36.5192 75.2788 36.469C73.4855 33.4335 72.1751 30.1362 71.3869 26.695L71.3797 26.6591C70.357 28.2665 69.2277 29.8022 68.0027 31.2589C66.2697 33.3148 64.3557 35.2057 62.2782 36.9063L68.4998 47.7953C72.7683 46.1413 77.2711 45.1797 81.838 44.9536L81.8414 44.9545ZM87.4167 40.9073C86.6745 37.671 85.4387 34.571 83.7519 31.7222L83.7342 31.6899L83.7164 31.6612C82.1113 28.7405 80.0623 26.0891 77.644 23.8035C75.9288 22.2823 74.4977 21.5575 73.7555 21.988C73.0169 22.4185 72.9245 24.0331 73.372 26.2971V26.3007C74.1177 29.537 75.3571 32.637 77.0439 35.4895L77.0759 35.5398V35.5434C78.6809 38.4676 80.7264 41.119 83.1448 43.4046C84.8599 44.9258 86.2946 45.6507 87.0332 45.2201C87.7754 44.7896 87.8677 43.175 87.4203 40.911L87.4167 40.9073ZM57.8112 45.6004C58.2942 45.3205 58.9085 45.4892 59.1855 45.9736C59.4625 46.4615 59.2956 47.0822 58.8126 47.3585L55.6095 49.235L56.0463 49.9957C56.0712 50.0316 56.0925 50.071 56.1138 50.1141C57.2679 52.0444 59.7253 52.7082 61.6784 51.6138C61.7139 51.5887 61.753 51.5672 61.7956 51.5457L66.6891 48.6896L60.6024 38.0403L55.6983 40.9L55.6486 40.9322V40.9358C53.6955 42.084 53.0066 44.5992 54.1039 46.5977L54.1323 46.6443L54.6046 47.4696L57.8112 45.5966L57.8112 45.6004ZM62.9532 53.2213L68.0881 62.2055C68.0988 62.2234 68.1094 62.2378 68.1201 62.2593C68.2053 62.4028 68.3438 62.5069 68.5036 62.5499C68.6527 62.5894 68.809 62.5751 68.9475 62.5105L68.9759 62.4925V62.4889C69.2742 62.3131 69.3772 61.9292 69.2067 61.6278L64.0398 52.5861L62.9532 53.2213ZM42.1078 21.0483H53.2259C53.7835 21.0483 54.238 20.5927 54.238 20.0293C54.238 19.466 53.7835 19.0103 53.2259 19.0103H42.1078C41.5502 19.0103 41.0992 19.466 41.0992 20.0293C41.0992 20.5926 41.5502 21.0483 42.1078 21.0483Z" fill="#202020"/>
</svg>
