<svg width="148" height="148" viewBox="0 0 148 148" fill="none" xmlns="http://www.w3.org/2000/svg">
<path d="M54.862 69.041C52.6894 69.041 50.2641 69.8641 49.7558 72.5733C49.7017 72.8611 49.8955 72.9984 50.0826 73.0404L52.3094 73.3029C52.5155 73.2927 52.6552 73.0722 52.6951 72.8648C52.8851 71.9324 53.665 71.4924 54.5362 71.4924C55.0064 71.4924 55.5346 71.6512 55.8129 72.0763C56.1321 72.55 56.1093 73.1936 56.1093 73.7402V74.0615C54.786 74.211 53.0437 74.3016 51.805 74.85C50.3752 75.475 49.3711 76.7465 49.3711 78.6159C49.3711 81.0112 50.8635 82.207 52.7853 82.207C54.4079 82.207 55.3047 81.8324 56.5558 80.5432C56.971 81.1504 57.104 81.426 57.8621 82.0613C57.9459 82.1083 58.0427 82.128 58.1386 82.1176C58.2345 82.1072 58.3246 82.0672 58.3959 82.0034V82.0323C58.8519 81.6232 59.6813 80.8795 60.1477 80.4853C60.3339 80.3321 60.2931 80.0798 60.1477 79.8724C59.7307 79.2913 59.287 78.8223 59.287 77.7415V74.1503C59.287 72.6294 59.4181 71.2271 58.3076 70.1798C57.4308 69.3325 55.9716 69.041 54.862 69.041ZM84.7865 69.041C82.613 69.041 80.1895 69.8641 79.6804 72.5733C79.6262 72.8611 79.819 72.9984 80.0071 73.0404L82.2339 73.3029C82.4401 73.2927 82.5807 73.0722 82.6196 72.8648C82.8105 71.9324 83.5895 71.4924 84.4607 71.4924C84.9319 71.4924 85.4591 71.6512 85.7375 72.0763C86.0557 72.55 86.0044 73.1936 86.0044 73.7402V74.0615C84.6811 74.211 82.9692 74.3016 81.7295 74.85C80.2988 75.475 79.2956 76.7465 79.2956 78.6159C79.2956 81.0112 80.789 82.207 82.7099 82.207C84.3305 82.207 85.2273 81.8324 86.4803 80.5432C86.8945 81.1504 87.0285 81.426 87.7866 82.0613C87.9576 82.151 88.1694 82.1416 88.3205 82.0034V82.0323C88.7765 81.6232 89.6058 80.8795 90.0722 80.4853C90.2575 80.3321 90.2147 80.0798 90.0722 79.8724C89.6552 79.2913 89.2115 78.8223 89.2115 77.7415V74.1503C89.2115 72.6294 89.3113 71.2271 88.2027 70.1798C87.3249 69.3325 85.8961 69.041 84.7865 69.041ZM67.9537 69.1578C66.5497 69.1578 65.5085 69.8547 64.9556 71.3476H64.9261V69.8005C64.9186 69.6945 64.8724 69.5946 64.7959 69.5194C64.7194 69.4442 64.6179 69.3988 64.51 69.3913H62.3726C62.255 69.393 62.1426 69.4397 62.0594 69.5215C61.9762 69.6034 61.9288 69.7138 61.927 69.8295V81.6531C61.9372 81.7582 61.9843 81.8566 62.0602 81.9313C62.1362 82.006 62.2362 82.0523 62.3431 82.0622H64.6288C64.7466 82.061 64.8592 82.0145 64.9425 81.9326C65.0258 81.8507 65.0731 81.7399 65.0743 81.6241V75.347C65.0743 73.9784 65.0069 72.1062 66.6475 72.1062C68.2672 72.1062 68.043 74.0298 68.043 75.347V81.6241C68.043 81.8474 68.2283 82.0473 68.4591 82.0622H70.7448C70.8626 82.061 70.9752 82.0145 71.0585 81.9326C71.1418 81.8507 71.1891 81.7399 71.1903 81.6241V75.347C71.1903 74.6753 71.1628 73.6972 71.3984 73.0993C71.633 72.5014 72.2097 72.1071 72.7645 72.1071C73.4257 72.1071 73.9301 72.3342 74.1001 73.1292C74.2065 73.6019 74.159 74.851 74.159 75.348V81.625C74.159 81.8483 74.3443 82.0482 74.5751 82.0632H76.8608C76.9786 82.062 77.0912 82.0154 77.1745 81.9335C77.2578 81.8516 77.3051 81.7409 77.3063 81.625V74.1512C77.3063 72.8816 77.4365 71.4401 76.7126 70.4433C76.0733 69.5483 75.0283 69.1587 74.0707 69.1587C72.7274 69.1587 71.4782 69.8557 70.9243 71.3486C70.2841 69.8557 69.3816 69.1578 67.9537 69.1578ZM106.815 69.1578C103.512 69.1578 101.679 72.0137 101.679 75.6974C101.679 79.3558 103.492 82.2949 106.815 82.2949C110.011 82.2949 112.04 79.4231 112.04 75.8132C112.04 72.0829 110.202 69.1578 106.815 69.1578ZM119.847 69.1578C118.269 69.1578 117.367 69.9341 116.73 71.5513H116.7V69.7408C116.659 69.5576 116.484 69.4306 116.284 69.4194H114.176C114.067 69.417 113.961 69.4545 113.879 69.5246C113.797 69.5947 113.744 69.6924 113.731 69.7987V81.6222C113.733 81.7329 113.776 81.8388 113.853 81.9197C113.93 82.0006 114.035 82.0507 114.147 82.0604H116.403C116.521 82.0587 116.633 82.012 116.716 81.9302C116.799 81.8484 116.847 81.7379 116.848 81.6222V75.2583C116.848 74.4605 116.917 73.7327 117.234 73.0105C117.491 72.4379 117.986 72.0763 118.54 72.0763C120.116 72.0763 119.965 73.9644 119.965 75.2583V81.6811C119.98 81.7816 120.029 81.8742 120.105 81.9433C120.181 82.0123 120.278 82.0537 120.381 82.0604H122.667C122.891 82.0604 123.086 81.8922 123.113 81.6811V74.2362C123.113 73.0918 123.116 71.5018 122.519 70.5573C121.88 69.538 120.868 69.1578 119.847 69.1578ZM92.4158 69.3624C92.1841 69.3624 92.0007 69.5436 91.9998 69.8005V71.4934C92.0007 71.7465 92.1784 71.9296 92.4158 71.9315H96.3345L91.8516 78.4421C91.578 78.8616 91.5552 79.3371 91.5552 79.6099V81.3326C91.5552 81.5811 91.8297 81.8511 92.0891 81.7119C94.6436 80.3405 97.7054 80.4619 100.016 81.6829C100.296 81.8334 100.58 81.5512 100.58 81.3037V79.4931C100.574 79.3596 100.532 79.2301 100.459 79.1174C100.386 79.0047 100.284 78.9126 100.164 78.8504C98.8529 78.1086 97.3311 77.8816 95.889 77.9162L99.7782 72.3108C100.138 71.8073 100.34 71.5036 100.343 71.2598V69.8005C100.343 69.5492 100.168 69.3624 99.9264 69.3624H92.4158ZM106.815 71.5812C107.539 71.5812 108.073 71.8988 108.329 72.72C108.625 73.6664 108.656 74.8482 108.656 75.844C108.656 77.3612 108.584 79.8724 106.815 79.8724C105.026 79.8724 105.034 76.7633 105.034 75.3181C105.034 73.8766 105.131 71.5812 106.815 71.5812ZM56.0789 75.902V76.398C56.0789 77.2958 56.1122 78.0516 55.6628 78.8504C55.2999 79.4997 54.73 79.9014 54.0897 79.9014C53.2157 79.9014 52.6941 79.2044 52.6941 78.2086C52.6951 76.2448 54.4298 75.902 56.0789 75.902ZM86.0035 75.902V76.398C86.0035 77.2958 86.0367 78.0516 85.5874 78.8504C85.2245 79.4997 84.6573 79.9014 84.0142 79.9014C83.1392 79.9014 82.6187 79.2044 82.6187 78.2086C82.6196 76.2448 84.3524 75.902 86.0035 75.902Z" fill="#202020"/>
<path d="M100.818 82.4414V84.1342H101.976V82.4414H100.818ZM67.2414 82.7329V94.79H68.3102V93.71C68.5382 94.1379 68.7975 94.4583 69.1119 94.6732C69.4254 94.8881 69.7855 94.9946 70.1807 94.9946C70.9654 94.9946 71.6427 94.6003 72.2288 93.7978C72.815 92.9953 73.1199 91.8322 73.1199 90.3524C73.1199 89.3836 72.9936 88.5811 72.7342 87.9001C72.4749 87.2209 72.1281 86.7155 71.6949 86.382C71.2618 86.0484 70.7697 85.8569 70.2405 85.8569C69.8727 85.8531 69.5117 85.9544 69.2012 86.1484C68.8925 86.3427 68.6426 86.6594 68.3995 87.0537V82.7329H67.2414ZM78.2261 85.5655C77.4205 85.5655 76.7812 85.7999 76.3261 86.2661C75.8711 86.7314 75.6431 87.3321 75.6431 88.0767C75.6431 88.5092 75.7419 88.8745 75.91 89.2155C76.0782 89.5565 76.3204 89.8302 76.6225 90.0329C76.9265 90.2356 77.5326 90.5019 78.4332 90.7915C79.0564 90.9886 79.4288 91.1568 79.5912 91.2876C79.8268 91.4791 79.9475 91.7304 79.9475 92.0761C79.9475 92.4759 79.8069 92.8094 79.5314 93.0682C79.2568 93.3289 78.8749 93.4475 78.3733 93.4475C77.8717 93.4475 77.4585 93.3092 77.1564 93.0094C76.8543 92.7095 76.6909 92.2536 76.6225 91.637L75.4645 91.8705C75.7257 93.7437 76.6757 94.6741 78.3144 94.6732C79.1884 94.6732 79.8572 94.4294 80.3626 93.9146C80.868 93.3999 81.134 92.7048 81.134 91.8705C81.134 91.4202 81.0532 91.0297 80.8965 90.7028C80.7398 90.3758 80.5241 90.1338 80.2429 89.9442C79.9608 89.7555 79.3319 89.5032 78.3724 89.1856C77.6751 88.9455 77.2666 88.7698 77.126 88.6605C76.8895 88.4756 76.7698 88.2233 76.7698 87.902C76.7698 87.5731 76.88 87.2947 77.126 87.0845C77.3721 86.8743 77.7511 86.7631 78.2546 86.7631C79.14 86.7631 79.6349 87.2415 79.7385 88.1934L80.867 88.0178C80.7891 87.4152 80.6552 86.9397 80.451 86.6165C80.2467 86.2932 79.9446 86.0204 79.5599 85.828C79.1761 85.6365 78.7343 85.5655 78.2261 85.5655ZM85.3215 85.5655C84.3934 85.5655 83.6106 85.941 83.0055 86.7332C82.4003 87.5255 82.1144 88.6727 82.1144 90.1787C82.1144 91.6295 82.406 92.7665 83.0055 93.5363C83.6049 94.3051 84.382 94.6751 85.351 94.6751C86.1214 94.6751 86.7598 94.4481 87.2804 93.9744C87.8019 93.5008 88.18 92.8038 88.3786 91.8724L87.1911 91.6678C86.85 92.8608 86.2212 93.4466 85.35 93.4484C84.7952 93.4484 84.3421 93.2168 83.9545 92.7188C83.5669 92.2199 83.3475 91.48 83.3009 90.5H88.4071V90.0908C88.4071 88.6176 88.1088 87.5114 87.516 86.7332C86.9251 85.955 86.206 85.5655 85.3215 85.5655ZM92.3571 85.5655C92.0797 85.5655 91.8375 85.6579 91.6152 85.8569C91.3929 86.0559 91.1402 86.4688 90.8732 87.0826V85.7392H89.8339V94.4686H90.992V89.9152C90.992 89.2799 91.0528 88.669 91.2 88.1047C91.2836 87.7814 91.4413 87.5264 91.6456 87.3461C91.8498 87.1658 92.0826 87.0836 92.3286 87.0836C92.6013 87.0836 92.872 87.191 93.1598 87.4049L93.5455 86.0326C93.1408 85.7149 92.7447 85.5655 92.3571 85.5655ZM106.547 85.5655C105.63 85.5655 104.875 85.9448 104.291 86.7043C103.708 87.4629 103.4 88.6026 103.4 90.1198C103.4 91.6248 103.711 92.7655 104.291 93.5353C104.869 94.3042 105.593 94.6742 106.487 94.6742C107.225 94.6742 107.86 94.4042 108.387 93.8567C108.914 93.3092 109.235 92.5039 109.367 91.4632L108.238 91.2876C108.154 92.0322 107.957 92.5675 107.644 92.9225C107.332 93.2756 106.956 93.4475 106.516 93.4475C105.955 93.4475 105.478 93.1906 105.12 92.659C104.762 92.1275 104.586 91.2773 104.586 90.0899C104.586 88.9389 104.775 88.1084 105.151 87.5787C105.526 87.049 106.004 86.7613 106.576 86.7613C106.957 86.7613 107.283 86.907 107.555 87.1994C107.829 87.4909 108.01 87.9543 108.119 88.5428L109.248 88.3093C109.112 87.39 108.812 86.6959 108.327 86.2362C107.843 85.7757 107.255 85.5655 106.547 85.5655ZM113.167 85.5655C112.239 85.5655 111.457 85.941 110.851 86.7332C110.246 87.5255 109.96 88.6727 109.96 90.1787C109.96 91.6295 110.252 92.7665 110.851 93.5363C111.452 94.3051 112.228 94.6751 113.197 94.6751C113.965 94.6751 114.605 94.4481 115.126 93.9744C115.647 93.5008 116.025 92.8038 116.225 91.8724L115.037 91.6678C114.696 92.8608 114.095 93.4466 113.226 93.4484C112.672 93.4484 112.189 93.2168 111.801 92.7188C111.414 92.2199 111.195 91.48 111.148 90.5H116.254V90.0908C116.254 88.6176 115.956 87.5114 115.363 86.7332C114.774 85.955 114.053 85.5655 113.167 85.5655ZM120.025 85.5655C119.218 85.5655 118.58 85.7999 118.125 86.2661C117.669 86.7314 117.442 87.3321 117.442 88.0767C117.442 88.5092 117.512 88.8745 117.68 89.2155C117.847 89.5555 118.088 89.8302 118.392 90.0329C118.694 90.2356 119.303 90.5019 120.203 90.7915C120.824 90.9886 121.228 91.1568 121.391 91.2876C121.626 91.4791 121.747 91.7304 121.747 92.0761C121.747 92.4759 121.606 92.8094 121.331 93.0682C121.057 93.3289 120.674 93.4475 120.173 93.4475C119.67 93.4475 119.258 93.3092 118.956 93.0094C118.654 92.7095 118.459 92.2536 118.391 91.637L117.233 91.8705C117.495 93.7437 118.443 94.6741 120.083 94.6732C120.958 94.6732 121.656 94.4294 122.162 93.9146C122.668 93.3999 122.933 92.7048 122.933 91.8705C122.933 91.4202 122.853 91.0297 122.696 90.7028C122.539 90.3758 122.295 90.1338 122.013 89.9442C121.732 89.7555 121.131 89.5032 120.172 89.1856C119.474 88.9455 119.036 88.7698 118.895 88.6605C118.658 88.4756 118.539 88.2233 118.539 87.902C118.539 87.5731 118.678 87.2947 118.924 87.0845C119.17 86.8743 119.551 86.7631 120.053 86.7631C120.938 86.7631 121.433 87.2415 121.537 88.1934L122.665 88.0178C122.587 87.4152 122.455 86.9397 122.249 86.6165C122.031 86.2783 121.723 86.0055 121.358 85.828C120.977 85.6365 120.533 85.5655 120.025 85.5655ZM93.5446 85.7402L96.1276 94.4696H97.2258L99.8088 85.7402H98.6213L97.107 91.083C96.9237 91.7285 96.7622 92.2863 96.6615 92.7468C96.5351 92.1667 96.4145 91.5576 96.2454 90.9662L94.7615 85.7402H93.5446ZM100.818 85.7402V94.4696H101.976V85.7402H100.818ZM62.7594 85.8569C61.8408 85.8569 61.1017 86.2624 60.5032 87.0537C59.9037 87.8459 59.5826 88.9931 59.5826 90.4991C59.5826 91.9499 59.879 93.0579 60.4737 93.8268C61.0684 94.5957 61.8598 94.9946 62.8192 94.9946C63.5811 94.9946 64.2034 94.7386 64.7192 94.265C65.2341 93.7913 65.5903 93.0944 65.7879 92.163L64.6299 91.9873C64.2927 93.1803 63.6799 93.7661 62.8192 93.768C62.2692 93.768 61.8075 93.5363 61.4237 93.0383C61.0399 92.5394 60.8167 91.7995 60.7701 90.8195H65.8164L65.8459 90.4103C65.8459 88.9371 65.5419 87.802 64.9548 87.0238C64.3677 86.2456 63.6343 85.8569 62.7594 85.8569ZM49.7266 86.0615L51.8051 94.7909H53.0221L54.3881 88.0757L54.6256 89.5649L55.7238 94.7909H56.9113L59.0193 86.0615H57.9211L56.7631 91.1119L56.3774 92.8048L56.0212 91.1119L55.0123 86.0615H53.8248L52.7561 91.1708L52.3998 92.9813L51.9837 91.1129L50.915 86.0625L49.7266 86.0615ZM122.013 90.0879C122.053 89.9655 121.932 90.3214 122.013 90.0879ZM85.2911 86.7622C85.8678 86.7622 86.3428 87.0369 86.7161 87.5796C86.9726 87.9515 87.1388 88.5176 87.1911 89.2725H83.3617C83.3978 88.5064 83.6182 87.915 83.9849 87.4619C84.3516 87.0088 84.7734 86.7622 85.2911 86.7622ZM113.138 86.7622C113.713 86.7622 114.19 87.0369 114.563 87.5796C114.819 87.9515 114.986 88.5176 115.038 89.2725H111.209C111.245 88.5064 111.465 87.915 111.832 87.4619C112.198 87.0107 112.619 86.7622 113.138 86.7622ZM62.7594 87.0836C63.3294 87.0836 63.7873 87.3582 64.1549 87.901C64.4086 88.2728 64.5777 88.839 64.6299 89.5938H60.8594C60.8955 88.8278 61.0884 88.2074 61.4532 87.7543C61.8151 87.3022 62.2455 87.0836 62.7594 87.0836ZM70.1218 87.0836C70.6367 87.0836 71.0746 87.3648 71.428 87.901C71.7814 88.4382 71.9324 89.2659 71.9324 90.4122C71.9324 91.5286 71.7652 92.361 71.3986 92.9234C71.0319 93.4858 70.5949 93.7698 70.1218 93.7698C69.7741 93.7698 69.4577 93.6549 69.1718 93.4195C68.8849 93.1841 68.6749 92.8468 68.5182 92.3974C68.3615 91.9481 68.2807 91.2568 68.2807 90.3534C68.2807 89.2893 68.4736 88.4924 68.845 87.93C69.2164 87.3676 69.6487 87.0836 70.1218 87.0836Z" fill="#202020"/>
<path d="M33.0864 77.8305L28.6632 79.699L32.7596 81.4217L37.5095 79.699L33.0864 77.8305ZM26.4365 80.1661L26.2883 88.5741L32.7596 91.3768V82.6474L26.4365 80.1661ZM39.7363 80.1661L33.8882 82.3559V90.5883L39.7363 88.2528V80.1661ZM46.7129 54.0078L42.2594 55.8763L46.3861 57.599L51.1361 55.8763L46.7129 54.0078ZM40.538 56.49V64.8981L46.0594 66.475L46.2379 58.8256L40.538 56.49ZM52.8878 56.9572L47.6629 59.147V67.4093L52.8878 65.0737V56.9572ZM25.7981 65.8416L21.375 67.7101L25.4713 69.4328L30.2212 67.7101L25.7981 65.8416ZM19.1482 68.1772L19 76.5852L25.4713 79.3879V70.6585L19.1482 68.1772ZM32.448 68.1772L26.5999 70.367V78.5994L32.448 76.2639V68.1772ZM40.0479 65.5315L35.6247 67.3999L39.7211 69.1226L44.471 67.3999L40.0479 65.5315ZM33.398 67.867L33.2498 76.2751L39.7211 79.0777V70.3493L33.398 67.867ZM46.6977 67.867L40.8496 70.0569V78.2893L46.6977 75.9537V67.867ZM60.6312 54.0078L56.208 55.8763L60.3044 57.599L65.0543 55.8763L60.6312 54.0078ZM53.9813 56.3434L53.8331 64.7514L60.3044 67.5541V58.8256L53.9813 56.3434ZM67.2811 56.3434L61.4329 58.5332V66.7656L67.2811 64.43V56.3434Z" fill="#202020"/>
</svg>
