<svg width="148" height="148" viewBox="0 0 148 148" fill="none" xmlns="http://www.w3.org/2000/svg">
<circle cx="74" cy="74" r="74" fill="white"/>
<g clip-path="url(#clip0_8271_938)">
<path d="M45.6484 97.9344L55.2491 36.5008C55.3066 36.1337 55.478 35.7939 55.7391 35.5294C56.0002 35.265 56.3377 35.0892 56.7041 35.027C57.0705 34.9648 57.4472 35.0192 57.7809 35.1826C58.1147 35.3461 58.3886 35.6102 58.5641 35.9378L68.4933 54.4567L72.4506 46.9212C72.601 46.6353 72.8267 46.396 73.1033 46.2291C73.3798 46.0621 73.6967 45.9739 74.0197 45.9739C74.3427 45.9739 74.6596 46.0621 74.9362 46.2291C75.2127 46.396 75.4384 46.6353 75.5889 46.9212L102.383 97.9344H45.6484Z" fill="#FFA000"/>
<path d="M78.8161 74.0033L68.4884 54.4473L45.6484 97.9341L78.8161 74.0033Z" fill="#F57C00"/>
<path d="M102.383 97.9331L95.0298 52.4298C94.9754 52.1091 94.8339 51.8094 94.6206 51.5637C94.4074 51.318 94.1307 51.1357 93.8208 51.0368C93.5109 50.9381 93.18 50.9265 92.864 51.0032C92.548 51.0799 92.2592 51.2421 92.0292 51.4719L45.6484 97.9325L71.3123 112.325C72.1048 112.767 72.9975 112.999 73.9052 112.999C74.8129 112.999 75.7055 112.767 76.498 112.325L102.383 97.9331Z" fill="#FFCA28"/>
<path d="M95.0296 52.4312C94.9752 52.1105 94.8337 51.8108 94.6205 51.5651C94.4072 51.3194 94.1305 51.1371 93.8206 51.0382C93.5108 50.9394 93.1799 50.9277 92.8639 51.0043C92.5479 51.081 92.2591 51.243 92.029 51.4727L82.8232 60.7029L75.5844 46.9213C75.434 46.6354 75.2083 46.3961 74.9317 46.2292C74.6552 46.0622 74.3383 45.974 74.0153 45.974C73.6923 45.974 73.3754 46.0622 73.0988 46.2292C72.8223 46.3961 72.5966 46.6354 72.4461 46.9213L68.4889 54.4562L58.5597 35.9379C58.384 35.6099 58.1095 35.3454 57.7752 35.182C57.4409 35.0186 57.0636 34.9646 56.6968 35.0275C56.3303 35.0904 55.9929 35.2669 55.7322 35.5321C55.4715 35.7972 55.3007 36.1377 55.2441 36.5052L45.6483 97.9345H45.6172L45.6477 97.9698L45.9005 98.0941L92.0156 51.9254C92.2456 51.6944 92.5348 51.5313 92.8514 51.454C93.1681 51.3766 93.4999 51.388 93.8105 51.4869C94.1211 51.5859 94.3984 51.7685 94.6119 52.0147C94.8255 52.261 94.967 52.5613 95.021 52.8828L102.312 97.9783L102.383 97.9339L95.0296 52.4312ZM45.7324 97.8504L55.2484 36.9397C55.3049 36.572 55.4757 36.2313 55.7365 35.966C55.9973 35.7007 56.335 35.5241 56.7017 35.4613C57.0685 35.3985 57.4459 35.4527 57.7802 35.6162C58.1145 35.7797 58.3889 36.0442 58.5646 36.3724L68.4925 54.8913L72.4504 47.3557C72.6009 47.0699 72.8266 46.8306 73.1031 46.6637C73.3796 46.4967 73.6965 46.4085 74.0195 46.4085C74.3426 46.4085 74.6595 46.4967 74.936 46.6637C75.2125 46.8306 75.4382 47.0699 75.5887 47.3557L82.6806 60.8443L45.7311 97.8504H45.7324Z" fill="white" fill-opacity="0.2"/>
<path opacity="0.2" d="M76.4993 111.89C75.7067 112.333 74.8141 112.565 73.9064 112.565C72.9987 112.565 72.1061 112.333 71.3135 111.89L45.7106 97.5394L45.6484 97.9337L71.3123 112.321C72.1049 112.763 72.9975 112.996 73.9052 112.996C74.8129 112.996 75.7055 112.763 76.498 112.321L102.384 97.9337L102.317 97.5254L76.498 111.891L76.4993 111.89Z" fill="#A52714"/>
</g>
<defs>
<clipPath id="clip0_8271_938">
<rect width="78" height="78" fill="white" transform="translate(35 35)"/>
</clipPath>
</defs>
</svg>
