<svg width="148" height="148" viewBox="0 0 148 148" fill="none" xmlns="http://www.w3.org/2000/svg">
<rect width="148" height="148" rx="74" fill="#202020"/>
<path d="M73.9987 12.334C65.9005 12.334 57.8816 13.929 50.3999 17.0281C42.9181 20.1271 36.1201 24.6695 30.3938 30.3957C18.829 41.9605 12.332 57.6456 12.332 74.0006C12.332 101.257 30.0304 124.382 54.512 132.584C57.5954 133.077 58.582 131.166 58.582 129.501V119.079C41.5004 122.779 37.862 110.816 37.862 110.816C35.0254 103.662 31.017 101.751 31.017 101.751C25.4054 97.9273 31.4487 98.0506 31.4487 98.0506C37.6154 98.4823 40.8837 104.402 40.8837 104.402C46.2487 113.776 55.3137 111.001 58.8287 109.521C59.3837 105.512 60.987 102.799 62.7137 101.257C49.0237 99.7156 34.6554 94.4123 34.6554 70.9173C34.6554 64.0723 36.9987 58.584 41.007 54.2056C40.3904 52.664 38.232 46.2507 41.6237 37.9257C41.6237 37.9257 46.8037 36.2607 58.582 44.2157C63.4537 42.859 68.757 42.1807 73.9987 42.1807C79.2404 42.1807 84.5437 42.859 89.4154 44.2157C101.194 36.2607 106.374 37.9257 106.374 37.9257C109.765 46.2507 107.607 52.664 106.99 54.2056C110.999 58.584 113.342 64.0723 113.342 70.9173C113.342 94.474 98.912 99.654 85.1604 101.196C87.3804 103.107 89.4154 106.869 89.4154 112.604V129.501C89.4154 131.166 90.402 133.139 93.547 132.584C118.029 124.321 135.665 101.257 135.665 74.0006C135.665 65.9025 134.07 57.8836 130.971 50.4018C127.872 42.9201 123.33 36.122 117.604 30.3957C111.877 24.6695 105.079 20.1271 97.5975 17.0281C90.1158 13.929 82.0969 12.334 73.9987 12.334Z" fill="#F1F1F1"/>
</svg>
