<svg width="148" height="148" viewBox="0 0 148 148" fill="none" xmlns="http://www.w3.org/2000/svg">
<path fill-rule="evenodd" clip-rule="evenodd" d="M112.888 87.3895C112.593 85.4746 110.984 84.2205 109.113 84.1358C108.436 84.105 107.748 84.1758 107.073 84.2618C106.257 84.3655 105.451 84.5492 104.638 84.6707C104.075 84.7547 103.505 84.7934 102.943 84.8511L102.929 84.7783C103.978 82.7977 105.071 80.8388 106.063 78.83C106.824 77.2892 107.475 75.6925 108.147 74.109C109.26 71.4853 110.15 68.7802 110.886 66.0312C111.591 63.399 112.195 60.7379 112.385 58.0072C112.461 56.9165 112.513 55.8213 112.507 54.7293C112.502 53.8584 112.408 52.9863 112.321 52.118C112.223 51.1232 111.922 50.1801 111.506 49.2725C110.957 48.0768 110.107 47.0957 109.212 46.1639C108.495 45.4177 107.707 44.7378 106.925 44.0586C105.811 43.0893 104.558 42.3156 103.257 41.6285C101.783 40.8453 100.221 40.2395 98.6041 39.8238C97.6243 39.5738 96.6222 39.3881 95.63 39.1899C95.273 39.1177 94.9153 38.9688 94.5583 38.9688H87.8377C87.5949 38.9688 87.354 39.0941 87.1092 39.1217C85.5001 39.3008 83.91 39.604 82.3659 40.0824C81.7884 40.2616 81.2607 40.1487 80.7121 40.0982C80.2915 40.0594 79.878 39.9466 79.4574 39.9256C77.8548 39.8455 76.2503 39.728 74.6484 39.7451C73.1134 39.7608 71.5942 40.0135 70.1084 40.4355C68.8648 40.7885 67.6482 41.2197 66.5338 41.8733C66.0568 42.1529 65.6788 42.1004 65.1853 41.958C63.5269 41.4796 61.8568 41.03 60.1722 40.6527C59.1222 40.4177 58.0426 40.3009 56.9703 40.1887C55.9414 40.0816 54.9084 40.0173 53.8741 39.9958C52.8648 39.9741 51.8483 39.9748 50.8436 40.064C49.2433 40.2034 47.6659 40.5368 46.1461 41.0569C44.463 41.6315 42.8903 42.4893 41.4959 43.5933C40.0738 44.7188 38.9333 46.093 38.0158 47.6621C37.0492 49.3178 36.3864 51.0903 35.9743 52.9521C35.7511 53.9608 35.61 54.9977 35.4571 56.0221C35.4092 56.341 35.9375 56.6599 35.2812 56.9776V61.4361C35.9375 61.7328 35.4177 62.0287 35.4558 62.326C35.547 63.0407 35.6277 63.7612 35.7485 64.4706C35.9395 65.5935 36.1659 66.713 36.3969 67.8287C36.7176 69.3879 37.0558 70.9436 37.4114 72.4953C37.6713 73.624 37.9673 74.7462 38.277 75.8625C38.7502 77.5674 39.2161 79.2756 39.751 80.9615C40.2477 82.528 40.8167 84.0722 41.3811 85.6163C42.1627 87.7524 43.0985 89.8196 44.2207 91.8008C45.1913 93.5162 46.3003 95.1228 47.7881 96.4444C48.7685 97.3153 49.8598 97.9847 51.1303 98.3193C52.1285 98.5818 53.1431 98.6133 54.1648 98.404C55.3288 98.1666 56.4162 97.6457 57.3306 96.8874C57.4376 96.7995 57.555 96.7325 57.6817 96.894C58.164 97.5049 58.8098 97.9125 59.4851 98.2649C61.3075 99.2151 63.2933 99.4999 65.3106 99.6161C65.7988 99.6443 66.2923 99.5741 66.7845 99.5603C67.7433 99.5341 68.6752 99.347 69.592 99.0819C70.0723 98.9428 70.5416 98.7663 71.0305 98.6015C71.0561 99.1219 71.0889 99.6233 71.104 100.125L71.1722 102.859C71.1847 103.275 71.2011 103.692 71.2398 104.106C71.3389 105.174 71.436 106.242 71.5633 107.307C71.6519 108.04 71.7438 108.78 71.9164 109.496C72.2618 110.941 72.7358 112.353 73.3326 113.714C73.9032 115.036 74.7806 116.202 75.892 117.117C77.3488 118.322 79.0564 118.836 80.9005 118.931C81.663 118.971 82.4472 118.933 83.198 118.797C84.3912 118.585 85.5715 118.306 86.7332 117.96C89.0898 117.249 91.1268 116.02 92.6487 114.035C93.5149 112.904 94.2263 111.68 94.683 110.329C95.0597 109.212 95.4147 108.085 95.6969 106.942C95.9201 106.042 96.0303 105.113 96.1662 104.194C96.2561 103.586 96.3099 102.972 96.3663 102.359C96.4582 101.363 96.552 100.368 96.6183 99.3707C96.6643 98.6763 96.6623 97.9788 96.6898 97.2831C96.6984 97.0712 96.7325 96.8605 96.7522 96.6492C96.7706 96.4536 96.869 96.386 97.0685 96.3893C97.7713 96.3998 98.4755 96.4182 99.1764 96.3867C99.9619 96.3513 100.755 96.3178 101.528 96.1878C102.629 96.0034 103.722 95.7698 104.802 95.4876C106.077 95.1543 107.247 94.5571 108.372 93.8765C109.684 93.0844 110.879 92.1552 111.849 90.9582C112.692 89.9141 113.092 88.7072 112.888 87.3895ZM110.649 88.0339C110.606 88.6344 110.331 89.1489 109.932 89.5886C108.049 91.6643 105.687 92.9237 102.985 93.5438C101.959 93.7788 100.9 93.9008 99.849 93.9979C98.9514 94.0771 98.0496 94.0983 97.1492 94.0616C96.489 94.0367 95.8341 93.8857 95.1595 93.7886C95.0919 94.4055 95.0276 95.0479 94.9495 95.6891L94.6351 98.1468C94.54 98.9257 94.4658 99.7073 94.368 100.486C94.2722 101.241 94.1528 101.994 94.0524 102.749C93.9585 103.453 93.8896 104.159 93.7853 104.861C93.6245 105.938 93.4709 107.017 93.2609 108.084C93.0089 109.361 92.6224 110.597 91.9918 111.748C91.2226 113.153 90.1319 114.224 88.744 115.016C87.3133 115.834 85.7495 116.259 84.164 116.615C83.0418 116.867 81.8855 116.908 80.7489 116.806C78.7775 116.627 77.0949 115.784 75.8231 114.256C74.609 112.797 73.7874 111.125 73.4934 109.232C73.3561 108.331 73.2486 107.426 73.1712 106.518C73.0841 105.509 73.0187 104.498 72.9749 103.486C72.9168 102.202 72.8737 100.918 72.8457 99.6332C72.8109 98.0542 72.7997 96.4753 72.7774 94.8963L72.7735 94.836C71.9702 95.3177 71.1808 95.8453 70.3434 96.2797C69.3647 96.7858 68.2935 97.0879 67.1947 97.1676C66.3298 97.2332 65.4537 97.293 64.5927 97.2241C63.1811 97.1105 61.7708 96.8894 60.5068 96.1944C59.9943 95.9122 59.4595 95.569 59.1064 95.1182C58.2598 94.038 58.6654 92.673 59.9418 92.0161C60.8238 91.5613 61.7865 91.3716 62.7427 91.1505C63.575 90.962 64.3985 90.7366 65.2108 90.4752C66.0128 90.2127 66.5188 89.5623 67.0182 88.9245L67.8096 87.9066C67.4795 87.8718 67.1684 87.8364 66.8574 87.8075C65.913 87.7183 65.012 87.4584 64.1503 87.0765C63.4127 86.7503 63.4016 86.7149 62.8608 87.3016C61.9578 88.282 61.0798 89.2854 60.1951 90.2823C59.5441 91.0153 58.8971 91.7529 58.2493 92.4879C57.6075 93.215 57.0064 93.9835 56.3154 94.6601C55.289 95.6648 54.052 96.2692 52.5761 96.201C51.6291 96.1577 50.7622 95.8256 49.9826 95.2829C48.3734 94.162 47.2893 92.5942 46.3023 90.9477C45.0377 88.8378 44.0671 86.5902 43.2363 84.2808C42.6614 82.6848 42.0839 81.0875 41.5819 79.4686C41.0366 77.7092 40.5582 75.9274 40.0876 74.1464C39.7361 72.8008 39.4118 71.4482 39.1151 70.0894C38.7689 68.5464 38.4486 66.9976 38.1543 65.4438C37.9588 64.3945 37.8452 63.3301 37.6871 62.2735C37.4738 60.8494 37.4344 59.4122 37.5118 57.9823C37.5808 56.6941 37.7658 55.4091 37.9496 54.1294C38.2042 52.3589 38.7876 50.6881 39.6269 49.1104C40.1408 48.1438 40.7787 47.2651 41.5163 46.4487C42.7271 45.1086 44.1925 44.14 45.8226 43.4129C46.9618 42.9049 48.1654 42.5991 49.3919 42.3603C51.2124 42.0059 53.0492 42.0197 54.8867 42.0577C55.69 42.0741 56.4899 42.2205 57.2925 42.2999C59.0204 42.4718 60.7142 42.8354 62.3863 43.2843C63.605 43.6111 64.7987 44.0343 66.0075 44.4018C66.1289 44.4386 66.3068 44.4353 66.4059 44.3703C68.0439 43.3013 69.8341 42.5958 71.7379 42.1923C72.4604 42.0393 73.2059 41.9724 73.9449 41.9252C74.8433 41.8681 75.7489 41.8156 76.6453 41.8674C77.7229 41.9291 78.7952 42.0879 79.8662 42.2349C80.386 42.3058 80.8932 42.4863 81.4143 42.5355C81.6637 42.5591 81.9282 42.3767 82.192 42.3156C83.5366 42.0052 84.8754 41.6594 86.2318 41.4139C87.2418 41.2315 88.2734 41.1455 89.3005 41.0865C90.4456 41.0208 91.5993 40.9729 92.7438 41.0281C94.193 41.1 95.6328 41.3027 97.0455 41.6338C98.8023 42.0426 100.488 42.6365 102.089 43.4608C103.286 44.0763 104.424 44.7903 105.449 45.6684C106.12 46.2446 106.807 46.8136 107.414 47.4554C108.162 48.2468 108.925 49.0389 109.394 50.0528C109.747 50.8173 109.999 51.6088 110.069 52.4462C110.155 53.487 110.26 54.5317 110.251 55.5738C110.241 56.5707 110.106 57.5669 110.009 58.5611C109.79 60.8278 109.297 63.0452 108.699 65.2332C108.198 67.0405 107.631 68.8289 107 70.5948C106.423 72.2229 105.757 73.8215 105.085 75.4136C104.589 76.5929 104.051 77.7537 103.472 78.8937C102.371 81.0501 101.227 83.1843 99.9028 85.2153C99.6745 85.5664 99.4579 85.9261 99.2348 86.2844C99.8123 86.6742 100.467 86.8113 101.125 86.8822C101.752 86.9505 102.391 86.9912 103.017 86.9446C104.02 86.8704 105.018 86.7273 106.014 86.5876C107.001 86.4497 107.969 86.1689 108.982 86.243C109.994 86.3165 110.718 87.0857 110.649 88.0339ZM96.2029 85.8335C95.7731 85.2783 95.3347 84.7297 94.914 84.168C94.2538 83.286 93.7794 82.3009 93.3029 81.3113C92.8514 80.3735 92.2976 79.4856 91.8218 78.5583C90.9916 76.9407 90.1464 75.3283 89.3818 73.6791C88.4204 71.6073 87.6625 69.4621 87.4236 67.1672C87.3225 66.1959 87.2969 65.226 87.4932 64.2639C87.8075 62.7276 88.6101 61.526 89.9593 60.7018C91.2108 59.9373 92.6053 59.6905 94.034 59.6131C94.9206 59.5652 95.8111 59.6045 96.7312 59.6045L96.7003 59.449C96.1281 58.2527 95.5932 57.036 94.9672 55.8678C94.0839 54.2193 92.9538 52.7329 91.6951 51.3548C90.7626 50.3343 89.7526 49.3874 88.6462 48.5507C87.5581 47.7271 86.4117 46.9914 85.1884 46.3896C83.7296 45.6723 82.2103 45.1178 80.6163 44.7641C79.0846 44.4242 77.5431 44.2161 75.972 44.1991C74.632 44.1846 73.3004 44.245 71.9952 44.5475C70.0251 45.0036 68.223 45.8147 66.6552 47.1286C65.7872 47.8553 65.012 48.6863 64.3472 49.6026C63.5623 50.6808 62.9291 51.845 62.3877 53.0657C61.6448 54.7404 61.1349 56.4834 60.7864 58.275C60.6118 59.1681 60.4753 60.0692 60.3362 60.9695C60.2877 61.2845 60.2837 61.6068 60.2555 61.9677C60.4977 61.8417 60.6722 61.7446 60.8507 61.6579L61.4315 61.3974C63.3957 60.499 65.4307 59.9208 67.618 59.9871C68.5472 60.0153 69.4364 60.1991 70.2627 60.606C71.8475 61.3876 72.7748 62.7165 73.1777 64.3984C73.456 65.5593 73.6463 66.7432 73.8313 67.9238C73.9764 68.8458 74.1247 69.7777 74.1418 70.7076C74.166 72.0667 74.0971 73.4284 74.023 74.7869C73.9592 75.942 73.7202 77.0807 73.3142 78.1639C72.5792 80.1281 71.7602 82.0601 70.995 84.0131C70.7424 84.6582 70.5481 85.3263 70.3092 86.0357C70.6781 86.0357 70.9773 86.033 71.2766 86.037C71.3934 86.0389 71.5128 86.0422 71.6257 86.0691C72.5051 86.2765 73.2676 86.6748 73.893 87.3514C74.7271 88.2518 75.1648 89.3025 75.1872 90.5185C75.1996 91.1925 75.1287 91.8684 75.132 92.5424C75.1458 95.6832 75.1694 98.824 75.1957 101.964C75.2003 102.477 75.2259 102.991 75.2626 103.504C75.3394 104.577 75.4168 105.65 75.5218 106.721C75.5953 107.48 75.6977 108.238 75.8178 108.992C75.9878 110.06 76.4741 111.011 77.026 111.92C77.5011 112.702 78.1186 113.366 78.9324 113.824C80.3151 114.602 81.8041 114.667 83.305 114.38C84.3189 114.187 85.3144 113.876 86.2988 113.555C87.2671 113.245 88.1511 112.716 88.8824 112.01C89.5722 111.341 90.0617 110.526 90.3918 109.627C91.0323 107.882 91.2318 106.044 91.4969 104.221C91.596 103.538 91.682 102.854 91.7726 102.17C91.8756 101.392 91.9799 100.614 92.0797 99.8366C92.1532 99.2571 92.2201 98.6763 92.291 98.0969C92.3921 97.2647 92.499 96.4333 92.5955 95.6005C92.6697 94.9567 92.7327 94.3103 92.7983 93.6652C92.8829 92.841 92.9742 92.0167 93.047 91.1912C93.1034 90.5644 93.0805 89.9266 93.1914 89.3117C93.3955 88.1842 93.9283 87.2248 94.9278 86.6046C95.3458 86.3454 95.8177 86.1748 96.2817 85.9556L96.2029 85.8335ZM58.4049 81.2057C57.9061 80.0336 57.6059 78.7868 57.5163 77.5162C57.4323 76.3186 57.5747 75.1255 57.6974 73.9331C57.8169 72.7781 57.916 71.6178 57.9507 70.4576C58.0085 68.5505 57.8799 66.6461 57.7887 64.7403C57.7335 63.6057 57.8654 62.4572 57.9665 61.32C58.0577 60.2956 58.1712 59.2685 58.3648 58.2592C58.6897 56.5654 59.1208 54.8959 59.7338 53.2776C60.3159 51.7433 60.9846 50.249 61.9289 48.9037C62.576 47.981 63.3103 47.1187 64.0158 46.217L63.8065 46.1429C61.5109 45.4138 59.1779 44.8442 56.7787 44.5954C55.644 44.478 54.5054 44.4091 53.3675 44.3415C53.0184 44.3205 52.664 44.3677 52.3136 44.4012C51.446 44.4839 50.5679 44.5167 49.7142 44.6794C48.2612 44.9557 46.8673 45.4203 45.5765 46.177C44.4176 46.8562 43.4443 47.7343 42.6293 48.7876C41.7289 49.9504 41.1232 51.2656 40.6881 52.668C40.1743 54.3224 39.9295 56.0247 39.8632 57.7427C39.8054 59.2488 39.7766 60.7635 40.0364 62.2637C40.23 63.3806 40.3593 64.5093 40.5726 65.6217C40.8633 67.1383 41.175 68.6516 41.5353 70.1524C42.0505 72.301 42.565 74.4528 43.1753 76.5752C43.7593 78.6089 44.4182 80.6242 45.1322 82.6153C45.7163 84.2402 46.3916 85.8348 47.1029 87.4085C47.5662 88.4336 48.1273 89.4199 48.7153 90.38C49.3408 91.3992 50.0521 92.3665 51.0175 93.1061C52.2355 94.0399 53.1785 94.185 54.4162 93.1606C54.9464 92.7215 55.3947 92.1795 55.856 91.663C56.589 90.8427 57.2965 90.0001 58.0262 89.1771C58.9555 88.1284 59.8965 87.0909 60.8304 86.0475C61.0279 85.827 61.2176 85.5999 61.4098 85.3768L61.0922 85.0979C59.939 83.9985 59.0242 82.6736 58.4049 81.2057ZM93.6376 49.9885C94.4008 50.8765 95.1253 51.7969 95.8092 52.7474C97.1217 54.5908 98.1703 56.5812 98.9428 58.7107C99.2847 59.6492 99.5577 60.5968 99.4356 61.6238C99.3509 62.3431 99.3582 63.0728 99.2945 63.796C99.2413 64.3978 99.1462 64.9963 99.0681 65.5961C98.9513 66.5004 98.782 67.4021 98.7314 68.3103C98.6835 69.1746 98.7334 70.0481 98.7879 70.9143C98.843 71.7944 98.9618 72.6705 99.0425 73.5492C99.1337 74.5454 99.2564 75.5416 99.2847 76.5397C99.3076 77.3594 99.2348 78.1843 99.1633 79.0026C99.0779 79.9883 98.8279 80.9425 98.4552 81.858C98.1933 82.5024 97.8803 83.1272 97.5843 83.7723L97.7031 83.8982L97.8836 84.038L98.0653 83.7125C99.5997 81.2962 100.964 78.776 102.149 76.1702C102.906 74.488 103.625 72.7887 104.306 71.0738C105.371 68.4068 106.215 65.665 106.867 62.8687C107.16 61.6133 107.383 60.3389 107.582 59.0644C107.737 58.0683 107.866 57.0602 107.895 56.0549C107.926 54.9885 107.867 53.9135 107.769 52.8498C107.695 52.0465 107.497 51.238 106.994 50.585C106.184 49.5337 105.311 48.5283 104.237 47.733C103.332 47.0629 102.431 46.3758 101.461 45.8121C99.9219 44.9196 98.2563 44.3251 96.5159 43.9202C94.8176 43.5244 93.0969 43.3538 91.365 43.3177C90.3439 43.2961 89.3182 43.4057 88.299 43.5015C87.3757 43.5881 86.4583 43.7357 85.5283 43.8578C86.5258 44.4189 87.5096 44.9177 88.4375 45.5057C90.3885 46.7414 92.1368 48.2284 93.6376 49.9885ZM68.29 84.5873C68.9206 82.5707 69.7797 80.6452 70.6118 78.708C71.2864 77.1369 71.6552 75.4818 71.7779 73.7822C71.839 72.9441 71.8219 72.0956 71.7806 71.2549C71.7392 70.3197 71.6533 69.387 71.5233 68.46C71.3488 67.2781 71.1499 66.0955 70.8703 64.9353C70.5672 63.6798 69.8026 62.8057 68.4928 62.4835C67.6948 62.2873 66.902 62.2952 66.0955 62.4225C64.1254 62.7329 62.322 63.4587 60.642 64.5218C60.3041 64.7357 60.1183 64.9083 60.1768 65.3933C60.3001 66.4203 60.327 67.4638 60.3224 68.5007C60.3159 69.968 60.2535 71.4354 60.1977 72.9021C60.1794 73.3799 60.1105 73.855 60.0593 74.3308C59.9805 75.0592 59.8289 75.787 59.8335 76.5141C59.8381 77.2636 59.9149 78.0307 60.0967 78.7565C60.6742 81.058 61.8974 82.9414 63.9023 84.2703C65.1354 85.0874 66.4997 85.4995 67.9973 85.5776C68.099 85.2337 68.1896 84.9089 68.29 84.5873ZM65.9367 64.8427C65.6728 64.2888 65.8238 63.8301 66.4354 63.6175C66.5844 63.565 66.7379 63.5092 66.8928 63.4941C67.1054 63.4731 67.322 63.4889 67.5373 63.4889C68.3129 63.4928 69.0591 63.6011 69.6996 64.0946C70.1104 64.4109 70.2207 64.8309 69.9549 65.2621C69.5775 65.8737 69.002 66.1808 68.2952 66.2399C67.1816 66.3324 66.4 65.8133 65.9367 64.8427ZM96.8067 64.6406C96.8959 63.903 96.9674 63.1634 97.0587 62.4257C97.0954 62.1291 96.9392 62.0491 96.6905 62.0418C95.9082 62.0202 95.126 61.9926 94.3438 61.9782C93.4618 61.9624 92.6034 62.1042 91.787 62.4395C90.8814 62.8123 90.1917 63.4095 89.9101 64.3952C89.7035 65.1219 89.6382 65.8816 89.7178 66.633C89.8266 67.795 90.0899 68.9373 90.5007 70.0297C91.0481 71.4873 91.621 72.9441 92.3054 74.3406C93.2327 76.2313 94.2821 78.0616 95.2671 79.9233C95.5302 80.4201 95.7514 80.9386 96.0257 81.5187C96.5785 80.3653 96.8806 79.1079 96.9123 77.8292C96.9392 76.7727 96.8546 75.7115 96.7929 74.6543C96.7542 74.0072 96.6629 73.3641 96.5999 72.7184C96.512 71.8187 96.3788 70.9196 96.3584 70.0179C96.3381 69.1011 96.4031 68.1791 96.4818 67.2636C96.556 66.3856 96.701 65.5147 96.8067 64.6406ZM95.042 63.9305C94.7513 64.7331 94.1298 65.1859 93.3239 65.3192C92.5725 65.4425 91.9143 65.1649 91.4248 64.5658C91.0763 64.1392 91.2095 63.6339 91.7319 63.3458C92.3317 63.0137 92.9912 62.9298 93.7689 62.8792C93.9802 62.9179 94.2985 62.9501 94.601 63.0367C95.04 63.1607 95.2021 63.4908 95.042 63.9305ZM71.7963 88.6449C71.3665 88.2938 70.7982 88.2735 70.3893 88.6587C69.882 89.1378 69.4358 89.6857 68.9895 90.2258C68.4744 90.8499 67.9914 91.4989 67.3266 91.9826C66.3593 92.6854 65.2318 92.9768 64.0985 93.2524C63.1975 93.4716 62.2925 93.6751 61.3888 93.8857L61.3777 94.0025C61.6461 94.1266 61.906 94.2814 62.1855 94.37C63.5637 94.8064 64.9654 95.0237 66.4216 94.9003C67.4729 94.811 68.4744 94.582 69.4233 94.1318C70.7293 93.513 71.734 92.5325 72.5884 91.392C72.7315 91.2017 72.7964 90.9201 72.8135 90.6747C72.8719 89.8078 72.4316 89.1633 71.7963 88.6449ZM105.758 88.9901C104.649 89.1089 103.538 89.2349 102.426 89.2985C101.889 89.3294 101.345 89.227 100.803 89.183C99.8937 89.1095 99.0064 88.9074 98.2379 88.4218C97.793 88.1416 97.4235 88.1101 96.951 88.2689C96.2764 88.4959 95.7258 88.8411 95.5631 89.5722C95.4522 90.0663 95.4121 90.5782 95.3675 91.0842C95.359 91.1734 95.4705 91.3375 95.5558 91.3598C96.0763 91.497 96.5993 91.6591 97.1315 91.707C97.7851 91.766 98.4506 91.747 99.1088 91.7142C99.8195 91.6788 100.535 91.6328 101.235 91.5147C102.885 91.2377 104.482 90.7862 105.9 89.8504C106.412 89.5125 106.918 89.1673 107.426 88.8254L107.384 88.7532C106.842 88.8339 106.303 88.9323 105.758 88.9901Z" fill="#202020"/>
</svg>
