<svg width="148" height="148" viewBox="0 0 148 148" fill="none" xmlns="http://www.w3.org/2000/svg">
<g clip-path="url(#clip0_8274_1880)">
<path d="M79.4059 91.1967V102.633C81.2659 103.586 83.4656 104.301 86.0052 104.778C88.5448 105.254 91.2214 105.492 94.0351 105.492C96.7773 105.492 99.3823 105.23 101.85 104.706C104.318 104.182 106.482 103.318 108.342 102.115C110.202 100.912 111.674 99.3392 112.759 97.3973C113.844 95.4559 114.387 93.0555 114.387 90.1963C114.387 88.1232 114.077 86.3065 113.457 84.746C112.843 83.1962 111.932 81.7818 110.774 80.5826C109.606 79.3675 108.205 78.2774 106.572 77.3123C104.938 76.3473 103.096 75.4361 101.045 74.5787C99.543 73.959 98.1958 73.3573 97.0035 72.7738C95.8113 72.1902 94.798 71.5945 93.9635 70.9867C93.1287 70.3794 92.4849 69.7361 92.0319 69.0568C91.5789 68.3774 91.3524 67.6091 91.3524 66.7517C91.3524 65.9655 91.555 65.2568 91.9603 64.6255C92.3658 63.9939 92.9381 63.4519 93.6774 62.9994C94.4166 62.547 95.3227 62.1955 96.3957 61.9448C97.4687 61.6947 98.6609 61.5697 99.9724 61.5697C100.926 61.5697 101.934 61.6412 102.995 61.7842C104.056 61.9269 105.123 62.1473 106.196 62.4454C107.266 62.7425 108.312 63.1188 109.326 63.5713C110.308 64.0068 111.248 64.5331 112.133 65.1435V54.4577C110.393 53.7906 108.491 53.2962 106.428 52.9746C104.366 52.653 101.999 52.4922 99.3285 52.4922C96.6103 52.4922 94.0351 52.7841 91.6029 53.3679C89.1707 53.9515 87.0306 54.8627 85.1825 56.1016C83.3347 57.341 81.8741 58.9195 80.8009 60.8372C79.7279 62.7551 79.1914 65.0484 79.1914 67.7169C79.1914 71.1238 80.1751 74.0305 82.1424 76.437C84.1098 78.8435 87.0963 80.8806 91.1019 82.5482C92.5808 83.1505 94.0475 83.7821 95.5013 84.4425C96.8606 85.0619 98.035 85.7051 99.0246 86.372C100.014 87.0389 100.795 87.7656 101.367 88.5521C101.94 89.3385 102.226 90.2321 102.226 91.2327C102.23 91.9529 102.045 92.6617 101.689 93.2877C101.332 93.919 100.789 94.4669 100.062 94.9315C99.3344 95.3961 98.4283 95.7594 97.3435 96.0213C96.2587 96.2833 94.9889 96.4144 93.5341 96.4147C91.0544 96.4147 88.5985 95.9798 86.1663 95.11C83.7341 94.2402 81.4806 92.9357 79.4059 91.1967ZM60.3441 62.7369H75.0508V53.3203H34.0586V62.7369H48.6936V104.664H60.3441V62.7369Z" fill="#202020"/>
</g>
<defs>
<clipPath id="clip0_8274_1880">
<rect width="106" height="106" fill="white" transform="translate(21 21)"/>
</clipPath>
</defs>
</svg>
