<svg width="370" height="344" viewBox="0 0 370 344" fill="none" xmlns="http://www.w3.org/2000/svg">
<path d="M114.744 167.076L114.309 166.653L114.074 167.237L58.9394 304.203L59.6422 304.889L153.621 205.802L154.022 205.379L153.588 204.956L114.744 167.076Z" stroke="#FABA0B"/>
<path d="M198.341 221.573C241.014 215.32 278.023 198.752 303.359 176.993C328.689 155.239 342.407 128.241 338.315 101.156C334.223 74.0719 313.118 52.1753 282.454 38.6258C251.783 25.0732 211.479 19.833 168.806 26.0855C126.134 32.338 89.1249 48.9062 63.7887 70.6651C38.4583 92.4191 24.7407 119.418 28.8327 146.502C32.9247 173.587 54.0295 195.483 84.6936 209.033C115.365 222.585 155.668 227.825 198.341 221.573Z" fill="#F1F1F1" stroke="#FABA0B"/>
<path d="M162.5 197C107.5 253.5 105.999 256.185 59.4993 304.5C92.2227 221.942 99.2762 208.962 104.5 184C108.464 163.793 120.532 150.335 137.369 155.812C154.206 161.29 166.464 176.793 162.5 197Z" fill="#F1F1F1"/>
</svg>
